<svg version="1.1" xmlns="http://www.w3.org/2000/svg" viewBox="0 0 308.15101884517753 220.3248790224784" width="308.15101884517753" height="220.3248790224784">
  <!-- svg-source:excalidraw -->

  <defs>
    <style class="style-fonts">
      @font-face {
      font-family: "Virgil";
      src: url("https://excalidraw.com/Virgil.woff2");
      }
      @font-face {
      font-family: "Cascadia";
      src: url("https://excalidraw.com/Cascadia.woff2");
      }
    </style>
  </defs>
  <rect x="0" y="0" width="308.15101884517753" height="220.3248790224784" fill="" fill-opacity="0"></rect><g stroke-linecap="round" transform="translate(200.15101884517753 114.3248790224784) rotate(0 49 48)"><path d="M3.28 9.48 C3.28 9.48, 3.28 9.48, 3.28 9.48 M3.28 9.48 C3.28 9.48, 3.28 9.48, 3.28 9.48 M3.68 15.12 C7.49 13.06, 9.44 9.76, 12.21 5.31 M3.68 15.12 C6.42 12.36, 9.13 9.13, 12.21 5.31 M0.79 24.54 C4.05 19.15, 8.68 15.83, 18.51 4.16 M0.79 24.54 C5.11 20.79, 7.46 15.64, 18.51 4.16 M0.53 30.94 C7.54 24.63, 12.07 16.56, 26.12 1.5 M0.53 30.94 C10.07 22.1, 16.97 10.96, 26.12 1.5 M0.93 36.58 C10.98 26.05, 21.86 12.97, 31.1 1.86 M0.93 36.58 C10.61 25.38, 22.01 13.06, 31.1 1.86 M0.66 42.98 C11.99 27.95, 23.03 16.7, 36.75 1.47 M0.66 42.98 C7.71 33.66, 15.92 25.84, 36.75 1.47 M0.4 49.38 C11.59 38.42, 22.52 24.03, 41.73 1.83 M0.4 49.38 C10.82 37.39, 21.32 26.15, 41.73 1.83 M0.8 55.02 C14.7 37.35, 29.12 19.6, 46.72 2.19 M0.8 55.02 C12.89 41.86, 24.83 27.5, 46.72 2.19 M0.54 61.42 C17.43 40.53, 38.36 18.85, 52.36 1.79 M0.54 61.42 C11.39 49.11, 22.35 36.99, 52.36 1.79 M0.93 67.06 C20.36 45.02, 38.9 25.16, 57.35 2.15 M0.93 67.06 C18.97 47.63, 34.49 28.33, 57.35 2.15 M1.33 72.7 C16.23 59.85, 27.61 41.8, 62.99 1.76 M1.33 72.7 C22.36 50.84, 42.53 27.04, 62.99 1.76 M2.38 77.59 C23.64 53.17, 46.57 28.3, 67.98 2.12 M2.38 77.59 C27.57 48.3, 52.49 21.03, 67.98 2.12 M3.43 82.48 C19.23 61.48, 37.6 42.39, 73.63 1.73 M3.43 82.48 C21.18 60.19, 40.18 38.12, 73.63 1.73 M4.48 87.37 C22.35 67.74, 38.55 51.57, 79.92 0.58 M4.48 87.37 C27.06 59.97, 51.3 33.62, 79.92 0.58 M7.5 89.99 C35.39 56.56, 65.17 24.08, 84.26 1.69 M7.5 89.99 C35.29 57.06, 64.01 25.57, 84.26 1.69 M9.86 93.37 C37.79 60.13, 67.34 27.27, 87.93 3.56 M9.86 93.37 C41.39 58.49, 71.85 24.3, 87.93 3.56 M14.19 94.49 C30.71 71.66, 51.8 50.36, 91.6 5.43 M14.19 94.49 C35.67 70.9, 56.91 47.13, 91.6 5.43 M18.52 95.6 C35.16 75.58, 52.64 55.9, 93.97 8.81 M18.52 95.6 C49.32 61.67, 79.42 26.67, 93.97 8.81 M23.51 95.96 C52.56 65.44, 78.66 31.99, 96.99 11.43 M23.51 95.96 C46.39 68.65, 68.91 43.75, 96.99 11.43 M29.15 95.57 C45.33 75.12, 64.46 58.85, 98.04 16.32 M29.15 95.57 C46.14 76.5, 62.17 57.82, 98.04 16.32 M34.14 95.93 C47.84 78.41, 59.69 64.71, 99.09 21.21 M34.14 95.93 C56.61 70.01, 78.14 46.08, 99.09 21.21 M39.78 95.53 C53.38 77.17, 72 59.73, 100.14 26.1 M39.78 95.53 C58.3 73.96, 74.85 54.09, 100.14 26.1 M44.77 95.89 C60.16 75.75, 78.08 56.39, 100.53 31.74 M44.77 95.89 C61.35 75.76, 77.26 57.51, 100.53 31.74 M49.76 96.25 C63.44 82.93, 75.48 67.79, 100.27 38.14 M49.76 96.25 C63.5 80.07, 75.57 66.28, 100.27 38.14 M55.4 95.86 C66.56 83.71, 75.98 71.67, 100.01 44.54 M55.4 95.86 C66.57 84.73, 75.46 73.08, 100.01 44.54 M60.39 96.22 C72.86 80.82, 88.98 66.17, 100.4 50.18 M60.39 96.22 C73.54 80.58, 86.18 66.5, 100.4 50.18 M66.03 95.82 C78.2 80.05, 93.79 64.69, 100.14 56.58 M66.03 95.82 C74.8 85.72, 83.4 76.49, 100.14 56.58 M71.02 96.18 C76.72 87.76, 87.87 80.8, 99.88 62.98 M71.02 96.18 C83.63 82.56, 94.87 69.81, 99.88 62.98 M75.35 97.3 C83.62 86.67, 94.3 77.31, 100.28 68.62 M75.35 97.3 C82.12 91.17, 87.54 82.86, 100.28 68.62 M82.3 95.39 C87.19 88.17, 90.47 84.57, 97.39 78.04 M82.3 95.39 C85.66 91.29, 89.02 86.6, 97.39 78.04 M9.49 92.73 C9.49 92.73, 9.49 92.73, 9.49 92.73 M9.49 92.73 C9.49 92.73, 9.49 92.73, 9.49 92.73 M18.91 95.61 C14.32 92.21, 9.91 89.2, 5.33 83.8 M18.91 95.61 C13.08 91.66, 8.21 86.57, 5.33 83.8 M24.55 95.22 C20.26 90.39, 12.61 87.08, 4.18 77.51 M24.55 95.22 C16.94 88.24, 9.54 82.74, 4.18 77.51 M30.95 95.48 C21.43 89.09, 13.69 77.93, 1.52 69.89 M30.95 95.48 C19.76 85.25, 7.85 75.47, 1.52 69.89 M37.35 95.74 C23.1 83.07, 11.77 74.39, 1.88 64.91 M37.35 95.74 C27.43 86.87, 18.23 78.65, 1.88 64.91 M42.99 95.35 C29.74 84.39, 17.48 74.93, 1.48 59.26 M42.99 95.35 C27.9 83.55, 13.64 71.05, 1.48 59.26 M49.39 95.61 C37.66 87.81, 28.02 80.18, 1.84 54.28 M49.39 95.61 C34.66 82.69, 21.84 72.33, 1.84 54.28 M55.79 95.87 C37.32 81.74, 18.94 62.17, 1.45 48.63 M55.79 95.87 C41.15 81.26, 26.82 68.54, 1.45 48.63 M61.43 95.48 C41.07 75.84, 19.39 57.72, 1.81 43.65 M61.43 95.48 C38.22 75.54, 15.35 56.28, 1.81 43.65 M67.83 95.74 C50.46 79.69, 33.67 67.92, 1.41 38 M67.83 95.74 C51.48 82.37, 34.82 66.9, 1.41 38 M74.23 96 C58.04 81.15, 41.23 65.79, 1.77 33.02 M74.23 96 C46.38 70.4, 17.2 47.52, 1.77 33.02 M79.11 94.95 C55.2 76.76, 35.85 55.04, 1.38 27.37 M79.11 94.95 C58.69 77.62, 37.77 58.34, 1.38 27.37 M84 93.9 C51.6 67.02, 19.8 41.28, 1.74 22.39 M84 93.9 C63.71 77.96, 44.93 59.49, 1.74 22.39 M88.89 92.85 C67.46 73.15, 45.44 55.82, 2.1 17.4 M88.89 92.85 C69.67 76.23, 52.5 59.95, 2.1 17.4 M91.52 89.83 C71.65 70.74, 54.02 54.77, 2.46 12.41 M91.52 89.83 C57.38 60.34, 22.91 29.22, 2.46 12.41 M94.14 86.81 C73.88 69.57, 57.07 53.59, 4.33 8.74 M94.14 86.81 C66.95 65.23, 41.63 41.82, 4.33 8.74 M96.76 83.79 C72.33 59.58, 43.21 38.44, 6.95 5.72 M96.76 83.79 C63.72 55.16, 31.89 28.69, 6.95 5.72 M98.63 80.12 C65.19 54.85, 37.05 25.04, 9.58 2.7 M98.63 80.12 C66.06 51.17, 32.86 22.57, 9.58 2.7 M99.75 75.78 C80.95 59.64, 59.32 40.88, 14.47 1.65 M99.75 75.78 C82.51 59.84, 63.36 44.54, 14.47 1.65 M99.35 70.14 C71.86 45.18, 43.32 19.88, 19.35 0.6 M99.35 70.14 C76.41 51.67, 54.95 33.57, 19.35 0.6 M99.71 65.15 C71.15 39.24, 44.99 17.07, 24.24 -0.45 M99.71 65.15 C79 47.82, 58.21 28.71, 24.24 -0.45 M99.32 59.51 C82.53 45.49, 69.9 30.86, 30.64 -0.19 M99.32 59.51 C79.87 41.56, 61.63 26.12, 30.64 -0.19 M99.68 54.52 C79.82 36.48, 59.13 21.35, 36.28 -0.58 M99.68 54.52 C85.76 41.64, 72.98 31.03, 36.28 -0.58 M99.28 48.88 C87.08 40.11, 73.71 26.22, 42.68 -0.32 M99.28 48.88 C78.03 32.01, 57.32 12.77, 42.68 -0.32 M99.64 43.89 C88.68 34.52, 75.08 24.24, 49.08 -0.06 M99.64 43.89 C81.98 28.67, 65.54 13.49, 49.08 -0.06 M100 38.91 C87.39 25.68, 70.65 13.99, 54.72 -0.46 M100 38.91 C88.81 27.95, 78.13 19.49, 54.72 -0.46 M99.61 33.26 C87.26 20.99, 72.57 10.99, 61.12 -0.2 M99.61 33.26 C87.11 23.37, 75.68 11.2, 61.12 -0.2 M99.97 28.28 C94.1 21.27, 83.56 13.43, 67.52 0.07 M99.97 28.28 C89.8 20.28, 79.26 10.36, 67.52 0.07 M99.58 22.63 C87.92 12.2, 79.29 5.35, 73.16 -0.33 M99.58 22.63 C92.16 15.36, 84.67 10.22, 73.16 -0.33 M97.67 15.68 C91.8 11.43, 86.91 6.94, 79.56 -0.07 M97.67 15.68 C93.6 12.06, 89.51 7.98, 79.56 -0.07" stroke="#fd7e14" stroke-width="0.5" fill="none"></path><path d="M24 0 M24 0 C44.56 1.12, 64.5 1.52, 74 0 M24 0 C38.27 -1.05, 51.72 -0.14, 74 0 M74 0 C89.19 -0.7, 96.19 9.54, 98 24 M74 0 C88.04 0.21, 97.87 6.32, 98 24 M98 24 C97.02 35.82, 98.04 47.71, 98 72 M98 24 C97.96 33.2, 97.64 43.23, 98 72 M98 72 C99 86.59, 89.55 94.7, 74 96 M98 72 C96.65 85.87, 88.97 94.11, 74 96 M74 96 C56.99 95.36, 44.14 94.74, 24 96 M74 96 C63.32 95.14, 51.64 95.63, 24 96 M24 96 C8.83 94.41, -0.03 89.53, 0 72 M24 96 C5.81 94.05, -0.75 88.31, 0 72 M0 72 C1.55 60.42, 0.17 46.87, 0 24 M0 72 C0.68 61.44, 0.41 51.85, 0 24 M0 24 C-1.48 8.98, 8.18 1.38, 24 0 M0 24 C1.95 9.29, 6.96 2.15, 24 0" stroke="#000000" stroke-width="1" fill="none"></path></g><g transform="translate(227.54044059898297 140.3786938523649) rotate(0 24 21)"><text x="24" y="33" font-family="Helvetica, Segoe UI Emoji" font-size="36px" fill="#000000" text-anchor="middle" style="white-space: pre;" direction="ltr">C8</text></g><g stroke-linecap="round"><g transform="translate(235.29446130716315 182.2400813409754) rotate(0 17.834595104831806 -1.7415300139332999)"><path d="M0.91 0.56 C6.66 0.19, 27.8 -1.45, 33.52 -2.08 M-0.07 -0.2 C6.14 -0.96, 29.92 -3.68, 35.74 -4.04" stroke="#000000" stroke-width="1" fill="none"></path></g></g><g stroke-linecap="round" transform="translate(35.519244464011535 113.64974779804129) rotate(0 49 48)"><path d="M3.28 9.48 C3.28 9.48, 3.28 9.48, 3.28 9.48 M3.28 9.48 C3.28 9.48, 3.28 9.48, 3.28 9.48 M3.68 15.12 C7.9 11.74, 8.62 6.87, 12.21 5.31 M3.68 15.12 C6.3 11.75, 8.85 9.33, 12.21 5.31 M0.79 24.54 C5.73 16.89, 12.11 14.31, 18.51 4.16 M0.79 24.54 C7 16.51, 13.84 9.02, 18.51 4.16 M0.53 30.94 C9.2 22.27, 14.98 12.69, 26.12 1.5 M0.53 30.94 C9.66 19.83, 20.31 6.77, 26.12 1.5 M0.93 36.58 C9.12 27.55, 17.84 16.56, 31.1 1.86 M0.93 36.58 C8.35 27.49, 16.81 17.87, 31.1 1.86 M0.66 42.98 C11.89 29.91, 22.7 20.84, 36.75 1.47 M0.66 42.98 C11.35 30.91, 20.9 19.98, 36.75 1.47 M0.4 49.38 C12.95 31.6, 29.79 16.8, 41.73 1.83 M0.4 49.38 C14.47 34.35, 26.62 18.56, 41.73 1.83 M0.8 55.02 C10.99 42.2, 22.76 28.6, 46.72 2.19 M0.8 55.02 C12.99 42.5, 24.7 28.75, 46.72 2.19 M0.54 61.42 C12.91 45.78, 23.63 33.43, 52.36 1.79 M0.54 61.42 C17.57 41.52, 34.62 21.15, 52.36 1.79 M0.93 67.06 C19.58 47.86, 32.87 27.2, 57.35 2.15 M0.93 67.06 C21.77 42.27, 42.76 18.09, 57.35 2.15 M1.33 72.7 C21.95 47.9, 44.92 20.43, 62.99 1.76 M1.33 72.7 C24.69 45.25, 48.06 17.15, 62.99 1.76 M2.38 77.59 C19.7 61.1, 34.67 40.96, 67.98 2.12 M2.38 77.59 C27.06 49.72, 50.66 23.45, 67.98 2.12 M3.43 82.48 C23.02 57.95, 46.21 36, 73.63 1.73 M3.43 82.48 C20.99 60.94, 40.06 40.16, 73.63 1.73 M4.48 87.37 C34.39 55.42, 61.52 22.18, 79.92 0.58 M4.48 87.37 C23.44 67.21, 40.78 45.48, 79.92 0.58 M7.5 89.99 C26.8 68.34, 46.81 45.85, 84.26 1.69 M7.5 89.99 C26.49 69.78, 42.82 48.54, 84.26 1.69 M9.86 93.37 C29.13 71.12, 50.31 44.46, 87.93 3.56 M9.86 93.37 C38.55 60.13, 65.86 29.08, 87.93 3.56 M14.19 94.49 C29.05 75.1, 44.92 56.27, 91.6 5.43 M14.19 94.49 C37.4 66.63, 60.66 41.13, 91.6 5.43 M18.52 95.6 C36.95 78.83, 51.44 57.74, 93.97 8.81 M18.52 95.6 C44.04 66.53, 69.07 36.84, 93.97 8.81 M23.51 95.96 C50.28 64.2, 78.89 32.56, 96.99 11.43 M23.51 95.96 C49.27 66.99, 72.62 39.26, 96.99 11.43 M29.15 95.57 C47.86 74.68, 61.81 55.25, 98.04 16.32 M29.15 95.57 C51.25 69.22, 74.95 44.76, 98.04 16.32 M34.14 95.93 C56.09 73.87, 74.6 49.88, 99.09 21.21 M34.14 95.93 C56.26 71.54, 76.14 48.52, 99.09 21.21 M39.78 95.53 C52.13 80.52, 63.48 68.13, 100.14 26.1 M39.78 95.53 C60.24 72.61, 80.89 49.49, 100.14 26.1 M44.77 95.89 C57.63 79.11, 74.67 64.7, 100.53 31.74 M44.77 95.89 C64.36 73.36, 82.73 51.41, 100.53 31.74 M49.76 96.25 C66.22 77.34, 79.25 61.34, 100.27 38.14 M49.76 96.25 C66.5 77.89, 82.84 60.37, 100.27 38.14 M55.4 95.86 C71.36 76.39, 84.54 59.61, 100.01 44.54 M55.4 95.86 C72.25 76.39, 89.27 56.02, 100.01 44.54 M60.39 96.22 C70.77 84.75, 80.22 74.52, 100.4 50.18 M60.39 96.22 C72.91 84.1, 82.8 70.91, 100.4 50.18 M66.03 95.82 C73.68 85.63, 83.4 78.16, 100.14 56.58 M66.03 95.82 C78.14 82.53, 88.78 70, 100.14 56.58 M71.02 96.18 C79.12 90.56, 81.65 79.9, 99.88 62.98 M71.02 96.18 C82.18 83.63, 93.96 70.45, 99.88 62.98 M75.35 97.3 C83.04 89.01, 87.51 82.48, 100.28 68.62 M75.35 97.3 C83.64 87.51, 93.05 77.76, 100.28 68.62 M82.3 95.39 C87.64 89.27, 91.15 84.73, 97.39 78.04 M82.3 95.39 C85.95 91.21, 91.11 86.25, 97.39 78.04 M9.49 92.73 C9.49 92.73, 9.49 92.73, 9.49 92.73 M9.49 92.73 C9.49 92.73, 9.49 92.73, 9.49 92.73 M18.91 95.61 C16.18 93.6, 10.91 89, 5.33 83.8 M18.91 95.61 C15.7 92.67, 12 90.62, 5.33 83.8 M24.55 95.22 C18.76 90.04, 11.52 81.74, 4.18 77.51 M24.55 95.22 C19.17 90.23, 12.57 85.07, 4.18 77.51 M30.95 95.48 C20.94 90.1, 14.47 82.56, 1.52 69.89 M30.95 95.48 C21.25 87.85, 12.99 78.43, 1.52 69.89 M37.35 95.74 C30.43 88.05, 21.72 83.38, 1.88 64.91 M37.35 95.74 C27.43 87.58, 19.94 79.93, 1.88 64.91 M42.99 95.35 C32.69 86.57, 21.48 77.49, 1.48 59.26 M42.99 95.35 C32.44 84.76, 20.29 76.11, 1.48 59.26 M49.39 95.61 C41.29 86.78, 30.7 79.58, 1.84 54.28 M49.39 95.61 C38.76 86.05, 26.61 75.72, 1.84 54.28 M55.79 95.87 C35.6 79.65, 16.92 62.05, 1.45 48.63 M55.79 95.87 C38.52 82.02, 21.07 66.45, 1.45 48.63 M61.43 95.48 C41.82 80.64, 24.64 63.42, 1.81 43.65 M61.43 95.48 C42.13 77.87, 21.71 60.65, 1.81 43.65 M67.83 95.74 C50.18 77.81, 31.36 63.33, 1.41 38 M67.83 95.74 C41.27 73.23, 15.04 51.76, 1.41 38 M74.23 96 C49.96 77.58, 25.5 55.13, 1.77 33.02 M74.23 96 C53.35 75.99, 29.34 57.41, 1.77 33.02 M79.11 94.95 C61.16 80.45, 45.68 67.24, 1.38 27.37 M79.11 94.95 C52.78 73.88, 28.96 51.65, 1.38 27.37 M84 93.9 C64.1 73.57, 40.34 57.17, 1.74 22.39 M84 93.9 C63.33 76.66, 43.35 60.41, 1.74 22.39 M88.89 92.85 C63.88 68.51, 38.52 46.06, 2.1 17.4 M88.89 92.85 C67.05 73.94, 44.6 55.72, 2.1 17.4 M91.52 89.83 C68.08 71.55, 44.87 47.78, 2.46 12.41 M91.52 89.83 C61.93 64.16, 34.27 39.67, 2.46 12.41 M94.14 86.81 C73.17 68.41, 53.56 49.71, 4.33 8.74 M94.14 86.81 C75.13 70.42, 56.9 54.22, 4.33 8.74 M96.76 83.79 C63.64 54.45, 27.66 23.26, 6.95 5.72 M96.76 83.79 C77.89 66.38, 57.19 48.78, 6.95 5.72 M98.63 80.12 C77.32 65.22, 57.09 45.47, 9.58 2.7 M98.63 80.12 C71.48 55.59, 43.48 31.32, 9.58 2.7 M99.75 75.78 C68.4 46.92, 36.76 21.66, 14.47 1.65 M99.75 75.78 C70.51 50.14, 40.02 24.6, 14.47 1.65 M99.35 70.14 C71.35 46.1, 44.86 24.06, 19.35 0.6 M99.35 70.14 C83.35 55.68, 65.68 39.95, 19.35 0.6 M99.71 65.15 C82.35 49.36, 65.61 35.51, 24.24 -0.45 M99.71 65.15 C71.99 41.43, 44.17 17.58, 24.24 -0.45 M99.32 59.51 C83.98 47.16, 71.8 33.7, 30.64 -0.19 M99.32 59.51 C83.67 45.6, 68.52 32.07, 30.64 -0.19 M99.68 54.52 C79.64 33.83, 56.62 14.68, 36.28 -0.58 M99.68 54.52 C84.28 39.76, 67.49 26.48, 36.28 -0.58 M99.28 48.88 C81.38 35.94, 65.44 22.21, 42.68 -0.32 M99.28 48.88 C86.33 37.24, 73.61 26.6, 42.68 -0.32 M99.64 43.89 C83.88 29.62, 66.9 12.44, 49.08 -0.06 M99.64 43.89 C84.14 31.12, 67.75 17.83, 49.08 -0.06 M100 38.91 C83.26 22.91, 65.29 7.68, 54.72 -0.46 M100 38.91 C87.83 28.38, 74.12 15.97, 54.72 -0.46 M99.61 33.26 C87.49 21.66, 73.51 9.76, 61.12 -0.2 M99.61 33.26 C86.94 22.75, 76.69 12.44, 61.12 -0.2 M99.97 28.28 C85.88 17.45, 75.52 4.77, 67.52 0.07 M99.97 28.28 C90.34 21.11, 82.02 11.88, 67.52 0.07 M99.58 22.63 C94.26 16.77, 88.55 11.05, 73.16 -0.33 M99.58 22.63 C91.8 15.36, 81.88 6.99, 73.16 -0.33 M97.67 15.68 C93.69 9.98, 88.21 5.94, 79.56 -0.07 M97.67 15.68 C91.54 11.59, 86.06 5.25, 79.56 -0.07" stroke="#fd7e14" stroke-width="0.5" fill="none"></path><path d="M24 0 M24 0 C42.29 -0.73, 57.12 1.4, 74 0 M24 0 C42 -0.54, 59.11 -1.04, 74 0 M74 0 C91.54 -1.71, 98.19 7.89, 98 24 M74 0 C88.32 -1.17, 96.01 7.1, 98 24 M98 24 C97.76 35.18, 99.48 49.73, 98 72 M98 24 C97.03 36.94, 96.94 48.65, 98 72 M98 72 C96.7 86.83, 88.14 95.11, 74 96 M98 72 C96.11 88.3, 89 98.09, 74 96 M74 96 C60.65 94.85, 49.08 95.4, 24 96 M74 96 C56.16 96.45, 37.77 96.02, 24 96 M24 96 C9.53 94.1, -1.7 87.35, 0 72 M24 96 C8.31 95.41, 1.57 90.19, 0 72 M0 72 C0.84 51.35, -1.36 32.79, 0 24 M0 72 C0.46 54.71, 0.65 38.98, 0 24 M0 24 C1.38 9.7, 9.12 -0.91, 24 0 M0 24 C2.15 8.01, 7.62 -0.35, 24 0" stroke="#000000" stroke-width="1" fill="none"></path></g><g transform="translate(62.90866621781697 139.7035626279278) rotate(0 24 21)"><text x="24" y="33" font-family="Helvetica, Segoe UI Emoji" font-size="36px" fill="#000000" text-anchor="middle" style="white-space: pre;" direction="ltr">C7</text></g><g stroke-linecap="round"><g transform="translate(70.66268692599715 181.56495011653737) rotate(0 17.449964096922486 -1.1331770696784815)"><path d="M0.32 0.74 C5.83 0.66, 27.81 -0.79, 33.6 -1.41 M-0.97 0.08 C4.87 -0.23, 29.94 -2.68, 35.87 -3.01" stroke="#000000" stroke-width="1" fill="none"></path></g></g><g stroke-linecap="round"><g transform="translate(147.82166618642987 160.68243596950947) rotate(0 23.046639190885344 0.12720365074716256)"><path d="M-0.19 1.36 C12.16 1.91, 27.71 1.35, 46.29 0.53 M0.38 0.27 C11.97 0.4, 23.81 0.53, 44.25 -1.32" stroke="#000000" stroke-width="1" fill="none"></path></g><g transform="translate(147.82166618642987 160.68243596950947) rotate(0 23.046639190885344 0.12720365074716256)"><path d="M23.52 9.24 C28.75 7.31, 37.15 4.44, 45.56 0.51 M24.1 8.15 C29.18 5.99, 34.46 4, 43.52 -1.34" stroke="#000000" stroke-width="1" fill="none"></path></g><g transform="translate(147.82166618642987 160.68243596950947) rotate(0 23.046639190885344 0.12720365074716256)"><path d="M22.41 -6.11 C27.95 -3.55, 36.67 -1.93, 45.56 0.51 M22.98 -7.2 C28.27 -5.23, 33.85 -3.1, 43.52 -1.34" stroke="#000000" stroke-width="1" fill="none"></path></g></g><g stroke-linecap="round"><g transform="translate(14.718803562741414 24.103864734082435) rotate(0 21.283630676139182 12.143731498685668)" fill-rule="evenodd"><path d="M0 0 C0 0, 0 0, 0 0 M0 0 C0 0, 0 0, 0 0 M3.82 6.15 C6.88 5.87, 7.41 2.41, 12.04 -0.51 M4.5 6.74 C5.77 4.52, 8.02 3.38, 11.78 -1.09 M-0.5 24.9 C4.69 17.19, 9.88 10.63, 22.33 -3.34 M-2.12 25.81 C7.53 17.01, 16.33 4.94, 22.95 -0.83 M6.76 27.9 C14.75 16.61, 22.65 9.03, 30.95 2.08 M8.87 27.8 C15.84 16.52, 25.27 6.36, 31.19 0.58 M15.41 31.53 C23.32 20.59, 30.95 13.96, 41.72 3.51 M17 29.72 C25.42 21.41, 32.08 10.66, 39.02 3.45 M27.5 31.99 C32.53 23.6, 35.97 19.16, 45.54 7.3 M27.79 30.4 C34.86 21.8, 41.66 12.72, 46.74 7.83" stroke="#82c91e" stroke-width="1" fill="none"></path><path d="M-0.03 0.97 C1.36 2.98, 8.64 8.75, 8.07 12.83 C7.5 16.92, -7.46 23.45, -3.46 25.47 C0.55 27.48, 23.67 26.94, 32.12 24.92 C40.57 22.89, 46.78 17.79, 47.25 13.33 C47.73 8.87, 43.03 0.31, 34.96 -1.83 C26.89 -3.96, 4.85 0.07, -1.15 0.53 M-1.5 0.43 C0.29 2.48, 10.78 9.9, 10.33 13.77 C9.88 17.65, -7.92 21.75, -4.21 23.69 C-0.51 25.64, 24.22 27.15, 32.56 25.44 C40.9 23.72, 45.3 17.58, 45.85 13.38 C46.4 9.19, 43.67 2.58, 35.84 0.26 C28.02 -2.06, 4.69 -0.67, -1.11 -0.53" stroke="#000000" stroke-width="2" fill="none"></path></g></g><g stroke-linecap="round"><g transform="translate(63.19615249241269 72.18094385027337) rotate(0 21.342450665135402 12.233242990234885)" fill-rule="evenodd"><path d="M0 0 C0 0, 0 0, 0 0 M0 0 C0 0, 0 0, 0 0 M5.54 6.8 C7.35 5.29, 9.19 2.37, 11.41 -1.73 M4.69 7.07 C7.68 3.6, 9.69 0.88, 11.3 -1.03 M-0.88 26.46 C6.27 17.95, 15.16 8.91, 21.29 -1.04 M-1.71 27.11 C5.6 16.73, 13.91 9.31, 22.74 -1.09 M9.34 27.46 C16.97 19.45, 23.35 12.34, 29.9 1.85 M8.67 26.1 C14.49 19.86, 19.68 13.62, 30.6 0.85 M16.73 29.81 C24.08 19.12, 35.17 9.24, 41.45 4.46 M17.04 29.92 C23.62 22.46, 31.03 13.55, 40.42 3.63 M28.34 28.7 C33.22 26.17, 37.42 18.83, 47.81 8.15 M26.43 29.89 C32.16 22.87, 37.84 16.88, 45.97 7.82" stroke="#82c91e" stroke-width="1" fill="none"></path><path d="M0.9 0.91 C2.36 3.07, 10.56 10.1, 9.66 13.84 C8.75 17.59, -8.39 21.19, -4.52 23.36 C-0.65 25.54, 24.18 28.47, 32.88 26.92 C41.59 25.37, 47.2 18.74, 47.73 14.06 C48.25 9.38, 44.05 1.29, 36.03 -1.16 C28 -3.61, 5.75 -0.88, -0.41 -0.64 M-0.09 0.34 C1.2 2.62, 9.44 11.35, 9.09 15.31 C8.74 19.28, -5.67 22.56, -2.17 24.15 C1.32 25.73, 21.94 26.44, 30.07 24.83 C38.19 23.22, 45.34 19.03, 46.57 14.49 C47.81 9.96, 45.23 -0.18, 37.47 -2.37 C29.71 -4.56, 6.07 0.92, 0.02 1.34" stroke="#000000" stroke-width="2" fill="none"></path></g></g><g stroke-linecap="round"><g transform="translate(100.34833393851113 12.324651520451084) rotate(0 22.207169833910484 12.72891485544261)" fill-rule="evenodd"><path d="M0 0 C0 0, 0 0, 0 0 M0 0 C0 0, 0 0, 0 0 M5.21 6.91 C6.08 3.88, 9.86 1.64, 11.89 -0.46 M5.03 6.44 C6.58 4.76, 9.02 1.53, 11.65 -1.2 M-1.3 27.82 C8.43 16.48, 16.02 6.67, 21.73 -2.38 M-0.91 26.45 C6.48 16.03, 17.16 5.29, 22.33 -0.67 M9.78 25.56 C13.21 17.87, 22.54 10.74, 32.96 1.73 M8.66 26.89 C16.8 17.99, 25.22 6.95, 30.87 0.1 M17.17 29.75 C22.27 23.31, 28.16 14.53, 40.78 4.18 M16.03 30.23 C25.84 18.78, 34.44 8.95, 39.92 3.03 M26.42 29.1 C31.87 23.46, 40.41 15.73, 47.56 7.81 M26.97 29.04 C33.08 23.08, 37.68 18.36, 46.02 7.94" stroke="#82c91e" stroke-width="1" fill="none"></path><path d="M0.95 0.98 C2.42 3.37, 9.53 10.71, 8.98 14.68 C8.43 18.66, -6.21 22.92, -2.34 24.84 C1.54 26.75, 24.16 27.79, 32.22 26.18 C40.27 24.57, 45.48 19.81, 46 15.17 C46.52 10.54, 43.01 0.77, 35.33 -1.63 C27.65 -4.03, 5.69 0.56, -0.08 0.76 M-0.01 0.44 C1.29 2.47, 8.47 9.22, 8.06 12.94 C7.64 16.65, -6.61 20.33, -2.51 22.73 C1.6 25.14, 24.36 29.07, 32.71 27.37 C41.06 25.67, 46.98 17, 47.6 12.53 C48.22 8.06, 44.26 2.68, 36.41 0.56 C28.56 -1.56, 6.58 0.08, 0.52 -0.19" stroke="#000000" stroke-width="2" fill="none"></path></g></g><g stroke-linecap="round"><g transform="translate(196.433268556656 70.56375545334697) rotate(0 21.12275996356493 12.393825057558786)" fill-rule="evenodd"><path d="M0 0 C0 0, 0 0, 0 0 M0 0 C0 0, 0 0, 0 0 M5.45 5.93 C7.63 3.19, 8.92 1.43, 12.02 -0.1 M4.52 6.56 C6.96 4.45, 8.88 2.8, 11.34 -1.24 M-2.19 28.17 C5.57 18.24, 14.83 9.82, 21.06 -2.99 M-0.84 26.89 C4.16 19.82, 9.31 14.7, 22.4 -1.84 M7.53 25.97 C17.05 16.28, 25.48 6.91, 30.94 0.11 M8.72 27.71 C16.83 18.36, 23.47 9.53, 31.41 1.08 M16.33 30.36 C22.31 22.75, 27.69 17.64, 38.98 0.98 M16.76 30.27 C24.59 19.98, 33.49 10.27, 38.92 3.64 M25.77 31.15 C32.86 26.56, 34.36 18.22, 46.83 8.33 M26.25 30.37 C33.96 21.11, 40.87 13.6, 47 6.55" stroke="#fd7e14" stroke-width="1" fill="none"></path><path d="M0.28 0.02 C1.74 2.51, 9.02 10.26, 8.35 14.14 C7.67 18.01, -7.75 21.29, -3.77 23.29 C0.21 25.28, 23.73 27.64, 32.25 26.1 C40.76 24.56, 46.52 18.56, 47.3 14.06 C48.08 9.55, 44.92 1.38, 36.91 -0.91 C28.9 -3.2, 5.37 0.27, -0.77 0.32 M-1.03 -1.01 C0.87 1.76, 11.36 11.59, 10.75 15.76 C10.14 19.93, -8.36 22.11, -4.69 24.03 C-1.02 25.94, 24.32 28.83, 32.75 27.24 C41.19 25.65, 45.52 19.36, 45.92 14.49 C46.32 9.62, 42.9 0.56, 35.15 -1.99 C27.41 -4.55, 5.48 -0.99, -0.53 -0.85" stroke="#000000" stroke-width="2" fill="none"></path></g></g><g stroke-linecap="round"><g transform="translate(250.14993547564063 24.458618443609907) rotate(0 21.404343433385748 12.931306693618922)" fill-rule="evenodd"><path d="M0 0 C0 0, 0 0, 0 0 M0 0 C0 0, 0 0, 0 0 M4.95 6.64 C6.7 3.54, 10.29 0.86, 12.06 0 M5.11 6.69 C6.71 4.85, 8.78 2.27, 11.55 -0.41 M-0.27 25.03 C5.67 21.36, 10.91 12.82, 23.8 -0.8 M-2.18 26.22 C4.86 17.66, 11.84 10.18, 21.95 -1.13 M7.13 26.34 C15.78 20.76, 23.15 11.72, 31.13 0.16 M8.18 26.92 C15.49 19, 23.17 9.77, 31.73 0.41 M16.22 31.29 C23.51 23.42, 28.04 15.93, 40.05 3.01 M16.24 30.82 C20.28 25.28, 26.35 20.16, 39.12 2.24 M27.17 31.95 C31.63 23.58, 39.74 13.91, 47.56 5.98 M27.47 29.83 C32.93 22.75, 40.92 13.63, 46.32 7.49" stroke="#fd7e14" stroke-width="1" fill="none"></path><path d="M0.08 0.94 C1.54 3.11, 9.38 9.28, 8.84 13.21 C8.31 17.13, -6.87 22.28, -3.15 24.49 C0.58 26.69, 22.82 28.05, 31.2 26.45 C39.57 24.85, 46.38 19.62, 47.11 14.89 C47.85 10.16, 43.34 0.5, 35.59 -1.93 C27.84 -4.35, 6.52 -0.09, 0.62 0.33 M-1.33 0.39 C-0.04 2.69, 8.25 10.1, 7.85 14.34 C7.45 18.58, -7.63 23.62, -3.74 25.86 C0.14 28.1, 22.92 29.46, 31.15 27.78 C39.38 26.1, 44.69 20.37, 45.63 15.76 C46.58 11.15, 44.15 2.88, 36.81 0.11 C29.46 -2.65, 7.84 -0.92, 1.59 -0.85" stroke="#000000" stroke-width="2" fill="none"></path></g></g></svg>