<svg version="1.1" xmlns="http://www.w3.org/2000/svg" viewBox="0 0 385.40952769807564 372.80841064453125" width="385.40952769807564" height="372.80841064453125">
  <!-- svg-source:excalidraw -->
  
  <defs>
    <style class="style-fonts">
      @font-face {
        font-family: "Virgil";
        src: url("https://excalidraw.com/Virgil.woff2");
      }
      @font-face {
        font-family: "Cascadia";
        src: url("https://excalidraw.com/Cascadia.woff2");
      }
    </style>
  </defs>
  <rect x="0" y="0" width="385.40952769807564" height="372.80841064453125" fill="#ffffff"></rect><g stroke-linecap="round"><g transform="translate(46.55042201444303 148.91665042307426) rotate(2.1519794875538243 14.907415553157307 58.29345563112341)" fill-rule="evenodd"><path d="M0 0 C0 0, 0 0, 0 0 M0 0 C0 0, 0 0, 0 0 M-4.17 12.99 C-2.31 9.7, 1.73 5.05, 5.73 -0.64 M-4.56 11.51 C-2.67 7.66, 0.32 5.14, 4.99 -0.32 M-8.79 25.96 C-0.39 12.9, 6.01 5.82, 10.24 -1.3 M-10.12 23.39 C-3.68 17.31, 1.25 9.85, 11.03 0.3 M-13.4 36.28 C-5.36 25.08, 5.4 13.99, 15.42 -1.45 M-15.07 36.31 C-9 26.62, -1.03 18.52, 15.87 -0.1 M-21.82 46.7 C-7.47 36.05, 4.43 21.05, 19.59 -1.09 M-20.78 47.7 C-7.88 33.37, 5.05 18.78, 21.39 0.76 M-26.14 57.4 C-14.87 47.12, -2.58 31.59, 25.73 0.34 M-24.03 59.34 C-15.13 47.62, -4.47 34.85, 24.85 0.47 M-26.46 65.81 C-10.18 47.14, 8.14 28.04, 31.78 2.71 M-27.09 67.15 C-5 43.82, 14.81 19.09, 30.73 3.02 M-27.84 77.17 C-9.27 54.15, 11.1 28.58, 33.36 1.6 M-28.9 75.94 C-13.92 59.73, -1.46 44.98, 35.22 3.51 M-30.37 84.72 C-16.08 66.98, 0.83 47.56, 37.39 7.42 M-29.43 83.88 C-12.69 61.65, 6.57 41.13, 37.56 5.42 M-32.83 94.71 C-12.49 66.74, 11.91 44.34, 40.76 9.77 M-33.57 93.75 C-17.04 74.98, -2.57 56.87, 40.54 7.3 M-34.09 97.87 C-8.02 72.24, 13.58 46.25, 44.7 12.33 M-32.74 98.65 C-5.15 66.76, 22.8 35.6, 42.51 11.89 M-31.28 102.5 C-9.96 81.13, 9.21 57.81, 47.44 15.01 M-31.37 103.38 C-3.89 71.52, 23.91 39.06, 45.86 14.47 M-27.21 103.65 C-2.06 78.47, 20.13 49.89, 49.12 17.75 M-28.56 105.81 C-11.31 87.17, 3.92 69.22, 47.67 17 M-23.4 109.12 C-1.11 78.39, 23.03 50.82, 49.97 22.25 M-25.33 107.19 C4.57 73.48, 33.5 39.02, 49.62 22.02 M-22.7 109.51 C1.12 81.66, 26.75 53.04, 49.11 24.98 M-21.5 110.39 C3.53 80.17, 27.74 52.91, 50.58 25.95 M-19.03 112.39 C0.49 89.78, 20.29 71.01, 50.7 30.92 M-17.69 112.39 C0.57 89.9, 19.42 68.43, 52.46 31.07 M-13.89 114.64 C10.46 86.27, 34.55 57.32, 54.18 35.81 M-14.1 112.79 C5.96 90.08, 25.73 68.26, 54.22 36.04 M-10.92 112.86 C15.1 82.92, 42.38 55.06, 53.72 38.43 M-9.27 114.55 C8.01 94.51, 26.88 75.06, 55.08 40.38 M-3.68 115.46 C12.51 96.25, 31.49 72.79, 57.68 44.79 M-4.14 114.25 C15.92 90.63, 38.44 64.15, 57.74 44.97 M1.21 117.83 C17.2 95.47, 37.94 72.87, 57.53 47.95 M0.55 115.6 C18.17 94.24, 38.33 70.9, 57.01 50.08 M5.46 116.4 C23.93 92.43, 47.83 69.96, 58.62 52.47 M5.43 115.67 C18.8 101.97, 30.39 85.32, 60.37 54.06 M8.09 116.36 C29.6 92.94, 49.75 72.34, 61.05 58.17 M9.2 116.88 C26.38 97.04, 44.14 76.78, 60.56 57.41 M14.11 118.4 C28.69 97.57, 44.25 83.75, 63.16 60.4 M15.08 116.04 C25.88 103.73, 39.16 89.53, 62.84 63.25 M20.85 116.99 C37.93 98.16, 53.82 77.89, 64.33 67.01 M20.88 116.82 C36.52 98.39, 53.42 79.35, 63.53 66.53 M23.32 118.37 C39.22 99.25, 56.25 82.34, 63.87 71.89 M26.11 118.01 C34.43 106.46, 43.92 95.54, 64.66 71.86 M29.09 118.03 C40.86 105.64, 54.66 91.89, 65.78 77.66 M30.64 117.25 C40.62 105.89, 50.77 93.31, 64.48 78.43 M37.14 117.74 C43.32 106.15, 55.11 94.77, 64.34 82.73 M35.24 116.32 C45.42 106.25, 53.19 96.52, 66.77 83.33 M42.7 116.77 C50.67 109.4, 53.14 101.59, 66.91 90.28 M42.21 114.6 C51.65 105.08, 60.46 94.71, 65.43 88.75 M48.73 112.68 C51.09 111.26, 55.82 106.34, 66.7 94.99 M50.62 114.1 C53.21 108.79, 56.54 104.84, 64.97 94.99 M-26.05 107.7 C-26.05 107.7, -26.05 107.7, -26.05 107.7 M-26.05 107.7 C-26.05 107.7, -26.05 107.7, -26.05 107.7 M-13.73 112.59 C-17.54 107.3, -21.68 105.58, -28.5 98.82 M-14.19 111.33 C-20.28 107.85, -24.31 103.44, -30.08 97.9 M-7.72 112.52 C-14.69 108.35, -21.53 103.03, -33.22 92.76 M-7.83 113.92 C-17.04 103.77, -27.52 95.6, -32.18 91.89 M-2.25 114.36 C-9.23 106.92, -14.89 100.35, -31 87.05 M-1.41 113.1 C-13.04 102.9, -24.71 93.3, -31.69 87.39 M3.67 113.02 C-2.83 103.59, -12.69 95.34, -31.05 80.66 M5.52 113.79 C-8.42 102.8, -19.79 92.04, -30.4 81.77 M12.24 113.17 C-1.62 103.98, -15.7 91.67, -30.57 77.36 M12.14 114.43 C3.72 105.94, -6.74 98.67, -28.8 77.3 M17.88 112.94 C6.29 103.34, -1.71 94.02, -29 72.97 M19.16 115.11 C0.38 99.62, -17.49 84.15, -28.62 74.59 M24.75 114.51 C4.94 97.3, -13 80.57, -27.34 69.13 M24.02 114.27 C12.98 104.14, 0.02 92.84, -28.34 68.75 M30.76 113.25 C6.96 95.86, -16.54 73.65, -27.55 66.48 M28.67 114.15 C17.03 101.97, 2.43 88.37, -26.92 64.69 M34.29 112.84 C15.31 93.01, -7.06 74.38, -26.91 59.86 M36.09 114.14 C22.02 102.57, 8.6 90.14, -24.33 60.66 M42.48 115.15 C25.1 98.28, 7.7 81.5, -23.68 57.48 M42.27 114.96 C20.73 93.61, -2.6 74.02, -23.52 57.58 M44.89 111.47 C24.21 93.85, 0.04 73.86, -22.91 52.06 M45.66 112.07 C23.45 91.74, 0.53 70.23, -22.45 52.53 M52.63 112.83 C23.73 88.67, -3.09 65.03, -20.64 49.28 M52.03 112.27 C33.79 96.32, 15.27 79.6, -20.54 49.4 M53.53 108.03 C34.5 91.26, 12.41 74.2, -18.95 46.41 M55.36 110.01 C26.64 83.81, 0.62 61.22, -17.98 45.72 M59.38 106.66 C41.38 93.55, 26.33 77.88, -18.17 40.71 M58.92 106.6 C34.46 85.69, 11.29 65.51, -18.2 41.41 M62.23 105.02 C46.45 90.14, 31.45 76.53, -17.15 37.92 M61.22 104.42 C40.99 86.69, 21.95 68.71, -16.35 37.48 M63.85 100.6 C39.84 80.38, 18.63 60.23, -12.25 34.85 M63.27 101.66 C43.15 83.17, 21.37 62.92, -12.59 34.8 M65.75 98.54 C35.32 72.3, 10.37 49.68, -12.86 28.45 M64.37 96.99 C37.96 74.31, 12.55 51.07, -11.82 29.56 M64.68 92.88 C39.08 69.99, 8.65 43.98, -9.37 25.06 M65.3 91.09 C45.01 74.48, 22.01 54.79, -9.94 26.63 M63.35 85.63 C35.23 61.57, 6.33 35.67, -8.7 21.48 M64.85 85.95 C37.81 63.6, 12.66 39.11, -9.57 22.97 M64.99 78.65 C48.95 68.42, 36.95 54.17, -5.27 19.58 M64.08 81.04 C47.76 66.51, 30.61 51.51, -7.35 18.46 M65.05 74.16 C39.68 52.95, 15.01 31.15, -5.29 14.72 M63.81 74.01 C36.72 51.52, 8.71 25.81, -6.39 14.57 M64.2 69.25 C41.66 49.16, 16.74 29.59, -2.95 12.27 M63.35 67.49 C44.62 55.15, 28.4 40.77, -2.79 11.12 M63.11 62.98 C42.82 44.02, 20.55 27.17, -3.48 6.13 M61.03 62.47 C36.95 40.8, 13.09 21.79, -0.92 7.07 M63.2 58.27 C37.44 36.37, 13.99 14.97, 0.62 3.22 M62.71 58.33 C48.24 46.1, 34.46 34.39, 0.12 3.26 M58.31 51.82 C37.04 30.33, 17.04 12.52, 1.36 -0.05 M59.18 49.13 C37.45 31.27, 16.6 12.29, 2.02 -0.9 M58.34 40.38 C43.61 29.1, 26.79 14.45, 8.73 0.7 M57.58 42.08 C46.08 32, 34.84 22.57, 8.46 -0.64 M53.89 36.08 C39.73 20.23, 21.6 8.44, 12.92 -1.5 M55.76 35.12 C42.76 25.55, 31.88 15.23, 13.1 -0.97 M54.54 29.62 C43.16 18.39, 31.1 8.72, 18.38 -0.03 M52.34 28.33 C41.62 17.44, 29.84 9.65, 19.38 0.52 M49.36 19.34 C40.63 15.4, 35.11 6.53, 27.55 3.25 M48.92 19.33 C42.59 13.36, 35.46 7.64, 27.99 1.93" stroke="#fd7e14" stroke-width="0.5" fill="none"></path><path d="M0.02 1.11 C-5.43 18.05, -43.7 83.34, -33.56 100.93 C-23.43 118.51, 47.91 121.5, 60.81 106.63 C73.72 91.76, 54.19 29.33, 43.87 11.71 C33.55 -5.91, 6.33 2.9, -1.1 0.89" stroke="#000000" stroke-width="1.5" fill="none" stroke-dasharray="8 9"></path></g></g><mask></mask><g stroke-linecap="round"><g transform="translate(42.04013661347767 264.892333984375) rotate(0 -0.8693288058680082 44.51266744106539)"><path d="M-0.14 -1.18 C2.83 6.06, 20.18 28.87, 17.09 43.94 C13.99 59, -12.59 81.69, -18.73 89.23 M-1.67 0.82 C1.18 7.66, 18.88 27.26, 15.96 42.16 C13.04 57.05, -13.24 82.24, -19.19 90.2" stroke="#495057" stroke-width="1" fill="none"></path></g></g><mask></mask><g stroke-linecap="round"><g transform="translate(90.05185536347767 262.1773681640625) rotate(0 6.259431641079459 46.9758114725351)"><path d="M0.92 -0.87 C3.12 6.32, 11.41 26.05, 12.44 42 C13.47 57.95, 8.24 86.37, 7.11 94.83 M-0.05 1.28 C2.03 8.73, 10.24 27.97, 11.39 43.25 C12.53 58.53, 7.78 84.63, 6.81 92.96" stroke="#495057" stroke-width="1" fill="none"></path></g></g><mask></mask><g stroke-linecap="round" transform="translate(19.26291493379017 57.735748291015625) rotate(0 49.998779296875 44.29557800292969)"><path d="M41.41 0.36 C49.55 -1.56, 59.4 1.07, 67.71 3.99 C76.01 6.91, 85.96 11.37, 91.23 17.85 C96.49 24.33, 98.81 34.59, 99.29 42.86 C99.76 51.13, 98.32 60.65, 94.06 67.48 C89.8 74.31, 82.07 80.43, 73.75 83.85 C65.43 87.26, 53.29 88.75, 44.14 87.98 C34.99 87.22, 25.75 84.15, 18.85 79.26 C11.94 74.37, 5.6 66.27, 2.7 58.63 C-0.21 50.99, -0.84 41.02, 1.41 33.42 C3.65 25.83, 8.35 18.72, 16.16 13.07 C23.97 7.42, 41.45 1.55, 48.28 -0.47 C55.1 -2.49, 56.8 0, 57.11 0.96 M33.66 3.03 C42.05 0.07, 55.72 0.33, 64.46 2.21 C73.21 4.1, 80.32 8.29, 86.15 14.35 C91.99 20.41, 98.08 30.44, 99.48 38.58 C100.87 46.72, 98.01 56.24, 94.52 63.18 C91.03 70.11, 85.75 76, 78.54 80.19 C71.32 84.39, 60.39 87.83, 51.22 88.35 C42.04 88.87, 31.12 87.23, 23.5 83.3 C15.88 79.38, 9.35 72.12, 5.48 64.8 C1.61 57.48, -0.61 47.54, 0.29 39.37 C1.18 31.21, 4.88 21.87, 10.83 15.83 C16.78 9.79, 32.04 5.15, 35.97 3.14 C39.9 1.14, 34.33 3.16, 34.4 3.8" stroke="#343a40" stroke-width="1" fill="none"></path></g><g stroke-linecap="round"><g transform="translate(64.19711903535267 116.71345520019531) rotate(0 25.379599417005693 4.182591406926036)"><path d="M0.17 -1.03 C2.61 1.33, 8.25 11.72, 15.13 13.3 C22.01 14.88, 35.32 11.56, 41.45 8.46 C47.59 5.35, 50.24 -3.35, 51.96 -5.34 M-1.2 1.04 C1.11 3.17, 7.59 10.83, 14.57 11.75 C21.56 12.67, 34.93 9.33, 40.69 6.57 C46.45 3.81, 47.45 -3.27, 49.13 -4.81" stroke="#495057" stroke-width="1" fill="none"></path></g></g><mask></mask><g stroke-linecap="round"><g transform="translate(80.68881825410267 89.11456298828125) rotate(0 0.9174458732994708 6.037016468783833)"><path d="M0.2 -0.36 C0.78 0.78, 3.07 4.26, 2.99 6.44 C2.91 8.62, 0.08 11.36, -0.28 12.7 M-1.16 -1.6 C-0.61 -0.27, 2.51 5.06, 2.53 7.61 C2.55 10.15, -0.29 12.86, -1.04 13.67" stroke="#495057" stroke-width="1" fill="none"></path></g></g><mask></mask><g stroke-linecap="round"><g transform="translate(102.95618683392809 86.64019910738807) rotate(0 0.5803927068350276 7.087501666466721)"><path d="M-0.82 0.86 C-0.36 1.91, 1.66 5.04, 1.93 7.22 C2.21 9.39, 1.14 12.78, 0.82 13.9 M0.95 0.27 C1.31 1.45, 0.97 6.86, 0.92 8.79 C0.87 10.72, 0.71 11.36, 0.63 11.85" stroke="#495057" stroke-width="1" fill="none"></path></g></g><mask></mask><g stroke-linecap="round"><g transform="translate(68.61020497285267 113.8494262695313) rotate(0 -4.875727539653894 1.4987160066868341)"><path d="M0.77 1.08 C-0.67 1.32, -8.11 2.18, -9.73 2.51 M-0.29 0.6 C-1.76 0.97, -9.05 0.41, -10.52 0.5" stroke="#495057" stroke-width="1" fill="none"></path></g></g><mask></mask><g stroke-linecap="round"><g transform="translate(112.25827626191517 112.506103515625) rotate(0 2.293449029326439 0.7585286970389973)"><path d="M-0.63 -0.93 C0.19 -0.69, 4.37 0.61, 5.22 0.82 M1.24 1.19 C1.97 1.71, 4.39 2.4, 4.83 2.45" stroke="#495057" stroke-width="1" fill="none"></path></g></g><mask></mask><g stroke-linecap="round"><g transform="translate(20.50437001191517 67.7950439453125) rotate(0 7.374144211411476 3.3377616971731072)"><path d="M-1.03 -0.63 C1.53 0.61, 13.27 6.14, 15.78 7.31 M0.63 1.65 C3.06 2.61, 12.59 4.76, 15.21 5.79" stroke="#495057" stroke-width="1" fill="none"></path></g></g><mask></mask><g stroke-linecap="round"><g transform="translate(37.64621571504017 51.326629638671875) rotate(0 6.464558349261097 7.075526643535142)"><path d="M1.09 0.95 C2.67 3.21, 8.66 10.48, 10.44 12.53 M0.21 0.4 C2.07 2.91, 10.89 11.39, 12.72 13.75" stroke="#495057" stroke-width="1" fill="none"></path></g></g><mask></mask><g stroke-linecap="round"><g transform="translate(74.58493641816517 39.9307861328125) rotate(0 0.3804052217398066 11.397195252776157)"><path d="M-0.21 -0.75 C-0.25 3.23, 0.12 19.55, 0.44 23.54 M-1.78 1.47 C-1.54 5.15, 2.07 18.61, 2.54 21.89" stroke="#495057" stroke-width="1" fill="none"></path></g></g><mask></mask><g stroke-linecap="round"><g transform="translate(97.49692372285267 43.226226806640625) rotate(0 -3.831306438515867 9.79428018629551)"><path d="M0.51 -0.74 C-0.69 2.57, -6.21 16.86, -7.53 20.33 M-0.68 1.49 C-1.96 4.38, -6.98 15.09, -8.17 18.41" stroke="#495057" stroke-width="1" fill="none"></path></g></g><mask></mask><g stroke-linecap="round"><g transform="translate(55.63055658705048 45.60359820425509) rotate(0 4.440271580298372 9.638350620865822)"><path d="M0.57 -1.14 C2.18 2.33, 8.04 16.88, 9.47 20.42 M-0.59 0.87 C0.98 4.03, 7.55 15.8, 9.11 18.65" stroke="#495057" stroke-width="1" fill="none"></path></g></g><mask></mask><g stroke-linecap="round"><g transform="translate(111.04759051293081 49.99125753343105) rotate(0 -7.386313941548565 9.754154836530802)"><path d="M0.45 0.69 C-2.06 4.11, -11.83 16.6, -14.16 19.49 M-0.78 0.01 C-3.54 3.2, -13 14.75, -15.22 17.94" stroke="#495057" stroke-width="1" fill="none"></path></g></g><mask></mask><g stroke-linecap="round"><g transform="translate(42.18076161347767 69.96487426757812) rotate(0 -7.000414499114299 -5.4940454095601865)"><path d="M0.91 0.06 C-1.3 -1.96, -11.75 -9.23, -14.3 -11.05 M-0.08 -0.95 C-2.29 -2.34, -12.44 -8.56, -14.91 -10.07" stroke="#495057" stroke-width="1" fill="none"></path></g></g><mask></mask><g stroke-linecap="round"><g transform="translate(27.41135243379017 82.90682983398438) rotate(0 -5.019986532996427 -3.181813542102475)"><path d="M0.47 -0.24 C-1.09 -0.83, -8.03 -3.6, -10 -4.22 M-0.75 -1.41 C-2.33 -2.31, -8.56 -5.37, -10.51 -6.13" stroke="#495057" stroke-width="1" fill="none"></path></g></g><mask></mask><g stroke-linecap="round"><g transform="translate(64.07480458222767 179.2312469482422) rotate(0 39.68786868154996 14.973151746714478)"><path d="M-0.98 -1.16 C4.68 3.73, 21.44 24.02, 35 28.99 C48.56 33.96, 72.7 28.62, 80.36 28.64 M0.7 0.84 C6.63 5.44, 24.01 22.55, 37.18 27.36 C50.35 32.17, 72.32 29.23, 79.72 29.71" stroke="#495057" stroke-width="1" fill="none"></path></g></g><mask></mask><g stroke-linecap="round" transform="translate(144.61374501191517 203.51126098632812) rotate(0 7.47406005859375 4.496734619140625)"><path d="M9.73 0.73 C11.17 1.06, 12.68 2, 13.57 2.75 C14.46 3.5, 15.24 4.49, 15.05 5.26 C14.86 6.03, 13.63 6.76, 12.44 7.37 C11.24 7.97, 9.42 8.67, 7.88 8.89 C6.33 9.12, 4.31 9.4, 3.17 8.73 C2.03 8.05, 1.52 5.98, 1.03 4.86 C0.54 3.74, -0.47 2.69, 0.23 2 C0.93 1.32, 3.69 0.93, 5.21 0.74 C6.74 0.54, 8.43 0.9, 9.37 0.83 C10.32 0.76, 10.64 0.28, 10.9 0.32 M8.78 1.13 C10.57 1.65, 14.18 2.09, 15.23 2.97 C16.29 3.86, 15.51 5.47, 15.08 6.42 C14.65 7.36, 14 8.11, 12.65 8.63 C11.3 9.15, 8.6 9.85, 6.97 9.54 C5.34 9.24, 3.94 7.49, 2.87 6.8 C1.8 6.1, 1 6.05, 0.55 5.38 C0.1 4.72, -0.39 3.55, 0.16 2.8 C0.71 2.05, 2.29 1.44, 3.83 0.89 C5.38 0.33, 8.41 -0.47, 9.44 -0.52 C10.47 -0.57, 9.99 0.29, 9.99 0.59" stroke="#495057" stroke-width="1" fill="none"></path></g><g stroke-linecap="round" transform="translate(26.206457414258466 351.3663635253906) rotate(0 12.92633056640625 4.6710205078125)"><path d="M10.81 -0.22 C13.53 -0.55, 17.16 -0.11, 19.38 0.37 C21.6 0.86, 23.24 1.82, 24.13 2.69 C25.02 3.56, 25.46 4.67, 24.71 5.57 C23.96 6.47, 21.98 7.35, 19.64 8.08 C17.29 8.82, 13.29 10, 10.63 9.99 C7.96 9.98, 5.54 8.72, 3.67 8.04 C1.79 7.35, -0.6 6.97, -0.62 5.88 C-0.63 4.78, 1.51 2.43, 3.57 1.48 C5.62 0.53, 10.31 0.48, 11.71 0.19 C13.11 -0.1, 12.05 -0.34, 11.97 -0.28 M18.56 -0.68 C20.83 -0.45, 21.6 1.53, 22.84 2.39 C24.09 3.25, 26.09 3.54, 26.02 4.5 C25.95 5.45, 24.38 7.27, 22.4 8.1 C20.42 8.93, 17.23 9.37, 14.16 9.45 C11.08 9.53, 6.52 9.01, 3.95 8.58 C1.39 8.16, -0.86 8.11, -1.25 6.91 C-1.64 5.71, 0.17 2.65, 1.62 1.36 C3.06 0.07, 4.72 -0.53, 7.4 -0.85 C10.09 -1.16, 16.08 -0.74, 17.72 -0.54 C19.36 -0.33, 17.59 0.05, 17.27 0.38" stroke="#495057" stroke-width="1" fill="none"></path></g><g stroke-linecap="round" transform="translate(95.96610096894642 353.46636962890625) rotate(0 12.92633056640625 4.6710205078125)"><path d="M8.07 -0.42 C10.36 -0.83, 14.71 -0.97, 17.22 -0.61 C19.72 -0.25, 21.68 0.71, 23.09 1.74 C24.5 2.77, 26.04 4.39, 25.69 5.55 C25.35 6.71, 23.09 8.13, 21.02 8.67 C18.95 9.22, 15.81 8.86, 13.26 8.82 C10.71 8.78, 7.8 9.03, 5.7 8.43 C3.6 7.82, 1.38 6.24, 0.67 5.19 C-0.03 4.15, 0.28 2.82, 1.48 2.15 C2.69 1.47, 6.67 1.31, 7.9 1.16 C9.14 1, 8.75 1.2, 8.88 1.21 M8.98 -1.02 C11.24 -1.73, 13.32 -1.39, 15.74 -0.76 C18.17 -0.14, 21.63 1.81, 23.53 2.73 C25.43 3.64, 27.42 3.65, 27.14 4.71 C26.85 5.78, 24.15 8.1, 21.83 9.11 C19.5 10.12, 16.07 11, 13.19 10.79 C10.31 10.57, 6.48 8.88, 4.57 7.81 C2.65 6.74, 2.08 5.48, 1.68 4.37 C1.27 3.25, 1.29 1.79, 2.14 1.12 C2.98 0.44, 5.71 0.18, 6.77 0.3 C7.84 0.42, 8.4 1.88, 8.55 1.83" stroke="#495057" stroke-width="1" fill="none"></path></g><g stroke-linecap="round"><g transform="translate(300.36329670569194 143.18973851128652) rotate(3.6838022528422356 -11.650747878933885 60.664288876141086)" fill-rule="evenodd"><path d="M-38.35 14.36 C-38.35 14.36, -38.35 14.36, -38.35 14.36 M-38.35 14.36 C-38.35 14.36, -38.35 14.36, -38.35 14.36 M-39.35 21.31 C-37.48 19.42, -34.38 16.53, -29.57 11.44 M-40.08 22.16 C-36.95 18.75, -34.6 14.86, -31.41 12.26 M-43.78 32.57 C-35.04 23.22, -31.19 18.3, -20.98 4.49 M-43 31.22 C-35.66 23.17, -28.66 15.29, -19.03 5.64 M-45.82 42.25 C-39.01 30.62, -28.85 19.11, -11.77 1.42 M-45.54 42.5 C-36.02 29.71, -24.32 16.84, -13.29 4.37 M-47.93 51.06 C-37.92 36.48, -25.66 25.44, -6.85 1.63 M-48.21 49.65 C-34.54 34.82, -23.73 20.87, -5.92 1.4 M-48.49 58.17 C-38.71 43.35, -25.77 29.97, 0.14 -1.1 M-47.88 56.48 C-36.34 42.37, -23.97 26.33, 0.38 0.11 M-52.13 66.75 C-32.58 46.12, -14.74 22.53, 3.56 5.85 M-50.64 65.21 C-37.17 49.32, -24.49 35.28, 1.76 5.3 M-49.65 71.49 C-38.13 59.16, -25.22 43.15, 5.66 7.25 M-51.99 72.14 C-34.55 51.66, -16.7 32.03, 4.72 8.78 M-55.69 81.35 C-40.81 64.11, -23.43 44.37, 5.05 14.2 M-54.73 82.71 C-36.98 60.79, -18.03 39.6, 4.41 13.79 M-52.82 89.52 C-36.07 66.82, -17.97 44.17, 6.01 17.56 M-55.33 87.67 C-38.8 70.02, -21.5 51.39, 5.68 16.68 M-54.38 95.24 C-37.27 74.38, -25.01 58.03, 8.09 22.95 M-54.99 93.22 C-36.21 72.61, -17.66 51.14, 8.44 22.15 M-52.54 97.77 C-31.26 70.31, -5.17 46.3, 10.24 26.25 M-53.96 99.12 C-36.9 79.61, -18.36 58.49, 9.48 25.05 M-52.71 103.38 C-35.29 83.88, -18.65 61.94, 11.65 28.89 M-54.25 104.03 C-31.01 79.07, -9.37 53.37, 11.14 29.82 M-50.78 110.32 C-30.67 84.37, -7.76 57.11, 12.57 33.02 M-51.04 108.69 C-30.08 85.79, -9.26 60.71, 11.83 34.04 M-51.52 111.92 C-25.27 83.54, 1.44 56.74, 14.46 37.08 M-49.38 113.25 C-35.5 96.6, -21.11 80.12, 13.96 38.13 M-45.19 116.21 C-23.4 88.68, 0.5 61.78, 17.56 42.77 M-47.03 115.19 C-24.75 91.43, -5.32 67.22, 15.2 42.65 M-41.9 117.54 C-28.67 103.38, -17.71 89.47, 16.97 46.57 M-43.07 117.14 C-26.2 98.51, -12.05 81, 18.41 48.01 M-36.94 120.48 C-17.7 94.35, 7.33 66, 19.57 50.94 M-39.51 119.07 C-24.45 102.23, -10.56 87.77, 20.2 52.01 M-33.81 120.17 C-13.18 95.74, 7.96 72.64, 20.76 55.65 M-34.51 120.84 C-13.84 95.46, 6.53 71.09, 21.52 57.29 M-32.13 121.22 C-13.87 103.37, 2.17 84.31, 20.7 61.21 M-30.61 121.42 C-10.98 100.71, 7.37 76.85, 21.57 61.12 M-28.14 122.5 C-6.84 102.78, 9.87 79.82, 25.78 63.89 M-27.45 121.87 C-11.55 105.76, 3.29 88.25, 23.07 64.65 M-20.48 123.44 C-5.33 102.74, 11.76 84.25, 24.79 67.24 M-21.76 123.9 C-10.04 110.62, 0.43 99.7, 26.16 68.62 M-16.72 121.95 C-7.92 112.49, 3.35 98.48, 26.4 72.57 M-16.22 124.09 C-2.3 106.6, 12.96 90.44, 27.65 72.16 M-13.23 122.47 C1.55 109.49, 11.13 96.99, 29.42 77.21 M-11.49 124.11 C1.2 111.13, 12.62 97.43, 28.96 77.27 M-5.61 122.46 C5.84 113.6, 14.97 101.16, 30.15 82.26 M-6.97 123.52 C6.5 110.14, 18.82 95.14, 29.33 82.79 M-2.59 122.11 C7.57 113.67, 17.09 105.32, 31.32 88.31 M-0.92 123.74 C7.69 113.7, 16.31 103.42, 30.43 86.44 M6.18 124.42 C15.24 108.91, 26.09 97.12, 32.88 92.5 M5.53 122.29 C12.11 116.45, 16.18 109.85, 32.94 92.08 M12.29 120.89 C20.84 114.78, 23.61 105.14, 33.54 94.96 M12.25 120.83 C16.63 114.27, 21.88 108.86, 33.79 96.4 M16.09 120.29 C23.55 116.69, 28.97 110.69, 36.23 101.35 M17.38 120.15 C21.7 116.4, 24.39 112.87, 33.43 101.73 M-50.81 111.8 C-50.81 111.8, -50.81 111.8, -50.81 111.8 M-50.81 111.8 C-50.81 111.8, -50.81 111.8, -50.81 111.8 M-42.58 114.02 C-44.74 111.84, -47.69 108.14, -52.64 104.1 M-41.48 114.02 C-45.92 109.36, -50.7 106.02, -53.9 104.27 M-33.61 116.37 C-37.56 112.28, -46.72 106.56, -54.61 98.3 M-32.33 118.11 C-37.74 112.75, -43.69 108.73, -52.99 99.5 M-25.87 119.73 C-32.34 111.89, -42.87 105.28, -54.77 92.22 M-24.61 118.6 C-36.36 107.83, -47.08 98.23, -53.3 92.18 M-18.75 117.17 C-31.49 109.5, -39.47 98.15, -54.22 88.57 M-17.67 119.56 C-26.52 111.94, -33.83 106.4, -54.22 88.01 M-9.51 121.72 C-22.89 111.74, -34.23 100.45, -53.14 82.61 M-9.07 122.4 C-18.48 113.11, -29.18 103.2, -56.02 80.76 M-2.97 123.8 C-20.57 108.91, -33.33 92.64, -56.2 77.25 M-2.17 121.49 C-18.48 108.62, -33.6 94.46, -53.96 75.74 M2.83 119.32 C-20.53 103.99, -40.18 83.1, -52.6 72.28 M1.98 120.57 C-16.2 105.6, -33.75 89.52, -54.51 73.2 M6.33 118.44 C-17.95 97.24, -38.81 78.25, -51.29 66.17 M6.08 119.71 C-11.57 103.02, -29.62 87.75, -52.92 66.46 M13.19 116.64 C-2.47 105.72, -16.14 95.97, -51 62.55 M11.08 118.68 C-6.08 102.59, -21.97 88.33, -51.41 62.58 M18.82 118.61 C2.29 107.74, -13.11 93.61, -52.73 59.44 M16.46 117.02 C-0.27 103.22, -15.37 88, -51.97 57.87 M20.34 115.42 C-2.13 95.01, -27.07 72.95, -52.22 52.98 M19.9 115.55 C2.05 99.77, -14.89 84.11, -51.04 53.86 M23.12 114.92 C2.98 97, -15.73 79.65, -48.5 46.73 M23.66 112.93 C2.32 95.4, -19.58 75.85, -50.33 48.85 M27.78 111.03 C3.23 87.24, -24.97 66.08, -48.36 43.37 M27.2 111.25 C6.46 94.18, -11.71 76.85, -49.54 43.86 M29.63 107.49 C10.3 92.08, -9.71 74.46, -46.1 38.63 M30.53 108.05 C13.65 94.43, -3.35 78.06, -48.35 40.82 M31.51 103.72 C13.41 87.54, -8.63 68.39, -47.04 34.42 M32.64 104.38 C14.06 88.93, -7.27 72.18, -46.2 35.92 M33.47 102.04 C10.45 79.68, -17.52 55.89, -46.77 32.66 M33.02 100.28 C3.97 75.18, -24.66 49.53, -45.76 31.74 M34.55 97.37 C13.45 78.75, -6.63 58.12, -44.87 26.44 M35.21 96.76 C5.43 70.64, -23.21 46.58, -42.94 28.61 M34.27 89.24 C7.45 65.21, -21.06 45.35, -42.48 23.9 M31.96 88.03 C8.83 68.97, -14.32 49.03, -42.65 22.78 M32.4 80.75 C12.54 66.82, -5.31 50.79, -39.47 19.32 M30.83 82.73 C4.61 59.4, -21.08 36.41, -40.28 19.72 M30.43 74.6 C8.14 58.73, -10.27 38.39, -38.23 15.02 M31.34 76.2 C5.82 56.34, -18.08 33.88, -39.74 16.32 M28.84 66.81 C13.13 56.1, 0.63 44.92, -39.19 10.51 M28.03 68.47 C4.98 49.6, -17.6 30.06, -37.15 12.22 M23.59 59.94 C3.66 41.81, -16.41 26.25, -34.51 9.61 M24.72 59.65 C10.95 50.61, -0.61 38.7, -32.89 9.27 M22.13 52.17 C10.22 41.61, -5.01 31.49, -31.89 6.39 M22.22 53.4 C8.81 41.04, -3.89 29.87, -31.57 7.63 M17.89 45.26 C9.64 39.19, -0.37 30.35, -28.79 6.85 M18.6 45.01 C9.24 36.97, -1.33 27.71, -26.56 5.77 M14.79 37.63 C0.45 26.41, -15.37 10.71, -23.18 4.24 M15.43 36.79 C3.45 24.96, -10.02 14.44, -22.95 4 M11.22 29.55 C5.4 22.04, -5.4 12.4, -18.82 2.15 M13.55 29.53 C5.65 21.59, -3.21 14.6, -19.1 1.81 M8.58 20.29 C2.17 12.88, -6.99 7.04, -12.45 0.31 M9.31 21.83 C2.7 15.01, -6.48 7.59, -14.09 -0.04 M8.23 14.66 C-0.27 7.7, -6.57 3.03, -10.59 -0.81 M7.3 14.97 C4.12 11.47, -0.12 6.8, -8.75 -0.72 M3.67 6.77 C2.09 3.65, 0.61 3.76, -5.04 -0.38 M4.01 5.71 C1.32 3.15, -1.06 0.56, -4.14 -0.96" stroke="#228be6" stroke-width="0.5" fill="none"></path><path d="M-1.12 -0.96 C4.11 17, 38.4 89.56, 30.35 108.27 C22.3 126.99, -37.28 125.86, -49.44 111.36 C-61.59 96.85, -50.68 39.76, -42.59 21.26 C-34.49 2.76, -7.94 3.9, -0.88 0.36" stroke="#000000" stroke-width="1.5" fill="none" stroke-dasharray="8 9"></path></g></g><mask></mask><g stroke-linecap="round"><g transform="translate(289.6088478571014 184.49617808726987) rotate(0 -37.1985641125068 9.34057474603091)"><path d="M0.55 -0.5 C-4.97 2.49, -20.26 14.41, -32.85 17.77 C-45.43 21.12, -68.27 19.33, -74.95 19.63 M-0.61 -1.81 C-6.29 1.39, -21.6 16, -33.59 19.28 C-45.59 22.56, -66.15 18.17, -72.58 17.88" stroke="#495057" stroke-width="1" fill="none"></path></g></g><mask></mask><g stroke-linecap="round" transform="translate(202.58402089082097 197.3541259765625) rotate(0 7.47406005859375 4.496734619140625)"><path d="M7.23 -0.58 C8.87 -0.52, 10.73 0.49, 12.02 1.07 C13.3 1.64, 14.51 2.09, 14.95 2.87 C15.39 3.65, 15.43 4.83, 14.68 5.73 C13.94 6.63, 12.21 7.68, 10.47 8.25 C8.73 8.82, 5.65 9.29, 4.24 9.15 C2.83 9.02, 2.54 8.27, 2 7.45 C1.45 6.62, 0.81 5.13, 0.97 4.21 C1.13 3.29, 1.69 2.67, 2.96 1.91 C4.23 1.16, 7.33 -0.24, 8.57 -0.33 C9.82 -0.42, 10.46 1.17, 10.42 1.37 M10.02 0.88 C11.16 1.4, 13.17 2.44, 13.85 3.47 C14.52 4.49, 14.33 6.27, 14.06 7.01 C13.79 7.74, 13.5 7.46, 12.23 7.86 C10.97 8.26, 8.12 9.39, 6.47 9.42 C4.81 9.45, 3.5 8.69, 2.3 8.03 C1.1 7.38, -0.6 6.32, -0.74 5.5 C-0.87 4.69, 0.54 4.31, 1.48 3.16 C2.42 2.02, 3.11 -0.93, 4.91 -1.38 C6.71 -1.82, 11.07 0.4, 12.27 0.5 C13.48 0.61, 12.32 -0.77, 12.14 -0.75" stroke="#495057" stroke-width="1" fill="none"></path></g><g stroke-linecap="round"><g transform="translate(304.40602286670173 264.52444193393467) rotate(0 7.327149583481514 47.21923537075054)"><path d="M0.29 0.41 C-0.51 8.23, -8.11 31.58, -4.78 47.32 C-1.45 63.06, 16.22 87.32, 20.27 94.86 M-1.02 -0.42 C-1.42 7.02, -5.79 29.96, -2.38 45.54 C1.04 61.13, 15.84 85.2, 19.47 93.11" stroke="#495057" stroke-width="1" fill="none"></path></g></g><mask></mask><g stroke-linecap="round"><g transform="translate(273.51344184363893 266.1139712423086) rotate(0 -4.388108796282722 44.456549293915714)"><path d="M-1.2 0.57 C-2.6 6.47, -8.2 21.81, -8.63 36.57 C-9.07 51.32, -4.75 80.42, -3.81 89.09 M0.37 -0.18 C-1.09 6.37, -8.85 23.18, -9.14 37.7 C-9.44 52.22, -2.46 78.28, -1.39 86.95" stroke="#495057" stroke-width="1" fill="none"></path></g></g><mask></mask><g stroke-linecap="round" transform="translate(242.76199940644642 348.74896240234375) rotate(0 12.92633056640625 4.6710205078125)"><path d="M11.26 -0.08 C13.87 -0.29, 18.2 0.73, 20.45 1.23 C22.69 1.73, 24.14 1.91, 24.72 2.92 C25.3 3.93, 25.16 6.29, 23.93 7.27 C22.7 8.25, 19.81 8.48, 17.34 8.82 C14.87 9.17, 11.55 9.72, 9.1 9.32 C6.64 8.92, 4.07 7.31, 2.6 6.44 C1.14 5.57, 0.09 4.79, 0.32 4.08 C0.55 3.37, 1.84 2.81, 3.98 2.19 C6.12 1.56, 11.22 0.61, 13.15 0.33 C15.08 0.06, 15.58 0.58, 15.55 0.53 M17.01 -1.23 C19.23 -0.62, 21.97 2.45, 23.33 3.45 C24.69 4.45, 25.57 4.07, 25.15 4.76 C24.72 5.45, 22.65 6.77, 20.78 7.58 C18.92 8.4, 16.71 9.61, 13.96 9.64 C11.21 9.67, 6.47 8.25, 4.27 7.76 C2.07 7.28, 1.06 7.41, 0.75 6.73 C0.44 6.06, 0.94 4.96, 2.42 3.72 C3.9 2.48, 7.4 0.02, 9.62 -0.71 C11.84 -1.43, 14.51 -0.83, 15.72 -0.64 C16.93 -0.45, 16.78 0.32, 16.88 0.43" stroke="#495057" stroke-width="1" fill="none"></path></g><g stroke-linecap="round" transform="translate(296.36026600800847 352.593994140625) rotate(0 12.92633056640625 4.6710205078125)"><path d="M11.94 -0.06 C14.48 -0.07, 18.21 -0.23, 20.5 0.54 C22.79 1.32, 25.14 3.68, 25.68 4.61 C26.22 5.54, 24.96 5.33, 23.74 6.12 C22.52 6.92, 20.98 8.75, 18.36 9.39 C15.75 10.03, 10.71 10.3, 8.07 9.95 C5.43 9.6, 3.81 8.43, 2.52 7.29 C1.22 6.15, -0.15 4.14, 0.31 3.12 C0.76 2.09, 2.89 1.55, 5.23 1.14 C7.57 0.73, 12.84 0.97, 14.35 0.64 C15.86 0.32, 14.61 -0.71, 14.3 -0.82 M17.18 -0.39 C19.57 -0.21, 22.55 1.13, 24.06 2.26 C25.57 3.39, 26.63 5.39, 26.24 6.39 C25.84 7.38, 23.76 7.82, 21.68 8.25 C19.61 8.68, 16.6 8.88, 13.78 8.95 C10.95 9.03, 7 9.08, 4.75 8.71 C2.49 8.33, 0.72 7.56, 0.24 6.68 C-0.24 5.8, 0.32 4.56, 1.88 3.42 C3.44 2.29, 7.19 0.56, 9.61 -0.12 C12.03 -0.8, 14.98 -0.96, 16.39 -0.67 C17.8 -0.39, 17.88 1.22, 18.06 1.61" stroke="#495057" stroke-width="1" fill="none"></path></g><g stroke-linecap="round" transform="translate(225.71115712128972 57.09901428222656) rotate(0 49.998779296875 44.29557800292969)"><path d="M59.27 0.84 C68.01 1.68, 77.54 6.42, 84.18 11.77 C90.83 17.13, 97.04 25.41, 99.15 32.98 C101.25 40.55, 99.82 49.55, 96.82 57.18 C93.81 64.8, 88.1 73.52, 81.11 78.71 C74.12 83.91, 63.72 87.53, 54.87 88.32 C46.01 89.11, 36.04 86.92, 27.99 83.43 C19.94 79.94, 11.25 74.08, 6.56 67.41 C1.87 60.73, -0.38 51.48, -0.17 43.36 C0.05 35.24, 2.74 25.43, 7.85 18.68 C12.97 11.94, 20.79 5.45, 30.52 2.88 C40.25 0.31, 59.07 2.6, 66.25 3.28 C73.43 3.96, 73.73 6.51, 73.62 6.96 M33.47 2.67 C41.25 -0.17, 52.49 0.36, 61.26 2.19 C70.02 4.01, 79.87 8.13, 86.08 13.61 C92.29 19.1, 96.78 27.48, 98.53 35.09 C100.28 42.69, 99.96 51.58, 96.57 59.22 C93.19 66.87, 85.37 76.22, 78.21 80.98 C71.06 85.73, 62.37 87.58, 53.64 87.76 C44.92 87.94, 33.74 86.03, 25.86 82.05 C17.99 78.06, 10.56 70.57, 6.38 63.86 C2.21 57.15, 0.16 49.8, 0.82 41.8 C1.47 33.79, 4.72 22.55, 10.31 15.83 C15.9 9.12, 30.67 3.76, 34.35 1.51 C38.03 -0.73, 32.18 1.71, 32.38 2.35" stroke="#343a40" stroke-width="1" fill="none"></path></g><g stroke-linecap="round"><g transform="translate(277.88522938691494 109.62652587890625) rotate(0 -20.805929335951873 9.985445791654882)"><path d="M0.51 -0.81 C-1.85 1.83, -9.69 11.41, -15.16 14.8 C-20.63 18.18, -27.8 19.41, -32.3 19.5 C-36.79 19.6, -40.27 16.1, -42.12 15.34 M-0.68 1.38 C-2.6 4.24, -7.62 12.71, -13.02 15.94 C-18.42 19.17, -28.27 20.67, -33.07 20.77 C-37.87 20.88, -40.33 17.5, -41.8 16.6" stroke="#000000" stroke-width="1" fill="none"></path></g></g><mask></mask><g stroke-linecap="round"><g transform="translate(273.15195301972744 108.16732788085938) rotate(0 3.724735417971374 2.0219104988826473)"><path d="M0.04 -1.12 C1.2 -0.43, 5.14 3.11, 6.54 4.1 M-1.4 0.9 C0.19 1.73, 7.24 4.31, 8.85 5.17" stroke="#000000" stroke-width="1" fill="none"></path></g></g><mask></mask><g stroke-linecap="round"><g transform="translate(254.10031727753994 68.49749755859375) rotate(0 1.0410578282270535 -10.831815246273749)"><path d="M0.06 -0.44 C0.34 -3.53, 1 -16.37, 1.24 -19.67 M-1.36 -1.72 C-0.69 -5.01, 2.55 -17.79, 3.44 -21.22" stroke="#000000" stroke-width="1" fill="none"></path></g></g><mask></mask><g stroke-linecap="round"><g transform="translate(263.5712245454679 68.5101904904144) rotate(0 0.23876162112696875 -10.839930254672652)"><path d="M-0.21 -0.49 C-0.18 -3.92, -0.16 -16.38, -0.12 -19.49 M-1.78 -1.8 C-1.32 -5.05, 2.14 -18, 2.26 -21.19" stroke="#000000" stroke-width="1" fill="none"></path></g></g><mask></mask><g stroke-linecap="round"><g transform="translate(270.09165819547525 67.46447249100078) rotate(0 3.2794360960321 -8.704983291029919)"><path d="M0.85 1.06 C2 -2.08, 6.03 -15.26, 6.72 -18.47 M-0.16 0.57 C0.93 -2.49, 5.64 -14.56, 6.31 -17.55" stroke="#000000" stroke-width="1" fill="none"></path></g></g><mask></mask><g stroke-linecap="round"><g transform="translate(278.84199934557023 67.45281654298304) rotate(0 2.2590962851838867 -8.013305167560475)"><path d="M0.48 -0.59 C1.43 -3.37, 4.44 -14.75, 5.24 -17.74 M-0.73 1.71 C0.07 -0.81, 3.22 -13.18, 4.06 -16.43" stroke="#000000" stroke-width="1" fill="none"></path></g></g><mask></mask><g stroke-linecap="round"><g transform="translate(286.32242216423106 69.36852977693553) rotate(0 4.3616223831521665 -8.150281420350069)"><path d="M0.85 0.96 C2.37 -1.91, 7.37 -14.06, 8.88 -17.26 M-0.16 0.42 C1.22 -2.24, 6.3 -12.72, 7.96 -15.7" stroke="#000000" stroke-width="1" fill="none"></path></g></g><mask></mask><g stroke-linecap="round"><g transform="translate(293.23173688657494 69.87797307074061) rotate(0 4.571013650298141 -8.225388583540933)"><path d="M-0.31 1.12 C1.39 -1.79, 7.94 -14.7, 9.45 -17.57 M1.73 0.67 C3.39 -2.06, 7.79 -13.09, 8.83 -16.18" stroke="#000000" stroke-width="1" fill="none"></path></g></g><mask></mask><g stroke-linecap="round"><g transform="translate(300.56018741630464 75.77977090775971) rotate(0 5.267407551407814 -8.664003840088867)"><path d="M-0.69 0.17 C1.33 -2.63, 9.13 -14.62, 11.22 -17.5 M1.15 -0.79 C3.11 -3.4, 8.68 -13.89, 10.43 -16.43" stroke="#000000" stroke-width="1" fill="none"></path></g></g><mask></mask><g stroke-linecap="round"><g transform="translate(306.91408648394463 78.00103997290137) rotate(0 6.929277122775034 -6.288541215737325)"><path d="M1.09 -0.87 C2.9 -3.16, 9.56 -11.69, 11.3 -13.87 M0.21 1.29 C2.37 -0.8, 11.93 -10.04, 13.65 -12.36" stroke="#000000" stroke-width="1" fill="none"></path></g></g><mask></mask><g stroke-linecap="round"><g transform="translate(314.4690137875775 84.04311885245602) rotate(0 6.582082732994991 -6.254339370131476)"><path d="M0.7 1.17 C3.1 -1.15, 11.42 -11.29, 13.56 -13.68 M-0.4 0.74 C1.94 -1.42, 10.51 -10.19, 12.72 -12.25" stroke="#000000" stroke-width="1" fill="none"></path></g></g><mask></mask><g stroke-linecap="round"><g transform="translate(233.43027333222767 93.87353515625) rotate(0 0.45479995790515204 7.180855822484006)"><path d="M0.95 0.25 C1.07 1.34, 0.06 4.39, 0.11 6.85 C0.17 9.32, 1 13.97, 1.29 15.03 M0 -0.67 C0.08 0.03, -0.45 2.63, -0.37 4.94 C-0.29 7.26, 0.02 11.73, 0.46 13.23" stroke="#000000" stroke-width="1" fill="none"></path></g></g><mask></mask><g stroke-linecap="round"><g transform="translate(249.3216647805723 95.47319691189097) rotate(0 -0.9214117666422226 8.675002592345692)"><path d="M0.67 0.84 C0.37 2.45, -2.7 6.5, -2.6 8.98 C-2.5 11.47, 0.44 14.78, 1.27 15.73 M-0.43 0.23 C-0.76 1.59, -3.27 4.59, -3.11 7.41 C-2.95 10.22, 0.06 15.8, 0.5 17.12" stroke="#000000" stroke-width="1" fill="none"></path></g></g><mask></mask><g stroke-linecap="round" transform="translate(344.4185373288158 74.04126720294073) rotate(0 6.603840220421148 2.7390557295843223)"><path d="M0.19 2.82 C0.19 2.82, 0.19 2.82, 0.19 2.82 M0.19 2.82 C0.19 2.82, 0.19 2.82, 0.19 2.82 M2.83 6.48 C3.09 5.06, 4.86 3.76, 6 1.96 M2.3 5.9 C3.38 5.1, 4.47 4.23, 6.62 1.8 M6.56 7.68 C7.81 6.78, 8.5 5.88, 11.57 2.66 M7.07 7.48 C8.08 5.83, 9.07 4.56, 11.81 2.2" stroke="#868e96" stroke-width="0.5" fill="none"></path><path d="M4.23 0.15 C5.52 -0.21, 8.56 -0.18, 9.89 0.04 C11.21 0.27, 11.61 1.08, 12.16 1.52 C12.72 1.96, 13.45 2.28, 13.19 2.69 C12.92 3.11, 11.8 3.39, 10.58 4.01 C9.35 4.64, 7.25 6.18, 5.86 6.43 C4.47 6.67, 3.23 6.02, 2.24 5.47 C1.24 4.93, 0.04 3.81, -0.12 3.17 C-0.28 2.53, 0.32 2.1, 1.27 1.63 C2.22 1.16, 5.01 0.65, 5.59 0.37 C6.17 0.09, 4.74 -0.01, 4.76 -0.05 M6.74 0.77 C8.43 0.35, 10.54 -1.21, 11.65 -0.85 C12.76 -0.48, 13.2 1.94, 13.42 2.95 C13.64 3.96, 13.76 4.96, 12.99 5.23 C12.22 5.49, 10.08 4.46, 8.78 4.54 C7.49 4.61, 6.24 5.54, 5.21 5.67 C4.19 5.81, 3.67 6.03, 2.61 5.34 C1.54 4.66, -1.26 2.49, -1.17 1.57 C-1.09 0.65, 2 -0.08, 3.11 -0.17 C4.21 -0.26, 5.08 0.82, 5.45 1.01 C5.82 1.19, 5.23 1.08, 5.35 0.95" stroke="#000000" stroke-width="1" fill="none"></path></g><g stroke-linecap="round" transform="translate(341.5863137470876 66.47979597233223) rotate(0 9.657569876099387 3.8368440256239182)"><path d="M1.42 1.23 C1.42 1.23, 1.42 1.23, 1.42 1.23 M1.42 1.23 C1.42 1.23, 1.42 1.23, 1.42 1.23 M2.65 5.5 C5.02 4.46, 6.77 1.52, 6.95 0.57 M2.6 6.38 C3.39 4.82, 4.93 3.4, 7.86 -0.08 M4.1 10.14 C8.24 5.36, 11.42 2.54, 12.79 0.56 M4.32 9.67 C6.7 7.41, 9.73 4.27, 12.15 1.6 M10.29 10.44 C11.59 7.67, 13.93 4.94, 15.4 2.42 M9.58 9.62 C11.93 6.89, 14.21 4.55, 15.9 2.12" stroke="#868e96" stroke-width="0.5" fill="none"></path><path d="M13.95 0.55 C16.01 1.02, 18.66 2.29, 19.36 2.9 C20.07 3.51, 18.77 3.64, 18.2 4.21 C17.64 4.78, 17.62 5.65, 15.99 6.34 C14.37 7.02, 10.71 8.19, 8.43 8.33 C6.16 8.47, 3.75 7.87, 2.34 7.17 C0.94 6.48, 0.13 5.21, 0.01 4.18 C-0.11 3.15, 0.55 1.81, 1.62 1.01 C2.68 0.21, 4.26 -0.65, 6.4 -0.62 C8.54 -0.59, 12.64 0.83, 14.47 1.2 C16.29 1.57, 17.33 1.52, 17.36 1.6 M14.21 -1.05 C15.92 -0.41, 17.33 2.27, 18.3 3.44 C19.26 4.6, 20.53 5.4, 20 5.94 C19.47 6.47, 17.15 6.48, 15.14 6.63 C13.14 6.78, 10.2 6.92, 7.97 6.83 C5.74 6.74, 2.96 6.4, 1.76 6.1 C0.56 5.8, 1.01 5.77, 0.78 5.03 C0.55 4.29, -0.77 2.57, 0.37 1.66 C1.52 0.75, 5.68 -0.31, 7.65 -0.41 C9.61 -0.52, 11.35 0.72, 12.16 1.02 C12.98 1.32, 12.42 1.64, 12.53 1.37" stroke="#000000" stroke-width="1" fill="none"></path></g><g stroke-linecap="round" transform="translate(339.6264261058136 61.551671553716574) rotate(0 10.714738175455977 3.196656261976443)"><path d="M0.86 3.4 C0.86 3.4, 0.86 3.4, 0.86 3.4 M0.86 3.4 C0.86 3.4, 0.86 3.4, 0.86 3.4 M4.07 4.89 C5.66 3.28, 6.6 1.94, 9.39 -0.22 M4.33 5.32 C6.03 4.22, 6.93 2.64, 9.3 0.3 M9.54 6.32 C10.63 4.75, 12.79 2.41, 13.44 1.08 M8.53 6.12 C10.69 4.5, 12.25 2.46, 13.52 1.02 M12.1 7.77 C14.78 6.25, 15.33 3.72, 17.76 2.58 M12.77 7.95 C14.18 6.13, 16.1 4.28, 17.45 2.62 M18.69 7.27 C20.21 5.9, 20.91 4.68, 22.05 2.99 M19.06 6.93 C19.63 5.83, 20.61 4.72, 21.91 3.37" stroke="#868e96" stroke-width="0.5" fill="none"></path><path d="M14.52 1.13 C16.36 1.23, 18.75 0.96, 19.91 1.47 C21.08 1.98, 21.95 3.5, 21.52 4.18 C21.08 4.87, 19.17 5.22, 17.32 5.6 C15.46 5.99, 12.66 6.65, 10.41 6.5 C8.17 6.35, 5.45 5.21, 3.83 4.72 C2.22 4.23, 0.92 4.05, 0.72 3.56 C0.52 3.07, 1.31 2.46, 2.64 1.77 C3.97 1.08, 6.3 -0.27, 8.7 -0.6 C11.1 -0.93, 15.35 -0.55, 17.03 -0.21 C18.71 0.12, 18.77 1.31, 18.77 1.4 M7.21 -0.03 C9.01 -0.03, 11.65 0.79, 13.51 1.05 C15.37 1.3, 16.96 1.1, 18.35 1.5 C19.73 1.9, 21.69 2.93, 21.82 3.47 C21.96 4, 20.54 4, 19.15 4.72 C17.76 5.43, 16.06 7.73, 13.48 7.76 C10.91 7.79, 5.72 5.34, 3.7 4.89 C1.68 4.45, 2.06 5.32, 1.36 5.07 C0.66 4.81, -1.11 4, -0.5 3.38 C0.11 2.77, 4.1 1.86, 5.02 1.37 C5.93 0.88, 4.83 0.36, 4.98 0.44" stroke="#000000" stroke-width="1" fill="none"></path></g><g stroke-linecap="round" transform="translate(326.58237294160244 10) rotate(0 24.413577378236596 26.293006370127443)"><path d="M6.82 8.58 C6.82 8.58, 6.82 8.58, 6.82 8.58 M6.82 8.58 C6.82 8.58, 6.82 8.58, 6.82 8.58 M1.87 22.03 C7.45 12.96, 11.94 8.02, 19.18 0.9 M1.95 21.74 C6.9 14.67, 14.3 6.54, 17.28 2.56 M1.3 26.59 C5.86 21.75, 11.52 17.4, 21.84 1.33 M1.95 26.8 C8.58 17.4, 18.11 8.85, 22.97 1.68 M1.42 33.54 C8.89 21.31, 18.49 15.08, 25.34 3.33 M1.41 32.39 C10.42 23.02, 17.74 13.53, 27.91 3.88 M3.49 37.83 C9.47 29.52, 18.96 20.25, 33.99 2.22 M3.88 36.09 C13.1 26.63, 20.91 15.25, 31.69 4.54 M5.46 39.43 C17.63 26.32, 28.49 15.49, 36.4 3.1 M6.18 41.32 C16.93 27.66, 26.15 14.84, 36.45 3.87 M8.22 45.03 C15.07 33.37, 25.81 24.11, 38.9 7.34 M6.27 45.38 C16.9 32.24, 26.97 21.71, 40.11 7.76 M10.33 45.12 C20.08 35.88, 28.72 27.84, 42.34 10.8 M11.87 46.66 C18.01 37.04, 26.6 29.58, 40.83 10.15 M15 47.96 C22.6 38.08, 33.37 30.15, 43.67 15.37 M13.09 48.96 C23.77 38.1, 33.96 25.46, 44.45 14.86 M16.13 52.3 C27.71 40.36, 34.88 30.99, 48.72 15.69 M18.24 50.41 C28.63 38.55, 40.45 25.78, 46.93 16.6 M21.21 53.44 C28.76 45.66, 37.11 35.75, 51.09 20.71 M20.52 53.79 C29.65 42.33, 39.71 31.57, 49.03 20.7 M28.7 52.64 C31.46 48.76, 35.18 43.61, 50.97 26.61 M27.13 52.2 C34.17 44.05, 41.07 36.6, 48.88 26.34 M33.11 49.99 C37.91 47.89, 43.65 40.61, 47.24 36.34 M34.05 52.16 C37.52 47.06, 40.73 42.56, 45.82 36.34" stroke="#fab005" stroke-width="0.5" fill="none"></path><path d="M20.37 0.73 C25.08 -0.6, 32.07 0.81, 36.48 3.65 C40.89 6.49, 45.2 12.35, 46.83 17.77 C48.47 23.19, 47.93 31.01, 46.3 36.15 C44.68 41.3, 41.66 46.08, 37.08 48.64 C32.5 51.21, 24.25 52.59, 18.83 51.53 C13.41 50.48, 7.82 46.56, 4.54 42.3 C1.26 38.03, -1.21 31.54, -0.85 25.94 C-0.49 20.34, 2.73 13.05, 6.7 8.71 C10.67 4.37, 20.12 1.4, 22.98 -0.09 C25.85 -1.57, 24.11 -0.63, 23.9 -0.21 M15.83 -0.04 C20.61 -2.04, 28.53 -0.25, 33.68 1.84 C38.82 3.93, 44.07 7.43, 46.73 12.51 C49.4 17.59, 50.64 26.66, 49.67 32.31 C48.7 37.96, 45.39 42.94, 40.92 46.41 C36.45 49.88, 28.26 53.09, 22.86 53.14 C17.46 53.18, 12.37 50.41, 8.51 46.67 C4.66 42.93, 0.41 36.58, -0.28 30.69 C-0.97 24.79, 1.61 16.42, 4.36 11.29 C7.11 6.17, 14.14 1.65, 16.21 -0.07 C18.29 -1.79, 16.66 0.53, 16.81 0.95" stroke="#000000" stroke-width="1" fill="none"></path></g><g stroke-linecap="round"><g transform="translate(338.7433293773413 32.006464265812326) rotate(0 2.6946073945687203 14.110391616274228)"><path d="M-0.1 -0.12 C1.01 4.85, 5.98 24.49, 7 29.45 M-1.62 -1.23 C-0.7 3.44, 4.3 22.92, 5.96 27.77" stroke="#000000" stroke-width="1" fill="none"></path></g></g><mask></mask><g stroke-linecap="round"><g transform="translate(360.524825918646 35.68135249750276) rotate(0 -3.050514070264853 12.453472352191056)"><path d="M0.2 -0.57 C-1 3.58, -5.26 21.32, -6.3 25.47 M-1.15 1.75 C-2.05 5.51, -3.03 19.81, -4.02 23.78" stroke="#000000" stroke-width="1" fill="none"></path></g></g><mask></mask><g stroke-linecap="round"><g transform="translate(365.42620661409865 40.24748717212054) rotate(0 -16.572163981572317 4.870542407337723)"><path d="M0.99 0.9 C-2.23 0.03, -14.41 -4.35, -20.13 -5.09 C-25.86 -5.84, -34.99 -5.35, -33.34 -3.54 C-31.69 -1.73, -15.98 4.14, -10.23 5.77 C-4.49 7.4, 2 7.13, 1.13 6.23 C0.25 5.33, -10.48 0.76, -15.48 0.36 C-20.49 -0.05, -30.3 1.55, -28.91 3.79 C-27.52 6.04, -9.06 13.49, -7.12 13.84 C-5.18 14.18, -13.65 6.3, -17.28 5.88 C-20.91 5.46, -30.13 9.65, -28.9 11.32 C-27.66 12.98, -12.91 15.04, -9.88 15.88 M0.05 0.33 C-3.28 -0.91, -15.56 -6.48, -21.25 -6.93 C-26.94 -7.38, -36.02 -4.62, -34.09 -2.37 C-32.15 -0.13, -15.35 4.95, -9.63 6.53 C-3.92 8.11, 1.46 8.34, 0.19 7.11 C-1.08 5.89, -12.54 -0.6, -17.24 -0.83 C-21.95 -1.05, -30.12 3.37, -28.04 5.76 C-25.97 8.15, -6.9 13.2, -4.8 13.52 C-2.7 13.85, -11.57 8.08, -15.46 7.72 C-19.35 7.35, -29.16 9.82, -28.14 11.32 C-27.13 12.82, -12.62 15.93, -9.38 16.72" stroke="#000000" stroke-width="1" fill="none"></path></g></g><mask></mask></svg>