<svg version="1.1" xmlns="http://www.w3.org/2000/svg" viewBox="0 0 573.1845703125 331.6562194824219" width="573.1845703125" height="331.6562194824219">
  <!-- svg-source:excalidraw -->
  
  <defs>
    <style class="style-fonts">
      @font-face {
        font-family: "Virgil";
        src: url("https://excalidraw.com/Virgil.woff2");
      }
      @font-face {
        font-family: "Cascadia";
        src: url("https://excalidraw.com/Cascadia.woff2");
      }
    </style>
  </defs>
  <rect x="0" y="0" width="573.1845703125" height="331.6562194824219" fill="#ffffff"></rect><g stroke-linecap="round" transform="translate(26.2100830078125 262.0364074707031) rotate(0 268.48724365234375 29.809906005859375)"><path d="M3.97 3.45 C3.97 3.45, 3.97 3.45, 3.97 3.45 M3.97 3.45 C3.97 3.45, 3.97 3.45, 3.97 3.45 M3.05 10.6 C5.7 8.31, 6.19 5.66, 10.27 2.3 M3.05 10.6 C4.51 8.31, 6.05 7.09, 10.27 2.3 M2.79 17 C4.05 12.64, 7.99 9.91, 16.57 1.15 M2.79 17 C7.2 13.71, 9.82 8.03, 16.57 1.15 M2.53 23.4 C6.49 19.22, 11.2 10.69, 21.55 1.51 M2.53 23.4 C6.99 17.99, 10.96 13.69, 21.55 1.51 M2.92 29.04 C10.28 19.61, 20.93 10.38, 27.2 1.12 M2.92 29.04 C8.62 20.84, 16.62 13.07, 27.2 1.12 M3.32 34.68 C9.77 25.54, 18.76 18.62, 32.18 1.48 M3.32 34.68 C10.94 27.2, 16.63 18.82, 32.18 1.48 M3.05 41.08 C10.06 31.91, 17.81 25.56, 37.83 1.08 M3.05 41.08 C15.15 26.52, 26.68 12.54, 37.83 1.08 M3.45 46.72 C17.25 31.26, 32.38 10.92, 42.81 1.44 M3.45 46.72 C12.25 37.41, 20.77 27.88, 42.81 1.44 M3.19 53.12 C11.31 39.9, 24.56 32.19, 48.46 1.05 M3.19 53.12 C15.39 37.84, 28.8 23.4, 48.46 1.05 M5.55 56.5 C21.86 40.19, 34.19 22.3, 53.44 1.41 M5.55 56.5 C17.78 43.78, 28.45 30.38, 53.44 1.41 M7.91 59.88 C20.19 47.24, 29.14 34.89, 59.09 1.01 M7.91 59.88 C21.44 46.05, 33.42 30.85, 59.09 1.01 M12.9 60.24 C25.72 40.89, 40.76 23.78, 64.07 1.37 M12.9 60.24 C22.43 48.46, 34.12 36.81, 64.07 1.37 M17.89 60.6 C32.18 43.57, 48.16 27.91, 69.72 0.98 M17.89 60.6 C29.08 45.92, 41.6 33.39, 69.72 0.98 M23.53 60.21 C42.04 39.75, 60.42 16.01, 74.7 1.34 M23.53 60.21 C42.95 37.28, 61.89 14.54, 74.7 1.34 M28.52 60.57 C40.58 46.61, 51.51 35.35, 79.69 1.7 M28.52 60.57 C39.81 48.63, 49.57 34.6, 79.69 1.7 M34.16 60.17 C56.54 37.33, 76.11 13.25, 85.33 1.3 M34.16 60.17 C45.51 46.67, 56.42 34.57, 85.33 1.3 M39.15 60.53 C55.44 42.63, 74.74 21.82, 90.32 1.66 M39.15 60.53 C56.8 40.63, 72.15 21.01, 90.32 1.66 M44.79 60.14 C56.54 44.06, 71.95 32.04, 95.96 1.27 M44.79 60.14 C63.96 38.22, 82.01 16.07, 95.96 1.27 M49.78 60.5 C66.82 42.81, 78.63 24.21, 100.95 1.63 M49.78 60.5 C67.4 41.49, 84.62 21.31, 100.95 1.63 M54.76 60.86 C66.94 46.87, 78.93 32.99, 106.59 1.23 M54.76 60.86 C67.28 46.42, 80.21 30.32, 106.59 1.23 M60.41 60.46 C70.36 47.94, 82.84 36.61, 111.58 1.59 M60.41 60.46 C76.61 40.75, 93.87 21.19, 111.58 1.59 M65.39 60.82 C79.35 46.95, 90.46 34.3, 117.22 1.2 M65.39 60.82 C80.11 41.8, 96.29 25.01, 117.22 1.2 M71.04 60.43 C89.58 36.58, 109.79 14.27, 122.21 1.56 M71.04 60.43 C81.81 46.43, 94.33 33.26, 122.21 1.56 M76.02 60.79 C96.29 37.79, 114.27 17.33, 127.85 1.17 M76.02 60.79 C91.86 41.7, 107.37 22.24, 127.85 1.17 M81.67 60.39 C96.72 41.79, 114.28 25.4, 132.84 1.53 M81.67 60.39 C101.78 38.56, 119.62 17.41, 132.84 1.53 M86.66 60.75 C108.49 36.64, 126.05 14.49, 138.48 1.13 M86.66 60.75 C103.32 43.73, 117.42 25.48, 138.48 1.13 M92.3 60.36 C109.39 38.98, 130.11 16.65, 143.47 1.49 M92.3 60.36 C101.9 47.08, 114.41 35.2, 143.47 1.49 M97.29 60.72 C117.09 38.26, 137.28 15.12, 149.11 1.1 M97.29 60.72 C108.3 47.17, 120.79 34.6, 149.11 1.1 M102.93 60.32 C114.28 44.34, 130.06 30.09, 154.1 1.46 M102.93 60.32 C114.83 47.65, 127.17 33.85, 154.1 1.46 M107.92 60.68 C125.32 38.87, 143.82 17.18, 159.74 1.06 M107.92 60.68 C121.94 45.08, 136.88 28.08, 159.74 1.06 M113.56 60.29 C132.3 38.22, 152.49 15.85, 164.73 1.42 M113.56 60.29 C127.59 43.97, 143.39 26.59, 164.73 1.42 M118.55 60.65 C131.7 46.1, 145.46 29.31, 170.37 1.03 M118.55 60.65 C138.06 37.13, 158.74 15.69, 170.37 1.03 M124.19 60.25 C139.17 46.48, 150.25 27.96, 175.36 1.39 M124.19 60.25 C137.78 45.34, 150.51 29.07, 175.36 1.39 M129.18 60.61 C141.45 47.28, 151.56 31.37, 180.35 1.75 M129.18 60.61 C146.46 40.82, 162.2 21.92, 180.35 1.75 M134.82 60.22 C152.01 40.35, 167.21 21.97, 185.99 1.35 M134.82 60.22 C152.89 39.3, 171.68 16.3, 185.99 1.35 M139.81 60.58 C155.48 42.57, 169.84 22.72, 190.98 1.71 M139.81 60.58 C151.81 47.66, 162.72 35.38, 190.98 1.71 M145.45 60.19 C162.88 40.82, 180.09 17.79, 196.62 1.32 M145.45 60.19 C157.13 47.27, 169.41 33.28, 196.62 1.32 M150.44 60.55 C164.49 42.93, 175.84 29.06, 201.61 1.68 M150.44 60.55 C170.41 39.09, 188.18 16.5, 201.61 1.68 M155.42 60.91 C171.3 42.08, 188.13 19.75, 207.25 1.28 M155.42 60.91 C169.37 42.84, 185.41 26.58, 207.25 1.28 M161.07 60.51 C176.79 42, 195.94 22.27, 212.24 1.64 M161.07 60.51 C177.63 41.91, 194.18 22.65, 212.24 1.64 M166.05 60.87 C182.97 41.3, 196.79 23.22, 217.88 1.25 M166.05 60.87 C183.04 42.02, 197.98 23.88, 217.88 1.25 M171.7 60.48 C189.34 43.37, 205.38 23.05, 222.87 1.61 M171.7 60.48 C188.01 40.61, 205.8 20.5, 222.87 1.61 M176.68 60.84 C190.37 42.51, 207.6 24.88, 228.51 1.21 M176.68 60.84 C191.31 42.26, 207.34 24.65, 228.51 1.21 M182.33 60.44 C198.31 44.4, 209.44 29.29, 233.5 1.58 M182.33 60.44 C199.05 41.87, 213.98 23.18, 233.5 1.58 M187.31 60.8 C208.5 40.68, 225.04 15.86, 239.14 1.18 M187.31 60.8 C199.69 47.22, 211.21 31.56, 239.14 1.18 M192.96 60.41 C205.49 46.79, 215.7 30.54, 244.13 1.54 M192.96 60.41 C209.87 41.23, 224.86 23.7, 244.13 1.54 M197.94 60.77 C218.46 40.21, 233.96 15.89, 249.77 1.15 M197.94 60.77 C212.24 43.29, 227.56 26.76, 249.77 1.15 M203.59 60.37 C218.31 43.8, 233.99 23.15, 254.76 1.51 M203.59 60.37 C213.62 48.71, 223.75 36.01, 254.76 1.51 M208.57 60.73 C225.38 41.02, 246.29 19.56, 260.4 1.11 M208.57 60.73 C228.05 37.52, 248.41 13.78, 260.4 1.11 M214.22 60.34 C232.08 41.86, 248.45 23.67, 265.39 1.47 M214.22 60.34 C224.84 46.44, 237.15 33.37, 265.39 1.47 M219.2 60.7 C231.29 47.29, 241.13 36.91, 271.03 1.08 M219.2 60.7 C233.26 42.46, 249.82 26.3, 271.03 1.08 M224.85 60.3 C245.98 37.05, 265.96 13.81, 276.02 1.44 M224.85 60.3 C234.67 47.81, 247.1 36.58, 276.02 1.44 M229.83 60.66 C243.3 47.1, 255.85 29.48, 281.01 1.8 M229.83 60.66 C245.5 40.85, 261.53 21.41, 281.01 1.8 M235.48 60.27 C247.18 45.53, 257.54 34.16, 286.65 1.4 M235.48 60.27 C254.96 39.27, 272.11 16.71, 286.65 1.4 M240.46 60.63 C257.83 40.28, 277.47 17.14, 291.64 1.76 M240.46 60.63 C260.45 37.37, 280.59 14.03, 291.64 1.76 M246.11 60.24 C264.27 43.76, 277.22 25.78, 297.28 1.37 M246.11 60.24 C262.94 40.32, 280.82 21.92, 297.28 1.37 M251.09 60.6 C268.02 44.29, 279.83 24.86, 302.27 1.73 M251.09 60.6 C271.88 36.85, 290.96 12.61, 302.27 1.73 M256.08 60.96 C274.6 36.2, 295.75 15.79, 307.91 1.33 M256.08 60.96 C269.65 44.35, 283.84 29.45, 307.91 1.33 M261.72 60.56 C278.32 40.57, 299.54 17.34, 312.9 1.69 M261.72 60.56 C273.98 46.65, 284.6 32.59, 312.9 1.69 M266.71 60.92 C276.58 46.55, 288.69 34.85, 318.54 1.3 M266.71 60.92 C286.52 38.66, 305.09 15.77, 318.54 1.3 M272.35 60.53 C286.94 43.28, 304.91 22.6, 323.53 1.66 M272.35 60.53 C292.25 38.44, 310.79 17.18, 323.53 1.66 M277.34 60.89 C292.1 43.78, 309.86 25.67, 329.17 1.26 M277.34 60.89 C289.16 46.6, 301.59 33.16, 329.17 1.26 M282.98 60.49 C297.01 44.53, 314.29 26.33, 334.16 1.62 M282.98 60.49 C297.22 43.44, 312.09 26.72, 334.16 1.62 M287.97 60.85 C301.77 45.29, 312.4 30.51, 339.8 1.23 M287.97 60.85 C306.49 39.05, 326.55 16.8, 339.8 1.23 M293.61 60.46 C309.92 43.65, 322.67 28.47, 344.79 1.59 M293.61 60.46 C304.98 48.47, 314.89 34.77, 344.79 1.59 M298.6 60.82 C308.12 47.28, 323.14 33.91, 350.43 1.2 M298.6 60.82 C316.97 40.22, 336.33 17.6, 350.43 1.2 M304.24 60.42 C318.32 43.44, 332.97 27.69, 355.42 1.56 M304.24 60.42 C314.79 47.73, 325.85 36.85, 355.42 1.56 M309.23 60.78 C319.83 47.24, 329.3 36.87, 361.06 1.16 M309.23 60.78 C325.96 42.17, 342.59 23.28, 361.06 1.16 M314.87 60.39 C325.68 45.1, 339.54 32.34, 366.05 1.52 M314.87 60.39 C329.29 43.21, 344.44 26.92, 366.05 1.52 M319.86 60.75 C331.63 47.13, 340.86 36.13, 371.69 1.13 M319.86 60.75 C339.03 37.69, 360.56 15.03, 371.69 1.13 M325.5 60.35 C337.59 49.3, 347.52 33.47, 376.68 1.49 M325.5 60.35 C337.18 45.24, 351.22 29.84, 376.68 1.49 M330.49 60.71 C340.96 48.53, 354.96 31.46, 381.66 1.85 M330.49 60.71 C341.88 47.29, 354.07 32.52, 381.66 1.85 M336.13 60.32 C355.5 35.45, 376.75 12.4, 387.31 1.45 M336.13 60.32 C352.51 40.33, 370.03 21.85, 387.31 1.45 M341.12 60.68 C356.97 42.97, 373.5 23.38, 392.29 1.81 M341.12 60.68 C360.22 38.05, 380.13 14.64, 392.29 1.81 M346.76 60.29 C360.39 45.4, 370.35 31.23, 397.94 1.42 M346.76 60.29 C361.6 43.2, 377.8 25.62, 397.94 1.42 M351.75 60.65 C366.62 42.68, 382.21 24.61, 402.92 1.78 M351.75 60.65 C367.62 41.44, 385.03 23.17, 402.92 1.78 M356.74 61.01 C376.36 40.34, 396.79 15.76, 408.57 1.38 M356.74 61.01 C373.74 41.19, 390.5 21.46, 408.57 1.38 M362.38 60.61 C375.69 44.44, 388.66 31.78, 413.55 1.74 M362.38 60.61 C378.63 43.24, 394.58 23.55, 413.55 1.74 M367.37 60.97 C379.23 47.25, 394.75 28.37, 419.2 1.35 M367.37 60.97 C386.39 37.51, 406.78 14.71, 419.2 1.35 M373.01 60.58 C392.68 38.68, 413.98 14.62, 424.18 1.71 M373.01 60.58 C383.57 48.5, 393.26 36.76, 424.18 1.71 M378 60.94 C397.2 37.73, 416.06 19.33, 429.83 1.31 M378 60.94 C390.18 47.68, 402.04 33.05, 429.83 1.31 M383.64 60.54 C393.6 48.4, 406.53 33.81, 434.81 1.67 M383.64 60.54 C395.45 45.32, 408.04 32.06, 434.81 1.67 M388.63 60.9 C409.93 36.92, 427.11 15.53, 440.46 1.28 M388.63 60.9 C408.74 36.55, 429.25 12.75, 440.46 1.28 M394.27 60.51 C404.93 48.17, 416.96 33.98, 445.44 1.64 M394.27 60.51 C407.76 44.1, 421.31 29.24, 445.44 1.64 M399.26 60.87 C409.15 48.59, 421.31 37.86, 451.09 1.25 M399.26 60.87 C409.67 49.28, 420.55 36.72, 451.09 1.25 M404.9 60.47 C421.26 43.31, 437.95 21.14, 456.07 1.61 M404.9 60.47 C420.12 42.08, 435.13 23.92, 456.07 1.61 M409.89 60.83 C428.92 40, 446.2 22.16, 461.72 1.21 M409.89 60.83 C430.13 37.21, 449.53 15.28, 461.72 1.21 M415.53 60.44 C425.05 45.37, 436.46 34.51, 466.7 1.57 M415.53 60.44 C433.06 41.2, 451.87 19.18, 466.7 1.57 M420.52 60.8 C434.81 41.66, 449.6 26.41, 472.35 1.18 M420.52 60.8 C430.54 48.87, 441.85 36.18, 472.35 1.18 M426.16 60.4 C439.1 46.11, 451.16 33.49, 477.33 1.54 M426.16 60.4 C436.78 48.83, 446.68 35.98, 477.33 1.54 M431.15 60.76 C443.33 45.8, 453.92 33.95, 482.32 1.9 M431.15 60.76 C450.61 36.24, 472.07 14.2, 482.32 1.9 M436.79 60.37 C453.04 43.16, 467.67 26.17, 487.96 1.5 M436.79 60.37 C449.13 46.7, 462.43 31.13, 487.96 1.5 M441.78 60.73 C455.18 44.68, 466.77 30.92, 492.95 1.86 M441.78 60.73 C452.21 49.49, 462.67 37.47, 492.95 1.86 M447.42 60.33 C466.13 37.7, 485.92 15.46, 498.59 1.47 M447.42 60.33 C461.12 44.55, 473.8 29.42, 498.59 1.47 M452.41 60.69 C469.4 40.35, 487.99 16.95, 503.58 1.83 M452.41 60.69 C467.52 42.33, 483.09 24.35, 503.58 1.83 M457.4 61.06 C470.19 48.69, 480.93 32.87, 509.22 1.43 M457.4 61.06 C476.77 38.7, 496.58 15.19, 509.22 1.43 M463.04 60.66 C478.8 44.94, 493.75 24.56, 514.21 1.79 M463.04 60.66 C481.91 39.88, 498.29 20.03, 514.21 1.79 M468.03 61.02 C478.89 46.46, 492.49 33.78, 519.85 1.4 M468.03 61.02 C487.91 39.29, 506.46 17.73, 519.85 1.4 M473.67 60.63 C486.14 43.02, 499.66 30.02, 526.15 0.25 M473.67 60.63 C492.76 38.86, 513.58 15.95, 526.15 0.25 M478.66 60.99 C499.04 36.25, 517.96 14.95, 529.83 2.12 M478.66 60.99 C495.99 41.27, 513.15 19.71, 529.83 2.12 M484.3 60.59 C497.82 48.62, 509.52 32.23, 533.5 3.99 M484.3 60.59 C495 48.11, 504.54 36.9, 533.5 3.99 M489.29 60.95 C501.08 46.76, 517.56 28.54, 535.87 7.37 M489.29 60.95 C499.64 47.99, 511.98 35.5, 535.87 7.37 M494.93 60.56 C505.23 48.73, 514.76 35.97, 538.23 10.75 M494.93 60.56 C505.44 46.99, 517.24 34.71, 538.23 10.75 M499.92 60.92 C513.58 47.28, 527.71 30.84, 538.62 16.39 M499.92 60.92 C514.59 44.86, 528.41 27.63, 538.62 16.39 M505.56 60.52 C515.06 50.22, 524.9 39.36, 538.36 22.79 M505.56 60.52 C516.76 47.61, 527.89 34.75, 538.36 22.79 M510.55 60.88 C520.27 49.56, 530.48 34.6, 538.76 28.43 M510.55 60.88 C516.67 54.3, 523.46 47.39, 538.76 28.43 M516.19 60.49 C522.9 56.72, 526.73 49.38, 539.15 34.07 M516.19 60.49 C522.03 53.85, 526.67 47.46, 539.15 34.07 M522.49 59.34 C527.57 53.65, 529.48 48.99, 538.89 40.47 M522.49 59.34 C526.87 55.48, 531.26 49.11, 538.89 40.47 M528.13 58.94 C530.92 54.8, 531.84 52.72, 537.32 48.38 M528.13 58.94 C531.13 55.96, 533.99 52.3, 537.32 48.38 M5.72 57.44 C5.72 57.44, 5.72 57.44, 5.72 57.44 M5.72 57.44 C5.72 57.44, 5.72 57.44, 5.72 57.44 M12.87 58.35 C9.48 55.6, 6.52 52.13, 2.31 49.17 M12.87 58.35 C9.98 54.84, 6.11 52.31, 2.31 49.17 M18.52 57.96 C13.85 54.76, 8.56 51.57, 2.67 44.18 M18.52 57.96 C16.03 54.61, 11.68 52.78, 2.67 44.18 M24.92 58.22 C17.21 49.89, 5.98 41.33, 2.27 38.54 M24.92 58.22 C19.16 52.7, 12.23 46.86, 2.27 38.54 M30.56 57.83 C21.71 47.74, 11.01 38.94, 1.88 32.9 M30.56 57.83 C25 51.18, 17.66 45.87, 1.88 32.9 M36.96 58.09 C30.42 50.61, 23.78 44.5, 2.24 27.91 M36.96 58.09 C29.21 50.34, 21.15 43.87, 2.24 27.91 M43.35 58.35 C30.65 44.84, 12.3 31.09, 1.84 22.27 M43.35 58.35 C32.57 48.51, 23.32 41.14, 1.84 22.27 M49 57.95 C35.87 46.13, 24.12 36.6, 1.45 16.62 M49 57.95 C30.72 41.37, 13.02 26.05, 1.45 16.62 M55.39 58.22 C34.76 39.81, 16.28 23.45, 2.56 12.29 M55.39 58.22 C39.15 43.8, 23.6 30.56, 2.56 12.29 M61.04 57.82 C45.95 44.11, 31.91 32.33, 2.17 6.65 M61.04 57.82 C48.91 46.82, 35.88 36.3, 2.17 6.65 M67.44 58.08 C46.48 42.06, 27.42 24.59, 4.04 2.97 M67.44 58.08 C43.15 36.66, 18.91 16.03, 4.04 2.97 M73.83 58.34 C53.54 41, 37.78 26.34, 8.17 1.27 M73.83 58.34 C60.73 46.02, 46.32 34.84, 8.17 1.27 M79.48 57.95 C58.42 39.65, 39.76 24.5, 10.8 -1.75 M79.48 57.95 C59.97 38.82, 37.52 22.3, 10.8 -1.75 M85.87 58.21 C63.12 38.1, 40.84 17.86, 16.44 -2.15 M85.87 58.21 C65.87 40.87, 44.92 22.16, 16.44 -2.15 M91.52 57.82 C74.49 41.63, 55.48 29.81, 22.84 -1.88 M91.52 57.82 C75.18 45, 59.3 29.92, 22.84 -1.88 M97.91 58.08 C75.11 41.2, 57.13 19.46, 28.48 -2.28 M97.91 58.08 C75.32 39.81, 52.97 19.92, 28.48 -2.28 M104.31 58.34 C79.67 35.38, 54.37 12.09, 34.88 -2.02 M104.31 58.34 C79.92 37.29, 56.8 16.41, 34.88 -2.02 M109.96 57.94 C84.8 33.7, 57.3 11.18, 41.28 -1.76 M109.96 57.94 C84.89 36.45, 58.75 14.98, 41.28 -1.76 M116.35 58.21 C90.75 35.9, 65.08 11.77, 46.92 -2.15 M116.35 58.21 C89.78 35.55, 62.2 12.04, 46.92 -2.15 M122 57.81 C98.39 40.1, 77.98 17.71, 53.32 -1.89 M122 57.81 C102.71 41.53, 83.5 24.1, 53.32 -1.89 M128.39 58.07 C110.08 43.22, 90.53 24.98, 58.96 -2.28 M128.39 58.07 C106.4 38.69, 82.2 18.47, 58.96 -2.28 M134.79 58.33 C111.97 37.79, 93.82 20.39, 65.36 -2.02 M134.79 58.33 C115.21 41.72, 94.74 25.24, 65.36 -2.02 M140.44 57.94 C125.94 41.74, 109.14 27.74, 71.76 -1.76 M140.44 57.94 C122.07 41.35, 101.55 24.08, 71.76 -1.76 M146.83 58.2 C124.9 39.37, 100.06 19.33, 77.4 -2.16 M146.83 58.2 C131.83 44.97, 115.74 30.71, 77.4 -2.16 M153.23 58.46 C133.06 42.34, 114.1 25.2, 83.8 -1.89 M153.23 58.46 C126.74 35.86, 100.64 12.96, 83.8 -1.89 M158.87 58.07 C141.55 45.19, 129.44 29.3, 90.2 -1.63 M158.87 58.07 C137.43 39.52, 117.97 21.43, 90.2 -1.63 M165.27 58.33 C149.44 45.14, 135.98 32.07, 95.84 -2.03 M165.27 58.33 C144.41 39.74, 121.84 20.39, 95.84 -2.03 M170.91 57.94 C142.7 32.99, 116.46 13.34, 102.24 -1.77 M170.91 57.94 C148.02 37.18, 126.22 18.36, 102.24 -1.77 M177.31 58.2 C162.19 43.02, 145.11 26.26, 107.88 -2.16 M177.31 58.2 C150.58 34.71, 123.42 11.65, 107.88 -2.16 M183.71 58.46 C167.31 44.96, 150.21 30.42, 114.28 -1.9 M183.71 58.46 C162.51 40.48, 143.55 22.22, 114.28 -1.9 M189.35 58.06 C173.98 45.66, 158.59 30.15, 120.67 -1.64 M189.35 58.06 C169.8 41.09, 149.58 23.98, 120.67 -1.64 M195.75 58.32 C177.87 41.32, 158.07 25.36, 126.32 -2.03 M195.75 58.32 C171.19 35.72, 143.98 12.7, 126.32 -2.03 M201.39 57.93 C184.01 42.97, 170.81 29.12, 132.72 -1.77 M201.39 57.93 C181.62 42.07, 162.14 23.43, 132.72 -1.77 M207.79 58.19 C187.56 40.75, 165.91 24.02, 138.36 -2.17 M207.79 58.19 C186.54 39.21, 163.56 21.67, 138.36 -2.17 M214.19 58.45 C191.53 42.84, 171.69 22.06, 144.76 -1.9 M214.19 58.45 C198.3 45.47, 182.68 32, 144.76 -1.9 M219.83 58.06 C205.81 45.07, 191.44 35.05, 151.15 -1.64 M219.83 58.06 C201.08 40.58, 179.95 25.4, 151.15 -1.64 M226.23 58.32 C203.95 39.13, 184.67 21.42, 156.8 -2.04 M226.23 58.32 C199.35 36.35, 173.57 13.88, 156.8 -2.04 M231.87 57.93 C214.01 40.56, 195.27 26.32, 163.2 -1.78 M231.87 57.93 C216.23 44.3, 201.78 31.2, 163.2 -1.78 M238.27 58.19 C211.85 38.7, 189.09 15.43, 168.84 -2.17 M238.27 58.19 C213.74 38.9, 190.49 16.82, 168.84 -2.17 M244.67 58.45 C229.85 44.68, 215.18 32.38, 175.24 -1.91 M244.67 58.45 C227.87 42.48, 211.74 29.22, 175.24 -1.91 M250.31 58.05 C225.96 39.81, 205.86 19.36, 181.63 -1.65 M250.31 58.05 C226.2 37.08, 200.61 15.27, 181.63 -1.65 M256.71 58.32 C237.44 40.97, 213.5 21.47, 187.28 -2.04 M256.71 58.32 C238.49 42, 220.02 25.37, 187.28 -2.04 M262.35 57.92 C238.94 35.59, 210.36 13.89, 193.67 -1.78 M262.35 57.92 C245.23 43.66, 230.6 28.65, 193.67 -1.78 M268.75 58.18 C250.72 43.21, 230.51 22.94, 199.32 -2.18 M268.75 58.18 C255.77 46.48, 240.41 34.63, 199.32 -2.18 M275.15 58.44 C251.84 37.06, 223.8 13.29, 205.72 -1.91 M275.15 58.44 C249.49 37.81, 223.37 16.08, 205.72 -1.91 M280.79 58.05 C262.88 41.9, 241.47 22.31, 212.11 -1.65 M280.79 58.05 C258.55 39.02, 235.4 18.44, 212.11 -1.65 M287.19 58.31 C267.48 41.55, 248.88 21.92, 217.76 -2.05 M287.19 58.31 C263.8 39.41, 242.45 20.42, 217.76 -2.05 M292.83 57.92 C276.48 43.83, 259.42 28.15, 224.15 -1.79 M292.83 57.92 C269.94 38.85, 247.49 18.7, 224.15 -1.79 M299.23 58.18 C281.53 41.78, 261.61 21.99, 229.8 -2.18 M299.23 58.18 C278.88 40.39, 260 22.73, 229.8 -2.18 M305.63 58.44 C280.43 39.16, 257.48 16.02, 236.2 -1.92 M305.63 58.44 C287.42 41.28, 269.18 26.42, 236.2 -1.92 M311.27 58.04 C289.07 39.12, 266.9 20.09, 242.59 -1.66 M311.27 58.04 C295.82 44.33, 281.65 32.86, 242.59 -1.66 M317.67 58.31 C293.6 38.55, 269.95 17.63, 248.24 -2.05 M317.67 58.31 C290.55 35.33, 264.5 11.46, 248.24 -2.05 M323.31 57.91 C300.69 38.09, 275.63 16.63, 254.63 -1.79 M323.31 57.91 C305.89 42.71, 289.72 26.84, 254.63 -1.79 M329.71 58.17 C315.23 44.59, 300.19 35.27, 260.28 -2.18 M329.71 58.17 C307.39 38.73, 283.77 18.67, 260.28 -2.18 M336.11 58.43 C311.02 34.23, 286.24 10.63, 266.67 -1.92 M336.11 58.43 C314.14 37.25, 291.32 17.93, 266.67 -1.92 M341.75 58.04 C319.46 36.07, 294.24 19, 273.07 -1.66 M341.75 58.04 C318.57 39.29, 295.6 19.99, 273.07 -1.66 M348.15 58.3 C335.5 44.24, 319.59 34.08, 278.72 -2.06 M348.15 58.3 C322.76 36.67, 298.02 13.62, 278.72 -2.06 M353.79 57.91 C329.75 35.21, 305.42 13.1, 285.11 -1.8 M353.79 57.91 C327.25 34.84, 301.18 11.59, 285.11 -1.8 M360.19 58.17 C341.72 42.67, 325.58 27.36, 291.51 -1.53 M360.19 58.17 C341.12 42.47, 323.05 26.53, 291.51 -1.53 M366.59 58.43 C347.99 40.66, 329.26 25.84, 297.15 -1.93 M366.59 58.43 C344.87 39.37, 323.03 18.88, 297.15 -1.93 M372.23 58.03 C346.1 36.55, 323.45 18.55, 303.55 -1.67 M372.23 58.03 C349.83 38.97, 327.61 18.43, 303.55 -1.67 M378.63 58.3 C356.23 38.4, 331.33 16.51, 309.2 -2.06 M378.63 58.3 C358.1 41.51, 336.77 23.21, 309.2 -2.06 M385.03 58.56 C364.86 39.73, 343.52 21.89, 315.59 -1.8 M385.03 58.56 C368.22 44.07, 352.37 29.82, 315.59 -1.8 M390.67 58.16 C366.61 34.4, 337.63 15.25, 321.99 -1.54 M390.67 58.16 C368.01 38.94, 346.5 21.18, 321.99 -1.54 M397.07 58.42 C382.23 45.8, 366.12 31.25, 327.63 -1.93 M397.07 58.42 C378.91 42.64, 361.18 27.29, 327.63 -1.93 M402.71 58.03 C387.19 42.2, 368.52 30.5, 334.03 -1.67 M402.71 58.03 C381 39.03, 358.11 19.53, 334.03 -1.67 M409.11 58.29 C387.33 40.95, 364.9 19.5, 339.67 -2.07 M409.11 58.29 C391.11 42.12, 374.31 26.24, 339.67 -2.07 M415.51 58.55 C398.1 47, 384.81 30.25, 346.07 -1.8 M415.51 58.55 C396 42.73, 375.3 25.68, 346.07 -1.8 M421.15 58.16 C400.01 40.29, 381.49 24.33, 352.47 -1.54 M421.15 58.16 C402.33 40.94, 383.79 26.1, 352.47 -1.54 M427.55 58.42 C398.85 32.94, 371.61 8.76, 358.11 -1.94 M427.55 58.42 C406.03 38.58, 381.4 19.76, 358.11 -1.94 M433.19 58.02 C417.82 45.78, 401.88 32.79, 364.51 -1.68 M433.19 58.02 C410.02 36.81, 385.88 15.87, 364.51 -1.68 M439.59 58.29 C422.19 42.89, 403.64 26.04, 370.15 -2.07 M439.59 58.29 C412.43 35.03, 386.05 12.04, 370.15 -2.07 M445.99 58.55 C429.03 46.8, 414.57 31.09, 376.55 -1.81 M445.99 58.55 C427.03 41.03, 407.21 25.14, 376.55 -1.81 M451.63 58.15 C430.4 38.68, 411.28 20.35, 382.95 -1.55 M451.63 58.15 C425.23 35.67, 400.96 13.09, 382.95 -1.55 M458.03 58.41 C430.75 33.19, 404.12 9.32, 388.59 -1.94 M458.03 58.41 C438.6 40.45, 416.6 22.26, 388.59 -1.94 M463.67 58.02 C443.21 41.34, 424.29 24.02, 394.99 -1.68 M463.67 58.02 C437.05 36.42, 412.64 13.82, 394.99 -1.68 M470.07 58.28 C450.53 41.42, 429.92 27.23, 400.63 -2.08 M470.07 58.28 C443.8 35.29, 416.65 13.12, 400.63 -2.08 M476.46 58.54 C456.81 39.11, 436.81 24.23, 407.03 -1.81 M476.46 58.54 C456.23 40.21, 434.52 23.4, 407.03 -1.81 M482.11 58.15 C469.68 46.87, 452.98 34.73, 413.43 -1.55 M482.11 58.15 C459.88 38.04, 437.36 19.07, 413.43 -1.55 M488.51 58.41 C467.88 38.22, 444.86 21.69, 419.07 -1.95 M488.51 58.41 C473.23 43.71, 457.8 31.95, 419.07 -1.95 M494.15 58.02 C470.01 37.64, 447.48 17.46, 425.47 -1.69 M494.15 58.02 C473.64 39.67, 452.68 21.96, 425.47 -1.69 M500.55 58.28 C484.17 40.67, 461.99 23.65, 431.11 -2.08 M500.55 58.28 C471.79 34.08, 445.05 10.03, 431.11 -2.08 M506.94 58.54 C492.99 46.22, 476.02 32.84, 437.51 -1.82 M506.94 58.54 C488.84 41.57, 470.79 27.33, 437.51 -1.82 M512.59 58.14 C486.57 36.97, 464.65 17.42, 443.91 -1.56 M512.59 58.14 C494.23 41.55, 474.31 24.72, 443.91 -1.56 M518.98 58.4 C502.54 45.82, 488.07 30.71, 449.55 -1.95 M518.98 58.4 C494.79 38.7, 472.78 17.33, 449.55 -1.95 M523.87 57.35 C498.23 38.85, 477.91 14.45, 455.95 -1.69 M523.87 57.35 C503.22 38.31, 481.07 21.16, 455.95 -1.69 M529.52 56.96 C504.22 33.8, 477.36 12.26, 461.59 -2.09 M529.52 56.96 C511.56 39.64, 490.96 22.41, 461.59 -2.09 M533.65 55.25 C516.17 42, 502.36 29.72, 467.99 -1.82 M533.65 55.25 C513.81 38.53, 492.28 19.89, 467.99 -1.82 M535.52 51.58 C518.9 38.71, 503.98 25.31, 474.39 -1.56 M535.52 51.58 C522.46 40.51, 510.18 29.42, 474.39 -1.56 M537.39 47.9 C525.25 35.49, 509.05 23.93, 480.03 -1.96 M537.39 47.9 C520.32 32.92, 502.07 17.51, 480.03 -1.96 M536.99 42.26 C522.1 29.62, 510.35 17.27, 486.43 -1.7 M536.99 42.26 C525.02 31.12, 514.27 21.52, 486.43 -1.7 M537.35 37.27 C521.76 21.41, 502.42 6.91, 492.07 -2.09 M537.35 37.27 C524.06 26.66, 511.96 15.75, 492.07 -2.09 M536.96 31.63 C527.64 23.38, 515.81 12.91, 498.47 -1.83 M536.96 31.63 C528.65 23.06, 520.39 15.34, 498.47 -1.83 M536.57 25.99 C527.02 18.76, 519.28 10.79, 504.87 -1.57 M536.57 25.99 C528.8 18.55, 522.31 12.16, 504.87 -1.57 M536.93 21 C529.01 15.32, 522.45 8.23, 510.51 -1.96 M536.93 21 C529.73 14.1, 521.25 7.53, 510.51 -1.96 M536.53 15.36 C528.92 10.77, 523.98 1.43, 516.91 -1.7 M536.53 15.36 C528.74 8.84, 523.64 4.15, 516.91 -1.7 M536.14 9.71 C532.81 6.28, 528.14 2.95, 523.31 -1.44 M536.14 9.71 C532.68 5.83, 527.69 3.24, 523.31 -1.44" stroke="#868e96" stroke-width="0.5" fill="none"></path><path d="M14.9 0 M14.9 0 C186.25 -0.77, 356.22 -0.87, 522.07 0 M14.9 0 C206.46 -1.57, 398.31 -1.18, 522.07 0 M522.07 0 C532.13 0.58, 538.41 6.82, 536.97 14.9 M522.07 0 C531.94 0.33, 538.45 5.03, 536.97 14.9 M536.97 14.9 C535.48 22.75, 538.52 29.78, 536.97 44.71 M536.97 14.9 C536.7 23.25, 536.04 31, 536.97 44.71 M536.97 44.71 C537.71 53.3, 532.65 61.47, 522.07 59.62 M536.97 44.71 C536.95 54.17, 531.79 61.16, 522.07 59.62 M522.07 59.62 C370.69 57.99, 219.03 58.13, 14.9 59.62 M522.07 59.62 C401.97 58.21, 282.66 58.05, 14.9 59.62 M14.9 59.62 C3.5 58.8, -1.66 54.52, 0 44.71 M14.9 59.62 C3.76 61.43, 0.42 54.19, 0 44.71 M0 44.71 C-0.45 37.32, -1.23 26.96, 0 14.9 M0 44.71 C0.86 38.09, -0.09 33.29, 0 14.9 M0 14.9 C-1.87 5.81, 3.16 -1.71, 14.9 0 M0 14.9 C-2.2 7.07, 5.21 1.26, 14.9 0" stroke="#000000" stroke-width="1" fill="none"></path></g><g stroke-linecap="round" transform="translate(41.7615966796875 270.3789978027344) rotate(0 21.89251708984375 21.027740478515625)"><path d="M3.83 7.3 C3.83 7.3, 3.83 7.3, 3.83 7.3 M3.83 7.3 C3.83 7.3, 3.83 7.3, 3.83 7.3 M0.62 16.6 C2.93 11.17, 5.75 8.13, 13.39 4.9 M1.89 15.89 C4.38 12.74, 8.34 7.56, 11.91 3.26 M-1.28 22.9 C5.02 17.71, 8.6 14.92, 17.41 3.36 M-0.19 22.65 C6.33 16.56, 9.44 12.77, 18.88 2.78 M2.54 26.63 C6.37 20.77, 12.56 16.63, 23.78 3.62 M3.36 26.85 C9.12 19.88, 14.74 13.51, 22.58 2.94 M3.41 28.8 C12.15 24.84, 17.94 15.78, 30.22 3.63 M4.72 30.1 C11.52 23.44, 18.8 13.62, 27.62 3.75 M7.74 36.51 C12.27 25.89, 20 20.46, 33.27 4.39 M7.08 35.39 C15.2 25.61, 23.92 14.35, 31.78 3.98 M10.96 37.35 C19.04 25.5, 28.37 15.83, 35.37 6.64 M10.7 37.55 C16.61 30.03, 23.35 22.59, 36.52 7.81 M13.82 39.95 C21.89 31.92, 27.59 21, 39.64 7.9 M12.92 38.05 C18.94 32.29, 26.18 24.37, 39.53 9.99 M17.11 42.46 C25.35 32.39, 31.44 22.43, 40.14 12.69 M16.64 41.75 C27.58 30.5, 36.18 18.57, 42.7 12.41 M19.83 42.28 C28.37 34.19, 32.3 27.72, 42.05 16.57 M20.25 42.82 C27.08 34.84, 32.71 27.67, 42.04 18.34 M27.35 40.06 C28.58 39.81, 32.73 35.71, 42.35 24.35 M27.54 41.07 C30.49 37.22, 34.24 32.16, 42.16 24.89" stroke="#868e96" stroke-width="0.5" fill="none"></path><path d="M17.66 1.25 C21.96 0.06, 27.49 1.43, 31.52 3.25 C35.56 5.06, 40.13 8.18, 41.87 12.14 C43.6 16.1, 43.18 22.53, 41.93 27.01 C40.69 31.49, 38.09 36.47, 34.39 39.04 C30.68 41.6, 24.36 43.15, 19.71 42.39 C15.06 41.63, 9.7 37.81, 6.48 34.49 C3.26 31.17, 0.87 26.97, 0.41 22.47 C-0.05 17.96, 0.45 11.01, 3.7 7.45 C6.95 3.89, 17.08 2.32, 19.9 1.1 C22.72 -0.11, 20.65 0.02, 20.63 0.15 M14.49 2.66 C18.28 1.34, 23.84 1.35, 28.32 2.51 C32.79 3.67, 38.78 6.1, 41.33 9.63 C43.88 13.15, 44.45 19.16, 43.62 23.69 C42.8 28.22, 39.8 33.6, 36.37 36.81 C32.94 40.03, 27.88 42.75, 23.06 42.98 C18.24 43.2, 11.44 41.19, 7.47 38.16 C3.5 35.14, 0.25 29.32, -0.75 24.82 C-1.76 20.32, -1.1 15.33, 1.42 11.18 C3.94 7.02, 12.08 1.62, 14.38 -0.09 C16.69 -1.8, 15.26 0.55, 15.25 0.9" stroke="#000000" stroke-width="1" fill="none"></path></g><g stroke-linecap="round" transform="translate(485.019775390625 270.554443359375) rotate(0 21.89251708984375 21.027740478515625)"><path d="M5.67 7.58 C5.67 7.58, 5.67 7.58, 5.67 7.58 M5.67 7.58 C5.67 7.58, 5.67 7.58, 5.67 7.58 M1 16.6 C4.54 11.04, 11.98 8.39, 15.01 3.65 M1.4 18.66 C6.2 13.31, 9.19 7.7, 15.46 2.01 M5.49 21.1 C6.24 18.74, 12.44 10.28, 18.44 2.68 M4.69 22.17 C9.33 14.78, 16.45 7.84, 21.14 2.38 M4.58 28.02 C14.36 17.39, 18.82 11.31, 25.36 3.79 M5.13 27.74 C10.35 20.48, 16.99 14.23, 25.9 3.82 M8.23 30.93 C17.02 19.36, 23.85 9.33, 29.75 4.71 M6.46 30.46 C11.52 24.37, 16.92 20.02, 30.21 5.26 M9.38 34.67 C15.48 27.41, 22.04 19.31, 35.93 2.15 M7.65 35.83 C14.07 29.25, 18.28 22.4, 34.88 3.97 M13.28 36.83 C17.99 29.58, 25.73 21.72, 38.88 8.91 M12.03 37.4 C19.48 29.14, 28.83 18.33, 37.19 6.88 M15.87 39.06 C22.81 28.05, 33.98 19.02, 40.21 11.71 M13.38 40.44 C19.95 33.69, 24.04 28.71, 40.55 10.75 M16.41 40.73 C25.94 33.13, 36.56 21.99, 42.47 14.59 M18.32 41.75 C27.54 31.69, 34.97 20.89, 42.58 13.71 M22.39 42.75 C28.98 33.08, 34.17 28.66, 46.63 16.85 M22.98 41.78 C31.47 31.68, 40.79 22.4, 44.34 17.52 M27.1 42.54 C34.89 34.96, 37.69 31, 44.25 21.56 M28.31 41.87 C34.05 36.84, 38.44 31.14, 44.28 22.31" stroke="#868e96" stroke-width="0.5" fill="none"></path><path d="M18.45 0.89 C22.85 -0.06, 30.18 1.06, 34.23 3.36 C38.29 5.67, 41.39 10.46, 42.79 14.71 C44.2 18.96, 44.47 24.6, 42.65 28.85 C40.84 33.1, 36.29 38.25, 31.9 40.21 C27.51 42.17, 20.73 41.76, 16.29 40.62 C11.86 39.49, 7.83 36.93, 5.27 33.41 C2.72 29.9, 0.9 23.83, 0.97 19.52 C1.04 15.21, 2.23 10.74, 5.69 7.55 C9.16 4.36, 18.6 1.63, 21.78 0.36 C24.95 -0.91, 24.59 -0.22, 24.72 -0.06 M19.67 1.38 C24.22 0.78, 30 0.58, 33.88 3.08 C37.76 5.57, 41.39 12.05, 42.93 16.34 C44.48 20.62, 45.24 24.91, 43.16 28.77 C41.08 32.64, 34.71 37.36, 30.46 39.53 C26.21 41.7, 21.94 42.65, 17.67 41.79 C13.4 40.93, 7.85 38.11, 4.85 34.39 C1.85 30.68, -0.4 24.04, -0.32 19.5 C-0.23 14.96, 2.08 10.3, 5.36 7.15 C8.64 4, 16.92 1.87, 19.38 0.62 C21.84 -0.63, 20.23 -0.65, 20.11 -0.33" stroke="#000000" stroke-width="1" fill="none"></path></g><g stroke-linecap="round" transform="translate(256.3597412109375 271.549072265625) rotate(0 21.89251708984375 21.027740478515625)"><path d="M8.07 5.69 C8.07 5.69, 8.07 5.69, 8.07 5.69 M8.07 5.69 C8.07 5.69, 8.07 5.69, 8.07 5.69 M1.47 16.29 C6.46 15.95, 8.23 12.26, 18.67 2.82 M2.98 19.08 C5.55 14.59, 9.21 11.48, 17.02 1.46 M2.97 21.61 C8.29 15.97, 15.68 7.45, 23.43 -0.68 M2.67 22.26 C8.47 18.38, 12.81 13.28, 23.53 0.15 M3.25 29.14 C9.52 20.72, 15.99 16.63, 28.06 3.27 M3.35 28.21 C9.32 22.22, 13.33 16.47, 26.85 2.64 M4.96 35.12 C10.81 23.92, 16.91 18.57, 31.62 6.03 M5.31 33.95 C13.67 22.57, 21.41 13.23, 29.65 3.47 M9.47 34.79 C19.42 25.22, 29.49 10.44, 35.44 6.75 M7.12 35.35 C17.35 25.08, 28.51 13.7, 34.16 5.11 M11.13 40.71 C20.65 27.54, 27.3 21.4, 40.64 6.86 M11.56 39.7 C18.16 31.94, 24.13 24.18, 39.4 6.62 M15.98 43.16 C21.49 34.01, 31.11 20.78, 39.54 10.3 M14.15 42.37 C19.68 36.02, 25.85 27.78, 40.4 12.2 M19.26 40.7 C25.22 34.36, 35.34 24.78, 40.51 14.27 M18.37 41.61 C24.17 34.15, 30.53 28.26, 42.71 16.14 M25.67 40.66 C27.62 36.99, 34.5 32.87, 44.16 17.73 M25.71 41.27 C29.59 35.55, 35.32 29.47, 44.43 19.6 M30.12 41.89 C35.07 35.74, 37.61 32.3, 43.5 25.53 M30.11 41.85 C34.28 37.17, 39.18 30.95, 42.15 26.93" stroke="#868e96" stroke-width="0.5" fill="none"></path><path d="M21.69 -0.48 C26.04 -0.6, 32.66 1.94, 36.16 5.1 C39.66 8.26, 42.05 14.08, 42.69 18.48 C43.34 22.88, 42.33 27.77, 40.02 31.51 C37.71 35.25, 33.25 39.31, 28.82 40.92 C24.39 42.53, 17.65 42.62, 13.43 41.15 C9.22 39.68, 5.58 36.14, 3.53 32.09 C1.48 28.04, 0.33 21.29, 1.12 16.85 C1.91 12.41, 3.81 8.25, 8.28 5.44 C12.75 2.64, 23.97 0.5, 27.92 0.03 C31.88 -0.43, 32.24 2.22, 32.03 2.66 M25.41 -0.08 C30.08 0.69, 35.53 4.18, 38.77 7.68 C42.02 11.17, 45.1 16.56, 44.9 20.9 C44.71 25.25, 40.91 30.32, 37.6 33.76 C34.29 37.21, 29.61 40.84, 25.06 41.57 C20.5 42.29, 14.48 40.1, 10.29 38.1 C6.11 36.09, 1.56 33.68, -0.03 29.55 C-1.62 25.41, -1.07 17.74, 0.75 13.3 C2.57 8.87, 6.7 4.92, 10.87 2.92 C15.04 0.93, 23.11 1.66, 25.77 1.33 C28.43 1.01, 26.98 0.83, 26.85 0.96" stroke="#000000" stroke-width="1" fill="none"></path></g><g stroke-linecap="round" transform="translate(10 10) rotate(0 83.37608337402344 14.101348876953125)"><path d="M-0.02 14.56 C-0.02 14.56, -0.02 14.56, -0.02 14.56 M-0.02 14.56 C-0.02 14.56, -0.02 14.56, -0.02 14.56 M3.7 18.08 C5.2 13.97, 8.39 11.51, 9.32 11.2 M2.95 17.52 C5.12 14.47, 7.31 11.76, 9.33 10.78 M5.39 18.53 C8.12 15.42, 11.76 14.04, 15.25 10.48 M6.11 19.08 C9.96 16.1, 12.64 13.11, 15.26 8.89 M11.54 19.53 C11.87 17.25, 17.12 14.27, 20.85 7.03 M10.79 21.51 C13.73 17.22, 14.89 15.49, 22.58 7.01 M14.89 23.19 C15.9 18.18, 19.45 16.12, 31.7 4.45 M14.82 23.46 C17.48 19.41, 21.27 14.31, 29.98 4.76 M18.94 25.28 C22.77 18.25, 29.83 10.26, 36.87 3.76 M18.34 23.86 C22.63 18.7, 28.58 13, 35.36 3.98 M24.79 23.23 C28.06 19.1, 33.68 12.31, 42.95 4.86 M23.18 23.65 C28.61 17.6, 34.24 10.92, 42.05 3.84 M27.57 26.89 C34.9 16.78, 40.11 10.01, 47.37 3.16 M28.47 25.46 C33.46 19.45, 38.42 11.85, 47.32 2.26 M31.1 27.29 C40.61 16.42, 46.61 11.97, 53.44 2.85 M33.3 26.4 C40.72 15.94, 49.65 6.68, 53.94 0.95 M37.05 28.23 C45.96 16.57, 55.77 8.97, 58.1 0.31 M36.25 27.39 C45.14 18.65, 51.86 9.2, 60.2 0.63 M41.41 24.98 C50.16 16.39, 60.36 5.93, 65.87 -1.06 M42.07 25.55 C50.18 18.41, 57.43 9.63, 66.01 -0.5 M45.74 26.06 C58.57 15.71, 64 6.9, 72.59 1.1 M47.17 27.81 C57.14 15.63, 66.04 6.04, 71 -0.94 M54.24 27.21 C59.45 17.02, 69.57 10.71, 75.27 1.91 M52.98 26.56 C58.18 19.16, 64.63 12.44, 76.54 -0.47 M56.97 28.65 C65.74 19.76, 71.32 9.97, 83.26 -1.57 M57.35 26.74 C66.38 16.49, 74.77 6.75, 81.21 -1.11 M61.02 27.85 C70.39 18.26, 78.73 9.02, 87.46 0.75 M62.03 28.28 C69.36 19.62, 78.04 11.07, 86.25 -0.34 M68.96 29 C74.39 21.4, 81.84 15.27, 90.78 0.92 M67.38 27.35 C72.34 22.06, 77.86 17.02, 92.23 -0.41 M73.41 28.54 C82.68 20.06, 91.77 6.92, 96.6 0.73 M73.11 27.65 C81.9 19.55, 90.14 8.51, 97.81 -0.82 M79.49 28.63 C88.59 18.78, 97.22 4.84, 101.39 -0.54 M77.07 29.64 C85.41 20.14, 92.83 11.13, 102.6 1.23 M82.69 31.43 C87.89 23.27, 92.21 15.66, 109.08 -1.14 M81.31 30.53 C91.91 18.51, 100.58 7.5, 107.76 1.5 M85.97 29.55 C96.59 21.53, 104.58 8.62, 110.96 -0.31 M87.46 30.53 C91.9 25.25, 97.23 18.93, 112.16 1.03 M91.01 31.38 C97.77 22.23, 105.11 13.27, 116.19 3.16 M92.23 29.87 C101.74 20.34, 109.88 11.27, 117.16 1.38 M97.33 29.77 C106.46 22.62, 111.61 13.73, 120.91 1.49 M98.76 29.28 C106.86 21.18, 114.95 11.06, 121.91 2.84 M102.13 30.04 C110.31 22.46, 111.49 17.28, 126.8 3.88 M104.72 29.75 C110.78 21.08, 118.43 13.37, 126.26 2.22 M110.13 28.29 C112.78 24.45, 118.41 18.6, 130.22 3 M110.42 28.54 C114.3 22.68, 120.91 15.67, 132.05 3.1 M115.41 29.56 C118.4 22.74, 125.03 18.75, 135.4 6.03 M114.86 29.16 C119.03 24.67, 124.03 19.25, 136.58 4.55 M119.19 29.64 C125.48 22.1, 130.12 16.97, 139.53 5.11 M119.78 28.85 C125.48 22.99, 131.13 17.48, 142.01 5.41 M126.42 27.3 C131.17 20.09, 137.27 14.91, 146.7 4.13 M126.52 26.65 C132.5 20.13, 138.71 11.98, 145.46 6.77 M132.87 24.56 C135.42 22.15, 140.66 18.86, 151.64 6.21 M133.33 25.34 C137.61 20.72, 140.9 16.02, 151.08 5.23 M138.34 25.67 C144.11 19.55, 151.27 13, 152.99 9.19 M138.86 24.21 C143.13 20.93, 147.43 16.32, 155.48 8.16 M145.15 22.59 C151.4 16.78, 153.2 11.46, 160.34 9.92 M146.84 24.3 C151.44 18.9, 154.86 13.37, 159.12 7.66 M151.27 22.23 C153.48 20.66, 155.52 15.04, 161.64 9.56 M151.51 23.25 C153.07 19.69, 156.44 16.75, 161.85 9.68 M159.05 20.33 C160.89 20.01, 161.11 16.68, 165.71 13.41 M158.88 20.91 C160.16 19.32, 161.47 17.8, 164.8 13.53 M0.04 15.2 C0.04 15.2, 0.04 15.2, 0.04 15.2 M0.04 15.2 C0.04 15.2, 0.04 15.2, 0.04 15.2 M13.84 21.25 C11.74 20.03, 8.78 18.9, 2.7 12.47 M13.39 21.69 C9.74 19.02, 6.41 15.27, 2.02 11.61 M22.06 22.64 C13.79 19.75, 9.9 15.43, 7.89 10.55 M20.38 22.79 C15.32 18.21, 10.4 13.72, 5.53 10.03 M26.22 22.22 C19.89 16.33, 14.62 13.12, 9.54 5.13 M27.7 22.23 C21.68 18.25, 17.6 13.73, 7.77 7.01 M36.24 24.02 C26.03 19.61, 22.72 13.06, 12.47 7.05 M33.97 24.4 C27.62 18.3, 22.11 12.09, 13.43 5.8 M41.39 24.55 C37.02 18.29, 28.72 13.48, 17.58 3.86 M41.66 26.11 C36.55 20.62, 32.32 17.46, 17.95 4.38 M48.88 26.93 C38.93 16.45, 28.82 9.4, 23.47 3.74 M48.03 26.49 C40.84 19.12, 33.04 10.56, 23.71 2.93 M57.92 24.96 C50.24 20.35, 42.3 16.7, 28.25 4.45 M55.52 26.89 C49.49 21.64, 42.58 16.24, 29.92 4.47 M61.99 25.39 C54.98 21.01, 50.9 15.87, 34.02 1.53 M62.17 26.89 C50.98 17.08, 40.42 8.24, 35.42 2.83 M70.11 27.3 C62.64 21.22, 51.03 12.08, 39.2 2.34 M69.13 27.43 C61.36 20.63, 53.92 13.31, 41.17 2.42 M75.27 26.42 C69.34 22.17, 60.17 11.99, 44.68 0.35 M75.41 28.85 C66.08 20.26, 58.55 12.26, 46.74 2.31 M81.5 28.5 C75.24 20.37, 65.72 17.18, 51.38 -0.71 M81.16 28.05 C74.98 21.81, 67.82 16.6, 50.08 0.07 M85.6 26.2 C80.57 19.09, 68.95 14.97, 56.99 0.57 M87.62 27.1 C77.64 19.7, 68.56 11.48, 56.49 1 M94.15 27.24 C84.98 19.63, 81.56 13.82, 61.21 0.22 M92.43 27.18 C85.03 19.92, 76.39 14.21, 62.15 -1.22 M98.7 28.59 C88.52 19.03, 78.85 7.68, 65.5 -1.05 M99.07 26.47 C89.01 18.04, 81.53 11.1, 66.1 -0.69 M103.11 26.59 C91.97 18.88, 84.67 9.74, 74.11 -1.61 M104.4 26.05 C95.94 19.88, 87.07 11.26, 73.52 -1.34 M110.98 27.87 C99.3 18.59, 85.86 5.38, 80.78 -0.73 M110.39 26.56 C104.18 20.4, 96.22 14.56, 78.68 -0.97 M116.69 26.75 C105.21 17.37, 96.1 8.24, 83.02 -1.79 M115.38 25.35 C107.41 17.3, 96.94 9.94, 85.45 -0.7 M120.11 23.47 C111.75 19.24, 101.64 11.31, 90.11 -1.47 M121.07 24.49 C113.17 19.4, 105.74 13.27, 91.63 -0.46 M124.17 24.33 C117.36 16.97, 107.83 8.14, 97.1 -0.19 M126.3 24.59 C118.6 17.26, 109.92 9.33, 97.07 -1.59 M131.77 21.84 C126.39 19.86, 117.82 13.12, 102.3 -1.96 M132.26 22.8 C125.15 18.53, 118.69 13.07, 103.54 -1.07 M138.12 22.29 C127.26 13.53, 121.03 9.4, 107.53 -2.89 M137 22.02 C130.52 17.2, 123.59 12.97, 109.12 -2.14 M141.64 23.19 C134.4 18.75, 129.34 10.48, 114.64 -0.4 M140.7 22.15 C135.1 16.44, 128.74 11.08, 115.08 -1.87 M147.58 20.11 C139.31 13.51, 135.5 10.47, 123.75 1.02 M147.41 20.71 C138.53 13.73, 131.13 7.2, 122.26 -1.11 M151.15 20.84 C143.62 11.75, 138.23 6.67, 127.46 -1.35 M150.53 18.68 C146.92 14.5, 140.98 10.78, 129.61 0.09 M155.35 18.28 C147.75 11.65, 141.39 4.11, 138.17 1.63 M154.85 17.19 C149.11 11.93, 142.01 6.79, 135.72 2.29 M160.46 18.5 C155.91 13.09, 151.87 9.79, 141.03 3.18 M160.26 17.31 C154.88 12.61, 150.18 8.4, 142.04 0.69 M165.16 13.85 C158.63 11.26, 154.36 7.54, 152.09 1.58 M165.19 14.8 C161.63 12.65, 158.92 9.19, 151.35 3.57" stroke="#868e96" stroke-width="0.5" fill="none"></path><path d="M65.78 -0.67 C77.48 -1.33, 94.16 -0.75, 106.66 0.03 C119.15 0.8, 131.55 2.49, 140.75 3.98 C149.96 5.47, 157.63 6.97, 161.87 8.97 C166.11 10.97, 168.31 13.85, 166.2 15.99 C164.09 18.13, 156.99 19.88, 149.23 21.79 C141.46 23.71, 131.13 26.27, 119.63 27.49 C108.13 28.7, 93.15 29.34, 80.23 29.11 C67.31 28.88, 53.43 27.35, 42.12 26.11 C30.81 24.88, 19.42 23.56, 12.35 21.69 C5.28 19.82, 0.61 17.06, -0.31 14.9 C-1.23 12.73, 1.86 10.54, 6.83 8.7 C11.8 6.86, 17.96 5.21, 29.51 3.86 C41.06 2.51, 66.67 1.33, 76.12 0.6 C85.57 -0.12, 86.05 -0.74, 86.2 -0.48 M56.03 -0.53 C67.3 -1.49, 83.04 -0.48, 96 -0.01 C108.96 0.46, 123.41 0.74, 133.77 2.3 C144.13 3.86, 152.69 7.09, 158.16 9.34 C163.64 11.59, 167.17 14.02, 166.63 15.79 C166.08 17.56, 161.53 18.13, 154.89 19.95 C148.26 21.77, 137.44 25.12, 126.82 26.72 C116.2 28.33, 103.72 29.3, 91.18 29.59 C78.64 29.88, 63.46 29.49, 51.57 28.46 C39.68 27.44, 28.04 25.29, 19.83 23.45 C11.63 21.61, 5.37 19.76, 2.36 17.42 C-0.65 15.07, -1.57 11.82, 1.77 9.39 C5.1 6.97, 13.39 4.09, 22.38 2.88 C31.36 1.68, 49.82 2.57, 55.67 2.15 C61.52 1.72, 56.69 0.52, 57.47 0.34" stroke="#000000" stroke-width="1" fill="none"></path></g><g stroke-linecap="round" transform="translate(33.127899169921875 98.14227294921875) rotate(0 52.21270751953125 56.5269775390625)"><path d="M6.29 6.8 C6.29 6.8, 6.29 6.8, 6.29 6.8 M6.29 6.8 C6.29 6.8, 6.29 6.8, 6.29 6.8 M3.41 16.21 C8.55 9.39, 12.55 5.48, 15.22 2.63 M3.41 16.21 C5.31 12.33, 8.01 10.24, 15.22 2.63 M3.15 22.61 C8.84 17.24, 16.98 7.1, 21.52 1.48 M3.15 22.61 C8.07 15.64, 13.24 10.58, 21.52 1.48 M3.54 28.25 C6.93 23.7, 12.55 17.86, 27.16 1.08 M3.54 28.25 C9.56 21.61, 15.15 15.8, 27.16 1.08 M3.28 34.65 C10.07 28.41, 14.94 19.89, 32.8 0.69 M3.28 34.65 C10.28 26.15, 16.45 19.22, 32.8 0.69 M3.02 41.05 C14.94 23.32, 31.15 9.99, 37.79 1.05 M3.02 41.05 C13.82 29.31, 23.82 17.73, 37.79 1.05 M3.41 46.69 C11.96 37.13, 22.86 24.05, 42.78 1.41 M3.41 46.69 C13.6 34.71, 22.93 23.77, 42.78 1.41 M3.15 53.09 C12.74 44.08, 21.91 33.57, 48.42 1.01 M3.15 53.09 C19.86 33.3, 37.07 13.77, 48.42 1.01 M2.89 59.49 C17.07 43.06, 29.26 27.96, 53.41 1.37 M2.89 59.49 C20.48 39.09, 38.72 17.1, 53.41 1.37 M3.28 65.13 C19.69 44.46, 36.51 24.97, 59.05 0.98 M3.28 65.13 C16.42 51.1, 28.58 35.37, 59.05 0.98 M3.02 71.53 C25.46 45.36, 48.97 16.86, 64.04 1.34 M3.02 71.53 C21.24 51.78, 39.34 29.37, 64.04 1.34 M2.76 77.93 C27.94 50.84, 48.27 25.46, 69.68 0.95 M2.76 77.93 C17.99 59.82, 34.49 42.32, 69.68 0.95 M-0.12 87.34 C29.06 56.19, 55.64 25.16, 74.67 1.31 M-0.12 87.34 C19.07 63.64, 38.54 42.52, 74.67 1.31 M0.93 92.23 C29.44 60.04, 61.2 25.58, 79.65 1.67 M0.93 92.23 C32.12 55.7, 62.19 21.34, 79.65 1.67 M2.63 96.36 C30.53 64.61, 58.02 29.34, 85.3 1.27 M2.63 96.36 C23.61 74.55, 43.42 50.3, 85.3 1.27 M3.68 101.25 C22.39 79.2, 38.86 59.78, 89.63 2.39 M3.68 101.25 C27.76 73.41, 53.74 43.89, 89.63 2.39 M6.05 104.63 C25.35 80.36, 48.58 57.05, 93.3 4.26 M6.05 104.63 C26.93 80.53, 47.67 55.77, 93.3 4.26 M9.06 107.26 C30.43 79.72, 54.38 54.76, 96.98 6.12 M9.06 107.26 C38.78 73.98, 68.94 39.2, 96.98 6.12 M11.43 110.63 C44.75 73.88, 76.5 34.71, 100 8.75 M11.43 110.63 C38.03 80.89, 64.01 51.24, 100 8.75 M15.76 111.75 C45.3 77.52, 74.69 43.61, 102.36 12.13 M15.76 111.75 C47.64 74.44, 79.97 35.65, 102.36 12.13 M20.09 112.86 C38.2 93.12, 57.39 72.83, 103.41 17.02 M20.09 112.86 C38.34 93.11, 55.93 71.41, 103.41 17.02 M25.73 112.47 C45.15 90.42, 62.06 68.86, 105.12 21.15 M25.73 112.47 C45.69 89.94, 63.62 68.08, 105.12 21.15 M30.72 112.83 C50.28 93.2, 69.61 68.33, 105.51 26.79 M30.72 112.83 C51.71 89.22, 70.67 66.68, 105.51 26.79 M35.71 113.19 C57.74 89.87, 79.1 64.27, 105.25 33.19 M35.71 113.19 C62.75 84.45, 88.68 52.87, 105.25 33.19 M41.35 112.8 C63.04 83.97, 88.8 57.45, 105.64 38.83 M41.35 112.8 C60.13 91.03, 79.56 68.34, 105.64 38.83 M46.34 113.16 C68.03 89.74, 86.68 68.66, 105.38 45.23 M46.34 113.16 C61.47 96.44, 76.04 79.16, 105.38 45.23 M51.98 112.76 C64.87 99.04, 73.83 88.39, 105.12 51.63 M51.98 112.76 C72.9 88.95, 92.02 64.98, 105.12 51.63 M56.97 113.12 C70.27 97.68, 81.24 81.62, 105.52 57.27 M56.97 113.12 C74.72 92.37, 91.61 72.63, 105.52 57.27 M62.61 112.73 C74.04 99.86, 81.92 89.43, 105.25 63.67 M62.61 112.73 C71.47 102.54, 80.31 92.6, 105.25 63.67 M67.6 113.09 C77.73 101.64, 87.23 92.65, 105.65 69.31 M67.6 113.09 C82.4 97.31, 94.19 81.26, 105.65 69.31 M72.58 113.45 C80.06 102.82, 90.5 96.68, 105.39 75.71 M72.58 113.45 C80.37 103.36, 88.77 94.29, 105.39 75.71 M78.23 113.05 C88.09 99.74, 99.13 88.78, 105.13 82.11 M78.23 113.05 C87.47 101.4, 97.81 90.29, 105.13 82.11 M81.25 115.68 C87.48 106.82, 95.51 99.58, 105.52 87.75 M81.25 115.68 C86.61 108.28, 92.52 101.83, 105.52 87.75 M88.2 113.77 C92.11 108.1, 93.58 104.21, 104.6 94.9 M88.2 113.77 C92.27 108.77, 97.2 102.65, 104.6 94.9 M9.85 109.08 C9.85 109.08, 9.85 109.08, 9.85 109.08 M9.85 109.08 C9.85 109.08, 9.85 109.08, 9.85 109.08 M20.02 112.62 C18.03 108.97, 14.23 108.25, 5.68 100.16 M20.02 112.62 C15.25 108.3, 11.56 105.6, 5.68 100.16 M26.42 112.89 C21.45 105.76, 11.5 103.1, 4.53 93.86 M26.42 112.89 C19.25 106.47, 12.32 100.01, 4.53 93.86 M32.06 112.49 C24.49 104.85, 14.4 95.08, 1.12 85.59 M32.06 112.49 C24.4 105.13, 15.76 99.97, 1.12 85.59 M38.46 112.75 C28.89 106.91, 20.26 96.88, 1.48 80.61 M38.46 112.75 C26.37 103.71, 16.69 92.24, 1.48 80.61 M44.86 113.01 C30.64 102.77, 16.82 89.83, 1.09 74.96 M44.86 113.01 C29.27 98.63, 13.32 84.11, 1.09 74.96 M50.5 112.62 C32.13 98.01, 16.52 82.86, 1.45 69.98 M50.5 112.62 C32.3 95.72, 12.98 79.61, 1.45 69.98 M56.9 112.88 C37.41 95.16, 15.08 78.28, 1.05 64.33 M56.9 112.88 C36.18 94.54, 15.31 75.49, 1.05 64.33 M63.3 113.14 C40.2 93.51, 15.18 72.7, 1.41 59.35 M63.3 113.14 C42.51 96.47, 23.55 77.66, 1.41 59.35 M68.94 112.75 C49.82 96.97, 30.47 78.67, 1.02 53.7 M68.94 112.75 C50.69 97.32, 31.71 80.21, 1.02 53.7 M75.34 113.01 C52.52 92.58, 25.37 70.62, 1.38 48.72 M75.34 113.01 C52.12 92.09, 31.02 72.94, 1.38 48.72 M79.47 111.3 C58.12 92.7, 34.59 74.86, 1.74 43.73 M79.47 111.3 C61.96 93.91, 42.98 77.71, 1.74 43.73 M84.36 110.25 C62.62 90.06, 36.83 68.8, 1.34 38.09 M84.36 110.25 C57.32 86.86, 28.49 62.57, 1.34 38.09 M89.25 109.2 C70.3 92.69, 49.63 74.17, 1.7 33.1 M89.25 109.2 C64.07 88.09, 39.64 66.52, 1.7 33.1 M94.89 108.81 C58.85 78.1, 23.5 46.96, 1.31 27.46 M94.89 108.81 C72.91 90.74, 53.48 71.17, 1.31 27.46 M97.52 105.79 C67.1 80.06, 40.92 54.95, 1.67 22.47 M97.52 105.79 C77.09 88.05, 57.62 70.43, 1.67 22.47 M100.14 102.77 C71.09 76.4, 38.57 48.65, 2.03 17.48 M100.14 102.77 C61.02 68.57, 23.35 37.4, 2.03 17.48 M103.52 100.41 C69.89 69.66, 38.66 42.77, 3.14 13.15 M103.52 100.41 C80.24 78.38, 55.46 55.88, 3.14 13.15 M104.64 96.07 C66.15 62.64, 27 29.73, 5.01 9.48 M104.64 96.07 C80.65 75.54, 55.83 54.13, 5.01 9.48 M105.75 91.74 C74.99 66.25, 48.9 40.02, 6.88 5.8 M105.75 91.74 C83.18 72.51, 60.1 51.38, 6.88 5.8 M105.36 86.1 C78.59 62.51, 50.54 39.05, 11.02 4.09 M105.36 86.1 C80.46 63.32, 54.58 41.45, 11.02 4.09 M104.96 80.46 C73.47 50.97, 36.75 20.31, 14.4 1.73 M104.96 80.46 C83.32 62.08, 63.57 43.73, 14.4 1.73 M105.32 75.47 C79.62 55.72, 54.51 30.47, 17.02 -1.29 M105.32 75.47 C79.29 52.89, 52.67 30.79, 17.02 -1.29 M104.93 69.83 C80.36 46.84, 52.02 27.09, 22.66 -1.68 M104.93 69.83 C79.26 50.11, 55.18 27.42, 22.66 -1.68 M105.29 64.84 C87.63 50.59, 70.5 35.9, 28.31 -2.08 M105.29 64.84 C89.37 50.86, 73.56 38.35, 28.31 -2.08 M104.89 59.2 C86.34 40.23, 62.75 26.12, 33.95 -2.47 M104.89 59.2 C82.81 40.08, 62.06 21.57, 33.95 -2.47 M105.25 54.21 C79.25 34.7, 55 13.51, 40.35 -2.21 M105.25 54.21 C87.92 38.38, 70.2 24.01, 40.35 -2.21 M105.61 49.22 C91.14 36.96, 79.12 25.43, 46.74 -1.95 M105.61 49.22 C83.9 32.11, 64.06 13.12, 46.74 -1.95 M105.22 43.58 C85.71 29.83, 68.44 11.07, 52.39 -2.34 M105.22 43.58 C94.26 33.35, 83.26 24.02, 52.39 -2.34 M105.58 38.59 C93.68 26.61, 83.46 19.26, 58.79 -2.08 M105.58 38.59 C89.26 25.89, 75.11 12.09, 58.79 -2.08 M105.18 32.95 C91.99 21.91, 75.76 8.68, 65.18 -1.82 M105.18 32.95 C93.95 22.95, 80.41 11.83, 65.18 -1.82 M105.54 27.96 C97.32 19.93, 88.28 10.93, 70.83 -2.22 M105.54 27.96 C93.7 16.68, 79.27 5.71, 70.83 -2.22 M106.66 23.63 C98.3 18.18, 94.35 10.18, 77.22 -1.95 M106.66 23.63 C99.11 17.43, 90.5 8.59, 77.22 -1.95 M104.75 16.68 C102.04 14.49, 95.41 11.72, 85.13 -0.38 M104.75 16.68 C98.6 10.85, 90.13 3.79, 85.13 -0.38" stroke="#fd7e14" stroke-width="0.5" fill="none"></path><path d="M26.11 0 M26.11 0 C45.06 0.71, 61.98 0.94, 78.32 0 M26.11 0 C41.74 0.44, 55.77 -0.83, 78.32 0 M78.32 0 C96.34 -1.66, 104.21 8.63, 104.43 26.11 M78.32 0 C97.53 -1.1, 104.3 8.52, 104.43 26.11 M104.43 26.11 C105.36 41.95, 103.35 54.66, 104.43 86.95 M104.43 26.11 C105.01 46.01, 105.53 64.84, 104.43 86.95 M104.43 86.95 C104.33 102.5, 96.89 114.85, 78.32 113.05 M104.43 86.95 C106.32 105.93, 96.41 111.87, 78.32 113.05 M78.32 113.05 C60.1 113.13, 42.81 111.48, 26.11 113.05 M78.32 113.05 C63.29 112.31, 46.85 113.01, 26.11 113.05 M26.11 113.05 C6.76 112.24, 0.7 105.95, 0 86.95 M26.11 113.05 C9.04 114.18, 2.2 105.33, 0 86.95 M0 86.95 C-1.04 69.19, -1.51 51.66, 0 26.11 M0 86.95 C0.78 69.86, 0.38 52.08, 0 26.11 M0 26.11 C-1.04 8.58, 6.71 -0.71, 26.11 0 M0 26.11 C-1.91 10.85, 7.97 0.05, 26.11 0" stroke="#000000" stroke-width="1" fill="none"></path></g><g transform="translate(46.840606689453125 129.66925048828125) rotate(0 38.5 25)"><text x="38.5" y="18" font-family="Virgil, Segoe UI Emoji" font-size="20px" fill="#000000" text-anchor="middle" style="white-space: pre;" direction="ltr">Version </text><text x="38.5" y="43" font-family="Virgil, Segoe UI Emoji" font-size="20px" fill="#000000" text-anchor="middle" style="white-space: pre;" direction="ltr">2.3.3</text></g><g stroke-linecap="round" transform="translate(220.68017578125 137.37542724609375) rotate(0 52.21270751953125 56.5269775390625)"><path d="M6.29 6.8 C6.29 6.8, 6.29 6.8, 6.29 6.8 M6.29 6.8 C6.29 6.8, 6.29 6.8, 6.29 6.8 M3.41 16.21 C6.14 12.63, 13.31 7.77, 15.22 2.63 M3.41 16.21 C7.64 12.76, 11.17 7.54, 15.22 2.63 M3.15 22.61 C9.44 14.67, 18.22 6.87, 21.52 1.48 M3.15 22.61 C6.19 17.22, 10.32 13.3, 21.52 1.48 M3.54 28.25 C10.85 19.64, 13.85 12.72, 27.16 1.08 M3.54 28.25 C8.55 21.59, 14.72 14.79, 27.16 1.08 M3.28 34.65 C15.59 20.64, 23.37 11.69, 32.8 0.69 M3.28 34.65 C11.86 25.98, 19.26 16.21, 32.8 0.69 M3.02 41.05 C11.37 29.72, 21.15 19.03, 37.79 1.05 M3.02 41.05 C15.2 27.52, 28.41 13.04, 37.79 1.05 M3.41 46.69 C16.26 33.44, 26.94 22.63, 42.78 1.41 M3.41 46.69 C12.91 35.04, 21.77 24.03, 42.78 1.41 M3.15 53.09 C19 35.62, 35.86 16.17, 48.42 1.01 M3.15 53.09 C20.93 32.71, 39.44 12.34, 48.42 1.01 M2.89 59.49 C19.42 37.36, 36.22 17.42, 53.41 1.37 M2.89 59.49 C21.52 39.1, 37.56 19.45, 53.41 1.37 M3.28 65.13 C18.94 47.12, 32.24 28.36, 59.05 0.98 M3.28 65.13 C19.63 45.22, 35.83 26.39, 59.05 0.98 M3.02 71.53 C21.39 47.93, 41.01 25.55, 64.04 1.34 M3.02 71.53 C18.63 52.63, 33.15 35, 64.04 1.34 M2.76 77.93 C16.88 59.15, 34.98 40.35, 69.68 0.95 M2.76 77.93 C16.97 61.18, 31.53 45.35, 69.68 0.95 M-0.12 87.34 C15.73 67.61, 31.87 50.8, 74.67 1.31 M-0.12 87.34 C28.09 56.12, 55 25.82, 74.67 1.31 M0.93 92.23 C20.11 69.37, 39.76 47.21, 79.65 1.67 M0.93 92.23 C19.6 70.9, 37.96 48.32, 79.65 1.67 M2.63 96.36 C18.84 76.56, 36.63 54.06, 85.3 1.27 M2.63 96.36 C26.78 68.37, 53.1 38.83, 85.3 1.27 M3.68 101.25 C26.94 70.7, 53.11 43.49, 89.63 2.39 M3.68 101.25 C28.94 70.43, 56.36 41.38, 89.63 2.39 M6.05 104.63 C37.49 67.78, 66.57 33, 93.3 4.26 M6.05 104.63 C29.1 77.3, 52.03 50.55, 93.3 4.26 M9.06 107.26 C29.6 83.79, 47.3 62.07, 96.98 6.12 M9.06 107.26 C34.95 78.38, 60.43 47.86, 96.98 6.12 M11.43 110.63 C33.15 81.39, 58.28 55.45, 100 8.75 M11.43 110.63 C35.76 85.51, 57.66 57.48, 100 8.75 M15.76 111.75 C39.24 84.47, 65.75 57.31, 102.36 12.13 M15.76 111.75 C41.01 83.47, 66.32 55.63, 102.36 12.13 M20.09 112.86 C37.87 92.74, 55.42 72.05, 103.41 17.02 M20.09 112.86 C40.76 90.01, 60.76 67.24, 103.41 17.02 M25.73 112.47 C49.05 85.24, 70.9 60.57, 105.12 21.15 M25.73 112.47 C53.36 79.45, 82.52 48.45, 105.12 21.15 M30.72 112.83 C46.24 93.86, 65.62 74.91, 105.51 26.79 M30.72 112.83 C59.78 80.31, 87.87 47.48, 105.51 26.79 M35.71 113.19 C62.41 86.31, 82.95 56.36, 105.25 33.19 M35.71 113.19 C60.99 84.63, 86.26 55.07, 105.25 33.19 M41.35 112.8 C65.2 85.7, 89.85 56.51, 105.64 38.83 M41.35 112.8 C54.92 96.82, 71.16 78.56, 105.64 38.83 M46.34 113.16 C65.32 91.17, 83.2 72.08, 105.38 45.23 M46.34 113.16 C67.16 88.06, 87.36 64.21, 105.38 45.23 M51.98 112.76 C69.43 93.29, 88.43 69.45, 105.12 51.63 M51.98 112.76 C69.37 91.49, 87.65 71.81, 105.12 51.63 M56.97 113.12 C72.54 95.62, 84.85 81.94, 105.52 57.27 M56.97 113.12 C74.55 93.31, 92.36 72.22, 105.52 57.27 M62.61 112.73 C74.25 97.96, 85.89 86.38, 105.25 63.67 M62.61 112.73 C71.46 102.48, 81.3 92.96, 105.25 63.67 M67.6 113.09 C80.04 96.54, 94.88 85.28, 105.65 69.31 M67.6 113.09 C82.07 96.24, 97.97 78.1, 105.65 69.31 M72.58 113.45 C80.39 105.63, 87.8 97.5, 105.39 75.71 M72.58 113.45 C84.54 100.09, 96.6 86.59, 105.39 75.71 M78.23 113.05 C84.73 104.17, 90.08 100.12, 105.13 82.11 M78.23 113.05 C85.08 103.93, 92.47 96, 105.13 82.11 M81.25 115.68 C88.78 107.45, 96.19 98.54, 105.52 87.75 M81.25 115.68 C87.96 106.52, 96.56 97.23, 105.52 87.75 M88.2 113.77 C93.71 108.55, 96.33 105.96, 104.6 94.9 M88.2 113.77 C94.27 107.29, 100 98.57, 104.6 94.9 M9.85 109.08 C9.85 109.08, 9.85 109.08, 9.85 109.08 M9.85 109.08 C9.85 109.08, 9.85 109.08, 9.85 109.08 M20.02 112.62 C14.72 109.88, 8.21 101.9, 5.68 100.16 M20.02 112.62 C15.04 108.3, 10.95 105.21, 5.68 100.16 M26.42 112.89 C20.48 108.48, 15.25 102.43, 4.53 93.86 M26.42 112.89 C18.45 105.66, 11.17 100.01, 4.53 93.86 M32.06 112.49 C24.54 102.69, 13.86 94.88, 1.12 85.59 M32.06 112.49 C25.97 106.87, 17.13 99.73, 1.12 85.59 M38.46 112.75 C27.41 102.34, 17.51 94.43, 1.48 80.61 M38.46 112.75 C25.36 100.94, 14.05 91.76, 1.48 80.61 M44.86 113.01 C33.53 105.33, 24.78 93.12, 1.09 74.96 M44.86 113.01 C32.9 101.83, 18.57 89.28, 1.09 74.96 M50.5 112.62 C39.52 100.25, 27.42 90.07, 1.45 69.98 M50.5 112.62 C39.6 104.53, 29.17 93.81, 1.45 69.98 M56.9 112.88 C37.78 97.85, 17.11 77.77, 1.05 64.33 M56.9 112.88 C43.85 100.5, 28.56 87.57, 1.05 64.33 M63.3 113.14 C42.78 94.8, 19.24 75.33, 1.41 59.35 M63.3 113.14 C38.31 91.1, 13.66 70.04, 1.41 59.35 M68.94 112.75 C52.41 98.69, 38.42 84.71, 1.02 53.7 M68.94 112.75 C51.64 98.03, 36.1 84.75, 1.02 53.7 M75.34 113.01 C47.93 85.47, 17.09 61.56, 1.38 48.72 M75.34 113.01 C51.6 92.32, 28.51 73.02, 1.38 48.72 M79.47 111.3 C56.99 94.34, 36.43 75.31, 1.74 43.73 M79.47 111.3 C50.47 87.24, 23.17 62.81, 1.74 43.73 M84.36 110.25 C52.29 82.31, 19.93 55.82, 1.34 38.09 M84.36 110.25 C52.38 82.85, 19.06 55.2, 1.34 38.09 M89.25 109.2 C62.51 86.92, 35.85 63.79, 1.7 33.1 M89.25 109.2 C58.25 83.51, 29.9 56.72, 1.7 33.1 M94.89 108.81 C64.47 80.7, 33.49 54.64, 1.31 27.46 M94.89 108.81 C75.12 93.57, 56.33 76.09, 1.31 27.46 M97.52 105.79 C66.12 78.09, 31.41 49.35, 1.67 22.47 M97.52 105.79 C72.8 82.9, 49.03 62.24, 1.67 22.47 M100.14 102.77 C71.76 78.13, 44.17 54.36, 2.03 17.48 M100.14 102.77 C64.22 71.24, 27.43 39.91, 2.03 17.48 M103.52 100.41 C80.97 80.43, 60.37 62.17, 3.14 13.15 M103.52 100.41 C82.57 81.17, 61.44 62.54, 3.14 13.15 M104.64 96.07 C77 72.08, 47.82 46.04, 5.01 9.48 M104.64 96.07 C79.37 76.14, 55.27 54.75, 5.01 9.48 M105.75 91.74 C65.18 57.06, 27.82 25.92, 6.88 5.8 M105.75 91.74 C79.65 68.58, 53.22 47.03, 6.88 5.8 M105.36 86.1 C65.03 51.01, 28.04 21.19, 11.02 4.09 M105.36 86.1 C87.69 69.38, 67.66 53.06, 11.02 4.09 M104.96 80.46 C75.67 54.31, 43.56 28.48, 14.4 1.73 M104.96 80.46 C78.71 60.27, 55.12 37.1, 14.4 1.73 M105.32 75.47 C79.58 54.05, 56.87 35.22, 17.02 -1.29 M105.32 75.47 C69.94 46.79, 36.36 15.68, 17.02 -1.29 M104.93 69.83 C79.19 46.96, 55.31 25.31, 22.66 -1.68 M104.93 69.83 C80.68 49.74, 57.28 28.42, 22.66 -1.68 M105.29 64.84 C90.7 50.65, 73.01 37.42, 28.31 -2.08 M105.29 64.84 C79.36 42.61, 51.82 18.47, 28.31 -2.08 M104.89 59.2 C91.47 48.42, 75.71 33.23, 33.95 -2.47 M104.89 59.2 C81 38.62, 57.25 17.02, 33.95 -2.47 M105.25 54.21 C86.64 35.62, 65.64 20.09, 40.35 -2.21 M105.25 54.21 C93.12 43.15, 79.66 32.53, 40.35 -2.21 M105.61 49.22 C86.44 31.54, 64.67 13.55, 46.74 -1.95 M105.61 49.22 C91.51 36.78, 77.55 24.1, 46.74 -1.95 M105.22 43.58 C90.32 31.41, 77.52 22.57, 52.39 -2.34 M105.22 43.58 C91.81 31.95, 77.26 19.02, 52.39 -2.34 M105.58 38.59 C94.54 30.34, 86.6 21.97, 58.79 -2.08 M105.58 38.59 C96.57 30.87, 86.8 22.71, 58.79 -2.08 M105.18 32.95 C89.54 18.96, 73.76 5.18, 65.18 -1.82 M105.18 32.95 C96.15 23.91, 84.78 15.78, 65.18 -1.82 M105.54 27.96 C91.1 17.37, 80.38 5.98, 70.83 -2.22 M105.54 27.96 C97.44 22.17, 90.16 13.79, 70.83 -2.22 M106.66 23.63 C101.94 15.9, 94.06 12.89, 77.22 -1.95 M106.66 23.63 C100.65 17.11, 93.68 12.83, 77.22 -1.95 M104.75 16.68 C97.8 12.13, 92.08 6.41, 85.13 -0.38 M104.75 16.68 C98.11 12.78, 92.41 5.95, 85.13 -0.38" stroke="#fd7e14" stroke-width="0.5" fill="none"></path><path d="M26.11 0 M26.11 0 C42.95 1.21, 61.26 0.54, 78.32 0 M26.11 0 C40.67 -1.11, 55.74 -1.07, 78.32 0 M78.32 0 C94.84 0.06, 103.45 9.07, 104.43 26.11 M78.32 0 C93.82 2.02, 102.39 10.25, 104.43 26.11 M104.43 26.11 C103.27 40.86, 104.57 56.28, 104.43 86.95 M104.43 26.11 C104.54 41.64, 104.67 57.65, 104.43 86.95 M104.43 86.95 C102.62 104.71, 93.87 112.91, 78.32 113.05 M104.43 86.95 C103.94 103.73, 95.83 113.76, 78.32 113.05 M78.32 113.05 C65.48 112.91, 50.19 113.55, 26.11 113.05 M78.32 113.05 C59.71 113.46, 40.75 111.67, 26.11 113.05 M26.11 113.05 C7.43 112.13, 1.31 104.9, 0 86.95 M26.11 113.05 C10.53 112.19, 1.26 106.04, 0 86.95 M0 86.95 C0.15 62.95, 0.93 41.25, 0 26.11 M0 86.95 C1.1 72.28, 1.1 57.14, 0 26.11 M0 26.11 C0.44 9.99, 8.99 -1.79, 26.11 0 M0 26.11 C-1.51 9.98, 9.39 1.82, 26.11 0" stroke="#000000" stroke-width="1" fill="none"></path></g><g transform="translate(234.39288330078125 168.90240478515625) rotate(0 38.5 25)"><text x="38.5" y="18" font-family="Virgil, Segoe UI Emoji" font-size="20px" fill="#000000" text-anchor="middle" style="white-space: pre;" direction="ltr">Version </text><text x="38.5" y="43" font-family="Virgil, Segoe UI Emoji" font-size="20px" fill="#000000" text-anchor="middle" style="white-space: pre;" direction="ltr">2.3.2</text></g><g stroke-linecap="round" transform="translate(409.98675537109375 139.02474975585938) rotate(0 52.21270751953125 56.5269775390625)"><path d="M6.29 6.8 C6.29 6.8, 6.29 6.8, 6.29 6.8 M6.29 6.8 C6.29 6.8, 6.29 6.8, 6.29 6.8 M3.41 16.21 C6.79 13.41, 8.55 10.96, 15.22 2.63 M3.41 16.21 C7.76 12.49, 10.01 8.7, 15.22 2.63 M3.15 22.61 C7.22 16.85, 13.33 9.81, 21.52 1.48 M3.15 22.61 C9.76 15.24, 15.69 8.14, 21.52 1.48 M3.54 28.25 C8.22 22.16, 15.43 14.15, 27.16 1.08 M3.54 28.25 C10.1 20.39, 16.37 13.4, 27.16 1.08 M3.28 34.65 C9.32 25.71, 18.41 19.95, 32.8 0.69 M3.28 34.65 C11.61 23.72, 19.79 14.16, 32.8 0.69 M3.02 41.05 C13.03 27.31, 22.42 17.48, 37.79 1.05 M3.02 41.05 C12.92 28.71, 23.77 15.1, 37.79 1.05 M3.41 46.69 C13.12 33.15, 25.26 17.93, 42.78 1.41 M3.41 46.69 C15.5 32.9, 27.82 17.65, 42.78 1.41 M3.15 53.09 C15.83 38.61, 30.95 22.5, 48.42 1.01 M3.15 53.09 C13.03 40.27, 22.61 29.11, 48.42 1.01 M2.89 59.49 C18.64 41.9, 38.78 19.9, 53.41 1.37 M2.89 59.49 C15.69 44, 29.44 30.01, 53.41 1.37 M3.28 65.13 C18.33 46.63, 35.69 28.53, 59.05 0.98 M3.28 65.13 C22.14 43.73, 41.2 22.18, 59.05 0.98 M3.02 71.53 C17.42 54.6, 33.18 37.15, 64.04 1.34 M3.02 71.53 C26.25 44.04, 50.39 15.79, 64.04 1.34 M2.76 77.93 C25.56 47.77, 50.5 20.3, 69.68 0.95 M2.76 77.93 C30.57 47.06, 56.76 17.96, 69.68 0.95 M-0.12 87.34 C20.16 62.59, 43.83 35.68, 74.67 1.31 M-0.12 87.34 C23.48 60.45, 49.01 30.27, 74.67 1.31 M0.93 92.23 C17.03 71.54, 36.94 50.4, 79.65 1.67 M0.93 92.23 C25.35 62.53, 52.26 32.92, 79.65 1.67 M2.63 96.36 C19.52 73.8, 40.09 56.09, 85.3 1.27 M2.63 96.36 C26.89 68.33, 51.26 39.75, 85.3 1.27 M3.68 101.25 C34.72 65.05, 64.36 27.16, 89.63 2.39 M3.68 101.25 C23.8 75.88, 46.85 51.32, 89.63 2.39 M6.05 104.63 C32.86 74.38, 55.92 46.11, 93.3 4.26 M6.05 104.63 C33.59 75.71, 58.4 44.69, 93.3 4.26 M9.06 107.26 C37.75 76.13, 64.58 45.46, 96.98 6.12 M9.06 107.26 C31.38 81.65, 53.06 56.17, 96.98 6.12 M11.43 110.63 C36.99 82.93, 60.59 57.3, 100 8.75 M11.43 110.63 C40.29 75.1, 70.62 41.14, 100 8.75 M15.76 111.75 C48.77 71.3, 84.06 33.72, 102.36 12.13 M15.76 111.75 C37.65 88.81, 57.36 65.8, 102.36 12.13 M20.09 112.86 C44.42 85.15, 68.62 57.68, 103.41 17.02 M20.09 112.86 C54.69 75.5, 85.99 37.16, 103.41 17.02 M25.73 112.47 C55.69 78.33, 82.62 45.27, 105.12 21.15 M25.73 112.47 C47.88 87.99, 68.32 63.68, 105.12 21.15 M30.72 112.83 C52.63 85.88, 73.3 62.81, 105.51 26.79 M30.72 112.83 C47.93 93.85, 66.12 72.8, 105.51 26.79 M35.71 113.19 C61.31 82.44, 88.94 51.24, 105.25 33.19 M35.71 113.19 C50.15 96.16, 65.43 77.86, 105.25 33.19 M41.35 112.8 C56.17 93.27, 70.67 77.57, 105.64 38.83 M41.35 112.8 C55.62 96.18, 69.93 79.27, 105.64 38.83 M46.34 113.16 C58.65 98.33, 69.13 85.37, 105.38 45.23 M46.34 113.16 C66.52 90.89, 86.09 68.89, 105.38 45.23 M51.98 112.76 C68.12 91.84, 84.35 72.24, 105.12 51.63 M51.98 112.76 C67.7 96.28, 81.92 77.84, 105.12 51.63 M56.97 113.12 C68.71 102.67, 80.01 86.77, 105.52 57.27 M56.97 113.12 C69.1 99.02, 81.2 85.23, 105.52 57.27 M62.61 112.73 C75.67 96.04, 87.92 82.79, 105.25 63.67 M62.61 112.73 C78.44 93.7, 96.43 75.81, 105.25 63.67 M67.6 113.09 C75.07 104.62, 86.34 91.52, 105.65 69.31 M67.6 113.09 C75.82 104.45, 82.85 95.38, 105.65 69.31 M72.58 113.45 C81.6 103.54, 89.95 94.72, 105.39 75.71 M72.58 113.45 C80.08 105.61, 87.45 97.03, 105.39 75.71 M78.23 113.05 C85.42 106.8, 91.25 96.75, 105.13 82.11 M78.23 113.05 C84.45 107.21, 89.47 99.86, 105.13 82.11 M81.25 115.68 C87.03 107.06, 94.13 99.01, 105.52 87.75 M81.25 115.68 C88.48 107.02, 95.81 99.62, 105.52 87.75 M88.2 113.77 C92.89 106.39, 95.68 101.75, 104.6 94.9 M88.2 113.77 C91.45 109.66, 95.76 103.94, 104.6 94.9 M9.85 109.08 C9.85 109.08, 9.85 109.08, 9.85 109.08 M9.85 109.08 C9.85 109.08, 9.85 109.08, 9.85 109.08 M20.02 112.62 C13.56 107.01, 10.7 103.58, 5.68 100.16 M20.02 112.62 C15.82 107.78, 9.53 103.22, 5.68 100.16 M26.42 112.89 C19.88 107.39, 13.75 99.28, 4.53 93.86 M26.42 112.89 C17.72 105.69, 10.53 98.43, 4.53 93.86 M32.06 112.49 C19.28 101.41, 11.69 94.09, 1.12 85.59 M32.06 112.49 C23.95 106.08, 16.81 99.87, 1.12 85.59 M38.46 112.75 C27.14 98.75, 13.24 88.34, 1.48 80.61 M38.46 112.75 C25.69 103.01, 14.71 91.22, 1.48 80.61 M44.86 113.01 C31.3 100.35, 18.07 91.53, 1.09 74.96 M44.86 113.01 C31.76 100.22, 16.71 88.67, 1.09 74.96 M50.5 112.62 C34.91 97, 14.96 81.13, 1.45 69.98 M50.5 112.62 C39.24 101.7, 28.03 92.31, 1.45 69.98 M56.9 112.88 C41.07 100.22, 29.05 88.19, 1.05 64.33 M56.9 112.88 C39.63 97.27, 21.2 81.65, 1.05 64.33 M63.3 113.14 C46.05 96.15, 26.1 80.09, 1.41 59.35 M63.3 113.14 C42.45 95.12, 21.31 77.85, 1.41 59.35 M68.94 112.75 C46.49 94.76, 22.75 74.68, 1.02 53.7 M68.94 112.75 C40.83 89.14, 13.95 66.17, 1.02 53.7 M75.34 113.01 C50.21 91.06, 21.61 65.92, 1.38 48.72 M75.34 113.01 C56.6 96.89, 35.47 78.6, 1.38 48.72 M79.47 111.3 C63.86 95.34, 47.47 83.41, 1.74 43.73 M79.47 111.3 C59.99 94.32, 39.08 77.71, 1.74 43.73 M84.36 110.25 C52.34 80.05, 20.02 53.39, 1.34 38.09 M84.36 110.25 C64.06 92.63, 42.06 75.09, 1.34 38.09 M89.25 109.2 C71.91 91.7, 51.23 75.99, 1.7 33.1 M89.25 109.2 C70.44 92.6, 49.23 74.36, 1.7 33.1 M94.89 108.81 C64.95 82.5, 35.88 54.78, 1.31 27.46 M94.89 108.81 C68.89 86.14, 41.03 61.58, 1.31 27.46 M97.52 105.79 C74.16 83.95, 49.45 63.55, 1.67 22.47 M97.52 105.79 C77.62 89.53, 56.03 71.16, 1.67 22.47 M100.14 102.77 C74.6 80.43, 47.13 56.28, 2.03 17.48 M100.14 102.77 C61.68 69.26, 21.81 34.69, 2.03 17.48 M103.52 100.41 C77.65 78.52, 55.02 57.27, 3.14 13.15 M103.52 100.41 C74.82 73.6, 45.44 48.49, 3.14 13.15 M104.64 96.07 C64.67 63.55, 28.48 28.72, 5.01 9.48 M104.64 96.07 C72.64 66.57, 39.1 38.9, 5.01 9.48 M105.75 91.74 C72.89 62.02, 36.1 30.91, 6.88 5.8 M105.75 91.74 C71.33 62.79, 37.03 33.07, 6.88 5.8 M105.36 86.1 C84.95 68.23, 62 46.59, 11.02 4.09 M105.36 86.1 C77.51 62.16, 52.65 40.39, 11.02 4.09 M104.96 80.46 C76.56 54.55, 45.39 29.07, 14.4 1.73 M104.96 80.46 C84.07 63.4, 62.59 44.45, 14.4 1.73 M105.32 75.47 C74.22 51.98, 45.21 25.27, 17.02 -1.29 M105.32 75.47 C69.76 46.16, 37.01 16.7, 17.02 -1.29 M104.93 69.83 C76.58 41.55, 47 15.61, 22.66 -1.68 M104.93 69.83 C86.54 55.18, 70.37 40.74, 22.66 -1.68 M105.29 64.84 C82.53 44.24, 56.48 24.89, 28.31 -2.08 M105.29 64.84 C88.96 51.02, 72.49 37.69, 28.31 -2.08 M104.89 59.2 C88.73 46.12, 73.53 31.92, 33.95 -2.47 M104.89 59.2 C82.7 39.61, 60.07 19.24, 33.95 -2.47 M105.25 54.21 C85.04 33.77, 63.84 17.2, 40.35 -2.21 M105.25 54.21 C87.04 39.64, 70.34 23.78, 40.35 -2.21 M105.61 49.22 C90.96 35.45, 71.73 21.65, 46.74 -1.95 M105.61 49.22 C82.3 28.71, 61.19 9.97, 46.74 -1.95 M105.22 43.58 C86.8 28.04, 64.73 9.67, 52.39 -2.34 M105.22 43.58 C89.89 29.57, 73.21 16.31, 52.39 -2.34 M105.58 38.59 C89.52 24.17, 71.61 8.81, 58.79 -2.08 M105.58 38.59 C96.29 31.08, 86.99 21.09, 58.79 -2.08 M105.18 32.95 C93.04 22.78, 81.05 13.19, 65.18 -1.82 M105.18 32.95 C88.45 18.6, 74.03 5.93, 65.18 -1.82 M105.54 27.96 C92.58 16.56, 83.71 6.83, 70.83 -2.22 M105.54 27.96 C98.57 20.79, 90.5 14.81, 70.83 -2.22 M106.66 23.63 C96.51 16.7, 88.22 6.51, 77.22 -1.95 M106.66 23.63 C98.68 16.44, 92.41 10.78, 77.22 -1.95 M104.75 16.68 C98.45 11.98, 91.73 5.5, 85.13 -0.38 M104.75 16.68 C98.32 10.35, 89.84 3.74, 85.13 -0.38" stroke="#fd7e14" stroke-width="0.5" fill="none"></path><path d="M26.11 0 M26.11 0 C37.99 1.97, 50.57 -1.42, 78.32 0 M26.11 0 C46.34 0.66, 63.93 0.27, 78.32 0 M78.32 0 C95.58 1.57, 104.84 10.32, 104.43 26.11 M78.32 0 C94.01 2.12, 104.1 7.83, 104.43 26.11 M104.43 26.11 C103.27 45.65, 103.4 66.17, 104.43 86.95 M104.43 26.11 C105.52 46.7, 105.64 67.11, 104.43 86.95 M104.43 86.95 C103.77 103.59, 94.23 112.38, 78.32 113.05 M104.43 86.95 C102.23 105.01, 94.09 115.1, 78.32 113.05 M78.32 113.05 C58.89 110.95, 37.02 113.81, 26.11 113.05 M78.32 113.05 C64.36 113.11, 50.07 111.82, 26.11 113.05 M26.11 113.05 C9.57 112.61, -0.5 102.8, 0 86.95 M26.11 113.05 C7.62 110.84, -1.77 103.86, 0 86.95 M0 86.95 C2.13 65.88, -0.55 46.16, 0 26.11 M0 86.95 C-0.45 66.76, 0.17 45.76, 0 26.11 M0 26.11 C1.58 7.61, 7.77 -0.43, 26.11 0 M0 26.11 C-2.13 9.46, 8.31 -2.14, 26.11 0" stroke="#000000" stroke-width="1" fill="none"></path></g><g transform="translate(423.699462890625 170.55172729492188) rotate(0 38.5 25)"><text x="38.5" y="18" font-family="Virgil, Segoe UI Emoji" font-size="20px" fill="#000000" text-anchor="middle" style="white-space: pre;" direction="ltr">Version </text><text x="38.5" y="43" font-family="Virgil, Segoe UI Emoji" font-size="20px" fill="#000000" text-anchor="middle" style="white-space: pre;" direction="ltr">2.3.1</text></g><g stroke-linecap="round"><g transform="translate(46.22591177982906 69.4804627326422) rotate(0 -0.48402220208785707 11.925235342795503)"><path d="M-1.1 -0.99 C-1.22 3.02, -0.03 20.4, 0.14 24.84" stroke="#e67700" stroke-width="1.5" fill="none" stroke-dasharray="8 9"></path></g></g><mask></mask><g stroke-linecap="round"><g transform="translate(65.72256231015774 59.94867253243484) rotate(0 -0.5984380809508707 16.185529582296596)"><path d="M-1.06 0.3 C-1.27 5.83, -0.13 26.53, -0.11 32.07" stroke="#e67700" stroke-width="1.5" fill="none" stroke-dasharray="8 9"></path></g></g><mask></mask><g stroke-linecap="round"><g transform="translate(86.35016363074453 61.73484788437452) rotate(0 -0.6284695301794727 17.146158963939712)"><path d="M-0.96 -0.94 C-0.9 4.75, -0.13 28.99, -0.33 35.23" stroke="#e67700" stroke-width="1.5" fill="none" stroke-dasharray="8 9"></path></g></g><mask></mask><g stroke-linecap="round"><g transform="translate(108.25255413416073 59.823369824914835) rotate(0 0.30730250305703066 17.70288440881734)"><path d="M0.99 -0.22 C0.97 5.77, -0.41 29.32, -0.37 35.63" stroke="#e67700" stroke-width="1.5" fill="none" stroke-dasharray="8 9"></path></g></g><mask></mask><g stroke-linecap="round"><g transform="translate(123.9145596026923 61.46689703944389) rotate(0 -0.38295347037487204 15.37387402115732)"><path d="M-0.64 -0.95 C-0.6 4.15, -0.49 26.36, -0.12 31.7" stroke="#e67700" stroke-width="1.5" fill="none" stroke-dasharray="8 9"></path></g></g><mask></mask></svg>