<svg version="1.1" xmlns="http://www.w3.org/2000/svg" viewBox="0 0 271.27786093923896 207.14160878922078" width="271.27786093923896" height="207.14160878922078">
  <!-- svg-source:excalidraw -->

  <defs>
    <style class="style-fonts">
      @font-face {
      font-family: "Virgil";
      src: url("https://excalidraw.com/Virgil.woff2");
      }
      @font-face {
      font-family: "Cascadia";
      src: url("https://excalidraw.com/Cascadia.woff2");
      }
    </style>
  </defs>
  <rect x="0" y="0" width="271.27786093923896" height="207.14160878922078" fill="#ffffff"></rect><g stroke-linecap="round" transform="translate(113.98875201343708 33.917973036829636) rotate(0 15.863127599180643 10.757753199444236)"><path d="M0.38 2.98 C0.38 2.98, 0.38 2.98, 0.38 2.98 M0.38 2.98 C0.38 2.98, 0.38 2.98, 0.38 2.98 M0.12 9.38 C3.7 6.93, 4.76 3.56, 7.33 1.07 M0.12 9.38 C2.01 7.11, 4.4 4.03, 7.33 1.07 M-0.15 15.77 C1.98 10.88, 6.76 7.26, 12.32 1.43 M-0.15 15.77 C4.61 11.1, 7.53 5.95, 12.32 1.43 M2.87 18.4 C4.84 14.1, 8.24 9.6, 17.31 1.79 M2.87 18.4 C6.07 14.64, 9.84 10.96, 17.31 1.79 M5.24 21.78 C7.92 15.27, 12.81 13.02, 22.95 1.4 M5.24 21.78 C9.86 16.14, 13.65 12.84, 22.95 1.4 M10.88 21.38 C14.81 16.91, 19.4 15.3, 27.94 1.76 M10.88 21.38 C18.05 12.74, 23.67 5.18, 27.94 1.76 M15.87 21.74 C22.19 13.73, 28.22 8.88, 32.27 2.87 M15.87 21.74 C21.31 15.62, 27.82 7.55, 32.27 2.87 M21.51 21.35 C23.59 15.85, 28.11 11.61, 33.97 7.01 M21.51 21.35 C26.22 15.29, 30.87 10.86, 33.97 7.01 M26.5 21.71 C27.63 19.19, 29.94 17.66, 33.06 14.16 M26.5 21.71 C28.79 19.23, 31.63 16.52, 33.06 14.16" stroke="#ced4da" stroke-width="0.5" fill="none"></path><path d="M5.38 0 M5.38 0 C11.9 0.61, 20.17 -0.83, 26.35 0 M5.38 0 C13.02 -0.69, 19.81 0.24, 26.35 0 M26.35 0 C28.37 1.24, 33.16 1.67, 31.73 5.38 M26.35 0 C28.47 1.47, 32.39 2.81, 31.73 5.38 M31.73 5.38 C31.9 8.26, 31.1 13.69, 31.73 16.14 M31.73 5.38 C31.37 9.08, 31.79 12.4, 31.73 16.14 M31.73 16.14 C30.89 19.54, 31.88 22.79, 26.35 21.52 M31.73 16.14 C30.89 21.81, 31.42 20.35, 26.35 21.52 M26.35 21.52 C19.53 20.52, 11.54 23.15, 5.38 21.52 M26.35 21.52 C19.99 22.13, 13.09 20.4, 5.38 21.52 M5.38 21.52 C0.62 22.6, 1.3 21.36, 0 16.14 M5.38 21.52 C3.18 22.61, 0.64 18.24, 0 16.14 M0 16.14 C0.03 13.32, -0.57 8.34, 0 5.38 M0 16.14 C-0.51 13.99, -0.44 10.66, 0 5.38 M0 5.38 C0.89 3.42, 1.65 -1.33, 5.38 0 M0 5.38 C2.03 3.56, 2.35 0.03, 5.38 0" stroke="#000000" stroke-width="1" fill="none"></path></g><g stroke-linecap="round"><g transform="translate(115.44743041336278 34.6473122367925) rotate(0 7.3056952759088745 5.436885120097381)"><path d="M-0.54 0.31 C2.11 2.14, 12.61 9.48, 15.15 11.45 M1.38 -0.57 C3.96 0.85, 12.24 7.77, 14.31 9.59" stroke="#000000" stroke-width="1" fill="none"></path></g></g><g stroke-linecap="round"><g transform="translate(130.39888401259032 45.22273063624567) rotate(0 6.68879612802175 -5.30877298051144)"><path d="M0.31 0.2 C2.62 -1.51, 11.91 -9.07, 14.36 -10.82 M-0.99 -0.74 C1.17 -2.22, 11.04 -8.05, 13.68 -9.41" stroke="#000000" stroke-width="1" fill="none"></path></g></g><g stroke-linecap="round"><g transform="translate(112.24602703865548 18.348032587147863) rotate(0 17.13042396320907 0.20333030555199372)"><path d="M0.2 0.51 C6.19 0.62, 29.46 1.14, 35.41 0.97 M-1.15 -0.27 C4.71 -0.49, 28.27 -0.7, 34.34 -0.54" stroke="#000000" stroke-width="1" fill="none"></path></g></g><g stroke-linecap="round"><g transform="translate(112.24602703865548 67.4429084984086) rotate(0 19.13703116764964 -0.7383402546169238)"><path d="M0.51 -0.24 C6.95 -0.23, 32.79 0.14, 38.96 0.26 M-0.69 -1.42 C5.67 -1.81, 32.4 -1.69, 38.62 -1.73" stroke="#000000" stroke-width="1" fill="none"></path></g></g><g stroke-linecap="round"><g transform="translate(111.8876702801781 67.62208687764729) rotate(0 -6.262430446889084 -12.29121279368565)"><path d="M-0.24 1.15 C-2.53 -3.22, -11.36 -21.4, -13.54 -25.74 M1.83 0.71 C-0.61 -3.53, -11.74 -19.75, -14.35 -24.35" stroke="#000000" stroke-width="1" fill="none"></path></g></g><g stroke-linecap="round"><g transform="translate(96.8366864241716 41.46204350887278) rotate(0 7.35002735664375 -12.323434817450185)"><path d="M1.15 0.26 C3.47 -3.54, 12.04 -19.15, 14.4 -23.02 M0.3 -0.66 C2.39 -4.8, 10.87 -20.84, 13.3 -24.9" stroke="#000000" stroke-width="1" fill="none"></path></g></g><g stroke-linecap="round"><g transform="translate(148.26088126552804 18.348032587147863) rotate(0 6.142874343589938 10.304550777365403)"><path d="M0.26 -0.29 C2.52 3.2, 11.16 18.33, 13.35 22.1 M-1.07 -1.49 C1.1 2.16, 10.31 16.64, 12.65 20.29" stroke="#000000" stroke-width="1" fill="none"></path></g></g><g stroke-linecap="round"><g transform="translate(161.52008132915307 40.924508371158524) rotate(0 -4.873222390465344 13.437931850222089)"><path d="M-0.29 0.45 C-2.3 4.95, -9.14 22.91, -10.87 27.23 M1.75 -0.35 C-0.46 3.76, -9.38 20.74, -11.5 25.39" stroke="#000000" stroke-width="1" fill="none"></path></g></g><g stroke-linecap="round" transform="translate(118.74591799940117 10.067281877632922) rotate(0 2.8931207382097455 3.902348902701359)"><path d="M-0.33 -0.3 L6.74 1.05 L4.3 6.39 L-0.45 6.23" stroke="none" stroke-width="0" fill="#ffffff"></path><path d="M0.29 0.26 C2.26 -0.17, 3.53 0.45, 6.1 -0.38 M-0.1 -0.26 C2.11 -0.22, 3.81 0.01, 5.57 -0.15 M5.73 0.18 C5.67 0.94, 6.35 3.2, 5.47 7.24 M5.51 -0.09 C5.48 1.55, 5.38 3.38, 5.47 7.86 M5.47 8.23 C3.8 7.33, 2.33 7.49, 0.31 7.45 M5.56 7.8 C4.22 7.55, 1.98 7.73, 0.04 7.73 M0.63 8 C0.4 4.25, -0.45 1.51, 0.35 -0.26 M0.19 7.84 C0.25 5.66, 0.2 2.67, 0.36 0" stroke="#000000" stroke-width="1" fill="none"></path></g><g stroke-linecap="round" transform="translate(134.691722998371 10) rotate(0 2.8931207382097455 3.835067025068607)"><path d="M-0.3 0.95 L6.84 -1.48 L4.37 7.22 L-1.58 9.25" stroke="none" stroke-width="0" fill="#ffffff"></path><path d="M0.26 0.4 C1.45 -0.22, 3.66 0.29, 5.41 0.16 M-0.26 0.22 C1.64 0.05, 3.77 -0.19, 5.64 -0.25 M5.96 -0.08 C5.05 2.58, 5.63 3.69, 5.23 7.11 M5.7 -0.25 C5.6 1.47, 5.65 3.34, 5.84 7.5 M6.21 7.17 C3.09 7.16, 0.98 7.95, -0.36 7.72 M5.78 7.89 C3.85 7.38, 2.36 7.66, -0.07 7.87 M0.19 8.14 C-0.74 4.26, -0.61 1.95, -0.26 0.13 M0.03 7.94 C0.38 5.35, -0.12 2.97, 0 -0.06" stroke="#000000" stroke-width="1" fill="none"></path></g><g stroke-linecap="round" transform="translate(120.52888775666997 68.1651832135413) rotate(0 2.8931207382097455 3.90234890270136)"><path d="M0.95 1.05 L4.3 -1.42 L5.33 6.23 L1.58 6.14" stroke="none" stroke-width="0" fill="#ffffff"></path><path d="M0.4 -0.15 C1.76 0.44, 4.23 -0.4, 5.94 0.16 M0.22 -0.25 C1.53 0.04, 2.79 -0.09, 5.54 -0.11 M5.7 -0.73 C6.37 1.98, 5.46 3.67, 5.22 7.32 M5.53 -0.23 C5.37 2.56, 5.41 5.51, 5.62 8.16 M5.29 7.37 C3.96 7.57, 3.41 7.49, 0.05 7.73 M6.01 7.53 C3.57 7.71, 1.88 7.73, 0.2 8.08 M0.48 7.13 C-0.44 4.19, 0.29 1.39, 0.14 0.23 M0.27 8.14 C0.18 5.86, 0.33 4.28, -0.06 -0.06" stroke="#000000" stroke-width="1" fill="none"></path></g><g stroke-linecap="round" transform="translate(136.4746927556398 67.96333758064253) rotate(0 2.8931207382097455 3.835067025068608)"><path d="M1.05 -1.48 L4.37 -0.45 L4.21 9.25 L-1.66 8.22" stroke="none" stroke-width="0" fill="#ffffff"></path><path d="M-0.15 -0.19 C2.49 0.28, 3.67 0.12, 5.94 -0.23 M-0.25 0.03 C1.52 -0.26, 2.92 -0.29, 5.67 -0.08 M5.07 0.58 C5.67 1.93, 5.25 3.94, 5.31 8.05 M5.56 -0.36 C5.6 1.44, 5.82 3.35, 6.14 7.41 M5.35 7.19 C4.09 7.93, 2.59 7.67, -0.07 7.91 M5.51 7.42 C4.42 7.75, 3.16 7.91, 0.28 7.94 M-0.67 7.3 C-0.55 5.1, -0.28 1.97, 0.23 -0.57 M0.33 7.89 C-0.18 5.35, -0.01 2.26, -0.06 0.18" stroke="#000000" stroke-width="1" fill="none"></path></g><g stroke-linecap="round" transform="translate(153.67118002054758 60.12688283304083) rotate(293.6310379344648 2.8931207382097455 3.90234890270136)"><path d="M-1.48 -1.42 L5.33 -1.58 L7.37 6.14 L0.55 7.52" stroke="none" stroke-width="0" fill="#ffffff"></path><path d="M-0.19 0.47 C2.31 -0.36, 4.14 0.17, 5.55 -0.2 M0.03 -0.02 C1 -0.1, 2.17 -0.06, 5.7 -0.02 M6.38 -0.14 C5.46 1.95, 5.21 4.56, 6.18 7.25 M5.42 -0.17 C5.41 2.22, 5.57 4.68, 5.52 7.59 M5.31 7.52 C3.94 7.41, 1.52 7.69, 0.24 7.34 M5.54 7.71 C4.1 7.68, 2.53 8.03, 0.27 8.04 M-0.38 7.26 C0.3 5.01, 0.09 2.97, -0.58 0.38 M0.22 7.63 C0.31 5.4, -0.12 2.92, 0.19 0.21" stroke="#000000" stroke-width="1" fill="none"></path></g><g stroke-linecap="round" transform="translate(159.81642227488464 45.477605183474964) rotate(293.6310379344648 2.8931207382097455 3.835067025068608)"><path d="M-1.42 -0.45 L4.21 1.58 L4.13 8.22 L-0.28 6.43" stroke="none" stroke-width="0" fill="#ffffff"></path><path d="M0.47 0.32 C1.76 0.18, 4.44 -0.21, 5.58 -0.52 M-0.02 -0.21 C2.03 -0.26, 4.25 -0.09, 5.77 0.07 M5.65 -0.31 C5.16 1.66, 5.24 4.82, 5.24 7.5 M5.61 -0.32 C5.79 1.63, 6.09 3.34, 5.58 7.95 M5.51 7.98 C4.19 7.67, 3.24 7.86, -0.46 7.66 M5.69 7.71 C3.53 7.82, 1.7 7.89, 0.23 7.74 M-0.54 8.01 C-0.19 5.04, 0.3 1.57, 0.37 0.07 M-0.17 8.03 C-0.06 4.77, -0.12 2.19, 0.2 -0.28" stroke="#000000" stroke-width="1" fill="none"></path></g><g stroke-linecap="round" transform="translate(105.6983629933411 135.92828128882257) rotate(0 29.143549832871486 30.58206125690465)"><path d="M14.57 0 M14.57 0 C25.77 1.46, 37.24 -0.82, 43.72 0 M14.57 0 C21.35 0.45, 27.55 0.84, 43.72 0 M43.72 0 C53.32 0.32, 58.5 6.1, 58.29 14.57 M43.72 0 C53.96 -1.19, 57.5 4.97, 58.29 14.57 M58.29 14.57 C59.42 28.93, 58.89 40.96, 58.29 46.59 M58.29 14.57 C58.42 21.3, 58.15 28.15, 58.29 46.59 M58.29 46.59 C58.85 57.31, 52.53 62.88, 43.72 61.16 M58.29 46.59 C60.14 55.83, 54.48 62.46, 43.72 61.16 M43.72 61.16 C34.13 60.46, 25.02 62.4, 14.57 61.16 M43.72 61.16 C33.9 61.9, 22.8 60.95, 14.57 61.16 M14.57 61.16 C4.24 60.63, 1.65 57.54, 0 46.59 M14.57 61.16 C4.09 60.22, -0.75 55.94, 0 46.59 M0 46.59 C-0.11 36.92, -1.38 31.03, 0 14.57 M0 46.59 C0 33.42, 0.92 21.75, 0 14.57 M0 14.57 C-1.31 3.13, 4.19 -0.71, 14.57 0 M0 14.57 C-2.08 2.68, 5.24 1.12, 14.57 0" stroke="#000000" stroke-width="1" fill="none"></path></g><g stroke-linecap="round" transform="translate(115.29861650489238 146.91526739512554) rotate(0 14.055219562555067 11.850479239017133)"><path d="M0.55 3.13 C0.55 3.13, 0.55 3.13, 0.55 3.13 M0.55 3.13 C0.55 3.13, 0.55 3.13, 0.55 3.13 M0.29 9.53 C1.91 6.55, 4.77 5.35, 7.5 1.22 M0.29 9.53 C2.59 7.65, 4.23 4.97, 7.5 1.22 M0.03 15.92 C3.33 10.88, 6.8 7.17, 12.49 1.58 M0.03 15.92 C5.23 10.59, 9.26 6.3, 12.49 1.58 M2.39 19.3 C6.63 12.79, 11.38 9.14, 18.13 1.19 M2.39 19.3 C8.72 13.17, 13.73 5.73, 18.13 1.19 M3.44 24.19 C10.22 17.05, 13.63 10.78, 23.78 0.79 M3.44 24.19 C8.33 17.48, 14.28 10.2, 23.78 0.79 M7.77 25.31 C15.74 17.78, 19.08 12.26, 27.45 2.66 M7.77 25.31 C13.9 17.85, 19.66 9.98, 27.45 2.66 M12.76 25.67 C19.64 18.11, 21.11 14.16, 29.16 6.8 M12.76 25.67 C16.22 21.48, 20.68 15.7, 29.16 6.8 M18.4 25.27 C21.74 22.76, 23.3 19.68, 28.9 13.2 M18.4 25.27 C21.29 22.4, 22.35 19.32, 28.9 13.2 M24.04 24.88 C25.94 22.92, 26.25 21.36, 29.29 18.84 M24.04 24.88 C25.61 22.53, 27.91 20.6, 29.29 18.84 M1.71 22.42 C1.71 22.42, 1.71 22.42, 1.71 22.42 M1.71 22.42 C1.71 22.42, 1.71 22.42, 1.71 22.42 M7.35 22.02 C4.6 20.22, 2.4 17.75, 1.32 16.78 M7.35 22.02 C5.86 20.86, 4.17 18.77, 1.32 16.78 M13.75 22.29 C10.15 20.64, 7.43 16.87, 0.92 11.13 M13.75 22.29 C11.37 20.12, 7.96 17.82, 0.92 11.13 M19.4 21.89 C13.05 18.28, 7.82 13.44, 1.28 6.15 M19.4 21.89 C14.42 17.23, 6.97 11.75, 1.28 6.15 M24.28 20.84 C18.51 15.57, 11.52 7.33, 1.64 1.16 M24.28 20.84 C19.76 16.56, 15.22 12.49, 1.64 1.16 M29.17 19.79 C22.6 15.13, 15.92 9.25, 5.78 -0.55 M29.17 19.79 C20.71 12.53, 13.58 5.53, 5.78 -0.55 M30.29 15.46 C25.57 11.36, 22.64 6.48, 12.17 -0.29 M30.29 15.46 C25.23 11.03, 20.71 6.61, 12.17 -0.29 M29.89 9.82 C25.5 7.24, 23.45 3.72, 18.57 -0.02 M29.89 9.82 C27.56 8.06, 24.26 4.51, 18.57 -0.02 M29.5 4.17 C27.52 1.73, 25.12 0.91, 23.46 -1.08 M29.5 4.17 C26.85 2.56, 25.36 0.06, 23.46 -1.08" stroke="#4c6ef5" stroke-width="0.5" fill="none"></path><path d="M5.93 0 M5.93 0 C12.23 0.94, 15.41 0.96, 22.19 0 M5.93 0 C9.35 -0.77, 13.63 -0.22, 22.19 0 M22.19 0 C25.9 1.13, 29.12 0.46, 28.11 5.93 M22.19 0 C26.58 -1.02, 26.02 -0.29, 28.11 5.93 M28.11 5.93 C28.75 10.57, 28.8 13.58, 28.11 17.78 M28.11 5.93 C28.12 9.55, 27.73 12.82, 28.11 17.78 M28.11 17.78 C27.79 23, 26.84 22.11, 22.19 23.7 M28.11 17.78 C30.16 20.94, 27.69 22.42, 22.19 23.7 M22.19 23.7 C16.9 22.87, 12.79 23.89, 5.93 23.7 M22.19 23.7 C17.76 23.12, 11.06 22.94, 5.93 23.7 M5.93 23.7 C0.07 21.72, 1.04 23.32, 0 17.78 M5.93 23.7 C3.53 23.79, -0.49 21.98, 0 17.78 M0 17.78 C-0.8 14.36, 0.37 13.33, 0 5.93 M0 17.78 C-0.27 14.32, 0.49 11.49, 0 5.93 M0 5.93 C0.23 3.06, 2.34 -1.35, 5.93 0 M0 5.93 C-1.67 2.97, 3.65 -1.87, 5.93 0" stroke="#000000" stroke-width="1" fill="none"></path></g><g stroke-linecap="round" transform="translate(130.2323650508033 160.0919579743252) rotate(0 14.055219562555067 11.850479239017133)"><path d="M0.55 3.13 C0.55 3.13, 0.55 3.13, 0.55 3.13 M0.55 3.13 C0.55 3.13, 0.55 3.13, 0.55 3.13 M0.29 9.53 C2.51 6.61, 6.5 2.95, 7.5 1.22 M0.29 9.53 C2.39 7.59, 3.7 5.11, 7.5 1.22 M0.03 15.92 C2.82 10.95, 6.95 9.58, 12.49 1.58 M0.03 15.92 C2.88 12.6, 6.79 8.6, 12.49 1.58 M2.39 19.3 C6.57 12.78, 13.62 8.77, 18.13 1.19 M2.39 19.3 C7.03 14.25, 10.38 9.01, 18.13 1.19 M3.44 24.19 C8.13 16.86, 13.71 10.97, 23.78 0.79 M3.44 24.19 C8.46 17.7, 12.93 12.91, 23.78 0.79 M7.77 25.31 C15.32 14.99, 24.86 7.84, 27.45 2.66 M7.77 25.31 C12.23 19.15, 16.26 14.91, 27.45 2.66 M12.76 25.67 C16.88 17, 24.61 11.29, 29.16 6.8 M12.76 25.67 C19.58 18.41, 24.82 10.07, 29.16 6.8 M18.4 25.27 C22.47 21.18, 25.98 14.27, 28.9 13.2 M18.4 25.27 C22.31 19.9, 26.01 15.24, 28.9 13.2 M24.04 24.88 C25.57 22.17, 27.48 20.97, 29.29 18.84 M24.04 24.88 C25.3 23.31, 26.98 21.69, 29.29 18.84 M1.71 22.42 C1.71 22.42, 1.71 22.42, 1.71 22.42 M1.71 22.42 C1.71 22.42, 1.71 22.42, 1.71 22.42 M7.35 22.02 C5.74 20.08, 3.43 18.66, 1.32 16.78 M7.35 22.02 C5.59 20.48, 2.82 17.89, 1.32 16.78 M13.75 22.29 C11 18.28, 6.3 15.5, 0.92 11.13 M13.75 22.29 C9.32 18.31, 4.57 13.52, 0.92 11.13 M19.4 21.89 C16.03 16.62, 11.11 14.32, 1.28 6.15 M19.4 21.89 C14.71 17.2, 9.37 13.42, 1.28 6.15 M24.28 20.84 C18.88 17.17, 10.83 8.99, 1.64 1.16 M24.28 20.84 C19.83 17.59, 15.32 12.22, 1.64 1.16 M29.17 19.79 C20.22 11.12, 10.5 4.36, 5.78 -0.55 M29.17 19.79 C21.61 13.47, 14.21 6.64, 5.78 -0.55 M30.29 15.46 C23.77 11.58, 16.55 3.95, 12.17 -0.29 M30.29 15.46 C26.78 12.49, 23.05 9.15, 12.17 -0.29 M29.89 9.82 C27.94 8.05, 25.06 4.61, 18.57 -0.02 M29.89 9.82 C27.73 7.03, 23.73 5.59, 18.57 -0.02 M29.5 4.17 C27.63 2.94, 27.3 2.3, 23.46 -1.08 M29.5 4.17 C27.99 2.91, 25.64 0.95, 23.46 -1.08" stroke="#228be6" stroke-width="0.5" fill="none"></path><path d="M5.93 0 M5.93 0 C11.3 -0.34, 15.81 -0.91, 22.19 0 M5.93 0 C11.23 -0.39, 17.77 0.04, 22.19 0 M22.19 0 C27.26 1.01, 26.59 2.36, 28.11 5.93 M22.19 0 C25.12 -2.09, 25.85 3.22, 28.11 5.93 M28.11 5.93 C28.44 11.17, 27.26 15.05, 28.11 17.78 M28.11 5.93 C28.27 9.27, 28.19 13.31, 28.11 17.78 M28.11 17.78 C29.39 22.43, 24.54 25.48, 22.19 23.7 M28.11 17.78 C27.33 23.28, 24.86 23.93, 22.19 23.7 M22.19 23.7 C16.64 24.35, 13.08 24.02, 5.93 23.7 M22.19 23.7 C17.12 23.19, 12.41 23.09, 5.93 23.7 M5.93 23.7 C0 24.74, 1.6 23.08, 0 17.78 M5.93 23.7 C2.06 23.21, 0.26 20.17, 0 17.78 M0 17.78 C-0.65 14.36, 1.07 9.92, 0 5.93 M0 17.78 C-0.16 14.18, 0.33 9.56, 0 5.93 M0 5.93 C1.09 2.34, 0.62 -1.45, 5.93 0 M0 5.93 C0.99 3.65, 0.11 -2.14, 5.93 0" stroke="#000000" stroke-width="1" fill="none"></path></g><g stroke-linecap="round"><g transform="translate(22.833211113093967 151.61301510398758) rotate(0 16.491458466080076 9.825514667840508)" fill-rule="evenodd"><path d="M-1.49 1.36 C-1.49 1.36, -1.49 1.36, -1.49 1.36 M-1.49 1.36 C-1.49 1.36, -1.49 1.36, -1.49 1.36 M-3.55 8.76 C-0.01 6.88, 1.91 3.81, 2.52 2.72 M-2.91 8.89 C-1.82 7.49, 0.53 5.19, 3.04 2.82 M-0.06 10.38 C2.26 8.32, 4.25 6.7, 5.55 4.98 M0.93 11.02 C2.04 9.37, 4.05 7.63, 5.99 5.47 M3.6 13.17 C6.95 10.86, 7.74 8.19, 10.04 7.29 M3.92 12.72 C5.39 11.74, 6.51 10.45, 9.21 6.68 M8.3 14.35 C9.81 14.03, 11.1 12.26, 12.2 9.31 M7.88 15 C9.36 12.69, 11.26 11.22, 12.85 9.58 M11.99 16.29 C12.67 14.56, 14.85 13.92, 15.65 11.41 M11.69 16.61 C12.72 15.45, 13.93 14.04, 16.22 11.22 M16.65 19.66 C18.79 14.75, 21.75 11.06, 30.14 4.9 M15.78 18.49 C18.94 14.59, 21.17 10.82, 28.54 3.46 M19.65 20.32 C21.52 16.75, 27.9 11.08, 34.5 2.35 M18.01 21.45 C24.09 15.01, 31.44 6.82, 34.24 2.9 M32.77 11.05 C34.41 8.6, 36.02 6.57, 37.6 5.6 M32.34 10.97 C33.81 9.86, 34.75 8.06, 37.47 4.99" stroke="#fa5252" stroke-width="0.5" fill="none"></path><path d="M-0.88 -1.83 C4.07 5.11, 9.64 7.22, 16.38 12.18 M0.43 -0.78 C3.6 3.02, 7.4 5.18, 14.68 11.85 M15.59 11.83 C19.54 6.61, 25.41 5.6, 33.35 -0.69 M15.23 11.85 C22.42 6.24, 28.66 1.84, 31.55 -0.78 M32.29 -0.1 C32.94 0.68, 34.17 1.46, 35.8 2.7 M32.26 -0.54 C32.82 0.42, 33.98 0.91, 35.9 2.96 M35.51 2.44 C36.31 3.74, 35.88 4.69, 36.16 7.3 M35.97 2.83 C35.93 4.33, 36.24 5.89, 36.33 6.95 M37.16 7.24 C31.51 10.31, 23.4 16.98, 19.35 20.04 M35.88 6.75 C29.27 11.81, 22.55 17.05, 16.87 19.68 M16.18 21.48 C14.64 17.42, 9.55 16.58, -1.67 7.71 M16.7 20.09 C13.2 17.26, 9.12 16.43, -4.18 8.79 M-3.37 8.94 C-3.38 7.46, -3.77 6.43, -2.77 4.36 M-3.16 9.18 C-3.39 7.68, -3.04 6.03, -3.32 4.27 M-3.34 4.16 C-2.78 3.03, -2.25 2.39, -0.99 1.42 M-3.12 3.95 C-2.69 3.33, -2.19 2.44, -1.28 1.19 M-1.4 1.03 C-0.78 0.86, -0.44 0.21, 0.1 -0.1 M-1.22 1.14 C-0.92 0.72, -0.43 0.43, 0.01 -0.07" stroke="#000000" stroke-width="1" fill="none"></path></g></g><g stroke-linecap="round"><g transform="translate(53.95193323365129 182.248026518007) rotate(0 2.3498696510368973 -15.574929068237225)" fill-rule="evenodd"><path d="M-2.99 -27.77 C-2.99 -27.77, -2.99 -27.77, -2.99 -27.77 M-2.99 -27.77 C-2.99 -27.77, -2.99 -27.77, -2.99 -27.77 M-2.27 -22.82 C-1.32 -24.64, 1.5 -26.31, 4.3 -30.09 M-2.01 -22.64 C-0.18 -24.18, 0.97 -26.56, 4.19 -29.23 M-0.74 -16.57 C2.49 -20.03, 5.37 -23.76, 6.24 -27.75 M-2.18 -17.82 C0.2 -19.59, 2.33 -21.36, 7.47 -27.56 M-0.31 -10.89 C1.03 -15.84, 3.65 -17.21, 7.93 -21.06 M-1.67 -11.78 C1.79 -14.13, 4.13 -17.93, 8.02 -20.91 M-0.85 -6.83 C2.91 -10.65, 6.61 -13.1, 7.42 -15.79 M-0.89 -5.98 C1.67 -9.37, 4.42 -12.01, 8.41 -15.88 M0.92 -1.61 C1.15 -2.95, 5.06 -6.3, 8.97 -11.47 M-1.02 -0.57 C3.19 -4.07, 5.72 -7.55, 8.29 -11.47 M2.87 2.85 C5.77 -0.41, 7.59 -4.31, 8.98 -6.43 M2.67 2.72 C4.62 0.5, 6.58 -2.34, 9.41 -6.46" stroke="#40c057" stroke-width="0.5" fill="none"></path><path d="M-0.58 0.6 C1.59 -0.74, 3.85 -0.58, 5.71 -0.04 M-0.17 0.04 C1.85 -0.18, 2.98 -0.05, 6.17 -0.05 M5.99 -0.38 C6.55 -1.18, 7.92 -2.13, 8.19 -3.23 M6.2 -0.36 C6.77 -1.43, 7.7 -2.23, 8.28 -2.93 M8.6 -3.84 C8.76 -10.18, 8.78 -12.64, 6.7 -28.19 M8.65 -3.66 C7.35 -9.09, 6.05 -16.81, 4.9 -28.58 M4.51 -29.27 C3.76 -30.18, 1.91 -31.24, 1.52 -31.19 M4.81 -29.07 C4.14 -29.56, 3.36 -30.12, 1.51 -31.75 M1.44 -31.74 C0.55 -30.27, -1.07 -29.47, -2.88 -27.94 M1.18 -31.33 C-0.01 -30.29, -1.7 -28.93, -2.97 -28.09 M-3.96 -28.04 C-0.58 -20.25, -2.23 -10.22, 0.95 -0.38 M-2.55 -28.3 C-2.28 -19.78, -1.67 -10.92, 0.54 0.04 M0 0 C0 0, 0 0, 0 0 M0 0 C0 0, 0 0, 0 0" stroke="#000000" stroke-width="1" fill="none"></path></g></g><g stroke-linecap="round"><g transform="translate(25.160640563562993 183.70749834622063) rotate(0 -2.3996610261797287 -15.734350809555686)" fill-rule="evenodd"><path d="M-4.58 -29.16 C-4.58 -29.16, -4.58 -29.16, -4.58 -29.16 M-4.58 -29.16 C-4.58 -29.16, -4.58 -29.16, -4.58 -29.16 M-7.25 -21.25 C-3.07 -24.16, -0.29 -28.13, 1.36 -30.29 M-6.54 -21.22 C-5.1 -23.56, -3 -25.12, 1.28 -29.53 M-5.9 -14.31 C-3.25 -16.92, -0.39 -23.15, 3.72 -27.88 M-7.24 -14.8 C-3.6 -17.59, -0.33 -22.84, 4.54 -27.6 M-6.33 -8.57 C-4.12 -10.46, -3.23 -15.62, 4.23 -20.88 M-7.72 -7.36 C-4.68 -10.58, -2.14 -13.32, 3.92 -19.19 M-7.83 -1.41 C-5.3 -5.53, -2.8 -7.5, 2.93 -14.44 M-6.96 -2.06 C-4.36 -4.86, -2.82 -6.41, 2.81 -14.05 M-4.85 1.09 C-3.1 -1.78, -0.88 -4.48, 1.36 -5.92 M-4.24 1.19 C-1.68 -1.74, 0.34 -4.34, 2.35 -6.61" stroke="#228be6" stroke-width="0.5" fill="none"></path><path d="M-0.22 0.48 C-1.57 0.11, -2.78 -0.31, -6.42 0.15 M-0.3 0.18 C-1.82 -0.06, -3.83 -0.34, -6.03 -0.03 M-6.26 -0.3 C-6.98 -1, -6.96 -1.68, -8.25 -3.23 M-6.16 -0.23 C-6.56 -0.83, -7.24 -1.79, -8.3 -2.89 M-7.14 -2.03 C-5.59 -11.07, -4.52 -20.59, -5.98 -29.94 M-9.37 -3.96 C-7.76 -9.1, -6.6 -14.21, -4.1 -29.64 M-4.56 -28.63 C-3.94 -30.11, -2.89 -30.39, -1.27 -31.48 M-5.01 -28.92 C-3.7 -29.55, -2.76 -30.66, -1.24 -31.44 M-1.49 -31.94 C0.2 -30.4, 1.89 -28.32, 2.34 -27.77 M-1.51 -31.61 C-0.33 -30.58, 0.92 -29.24, 2.73 -27.8 M4.57 -29.91 C0.53 -19.72, 1.71 -12.52, 0.2 -0.85 M1.79 -28.42 C2.66 -19.16, 1 -9.79, -0.76 -0.85 M0 0 C0 0, 0 0, 0 0 M0 0 C0 0, 0 0, 0 0" stroke="#000000" stroke-width="1" fill="none"></path></g></g><g stroke-linecap="round" transform="translate(10 133.23982106310524) rotate(0 29.143549832871486 30.58206125690465)"><path d="M14.57 0 M14.57 0 C21.18 -1.97, 28.84 1.43, 43.72 0 M14.57 0 C21.35 -0.74, 30.38 0.85, 43.72 0 M43.72 0 C54.44 0.38, 59.27 5.75, 58.29 14.57 M43.72 0 C54.26 -0.77, 57.42 2.98, 58.29 14.57 M58.29 14.57 C58.96 22.92, 59.6 31.52, 58.29 46.59 M58.29 14.57 C57.56 25.19, 58.99 37.49, 58.29 46.59 M58.29 46.59 C59.65 57.43, 52.04 63.01, 43.72 61.16 M58.29 46.59 C58.43 56.94, 54.36 58.91, 43.72 61.16 M43.72 61.16 C36.63 62.44, 27.5 61.14, 14.57 61.16 M43.72 61.16 C37.35 62.15, 30.18 61.59, 14.57 61.16 M14.57 61.16 C3.67 59.17, 0 56.76, 0 46.59 M14.57 61.16 C5.53 61.54, -0.75 56.92, 0 46.59 M0 46.59 C1.82 37.75, 0.36 29.84, 0 14.57 M0 46.59 C0.4 39.53, 0.27 32.44, 0 14.57 M0 14.57 C-0.92 6.23, 4.61 0.2, 14.57 0 M0 14.57 C1.82 3.99, 3.94 -0.49, 14.57 0" stroke="#000000" stroke-width="1" fill="none"></path></g><g stroke-linecap="round" transform="translate(215.66041036796378 153.44499724887226) rotate(0 17.584228210615947 11.924936372716516)"><path d="M1.59 1.38 C1.59 1.38, 1.59 1.38, 1.59 1.38 M1.59 1.38 C1.59 1.38, 1.59 1.38, 1.59 1.38 M3.29 5.51 C4.62 4.61, 5.54 2.42, 7.23 0.99 M3.29 5.51 C4.89 3.61, 6.2 2.06, 7.23 0.99 M3.03 11.91 C4.89 9.09, 9.39 4.84, 12.22 1.35 M3.03 11.91 C6.81 8.25, 10.09 3.95, 12.22 1.35 M2.11 19.06 C6.95 13.94, 14.28 6, 17.86 0.95 M2.11 19.06 C8.01 11.61, 13.73 4.87, 17.86 0.95 M3.17 23.95 C9.73 14.71, 17.76 5.72, 22.85 1.31 M3.17 23.95 C9.21 15.69, 16.92 9.59, 22.85 1.31 M7.5 25.07 C11.67 20.16, 19.06 10.71, 29.15 0.16 M7.5 25.07 C11.31 18.87, 17.01 14.98, 29.15 0.16 M12.48 25.43 C17.85 17.46, 26.24 10.05, 33.48 1.28 M12.48 25.43 C20.1 16.1, 26.59 9.03, 33.48 1.28 M18.13 25.03 C25.54 16.59, 29.51 11.75, 36.5 3.9 M18.13 25.03 C22.72 17.99, 28.26 13.39, 36.5 3.9 M23.11 25.39 C26.01 19.63, 32.71 15.12, 38.2 8.03 M23.11 25.39 C28.15 20.24, 32.99 13.76, 38.2 8.03 M29.41 24.24 C30.54 21.7, 32.39 19.68, 37.94 14.43 M29.41 24.24 C31.96 20.81, 35.92 17.45, 37.94 14.43" stroke="#ced4da" stroke-width="0.5" fill="none"></path><path d="M5.96 0 M5.96 0 C11.66 -0.62, 18.59 1.15, 29.21 0 M5.96 0 C12.15 -0.74, 15.82 -0.72, 29.21 0 M29.21 0 C34.65 -1.22, 35.8 0.65, 35.17 5.96 M29.21 0 C31.89 -1.52, 37.33 0.21, 35.17 5.96 M35.17 5.96 C36.43 10.43, 34.73 14, 35.17 17.89 M35.17 5.96 C35.49 9.03, 35.11 12.06, 35.17 17.89 M35.17 17.89 C37.13 22.77, 32.24 24.2, 29.21 23.85 M35.17 17.89 C35.5 21.07, 34.86 25.32, 29.21 23.85 M29.21 23.85 C19.81 21.95, 12.32 24.39, 5.96 23.85 M29.21 23.85 C21.35 24.94, 15.17 23.9, 5.96 23.85 M5.96 23.85 C2.5 23.25, 0.05 22.56, 0 17.89 M5.96 23.85 C2.18 23.28, -1.4 20.96, 0 17.89 M0 17.89 C0.66 14.49, 0.05 10.42, 0 5.96 M0 17.89 C-0.53 12.96, -0.08 8.8, 0 5.96 M0 5.96 C0.46 1.84, 2.08 -1.84, 5.96 0 M0 5.96 C0.12 0.4, 2.62 0.55, 5.96 0" stroke="#000000" stroke-width="1" fill="none"></path></g><g stroke-linecap="round"><g transform="translate(217.2773508930777 154.25346751142933) rotate(0 8.41908194038524 6.080632102180509)"><path d="M-0.84 -0.41 C1.65 1.69, 12.58 10.23, 15.52 12.23 M0.91 -1.67 C3.72 0.67, 15.14 11.43, 17.68 13.83" stroke="#000000" stroke-width="1" fill="none"></path></g></g><g stroke-linecap="round"><g transform="translate(233.8509912754971 165.97628631850648) rotate(0 7.530431087774559 -6.236751700431412)"><path d="M-0.41 -1.05 C2.23 -2.82, 12.92 -9.82, 15.47 -11.49 M1.58 1.01 C4.1 -1.07, 12.53 -11.15, 14.58 -13.49" stroke="#000000" stroke-width="1" fill="none"></path></g></g><g stroke-linecap="round" transform="translate(202.990761273496 135.97748627541148) rotate(0 29.143549832871486 30.58206125690465)"><path d="M14.57 0 M14.57 0 C20.41 -0.32, 31.41 1.8, 43.72 0 M14.57 0 C23.55 0.71, 34.97 -0.64, 43.72 0 M43.72 0 C51.55 -1.72, 56.68 4.37, 58.29 14.57 M43.72 0 C52.52 0.78, 57.97 4.75, 58.29 14.57 M58.29 14.57 C57.33 25.51, 59.81 40.14, 58.29 46.59 M58.29 14.57 C59.1 22.11, 58.55 31.16, 58.29 46.59 M58.29 46.59 C56.54 56.9, 52.38 61.82, 43.72 61.16 M58.29 46.59 C60.27 55.75, 53.31 60.25, 43.72 61.16 M43.72 61.16 C32.49 60.5, 24.54 60.75, 14.57 61.16 M43.72 61.16 C33.37 60.79, 21.81 59.9, 14.57 61.16 M14.57 61.16 C4.13 60.85, -1.6 55.67, 0 46.59 M14.57 61.16 C5.48 60.42, 1.31 58.07, 0 46.59 M0 46.59 C-1.76 33.33, -1.42 20.7, 0 14.57 M0 46.59 C-0.2 35.24, 0.39 25.76, 0 14.57 M0 14.57 C1.02 5.51, 6.57 1.62, 14.57 0 M0 14.57 C2.01 3.73, 3.32 -1.59, 14.57 0" stroke="#000000" stroke-width="1" fill="none"></path></g><g stroke-linecap="round" transform="translate(95.53354159711398 46.98850178399338) rotate(419.09943546176964 2.8931207382097455 3.90234890270136)"><path d="M-1.41 -1.86 L6.82 1.7 L6.57 8.71 L0.03 6.69" stroke="none" stroke-width="0" fill="#ffffff"></path><path d="M0.03 -0.43 C2.03 0, 4.6 0, 5.71 0.27 M-0.08 -0.2 C1.59 -0.07, 2.45 0.07, 5.75 -0.23 M5.5 -0.37 C5.24 2.55, 5.39 3.85, 5.63 7.73 M6.07 -0.35 C5.89 2.28, 5.47 4.61, 5.66 8.08 M6.17 8.34 C3.91 8.17, 1.41 8.2, 0.29 8.05 M5.75 8.04 C4.46 8.07, 2.84 8.06, 0.26 7.52 M0.31 7.97 C-0.38 5.24, 0.31 1.19, 0.4 0.38 M0.31 7.9 C0.19 6.15, 0.15 4.27, 0.32 -0.25" stroke="#000000" stroke-width="1" fill="none"></path></g><g stroke-linecap="round" transform="translate(103.95343258585308 60.60002828507198) rotate(419.09943546176964 2.8931207382097455 3.835067025068608)"><path d="M-1.86 1.03 L7.48 0.78 L6.69 7.7 L-1.12 6.98" stroke="none" stroke-width="0" fill="#ffffff"></path><path d="M-0.43 -0.13 C1.44 0.29, 2.9 -0.08, 6.06 -0.39 M-0.2 0.24 C1.59 -0.22, 3.38 -0.02, 5.55 -0.2 M5.43 -0.61 C6.6 2.57, 6.11 5.91, 5.71 7.51 M5.44 0.17 C5.93 1.4, 6.07 3.17, 6.05 7.97 M6.32 7.98 C4.06 7.7, 1.96 8, 0.24 7.34 M6.02 7.75 C4.2 7.53, 2.32 7.92, -0.28 7.91 M0.16 7.26 C0.33 6.01, -0.72 4.2, 0.37 -0.61 M0.09 7.87 C0.1 5.45, -0.05 3.22, -0.25 -0.27" stroke="#000000" stroke-width="1" fill="none"></path></g><g stroke-linecap="round"><g transform="translate(130.2108957396431 74.4339078276773) rotate(0 2.5980876254543546 30.564261100443986)"><path d="M0.95 0.13 C2.33 17.4, 1.92 36.83, 4.25 60.99" stroke="#000000" stroke-width="1.5" fill="none" stroke-dasharray="1.5 7"></path></g><g transform="translate(130.2108957396431 74.4339078276773) rotate(0 2.5980876254543546 30.564261100443986)"><path d="M-7.06 33.77 C-3.44 41.44, -1.94 51.32, 2.73 62.31" stroke="#000000" stroke-width="1.5" fill="none" stroke-dasharray="1.5 5"></path></g><g transform="translate(130.2108957396431 74.4339078276773) rotate(0 2.5980876254543546 30.564261100443986)"><path d="M13.4 32.29 C10.95 40.52, 6.41 50.84, 2.73 62.31" stroke="#000000" stroke-width="1.5" fill="none" stroke-dasharray="1.5 5"></path></g></g><g stroke-linecap="round"><g transform="translate(162.6363933263283 53.1854834174168) rotate(0 33.237269459072195 41.91253295145658)"><path d="M-1.2 1.69 C14.9 6.07, 31.66 13.14, 59.25 20.44 M60.87 20.15 C62.42 39.63, 64.43 55.79, 67.68 82.14" stroke="#000000" stroke-width="1.5" fill="none" stroke-dasharray="1.5 7"></path></g><g transform="translate(162.6363933263283 53.1854834174168) rotate(0 33.237269459072195 41.91253295145658)"><path d="M52.87 57.09 C55.9 63.05, 59.61 71.8, 65.82 81.94" stroke="#000000" stroke-width="1.5" fill="none" stroke-dasharray="1.5 5"></path></g><g transform="translate(162.6363933263283 53.1854834174168) rotate(0 33.237269459072195 41.91253295145658)"><path d="M73.24 54.6 C70.66 61.21, 68.77 70.64, 65.82 81.94" stroke="#000000" stroke-width="1.5" fill="none" stroke-dasharray="1.5 5"></path></g></g><g stroke-linecap="round"><g transform="translate(97.22498891049872 58.95060562687657) rotate(0 -30.264053793798666 37.63000651295414)"><path d="M-0.27 1.1 C-16.32 4.26, -35.49 10.74, -50.67 19.25 M-52.9 15.75 C-54.65 29.17, -53.01 43.11, -60.26 74.16" stroke="#000000" stroke-width="1.5" fill="none" stroke-dasharray="1.5 7"></path></g><g transform="translate(97.22498891049872 58.95060562687657) rotate(0 -30.264053793798666 37.63000651295414)"><path d="M-65.07 47.78 C-61 54.97, -60.12 64.98, -59.47 75.8" stroke="#000000" stroke-width="1.5" fill="none" stroke-dasharray="1.5 5"></path></g><g transform="translate(97.22498891049872 58.95060562687657) rotate(0 -30.264053793798666 37.63000651295414)"><path d="M-46.35 51.29 C-49.01 57.06, -54.83 65.81, -59.47 75.8" stroke="#000000" stroke-width="1.5" fill="none" stroke-dasharray="1.5 5"></path></g></g></svg>