<svg version="1.1" xmlns="http://www.w3.org/2000/svg" viewBox="0 0 118 116" width="118" height="116">
<!-- svg-source:excalidraw -->
<rect x="0" y="0" width="118" height="116" fill="#ffffff"></rect><g stroke-linecap="round" transform="translate(10 10) rotate(0 49 48)"><path d="M3.28 9.48 C3.28 9.48, 3.28 9.48, 3.28 9.48 M3.28 9.48 C3.28 9.48, 3.28 9.48, 3.28 9.48 M0.79 24.54 C6.18 18.12, 11.65 13.16, 15.23 7.94 M0.79 24.54 C3.24 20.52, 6.33 16.32, 15.23 7.94 M0.93 36.58 C5.4 27.7, 13.26 20.02, 29.14 4.13 M0.93 36.58 C8.65 28.47, 16.35 19.75, 29.14 4.13 M0.4 49.38 C12.8 37.43, 24.26 24.12, 39.77 4.09 M0.4 49.38 C13.95 34.44, 26.04 20.42, 39.77 4.09 M0.54 61.42 C10.92 48.31, 24.38 36.19, 49.74 4.81 M0.54 61.42 C16.9 40.02, 34.49 19.85, 49.74 4.81 M1.33 72.7 C14.25 57.4, 26.62 44.3, 60.37 4.78 M1.33 72.7 C17.11 54.16, 33.65 34.42, 60.37 4.78 M3.43 82.48 C30.11 51.38, 55.69 21.66, 71 4.74 M3.43 82.48 C29.26 52.17, 56.96 21.06, 71 4.74 M7.5 89.99 C30.51 62.42, 52.57 34.02, 82.94 3.2 M7.5 89.99 C22.87 73.15, 37.78 55.05, 82.94 3.2 M12.88 96 C28.97 76.83, 47.66 54.78, 91.6 5.43 M12.88 96 C42.17 62.68, 70.58 27.69, 91.6 5.43 M21.54 98.23 C43.98 72.76, 64.12 49.43, 96.99 11.43 M21.54 98.23 C48.11 68.99, 73.66 39.16, 96.99 11.43 M32.17 98.19 C56.71 67.45, 84.64 41.16, 99.09 21.21 M32.17 98.19 C56.64 69.97, 80.39 42.2, 99.09 21.21 M42.8 98.16 C63.07 75.75, 81.84 55.73, 103.16 28.72 M42.8 98.16 C56.28 82.76, 71.04 66.65, 103.16 28.72 M52.77 98.88 C64.74 85.26, 73.24 73.61, 103.29 40.76 M52.77 98.88 C71.13 78.18, 87.3 57.39, 103.29 40.76 M63.4 98.84 C74.25 85.7, 86.78 69.3, 103.42 52.8 M63.4 98.84 C74.64 85.63, 86.31 72.67, 103.42 52.8 M75.35 97.3 C84.64 85.21, 93.03 73.51, 102.9 65.6 M75.35 97.3 C81.98 90.39, 88.41 84.12, 102.9 65.6 M9.49 92.73 C9.49 92.73, 9.49 92.73, 9.49 92.73 M9.49 92.73 C9.49 92.73, 9.49 92.73, 9.49 92.73 M21.53 92.59 C17.39 89.35, 12.98 85.85, 7.95 80.79 M21.53 92.59 C17.1 88.09, 11.88 84.89, 7.95 80.79 M33.58 92.46 C21.41 83.75, 11.82 70.99, 4.14 66.88 M33.58 92.46 C22.36 82.71, 10 71.49, 4.14 66.88 M45.62 92.33 C35.36 83.21, 26.98 76.65, 4.11 56.25 M45.62 92.33 C35.96 83.97, 24.71 75.37, 4.11 56.25 M58.41 92.85 C39.27 73.91, 18.83 59.62, 4.07 45.62 M58.41 92.85 C36.17 74.31, 15.49 57.27, 4.07 45.62 M74.23 96 C52.05 73.81, 27.79 55.75, 4.04 34.99 M74.23 96 C56.3 80.86, 38.67 64.4, 4.04 34.99 M84 93.9 C59.23 73.48, 37.66 53.77, 1.74 22.39 M84 93.9 C60.99 72.89, 36.15 52.52, 1.74 22.39 M91.52 89.83 C59.74 66.24, 33.23 37.37, 2.46 12.41 M91.52 89.83 C64.83 67.3, 40.37 45.13, 2.46 12.41 M96.76 83.79 C67.34 58.13, 42.3 35.97, 6.95 5.72 M96.76 83.79 C74.56 64.79, 53.25 46.23, 6.95 5.72 M99.75 75.78 C68.44 50.14, 36.97 21.26, 12.2 -0.32 M99.75 75.78 C72.03 51.63, 43.9 27.84, 12.2 -0.32 M99.71 65.15 C74.17 42.22, 50.05 20.28, 24.24 -0.45 M99.71 65.15 C79.63 46.62, 59.82 29.12, 24.24 -0.45 M99.68 54.52 C82.86 42.43, 66.96 27.98, 36.28 -0.58 M99.68 54.52 C86.26 42.03, 71.92 28.73, 36.28 -0.58 M99.64 43.89 C79.77 25.58, 62.2 10.02, 49.08 -0.06 M99.64 43.89 C84.83 30.46, 69.07 18.31, 49.08 -0.06 M99.61 33.26 C86.38 24.05, 74.93 12.81, 61.12 -0.2 M99.61 33.26 C84.44 20.53, 69.81 7.21, 61.12 -0.2 M99.58 22.63 C92.22 17.19, 84.87 10.34, 73.16 -0.33 M99.58 22.63 C89.85 14.23, 80.16 4.56, 73.16 -0.33" stroke="#90caf9" stroke-width="1" fill="none"></path><path d="M24 0 M24 0 C39.32 1.67, 49.09 -0.07, 74 0 M24 0 C39.26 -0.38, 54.21 -0.27, 74 0 M74 0 C89.46 -1.5, 98.58 8.18, 98 24 M74 0 C90.84 -2.11, 97.23 6.1, 98 24 M98 24 C96.54 33.73, 98.88 45.92, 98 72 M98 24 C98.56 42.27, 98.15 61.02, 98 72 M98 72 C97.2 89.47, 91.9 96.43, 74 96 M98 72 C97.92 87.81, 88.67 97.65, 74 96 M74 96 C62.96 96.39, 50.54 97.86, 24 96 M74 96 C59.7 96.76, 44.9 96.17, 24 96 M24 96 C7.88 97.04, 0.42 87.83, 0 72 M24 96 C7.98 98.09, -2.03 88.72, 0 72 M0 72 C1.03 56.18, 0.4 36.09, 0 24 M0 72 C0.52 57.84, 0.28 43.5, 0 24 M0 24 C-1.91 9.56, 9.87 -0.4, 24 0 M0 24 C-0.31 5.93, 9.68 -1.28, 24 0" stroke="#000000" stroke-width="2" fill="none"></path></g><g transform="translate(28.705617647883628 22.125218561783413) rotate(0 31 21)"><text x="31" y="33" font-family="Helvetica, Segoe UI Emoji" font-size="36px" fill="#000000" text-anchor="middle" style="white-space: pre;" direction="ltr">Mm</text></g><g transform="translate(26.69574847519334 63.353127693169654) rotate(0 34 9.5)"><text x="34" y="15" font-family="Cascadia, Segoe UI Emoji" font-size="16px" fill="#000000" text-anchor="middle" style="white-space: pre;" direction="ltr">Miranum</text></g></svg>