<svg version="1.1" xmlns="http://www.w3.org/2000/svg" viewBox="0 0 220.1361357565288 337.62281393528446" width="220.1361357565288" height="337.62281393528446">
  <!-- svg-source:excalidraw -->
  
  <defs>
    <style class="style-fonts">
      @font-face {
        font-family: "Virgil";
        src: url("https://excalidraw.com/Virgil.woff2");
      }
      @font-face {
        font-family: "Cascadia";
        src: url("https://excalidraw.com/Cascadia.woff2");
      }
    </style>
  </defs>
  <rect x="0" y="0" width="220.1361357565288" height="337.62281393528446" fill="" fill-opacity="0"></rect><g stroke-linecap="round"><g transform="translate(121.63113763111346 128.50617884133925) rotate(3.6838022528422356 -11.974098070889909 51.89798409012772)" fill-rule="evenodd"><path d="M-32.38 -1.64 C-32.38 -1.64, -32.38 -1.64, -32.38 -1.64 M-32.38 -1.64 C-32.38 -1.64, -32.38 -1.64, -32.38 -1.64 M-37.34 12.75 C-34.07 6.55, -32.21 5.71, -27.85 -4.68 M-37.66 11.19 C-35.77 7.19, -32.87 3.67, -25.39 -3.64 M-40.84 20.57 C-34.18 16.06, -33.52 9.04, -20.92 -1.56 M-39.5 20.33 C-34.58 13.41, -28.95 7.48, -21.63 -3.4 M-43.02 26.54 C-34.3 18.62, -23.16 7.55, -15.15 -2.48 M-41.83 27.28 C-36.04 19.35, -29.41 11.6, -16.18 -3.72 M-41.7 33.66 C-37.28 27.21, -27.58 18.07, -12.36 -0.24 M-43.65 34.45 C-33.83 25.21, -24.7 15.16, -11.69 -2.36 M-46.27 42.6 C-32.49 25.48, -15.83 12.49, -7.96 -0.06 M-43.86 43.05 C-33.32 31.57, -24.24 17.76, -6.72 -0.82 M-47.09 49.26 C-30.76 31.55, -14.78 13.64, -1.18 -0.94 M-46.5 50.29 C-37.28 40.03, -29.34 30.63, -1.5 0.19 M-47.68 56.76 C-38.81 46.57, -26.07 32.92, 0.78 0.36 M-46.68 57.13 C-30.9 38.56, -12.56 19.67, 2.1 2.45 M-46.19 65.48 C-31.03 43.05, -14.83 25.12, 2.61 5.85 M-47.78 64.05 C-30.18 44.3, -14.44 25.86, 2.71 6.54 M-48.93 70.02 C-31.72 47.95, -13.16 30.63, 6.6 9.46 M-46.73 69.78 C-36.13 58.99, -26.89 46.17, 5.4 10.74 M-49.86 78.98 C-34.72 63.52, -24.08 51.69, 5.9 16.64 M-47.26 76.83 C-28.86 55.9, -9.18 32.48, 7.22 14.35 M-46.82 82.4 C-33.53 63.41, -20.83 50.38, 9.06 20.08 M-45.9 80.66 C-32.02 64, -16.66 46.52, 7.96 19.2 M-44.83 85.11 C-30.73 67.99, -14.48 51.3, 7.77 23.19 M-44.99 86.81 C-33.21 71.69, -22.41 58.33, 8.14 22.86 M-45.17 93.41 C-24.86 68.16, -2.32 42.26, 10.1 27.61 M-45.51 91.3 C-24.04 67.31, -3.83 43.19, 10.53 27.93 M-42.78 97.55 C-23.65 70.52, -2.48 48.76, 12.27 32.74 M-42.28 96.87 C-31.55 83.97, -21.68 69.1, 12.14 33.23 M-41.66 99.56 C-30.71 85.57, -15.07 72.69, 11.89 39.19 M-41.09 100.58 C-24.71 80.54, -5.81 59.29, 13.74 37.13 M-39.23 104.66 C-18.49 81.39, -0.43 57.16, 15.71 40.31 M-38.74 102.95 C-25.54 87.49, -11.22 71.75, 13.82 42.74 M-35.67 103.33 C-15.34 82.18, 5.39 60.32, 17.52 44.94 M-34.24 103.78 C-15.39 83.7, 2.58 61.38, 16.76 46.41 M-32.12 105.56 C-19.09 90.55, -3.58 75.56, 18.64 52.66 M-30.69 106.13 C-13.06 86.44, 3.18 67.96, 17.59 50.77 M-26.28 107.52 C-13.51 91.61, 0.82 76.76, 20.35 53.02 M-24.65 106.8 C-8.98 87.55, 6.8 69.98, 18.66 55.71 M-21.74 106.17 C-9.02 94.67, 2.23 79.15, 21.19 61.06 M-21.23 106.63 C-5.29 89.35, 12.03 69.88, 19.14 61.63 M-13.67 107.64 C-1.3 92.22, 9.41 77.09, 18.64 66.56 M-15.5 106.67 C-3.33 91.66, 10.04 78.15, 21.03 66.4 M-9.5 105.1 C-0.48 96.41, 5.83 89, 20.42 71.77 M-8.95 105.79 C2.89 93.48, 15.3 79.05, 20.65 70.94 M-5.81 106.94 C5.79 94.57, 16.83 82.08, 20.89 74.19 M-4.11 106.56 C1.89 99.04, 9.44 91.5, 21.32 75.66 M0.81 107.77 C8.02 95.44, 17.86 88.57, 22.95 81.3 M0.83 106.08 C8.83 98.17, 14.49 89.34, 23.5 80.99 M9.61 104.44 C14.95 96.19, 21.65 91.74, 23.18 85.05 M8.11 103.72 C13.76 99.17, 18.28 93.11, 24.19 85.59 M-38.76 102.51 C-38.76 102.51, -38.76 102.51, -38.76 102.51 M-38.76 102.51 C-38.76 102.51, -38.76 102.51, -38.76 102.51 M-30.91 103.8 C-34.28 101.1, -37.61 98.6, -42.65 96.32 M-30.58 104.29 C-33.09 102.04, -36.06 99.25, -40.9 95.11 M-21.31 104.97 C-27.79 101.45, -37.23 95.34, -44.93 88.61 M-22.14 104.93 C-31.35 99.29, -38.63 91.07, -44.38 88.03 M-18.68 105.94 C-29.54 94.48, -37.01 88.22, -46.91 78.61 M-19.62 104.72 C-30.42 93.57, -40.19 85.11, -46.66 79.31 M-14.76 101.85 C-23.98 96.65, -31.32 88.41, -45.34 75.37 M-12.88 103.85 C-23.66 94.5, -36.73 83.59, -47.46 73.4 M-5.53 103.64 C-19.72 89.03, -35.19 77.14, -45.56 69.82 M-8.04 102.66 C-17.95 93.84, -27.75 86.8, -47.37 69.36 M0.83 103.78 C-9.97 95.36, -19.19 89.55, -48.39 61.87 M0.92 105.29 C-13.54 94.57, -26.31 82.09, -47.81 63.24 M7.09 103.91 C-13.12 87.75, -34.38 67.88, -47.87 58.71 M5.59 103.05 C-14.71 86.57, -34.11 69.68, -46.62 58.1 M9.34 102.11 C-5.16 89.84, -20 77.3, -45.79 54.9 M9.72 103.52 C-3.68 90.99, -19.26 78.37, -46.26 53.96 M14.67 99.26 C-4.59 85.03, -23.65 68.86, -45.17 49.92 M13.16 100.55 C-4.03 85.2, -23.65 68.76, -45.05 48.98 M15.95 99.76 C-4.01 79.26, -27.58 60.42, -46 43.64 M16.9 98.82 C-3.99 81.52, -22.81 62.9, -44.72 44.76 M22.05 93.82 C3.48 82.04, -13.8 67, -44.52 39.83 M19.51 95.81 C6 82.96, -10.5 69.6, -43.38 39.58 M24.6 94.14 C11.07 81.88, -3.37 68.97, -44.22 34.36 M22.22 92.28 C-2.19 72.22, -26.23 50.73, -42.27 36.31 M25 86.89 C1.39 68.1, -19.04 49.24, -42.27 31.27 M24.07 87 C4.14 69.5, -15.82 52.87, -42.01 30.31 M25.95 85.07 C4.97 68.25, -14.63 50.58, -39.63 28.4 M23.8 83.8 C5.89 66.93, -12.24 52.94, -40.34 26.71 M22.59 76.14 C10.63 66.39, -3.51 51.79, -39.48 21.45 M23.17 77.06 C2.89 58.76, -19.72 39.48, -38.4 22.32 M21.17 70.08 C2.88 57.31, -13.83 41.18, -38.21 16.21 M21.9 71.37 C4.6 54.05, -16.81 37.61, -39.48 17.54 M22.88 63.64 C-1.15 46.98, -23.91 25.62, -35.97 12.67 M21.76 65.7 C4.29 48.81, -15.51 33.67, -37.21 12.26 M21.21 59.79 C4.63 44.93, -11.56 28.08, -38.64 10.6 M20.17 58.43 C8.3 47.4, -3.83 37.36, -37.37 9.14 M16.66 49.91 C1.7 40.59, -12.68 26.24, -35.57 6.31 M19.16 51.44 C4.86 40.33, -7.64 28.66, -35.39 4.18 M17.49 45.27 C-2.22 30.19, -16.5 15.74, -32.87 -1.15 M16.36 43.25 C0.51 30.79, -12.42 19.16, -33.32 0.66 M14.98 35.19 C-2.68 22.38, -19.39 5.73, -33.6 -3.83 M14.55 36.94 C-4.08 21.75, -20.84 5.73, -31.84 -3.01 M9.44 28.62 C3.02 19.4, -9.98 12.66, -26.33 -6.07 M11.85 29.5 C0.78 19.59, -10.05 10.73, -28.49 -4.65 M9.91 20.17 C-2.67 11.81, -9.59 4.99, -20.1 -4.28 M9.77 21.63 C-2.53 13.48, -12.61 2.44, -20.49 -4.41 M6.49 13.73 C-0.77 9.2, -8.01 3.11, -16.21 -3.43 M7.66 15.04 C-0.44 8.75, -8.38 1.05, -16.18 -5.44 M2.84 6.2 C0.2 3.05, -3.26 2.13, -8.7 -4.11 M3.45 7.65 C0.98 6.01, -0.3 3.6, -7.57 -3.43" stroke="#228be6" stroke-width="0.5" fill="none"></path><path d="M0.69 0.27 C4.48 15.98, 30 77.5, 22.61 93.93 C15.22 110.36, -33.78 113.95, -43.65 98.85 C-53.53 83.74, -44.05 19.66, -36.63 3.29 C-29.21 -13.09, -5.07 1.1, 0.86 0.59" stroke="#000000" stroke-width="1.5" fill="none" stroke-dasharray="8 9"></path></g></g><mask></mask><g stroke-linecap="round"><g transform="translate(195.02937092593447 168.16052644638245) rotate(0 -37.38840601438562 -12.498906803552075)"><path d="M0.27 0.76 C-8.25 0.79, -38.93 5.63, -51.45 0.85 C-63.98 -3.94, -70.78 -23.42, -74.88 -27.96 M-1.05 0.12 C-9.62 -0.28, -39.58 3.49, -51.91 -1.03 C-64.24 -5.55, -71.06 -22.45, -75.04 -27.02" stroke="#495057" stroke-width="1" fill="none"></path></g></g><mask></mask><g stroke-linecap="round" transform="translate(195.1880156393413 166.06742453098758) rotate(0 7.47406005859375 4.496734619140625)"><path d="M8.9 0.8 C10.34 0.88, 12.74 0.28, 13.78 0.82 C14.82 1.37, 15.29 2.84, 15.13 4.07 C14.97 5.3, 13.84 7.31, 12.8 8.2 C11.77 9.09, 10.52 9.23, 8.91 9.41 C7.31 9.59, 4.71 9.95, 3.18 9.26 C1.66 8.58, 0.31 6.32, -0.26 5.29 C-0.84 4.27, -1.05 3.97, -0.27 3.11 C0.51 2.26, 2.55 0.74, 4.4 0.17 C6.24 -0.41, 9.6 -0.63, 10.81 -0.32 C12.03 -0.02, 11.89 1.75, 11.69 1.97 M9.12 1.52 C10.68 1.95, 13.47 2.45, 14.57 3.34 C15.67 4.24, 16.38 5.96, 15.73 6.87 C15.08 7.77, 12.01 8.64, 10.67 8.76 C9.32 8.88, 9.27 7.88, 7.66 7.59 C6.04 7.31, 2.22 7.69, 0.98 7.04 C-0.27 6.4, -0.06 4.64, 0.2 3.72 C0.46 2.8, 1.78 2.37, 2.54 1.54 C3.29 0.71, 3.54 -0.81, 4.71 -1.25 C5.87 -1.69, 8.43 -1.15, 9.53 -1.1 C10.63 -1.04, 11.42 -1.23, 11.31 -0.92" stroke="#495057" stroke-width="1" fill="none"></path></g><g stroke-linecap="round"><g transform="translate(116.6424639042848 234.40873047859412) rotate(0 5.682862718838578 41.177567917699946)"><path d="M0.93 0.46 C1.96 7.45, 4.73 29.01, 6.48 42.71 C8.22 56.42, 10.49 76.34, 11.41 82.69 M-0.04 -0.34 C0.91 6.73, 4.35 30.34, 6.13 43.87 C7.91 57.39, 9.57 74.55, 10.64 80.8" stroke="#495057" stroke-width="1" fill="none"></path></g></g><mask></mask><g stroke-linecap="round"><g transform="translate(94.53577155309677 234.1300346893118) rotate(0 -1.1172587864544994 45.00769973389339)"><path d="M0.46 1.15 C-0.1 8.12, -2.19 28.08, -2.61 42.77 C-3.03 57.46, -1.81 81.61, -2.03 89.31 M-0.75 0.71 C-0.99 7.8, -0.01 29.88, -0.28 44.31 C-0.54 58.73, -1.69 79.63, -2.34 87.27" stroke="#495057" stroke-width="1" fill="none"></path></g></g><mask></mask><g stroke-linecap="round" transform="translate(68.06509083465471 314.5618398141907) rotate(0 12.92633056640625 4.6710205078125)"><path d="M12.05 0.18 C14.48 -0.01, 18.31 0.12, 20.7 0.78 C23.09 1.44, 25.75 3.16, 26.4 4.13 C27.05 5.09, 25.96 5.85, 24.61 6.56 C23.26 7.27, 21.08 8.1, 18.29 8.39 C15.5 8.68, 10.59 8.43, 7.87 8.29 C5.15 8.15, 3.33 8.3, 1.98 7.56 C0.64 6.81, -0.5 5.01, -0.2 3.8 C0.1 2.59, 1.27 1.1, 3.78 0.31 C6.28 -0.48, 12.89 -1.04, 14.83 -0.93 C16.77 -0.82, 15.58 0.7, 15.43 0.95 M8.99 1.3 C11.4 0.57, 15.7 -1.4, 18.3 -1.18 C20.9 -0.95, 23.57 1.81, 24.57 2.64 C25.58 3.47, 24.96 2.88, 24.34 3.81 C23.71 4.75, 22.87 7.1, 20.82 8.25 C18.77 9.41, 14.77 10.79, 12.04 10.73 C9.31 10.67, 6.64 8.87, 4.44 7.9 C2.24 6.93, -0.44 5.62, -1.17 4.9 C-1.9 4.18, -1.25 4.53, 0.06 3.58 C1.37 2.62, 5.35 -0.44, 6.7 -0.8 C8.04 -1.16, 7.91 1, 8.13 1.4" stroke="#495057" stroke-width="1" fill="none"></path></g><g stroke-linecap="round" transform="translate(123.3573271627788 318.28077291965946) rotate(0 12.92633056640625 4.6710205078125)"><path d="M17.66 -0.21 C20.05 0.33, 22.51 2.09, 23.88 3.13 C25.26 4.17, 26.44 4.99, 25.91 6 C25.38 7.01, 22.99 8.75, 20.7 9.19 C18.4 9.64, 14.95 8.8, 12.12 8.68 C9.3 8.55, 5.64 9.06, 3.74 8.45 C1.84 7.84, 1.05 6.2, 0.71 5.04 C0.38 3.88, 0.55 2.16, 1.73 1.48 C2.92 0.8, 5.16 1.1, 7.84 0.96 C10.52 0.81, 15.67 0.65, 17.8 0.61 C19.92 0.57, 20.51 0.79, 20.59 0.71 M18.86 1.79 C21.03 2.06, 21.82 2.82, 23.01 3.24 C24.2 3.66, 26.62 3.57, 26 4.3 C25.37 5.02, 21.54 6.99, 19.28 7.59 C17.02 8.2, 14.74 7.95, 12.45 7.94 C10.17 7.93, 7.7 8.23, 5.56 7.54 C3.43 6.85, 0.35 4.94, -0.36 3.8 C-1.07 2.66, -0.47 1.54, 1.29 0.72 C3.04 -0.1, 7.57 -1.06, 10.15 -1.13 C12.73 -1.19, 15.32 0.18, 16.76 0.36 C18.19 0.53, 18.53 -0.38, 18.77 -0.1" stroke="#495057" stroke-width="1" fill="none"></path></g><g stroke-linecap="round" transform="translate(60.24435108856005 31.034389252667268) rotate(0 49.998779296875 44.29557800292969)"><path d="M61.65 1.02 C70.39 2.28, 80.87 8.45, 87.2 14.25 C93.53 20.05, 97.97 28.12, 99.64 35.81 C101.3 43.51, 100.79 53.08, 97.19 60.41 C93.58 67.74, 85.51 75.02, 78.02 79.8 C70.53 84.58, 61.19 88.66, 52.23 89.1 C43.27 89.53, 32.22 86.68, 24.27 82.42 C16.33 78.15, 8.45 70.77, 4.57 63.5 C0.68 56.23, -0.12 46.48, 0.96 38.8 C2.04 31.12, 5.55 23.48, 11.04 17.42 C16.53 11.35, 24.12 4.53, 33.89 2.4 C43.66 0.27, 62.34 3.56, 69.67 4.66 C76.99 5.77, 77.97 8.32, 77.86 9.02 M26.13 3.23 C33.22 -0.78, 45.5 -0.95, 54.46 0.37 C63.42 1.69, 72.84 6.25, 79.9 11.15 C86.97 16.05, 93.99 22.55, 96.84 29.76 C99.69 36.97, 99.36 46.41, 97 54.41 C94.65 62.41, 89.27 72.35, 82.71 77.74 C76.15 83.12, 66.26 85.31, 57.63 86.72 C49.01 88.14, 39.15 88.93, 30.95 86.22 C22.75 83.51, 13.38 76.97, 8.44 70.46 C3.5 63.95, 1.79 55.36, 1.3 47.18 C0.81 39, 1.13 28.35, 5.53 21.38 C9.92 14.42, 23.94 7.78, 27.66 5.38 C31.38 2.97, 27.4 6.24, 27.84 6.95" stroke="#343a40" stroke-width="1" fill="none"></path></g><g stroke-linecap="round"><g transform="translate(133.745938002623 87.51194357395633) rotate(0 -26.106344375014373 8.65731612297975)"><path d="M0.86 0.59 C-2.07 3.64, -11.29 15.9, -18.31 18.31 C-25.32 20.72, -35.44 18.44, -41.23 15.06 C-47.03 11.67, -51.05 0.99, -53.08 -2 M-0.14 -0.15 C-2.65 2.52, -9.1 13.58, -16.13 16.3 C-23.16 19.02, -36.29 19.02, -42.32 16.18 C-48.36 13.35, -50.31 2.43, -52.35 -0.72" stroke="#000000" stroke-width="1" fill="none"></path></g></g><mask></mask><g stroke-linecap="round"><g transform="translate(118.96700733856073 69.1425282907532) rotate(0 -0.16822682268457356 7.020005696560247)"><path d="M0.59 -1.02 C0.57 1.15, 0.12 11.11, -0.09 13.84 M-0.56 1.06 C-0.71 3.3, -0.75 12.98, -0.93 15.06" stroke="#000000" stroke-width="1" fill="none"></path></g></g><mask></mask><g stroke-linecap="round"><g transform="translate(87.8100249166855 34.47593283176883) rotate(0 -2.9960705964221006 -8.134275045990933)"><path d="M-1.02 0.22 C-2.27 -2.63, -5.96 -13.82, -6.64 -16.49 M0.65 -0.71 C-0.28 -3.43, -3.24 -12.88, -4.25 -15.14" stroke="#000000" stroke-width="1" fill="none"></path></g></g><mask></mask><g stroke-linecap="round"><g transform="translate(96.56950640336345 34.46036648624573) rotate(0 -1.4881572032674057 -10.991606451729325)"><path d="M0.22 -0.62 C-0.22 -4.11, -1.79 -18.39, -2.06 -22.01 M-1.12 1.68 C-1.8 -2.06, -3.06 -19.31, -3.2 -23.66" stroke="#000000" stroke-width="1" fill="none"></path></g></g><mask></mask><g stroke-linecap="round"><g transform="translate(100.31503770962081 28.91089482472279) rotate(0 2.993456020951271 -9.638653656174426)"><path d="M-0.62 -0.37 C0.65 -3.23, 5.46 -14.05, 6.6 -16.96 M1.26 -1.6 C2.54 -4.86, 5.37 -16.38, 6.13 -18.91" stroke="#000000" stroke-width="1" fill="none"></path></g></g><mask></mask><g stroke-linecap="round"><g transform="translate(109.06537885971602 28.899238876705056) rotate(0 2.8325551122426305 -8.824665021155965)"><path d="M-0.37 0.9 C0.6 -1.78, 5.11 -13.88, 6.03 -16.73 M1.64 0.33 C2.46 -2.66, 4.84 -15.5, 5.26 -18.55" stroke="#000000" stroke-width="1" fill="none"></path></g></g><mask></mask><g stroke-linecap="round"><g transform="translate(116.54580167837639 30.81495211065743) rotate(0 4.66105670527088 -8.74141367971896)"><path d="M0.9 0.33 C2.57 -2.58, 7.9 -14.74, 9.4 -17.81 M-0.08 -0.54 C1.53 -3.26, 7.12 -13.77, 8.75 -16.55" stroke="#000000" stroke-width="1" fill="none"></path></g></g><mask></mask><g stroke-linecap="round"><g transform="translate(123.45511640072027 31.324395404462564) rotate(0 3.682053325255424 -8.588729143594406)"><path d="M0.33 0.57 C1.78 -2.28, 7.03 -13.09, 8.32 -16.2 M-0.95 -0.18 C0.32 -3.42, 5.19 -14.91, 7.1 -17.74" stroke="#000000" stroke-width="1" fill="none"></path></g></g><mask></mask><g stroke-linecap="round"><g transform="translate(130.78356693044998 37.22619324148167) rotate(0 5.715733999763529 -7.788015257199305)"><path d="M0.57 -0.52 C2.42 -3.48, 10.43 -14.56, 12.03 -17.4 M-0.59 1.82 C1.12 -1.03, 9.45 -13.19, 11.65 -16.28" stroke="#000000" stroke-width="1" fill="none"></path></g></g><mask></mask><g stroke-linecap="round"><g transform="translate(137.1374659980902 39.44746230662332) rotate(0 6.473435703446171 -6.755317839980108)"><path d="M-0.52 1.1 C1.29 -1.43, 9.25 -12.17, 11.18 -14.61 M1.41 0.63 C3.57 -1.82, 11.46 -11.37, 13.47 -13.49" stroke="#000000" stroke-width="1" fill="none"></path></g></g><mask></mask><g stroke-linecap="round"><g transform="translate(144.69239330172286 45.48954118617797) rotate(0 7.538083887854668 -6.494621777613645)"><path d="M1.1 -0.8 C3.1 -3.11, 10.48 -12.38, 12.57 -14.38 M0.21 1.39 C2.55 -0.75, 12.73 -10.63, 14.86 -13.33" stroke="#000000" stroke-width="1" fill="none"></path></g></g><mask></mask><g stroke-linecap="round"><g transform="translate(93.42245167449846 67.8296620798157) rotate(0 0.12986350117978418 7.687209341223365)"><path d="M-0.8 -0.8 C-0.99 0.23, -2.1 4.63, -1.64 7.28 C-1.17 9.93, 1.52 13.89, 2.01 15.1 M0.98 1.4 C1.21 2.56, 0.49 2.84, 0.59 5.31 C0.69 7.77, 1.43 14.53, 1.58 16.17" stroke="#000000" stroke-width="1" fill="none"></path></g></g><mask></mask><g stroke-linecap="round"><g transform="translate(61.55810581815558 65.35748545655036) rotate(0 -1.4889981141834596 7.937316194991581)"><path d="M-0.8 -0.92 C-1.51 0.64, -3.42 5.86, -3.15 8.6 C-2.88 11.34, 0.23 14.51, 0.81 15.52 M0.98 1.2 C0.04 2.49, -3.75 4.22, -3.95 6.82 C-4.15 9.42, -0.87 15.39, -0.21 16.8" stroke="#000000" stroke-width="1" fill="none"></path></g></g><mask></mask><g stroke-linecap="round"><g transform="translate(23.540566658916987 169.2848982290709) rotate(0 31.48400106413385 -12.903141580887535)"><path d="M-0.16 0.2 C6.35 -0.92, 29.34 -2, 40.14 -6.06 C50.95 -10.11, 60.91 -20.96, 64.67 -24.16 M-1.7 -0.75 C4.56 -2.28, 28.2 -3.68, 39.23 -7.89 C50.25 -12.1, 60.57 -23.28, 64.46 -26" stroke="#495057" stroke-width="1" fill="none"></path></g></g><mask></mask><g stroke-linecap="round" transform="translate(10 158.7548329782532) rotate(0 7.47406005859375 4.496734619140625)"><path d="M7.57 -0.41 C8.94 -0.54, 10.13 -0.48, 11.21 -0.01 C12.3 0.46, 13.71 1.35, 14.07 2.41 C14.43 3.46, 13.83 5.27, 13.38 6.31 C12.92 7.34, 12.77 8.22, 11.33 8.61 C9.9 9, 6.3 8.93, 4.77 8.63 C3.23 8.33, 2.9 7.4, 2.12 6.8 C1.33 6.19, 0.02 6.06, 0.06 5 C0.1 3.94, 0.78 1.39, 2.35 0.45 C3.91 -0.49, 8.04 -0.59, 9.47 -0.66 C10.91 -0.72, 11.19 0.01, 10.96 0.07 M10.31 1.51 C12.07 2.14, 14 2.63, 15 3.19 C16 3.76, 16.84 4.24, 16.32 4.88 C15.79 5.53, 13.18 6.19, 11.84 7.08 C10.5 7.97, 9.69 9.91, 8.27 10.22 C6.84 10.52, 4.68 9.47, 3.29 8.9 C1.91 8.33, 0.51 8.1, -0.05 6.79 C-0.61 5.48, -0.63 2.27, -0.08 1.03 C0.47 -0.22, 1.76 -0.66, 3.27 -0.68 C4.78 -0.7, 8.04 0.79, 8.98 0.89 C9.93 0.98, 8.65 -0.18, 8.95 -0.12" stroke="#495057" stroke-width="1" fill="none"></path></g><g stroke-linecap="round"><g transform="translate(78.76517460032869 44.55735143244726) rotate(0 -3.3646987168398255 -8.8906367212534)"><path d="M-0.81 -0.47 C-2.06 -3.31, -5.89 -14.49, -7.3 -17.31 M0.97 -1.76 C-0.37 -4.47, -6.39 -13.85, -7.7 -16.34" stroke="#000000" stroke-width="1" fill="none"></path></g></g><mask></mask><g stroke-linecap="round"><g transform="translate(71.90589744730869 48.77266696513158) rotate(0 -4.034168615937233 -8.032206595395678)"><path d="M1.02 0.6 C-0.48 -1.76, -7.55 -12.35, -9.09 -15.12 M0.1 -0.13 C-1 -2.71, -5.26 -14.24, -6.77 -16.66" stroke="#000000" stroke-width="1" fill="none"></path></g></g><mask></mask><g stroke-linecap="round"><g transform="translate(110.95805899788002 147.37748122849626) rotate(0 -0.49759182354364384 5.946001760963242)" fill-rule="evenodd"><path d="M-10.97 -6.88 C-10.97 -6.88, -10.97 -6.88, -10.97 -6.88 M-10.97 -6.88 C-10.97 -6.88, -10.97 -6.88, -10.97 -6.88 M-11.4 -0.27 C-9.34 -2.8, -7.17 -5.79, -5.77 -7.46 M-11.44 -0.66 C-10.27 -2.09, -8.66 -3.52, -5.14 -7.68 M-10.15 3.11 C-6.47 1.25, -3.85 -1.74, -2.44 -3.03 M-9.21 3.57 C-6.6 0.75, -4.03 -2.71, -2.77 -4.28 M-8 8 C-4.44 5.77, -2.61 2.69, -0.49 -0.55 M-8.2 8.22 C-5.35 6, -3.36 2.15, -1.16 -0.46 M7.27 -9.58 C7.27 -9.58, 7.27 -9.58, 7.27 -9.58 M7.27 -9.58 C7.27 -9.58, 7.27 -9.58, 7.27 -9.58 M-9.12 13.49 C-1.95 8.19, 3.32 -0.58, 11.44 -6.72 M-8.21 13.67 C-2.62 7.57, 3.38 2.3, 11.9 -7.37 M-6.1 16.88 C2.77 8.98, 10.89 -0.14, 14.18 -4.02 M-5.82 17.01 C-1.36 12.09, 5.18 6.51, 14.77 -5.96 M-2.78 21.47 C1.86 11.72, 10.45 7.46, 15.54 -2.73 M-1.99 20.88 C4.13 11.46, 13.13 2.99, 17.51 -2.45 M0.36 20.25 C2.45 19.76, 6.15 13.84, 15.14 6.54 M1.39 21.74 C5.77 15.97, 9.5 10.64, 13.89 6.98" stroke="#fa5252" stroke-width="0.5" fill="none"></path><path d="M1.16 -0.73 C0.1 -2.2, -4.5 -7.67, -7.12 -7.85 C-9.73 -8.04, -14.45 -5.09, -14.53 -1.83 C-14.62 1.42, -10.13 7.8, -7.64 11.7 C-5.15 15.59, -1.84 20.94, 0.4 21.51 C2.65 22.08, 3.51 19.43, 5.83 15.11 C8.14 10.79, 14.1 -0.3, 14.28 -4.4 C14.47 -8.49, 9.53 -10.32, 6.96 -9.46 C4.39 -8.59, -0.1 -0.61, -1.14 0.77 M0.3 1.51 C-0.3 -0.44, -2.22 -9.02, -4.87 -9.87 C-7.51 -10.72, -14.62 -7.26, -15.56 -3.58 C-16.5 0.09, -13.47 8, -10.49 12.19 C-7.52 16.38, -0.55 20.71, 2.3 21.56 C5.16 22.41, 4.55 21.86, 6.62 17.28 C8.7 12.71, 14.79 -1.44, 14.74 -5.88 C14.68 -10.31, 8.71 -10.28, 6.3 -9.34 C3.88 -8.39, 1.59 -2, 0.26 -0.2" stroke="#c92a2a" stroke-width="1" fill="none"></path></g></g><mask></mask></svg>