<svg version="1.1" xmlns="http://www.w3.org/2000/svg" viewBox="0 0 854.9224159566147 338.0487464434407" width="854.9224159566147" height="338.0487464434407">
  <!-- svg-source:excalidraw -->
  
  <defs>
    <style class="style-fonts">
      @font-face {
        font-family: "Virgil";
        src: url("https://excalidraw.com/Virgil.woff2");
      }
      @font-face {
        font-family: "Cascadia";
        src: url("https://excalidraw.com/Cascadia.woff2");
      }
    </style>
  </defs>
  <rect x="0" y="0" width="854.9224159566147" height="338.0487464434407" fill="#ffffff"></rect><g stroke-linecap="round" transform="translate(306.769899743359 132.04295295975407) rotate(120.96375653207342 35.85940851159057 18.54822921188247)"><path d="M0 0 C0 0, 0 0, 0 0 M0 0 C0 0, 0 0, 0 0 M-0.6 6.57 C0.95 3.6, 3.79 2.36, 4.7 -0.04 M-0.24 6.02 C1.98 4, 4.11 2.12, 5.35 0.43 M0.25 12.72 C1.8 7.99, 4.97 6.58, 11.09 0.79 M0.62 12.32 C4.2 6.74, 8.46 2.79, 10.49 -0.18 M1.74 19.68 C5.08 12.25, 12.52 3.18, 14.45 1.44 M0.3 18.72 C3.28 14.68, 6.05 10.16, 16.12 0.33 M-1.43 23.39 C5.76 15.61, 11.23 11.66, 20.79 0.82 M0.15 23.61 C5.96 18.19, 10.86 10.15, 21.22 -0.56 M-1.89 30.51 C9.48 20.99, 14.7 12.62, 26.44 2.19 M0.19 29.95 C8.31 21.82, 17.3 12.26, 26.59 0.83 M-1.31 36.19 C11.96 23.62, 25.67 5.9, 32.61 1.14 M-1.1 36.26 C12.28 23.21, 24.94 7.89, 32.68 -0.25 M4.66 39.08 C13.39 26.81, 26.16 11.92, 38.7 -0.59 M1.85 39.11 C12.48 27.73, 22.96 15.55, 36.06 0.25 M9.56 41.27 C17.15 29.29, 25.45 19.09, 41.88 -1.46 M8.29 40.61 C16.09 30.34, 23.22 20.31, 42.51 0.29 M15.09 38.66 C22.25 26.72, 34.48 15.68, 46.19 1.47 M13.54 40.34 C25.12 27.25, 36.87 12.85, 47.57 1.02 M17.47 40.54 C29.99 27.89, 39.77 13.88, 54.24 -1.83 M18.84 40.52 C30.96 26.25, 42.98 10.15, 53.62 -0.14 M24.44 38.22 C34.53 28.7, 47.93 15.11, 56.26 -0.71 M23.71 40.14 C34.71 27.98, 43.44 16.8, 58.43 -0.21 M28.4 38.69 C37.47 32.28, 43.88 23.28, 61.78 1.74 M28.62 40.27 C40.42 26.71, 52.75 13.1, 64.24 0.47 M34.03 38.21 C43.41 26.52, 52.35 14.69, 68.73 -1.64 M33.95 39.14 C46.57 23.5, 59.47 9.29, 68.26 -0.55 M39.42 39.96 C47.85 27.86, 60.22 19.37, 73.73 1.02 M40.61 39.38 C51.16 26.86, 61.34 14.03, 72.53 0.86 M43.66 39.65 C51.7 30.41, 59.26 22.3, 73.28 6.28 M45.11 39.19 C53.15 29.21, 61.58 19.98, 72.38 8.62 M52.02 39.15 C57.1 31.17, 65.92 21.23, 75.17 11.91 M50.08 39.55 C58.52 30.12, 68.41 19.22, 73.42 12.54 M55.53 40.13 C59.69 33.09, 65.9 27.81, 73.21 18.65 M55.36 39.37 C61.59 33.6, 66.61 27.07, 73.58 19.6 M60.17 41.54 C62.15 35.35, 64.18 34.28, 74.62 27.14 M60.58 38.77 C64.98 35.24, 68.45 32.11, 74.1 24.65 M66.42 38.54 C68.28 38.58, 69.63 35.44, 73.34 31.93 M66.33 39.64 C68.97 36.46, 70.56 34.45, 72.67 31.57" stroke="#fa5252" stroke-width="0.5" fill="none"></path><path d="M1.67 -0.38 C21.19 0.89, 43.58 0.43, 73.25 -0.92 M-0.47 -0.3 C16.15 -0.73, 30.38 -0.01, 72.1 -0.78 M70.09 0.45 C69.84 13.81, 70.11 25.93, 73.44 37.48 M72.68 0.62 C70.93 13.65, 72.63 26.69, 72.48 37.92 M70.2 36.24 C45.87 35.04, 23.02 36.97, 0.7 36.4 M72.58 36.83 C49.24 38.17, 25.54 38.27, -0.52 37.3 M-1.63 36.47 C-1.63 30.14, -1.24 22.01, -0.56 0.32 M0.64 37.11 C-0.79 25.28, 0.19 15.13, -0.95 -0.96" stroke="#000000" stroke-width="1" fill="none"></path></g><g stroke-linecap="round" transform="translate(304.9860442657291 218.2626343786169) rotate(243.29755869256726 35.85940851159057 18.54822921188247)"><path d="M0 0 C0 0, 0 0, 0 0 M0 0 C0 0, 0 0, 0 0 M0.24 5.98 C1.91 3.31, 4.32 0.93, 4.33 0.11 M-0.16 6.29 C0.99 5.01, 1.95 3.95, 5.24 0.36 M-0.01 10.52 C0.83 9.93, 5.43 8.17, 11.56 1.51 M-0.06 11.67 C3.63 8.34, 5.64 5.11, 10.19 -0.66 M0.06 18.5 C5.86 13.98, 11.45 5.49, 14.77 0.75 M0.5 18.08 C2.78 15.47, 5.92 10.89, 15.68 -0.62 M2.07 25.88 C7.94 13.75, 13.37 7.7, 21.41 0.78 M0.06 24.37 C6.47 18.68, 11.49 11.77, 21.87 0.28 M0.63 30.13 C7.59 22.93, 16.39 12.48, 28.12 1.53 M-0.94 29.9 C7.64 21.33, 14.15 14.02, 26.67 0.57 M-0.72 37.89 C9 26.3, 19.17 15.55, 30.2 -0.79 M0.69 36.64 C9.06 26.94, 17.54 16.82, 31.78 -0.57 M1.44 39.42 C11.6 28.44, 21.95 16.79, 34.99 0.29 M3.25 39.6 C15.98 25.89, 27.32 11.37, 37.06 -0.27 M9.6 40.56 C18.8 29.63, 26.44 15.94, 41.47 -0.83 M6.81 40.22 C17.29 30.08, 25.03 18.85, 41.67 -0.75 M12.29 41.06 C22.75 29.2, 33.7 15.25, 49.41 -0.2 M13.55 40.38 C20.53 30.74, 29.51 21.53, 46.59 -0.17 M18.42 38.2 C27.24 28.56, 35.95 17.49, 54.96 1.24 M17.62 39.5 C29.83 25.36, 43.09 12.72, 53.69 0.58 M22.31 39.41 C37.08 25.42, 49.9 11.59, 59.84 -0.62 M23.58 38.77 C33.77 29.38, 41.52 18.18, 58.29 1.07 M28.82 39.92 C40.38 28.54, 48.84 16.35, 62.87 0.5 M28.92 40.34 C39.09 27.82, 51.15 14.05, 64.24 0.48 M32.93 40.34 C44.82 28.06, 53.44 15.6, 69.18 -1.06 M35.15 38.46 C42.63 28.98, 51.72 18.79, 68.46 0.86 M40.94 40.35 C50.45 25.15, 63.24 13.04, 72.49 0.16 M40.37 38.76 C51.53 27.35, 61.71 14.77, 72.71 1.75 M46.02 40.27 C53.97 30.39, 60.34 22.61, 72.22 6.47 M44.33 39.34 C51.41 32.55, 58.81 24.86, 72.13 7.41 M49.39 38.72 C53.77 34.17, 60.8 29.82, 73.01 13.51 M50.95 40.04 C56 33.29, 61.83 25.72, 74.2 12.93 M55.89 38.2 C60.66 32.26, 67.94 25.42, 71.35 19.99 M55.46 39.55 C59.97 33.9, 64.61 28.68, 72.8 19.53 M59.27 38.83 C66.09 36.84, 67.6 34.03, 75.03 24.81 M60.9 40.61 C63.23 36.87, 66.32 33.58, 73.18 25.18 M65.91 39.48 C67.4 37.56, 69.08 36.07, 72.91 32.15 M66.87 39.35 C67.62 37.75, 68.76 35.98, 72.83 31.77" stroke="#82c91e" stroke-width="0.5" fill="none"></path><path d="M0.54 -1.06 C23.58 -1.94, 49.04 -1.87, 72.45 1.05 M-0.8 0.06 C18.33 -0.47, 37.57 -0.35, 72.18 -0.83 M73.27 0.37 C72.98 12.31, 72.38 21.94, 72.15 35.65 M71.01 0.47 C72.27 11.14, 72.14 20.89, 70.85 36.66 M71.65 37.32 C43.09 37.89, 15.77 36.97, 1.67 36.72 M71.81 37.86 C54.26 35.79, 36.79 36.71, -0.47 36.8 M0.12 37.85 C-1.31 25.06, -1.65 9.83, -1.63 0.45 M-0.73 37.96 C0.17 29.46, -0.06 20.44, 0.96 0.62" stroke="#000000" stroke-width="1" fill="none"></path></g><g stroke-linecap="round" transform="translate(477.26059696309494 215.73089962243876) rotate(109.65382405804976 35.85940851159057 18.54822921188247)"><path d="M0 0 C0 0, 0 0, 0 0 M0 0 C0 0, 0 0, 0 0 M-0.49 6.38 C2.15 3.63, 3.9 1.76, 4.95 -0.18 M-0.3 6.38 C0.51 5.47, 2.12 3.9, 4.68 0.67 M1.36 10.78 C3.31 8.54, 6.56 4.29, 11.67 0.68 M0.53 11.69 C2.55 7.99, 6.55 4.88, 10.38 0.32 M0.26 20.08 C4.39 11.55, 8.13 8.99, 14.71 1.29 M0.35 18.86 C6.59 10.6, 10.99 5.07, 14.83 -0.32 M-0.68 23.23 C5.28 16.18, 12.8 9.57, 20.51 -1.09 M0.6 23.23 C7.39 16.17, 13.7 8.13, 21.49 -0.15 M-0.34 31.88 C9.03 18.68, 18.48 10.69, 26.35 0.86 M0.18 29.71 C6.36 23.88, 11.3 18.03, 25.41 0.41 M1.44 36.28 C13.79 22.53, 23.61 5.77, 30.7 0.46 M-0.67 37.1 C12.89 21.46, 24.37 8.34, 32.05 0.62 M3.24 39.8 C16.02 23.74, 27.26 12.59, 38.53 -1.19 M2.15 40.46 C9.88 31.98, 18.09 22.44, 37.87 0.67 M9.19 38.89 C19.21 28.45, 29.37 14.22, 40.96 -1.61 M7.27 40.59 C20.93 23.92, 35.4 8.55, 43.3 -1.09 M11.94 41.41 C27.74 23.56, 40.23 10.65, 48.39 0.76 M14.18 39.9 C22.63 28.97, 33.96 18.19, 47.38 1 M19.06 38.25 C27.91 31.62, 33.42 20.84, 54.13 0.12 M19.08 39.66 C25.61 32.19, 32.91 22.71, 52.8 -0.88 M26.01 39.94 C34.52 27.51, 41.68 19.25, 59.52 0.95 M23.33 40.11 C36.06 25.98, 49.06 10.5, 58.42 1.16 M29.28 38.32 C36.38 32.58, 45.66 22.75, 65.54 -0.36 M29.97 39.73 C42.04 25.01, 55.62 9.52, 64.41 -0.11 M34 40.13 C45.98 26.31, 56.44 14.59, 69.95 2.13 M34.83 40.34 C43.16 30.92, 50.38 23.28, 68.73 0.14 M39.11 40.64 C51.52 27.53, 63.83 11.41, 73.61 3.01 M39.06 40.39 C47.49 30.97, 55.67 21.23, 72.94 1.54 M44.91 41.28 C55.14 29.2, 61.72 18.18, 73.58 7.18 M46.21 40.05 C51.65 31.76, 56.34 24.78, 72.76 7.68 M50.26 39.28 C56.28 32.38, 59.37 27.41, 74.65 14.4 M50.76 40.48 C58.22 30.39, 67.86 19.64, 72.96 14.22 M56.17 41.26 C62.68 29.8, 68.21 23.06, 71.94 20.99 M55.24 38.93 C62.29 32.05, 67.93 25.42, 73.46 20.19 M59 40.84 C63.62 35.62, 67.91 32.18, 74.42 24.95 M60.75 40.01 C66.03 34.31, 70.44 29.74, 74.29 24.65 M66.09 39.9 C69.15 36.74, 70.61 34.87, 73.7 31.62 M66.27 39.09 C68.83 36.86, 70.22 34.89, 72.73 31.76" stroke="#fa5252" stroke-width="0.5" fill="none"></path><path d="M0.74 -0.43 C13.93 -0.02, 27.3 1.34, 71.13 1.52 M-0.09 0.47 C16.99 0.21, 35.89 0, 71.43 -0.52 M73.41 -0.57 C71.55 10.47, 71.43 17.85, 72.02 37.47 M71.74 0.78 C72.03 14.26, 72.62 27.47, 71.73 36.13 M69.97 36.16 C57.99 38.74, 40.03 38.22, -1.28 37.73 M72.08 36.22 C45.11 37.56, 17.17 37.62, -0.98 36.96 M1.99 38.96 C-0.21 29.42, 1.01 20.55, -1.75 1.11 M0.37 36.56 C0.34 28.81, 0.13 20.2, 0.61 0.31" stroke="#000000" stroke-width="1" fill="none"></path></g><g stroke-linecap="round" transform="translate(471.0072721568804 133.8335280498561) rotate(243.29755869256726 35.85940851159057 18.54822921188247)"><path d="M0 0 C0 0, 0 0, 0 0 M0 0 C0 0, 0 0, 0 0 M-0.57 6.79 C1.38 3.62, 2.64 1.83, 4.71 0.8 M0.09 6.32 C0.85 4.71, 2.12 4.01, 4.91 0.17 M-0.22 12.44 C4.68 6.92, 5.46 4.23, 11.23 -1 M-0.52 11.39 C3.67 9.06, 6.32 5.05, 11.02 0.7 M1.85 18.1 C3.91 15.77, 4.63 9.72, 16.56 0.01 M-1.08 18.85 C3.46 13.9, 5.61 11.27, 15.56 0.31 M-1.54 24.46 C8.76 13.71, 16.84 5.84, 21.18 -1.13 M0.79 24.51 C4.8 19.49, 8.97 14.7, 20.48 -0.57 M0.55 29.41 C8.84 19.72, 18.05 11.23, 25.2 -0.25 M0.74 29.66 C9.93 18.53, 20.57 7.31, 25.29 -0.21 M1.43 37.28 C11.39 24.46, 22.77 11.69, 32.15 -1.78 M0.71 36.24 C12.13 21.94, 26.21 7.54, 30.9 -1.02 M0.92 40.51 C13.57 23.72, 24.93 12, 35.47 1.38 M2.69 39.75 C13.01 29.07, 22.41 18.15, 37.69 0.51 M5.8 38.36 C23.34 23.75, 35.36 10.25, 43.36 0.22 M8.63 39.38 C15.71 31.29, 24.77 21.86, 41.94 -0.43 M14.01 38 C20.46 29.72, 27.88 19.98, 49.2 2.02 M14.25 38.52 C24.64 25.85, 36.98 11.89, 47.74 0.91 M18.26 40.87 C27.91 29.01, 35.96 19.32, 52.4 -1.3 M18.22 40.56 C28.75 28.68, 38.52 16.29, 53.43 0.55 M24.31 38.04 C33.03 29.5, 42.23 18.78, 56.78 -0.78 M23.98 39.73 C37.4 24.72, 51.24 7.88, 57.59 -0.28 M29.32 38.64 C38.73 30.56, 46.51 16.33, 63.45 -2.07 M29.65 38.91 C36.34 31.02, 45.69 21.67, 63.39 0.54 M34.74 38.16 C44.17 26.65, 55.74 15.57, 69.18 -1.03 M34.52 39.39 C45.1 27.73, 55.67 15.18, 68.63 -0.05 M40.69 38.9 C49.56 27.05, 57.64 17.66, 73.95 2.14 M38.94 38.79 C49.95 27.58, 60.25 16.72, 72.77 0.94 M46.8 38.31 C50.07 31.8, 56.3 27.36, 71.36 7.27 M44.76 38.77 C53.99 28.79, 65.14 17.43, 72.92 8.44 M50.64 41.35 C58.62 31.27, 64.17 25.31, 73.32 13.54 M49.3 38.89 C59.82 30.49, 66.31 20.04, 74.14 14 M56.54 40.9 C59.11 35.1, 65.75 27.08, 74.01 19.95 M55.78 38.42 C60.67 34.81, 66.16 29.75, 72.89 19.75 M61.95 38.18 C66.86 34.91, 70.48 28.64, 74.55 25.16 M61.19 40.13 C64.41 34.8, 69.34 30.73, 73.38 25.6 M66.56 39.03 C67.78 37.9, 70.15 36.05, 73.42 31.77 M66.71 39.74 C68.94 36.1, 71.57 33.36, 73.32 31.47" stroke="#82c91e" stroke-width="0.5" fill="none"></path><path d="M1 0.96 C20.26 -0.83, 44.72 0.94, 69.9 0.32 M0.57 0.43 C24.05 -0.83, 47.89 -1.36, 71.61 -0.25 M72.69 0.74 C71.24 6.94, 73.99 14.79, 70.52 36.12 M71.9 0.82 C72.35 11.36, 71.4 22.94, 71.28 37.68 M71.29 36.72 C45.85 37.71, 20.1 35.55, -1.48 35.88 M72.24 36.13 C45.81 37.15, 19.01 36.92, 0.86 37.99 M-0.41 36.22 C-1.12 31.14, -2.25 21.6, 1.3 -0.51 M0.44 37.56 C0.62 28.32, -0.17 20.43, 0.11 0.27" stroke="#000000" stroke-width="1" fill="none"></path></g><g stroke-linecap="round" transform="translate(719.9224159566147 77.3894002511206) rotate(0 62.5 122)"><path d="M-1.01 1.47 L126.48 -1.31 L124.37 242.38 L-0.29 242.4" stroke="none" stroke-width="0" fill="#ffffff"></path><path d="M1.2 -1.32 C29.81 -0.75, 59.12 0.27, 125.89 0.17 M-0.19 0.68 C36.54 0.82, 73.89 -0.03, 125.45 -0.88 M123.38 0.29 C124.02 93, 123.72 190.04, 126.37 242.58 M124.24 -0.82 C124.19 85.28, 124.57 168.98, 125.75 243.6 M123.48 245.08 C81.91 245.69, 35.97 242.4, 0.21 243.19 M124.05 244.87 C75.74 243.09, 27.6 242.56, -0.66 244.94 M-1.43 244.74 C2.01 179.07, 2 116.45, 0.4 -1.41 M-0.56 243.29 C-1.06 190.91, -0.29 139.06, -0.55 -0.02" stroke="#000000" stroke-width="1" fill="none"></path></g><g transform="translate(734.9224159566147 163.3894002511206) rotate(0 47.5 36)"><text x="47.5" y="19" font-family="Cascadia, Segoe UI Emoji" font-size="20px" fill="#000000" text-anchor="middle" style="white-space: pre;" direction="ltr">BPMN 2.0</text><text x="47.5" y="43" font-family="Cascadia, Segoe UI Emoji" font-size="20px" fill="#000000" text-anchor="middle" style="white-space: pre;" direction="ltr">Process</text><text x="47.5" y="67" font-family="Cascadia, Segoe UI Emoji" font-size="20px" fill="#000000" text-anchor="middle" style="white-space: pre;" direction="ltr">Engine</text></g><g stroke-linecap="round"><g transform="translate(381.08354636179047 129.95300131423846) rotate(0 43.42850166665994 66.92069379358759)" fill-rule="evenodd"><path d="M0 0 C0 0, 0 0, 0 0 M0 0 C0 0, 0 0, 0 0 M-13.78 24.58 C-7.04 14.12, 0.51 5.34, 6.81 -0.67 M-15.91 24.73 C-10.08 15.88, -4.4 10.04, 4.41 -0.53 M-32.15 49.33 C-14.43 31.9, -0.43 12.53, 10.95 -0.05 M-30.65 48.29 C-20.41 36.33, -9.18 23.57, 10.71 0.11 M-41.55 62.59 C-21.05 45.53, -1.77 20.9, 17.04 1.64 M-40.24 64.02 C-26.33 48.7, -13.43 31.58, 15.13 1.2 M-35.95 66.48 C-24.91 52.76, -13.57 40.07, 20.06 -0.48 M-37.65 68.82 C-15.44 41.25, 8.63 14.59, 21.37 0.05 M-34.54 69.61 C-17.6 50.29, 0.11 29.21, 26.87 2.26 M-34.57 70.51 C-17.37 49.09, 1.68 28.41, 25.61 0.9 M-32.43 76.04 C-11.32 51.19, 11.01 22.74, 33.12 0.4 M-34.61 76.23 C-19.7 58, -4.38 41.91, 32.88 0.65 M-29.63 77.5 C-11.69 56.02, 8.28 32.5, 37.62 -1.2 M-30.63 78.09 C-13.38 60.47, 3.13 40.98, 37.06 0.75 M-27.33 80.22 C-3.11 50.64, 23.09 21.48, 42.56 1.68 M-29.53 81.43 C-7.86 57.34, 12.83 32.13, 42.64 -0.26 M-26.3 85.1 C-9.12 66.54, 6.12 47.8, 47.18 1.31 M-27.06 86.47 C-5.1 61.94, 15.01 39.31, 47.9 -0.75 M-25.32 87.81 C-5.79 67.55, 14.19 41.38, 53.39 -1.38 M-24.68 89.78 C-5.55 68.58, 14.36 45.9, 52.22 0.18 M-21.46 93.69 C5.17 62.82, 31.81 31.81, 58.02 0.29 M-22.31 92.65 C-0.63 66.85, 21.1 41.24, 57.77 1.16 M-19.88 97.07 C1.45 72.36, 21.08 48.04, 63.19 -0.81 M-20.5 95.89 C4.81 67.51, 30 39.65, 63.49 0.39 M-19.45 101.23 C12.05 62.91, 44.08 24.83, 69.16 -1.32 M-18.57 101.15 C2.21 74.55, 25.44 51.34, 69.52 -0.5 M-14.55 105.68 C1.42 83.31, 21.12 64.47, 72.75 1.05 M-16.8 103.7 C10.66 72.3, 37.6 41.99, 73.15 1.3 M-15.39 109.11 C7.68 81.6, 27.39 60.86, 79.52 0.6 M-13.18 106.78 C18.45 69.16, 51.39 32.72, 78.58 0.37 M-10.35 109.5 C20.88 73.63, 53.75 33.04, 85.45 0.29 M-12.24 111.15 C21.72 74.47, 54.07 37.39, 84.14 1.11 M-8.48 116.19 C17.7 83.62, 47.79 48.09, 90.56 0.35 M-9.9 114.64 C14 85.47, 40.31 56.35, 89.54 -0.15 M-7.73 116.84 C14.63 93.97, 35.15 71.87, 94.55 0.18 M-8.23 118.47 C25.32 78.31, 59.25 40.23, 94.96 2.08 M-5.39 121.49 C24.97 88.92, 55 53.12, 95.06 2.7 M-6.29 122.83 C31.79 77.9, 69.84 35.62, 96.99 4.36 M-4.52 126.71 C24.23 92.52, 51.8 62.46, 99.29 7.72 M-2.96 126.42 C16.17 101, 38.2 77.7, 97.72 9.03 M-2.23 130.47 C28.13 96.75, 54.78 65.01, 102.28 12.33 M-1.7 128.76 C21.62 101.88, 45.1 77, 100.66 12.07 M3.21 128.5 C30.61 102.58, 52.8 71.33, 101.28 14.78 M3.88 130.01 C38.69 90.57, 72.88 51.78, 102.59 16.45 M7.4 130.48 C29.87 106.07, 47.92 82.62, 105.34 18.59 M8.68 130.57 C34.91 100.52, 59.59 71.75, 104.77 19.65 M15.39 129.35 C46.99 94.87, 78.38 57.53, 108.84 24.69 M13.2 129.83 C46.55 92.01, 79.93 53.93, 108.06 23.2 M18.62 130.67 C54.49 90.8, 90.68 53.07, 111.28 26.29 M20.04 131.02 C44.96 99.21, 70.7 69.54, 110.17 27.07 M22.56 131.07 C50.11 102.17, 75.23 72.43, 110.79 28.99 M23.17 131 C44.02 106.76, 66.08 83.55, 110.82 31.15 M30.35 132.56 C62.13 94.8, 95.19 55.37, 113.76 34.92 M29.03 132.09 C47.2 110.14, 66.19 88.51, 112.91 34.86 M34.41 132.92 C60.1 102.3, 82.39 73.64, 114.52 37.62 M33.8 131.9 C55.8 105.75, 79 80.42, 115.76 37.44 M40.08 132.11 C69.84 96.23, 103.1 58.6, 116.95 42.17 M38.53 131.07 C61.25 106.67, 83.4 80.43, 118.26 41.54 M45.22 130.58 C73.53 98.04, 102.78 63.12, 120.03 45.26 M44.34 133.19 C67.79 102.97, 93.97 74.17, 120.05 44.76 M47.87 131.72 C65.54 114.33, 81.56 93.77, 121.58 46.15 M49.62 132.52 C68.83 110.89, 88.67 88.84, 122.72 47.95 M53.82 132.17 C69.82 115.26, 81.65 102.37, 123.83 50.73 M53.22 133.84 C76.99 108.32, 97.53 83.37, 125.02 52.82 M60.32 132.23 C77.57 110.36, 98.1 88.27, 127.01 55.68 M59.61 134.26 C74.9 113.19, 91.39 93.78, 126 55.44 M63.61 134.24 C75.33 117.38, 90.52 105.91, 129.02 59.31 M64.11 133.06 C87.68 105.88, 111.36 78.39, 128.23 58.6 M70.61 132.92 C82.48 117.53, 96.66 100.73, 131.73 60.99 M68.04 133.43 C86.94 113.34, 104.5 94.53, 131.68 62.63 M74.53 133.79 C86.53 116.89, 102.28 101.15, 124.7 72.52 M73.91 134.36 C86.52 119.52, 101.06 102.02, 126.94 74.21 M78.49 135.5 C92.12 118.71, 105.67 105.54, 122.44 87.63 M78.65 134.42 C92.75 120.29, 104.77 105.45, 122.16 85.31 M83.13 136.25 C95.38 125.54, 104.29 110.93, 118.43 97.25 M84.73 135.54 C95.77 119.92, 109.2 104.67, 116.49 97.93 M90.25 136.12 C94.54 128.63, 100.94 120.59, 111.9 107.61 M89.41 134.91 C98.99 124.73, 106.26 114.22, 112.56 109.57 M94.46 135.49 C98.65 131.2, 99.76 129.89, 107.53 122.55 M93.88 136.68 C98.47 130.43, 102.84 125.34, 107.65 121.06 M-3.65 126.14 C-3.65 126.14, -3.65 126.14, -3.65 126.14 M-3.65 126.14 C-3.65 126.14, -3.65 126.14, -3.65 126.14 M2.03 128.13 C-0.68 125.42, -2.73 122.89, -10.6 115.26 M3.58 126.59 C0.27 124.84, -3.04 121.44, -9.25 115.5 M8.54 126.62 C-1.59 119.11, -8.56 108.6, -17.71 104.75 M9.4 127.86 C5.06 123.29, -1.94 117.03, -16.87 103.5 M15.02 128.23 C8.75 120.69, 0.25 112.29, -21.37 94.31 M17.09 126.72 C2.71 116.7, -11.4 103.03, -22.38 94.22 M22.97 127.11 C14 119.55, 0.88 108.09, -27.53 83.7 M24.17 128.22 C6.47 114.47, -10.66 98.52, -29.43 82.34 M30.3 129.88 C11.74 116.22, -2.21 101.09, -34.97 72.57 M28.97 129.41 C8.14 111.96, -10.89 93.81, -36 70.76 M36.11 130.63 C13.15 109.07, -12.34 85.66, -41.38 60.82 M37.13 129.63 C10.34 106.65, -16.03 83.51, -40.82 62.33 M42.28 128.16 C20.36 110.4, -4.85 85.48, -36.55 58.31 M42.68 129.15 C17.86 107.95, -8.56 85.81, -39.01 59.07 M50.34 128.86 C30.17 112.65, 10.76 93.93, -38.04 57.41 M50.6 129.52 C16.75 100.57, -17.13 71.65, -36.15 56.07 M58.86 131.14 C37.4 114.91, 14.97 96.06, -34.95 53.78 M57.64 131.43 C29.9 105.86, 1.33 82.96, -34.53 51.84 M64.82 129.88 C42.86 112.78, 21.16 94.53, -33.38 48.9 M63.36 130.56 C36.23 107.75, 8.69 83.54, -31 48.14 M67.75 130.66 C43.26 109.81, 14.3 85.4, -27.48 45.03 M69.73 131.34 C40.59 108.52, 12.28 82.5, -28.49 46.46 M75.06 134.25 C47 104.65, 16.24 79.32, -25.89 42.33 M76.16 132.76 C51.9 110.38, 25.75 88.69, -26.88 42.54 M83.46 132.95 C45.73 103.13, 8.36 68.62, -26.08 38.47 M82.32 132.25 C54.52 107.99, 25.81 82.75, -23.79 39.47 M91.09 132.97 C48.09 99.48, 10.42 62.25, -24.73 33.81 M89.95 133.39 C48.09 96.23, 6.49 58.84, -23.36 36.23 M98.84 134.74 C59.81 102.52, 23.54 72.12, -20.89 30.28 M97.73 133.81 C61.12 103.59, 25.72 71.27, -21.88 32.07 M100.76 130.81 C70.56 103.64, 39.47 77.23, -18.52 27.89 M101.17 132.35 C65.98 100.12, 30.92 70.45, -18.76 28.43 M103.72 126.62 C65.81 95.7, 28.28 61.91, -17.22 25.05 M101.94 127.41 C70.54 100.75, 40.1 74.29, -15.71 24.69 M103.49 124.37 C63.67 87.03, 21.81 51.38, -15.28 21.59 M103.45 124.2 C59.98 85.17, 15.19 47.7, -14.19 22.65 M106.85 120.07 C71.48 90.36, 34.58 58.2, -12.1 19.84 M104.52 119.2 C76.39 94.89, 46.52 70.15, -12.3 19.06 M107.79 117.85 C71.03 85.42, 31.76 53.37, -10.51 16.32 M107.18 115.96 C70.77 85.79, 34.56 53.21, -9.55 14.69 M110.53 112.41 C81.65 85.76, 52.27 61.75, -7.22 10.79 M109.22 112.95 C84.42 90.95, 60.95 70.18, -7.69 10.87 M111.47 109.32 C67.48 69.97, 25.04 33.24, -3.87 9.3 M109.71 107.35 C71.2 74.3, 32.93 41.93, -6.26 7.95 M113.06 105.44 C73.66 70.09, 37.44 39.12, -1.71 4.5 M112.46 104.81 C78.66 75.78, 47.3 46.56, -3.67 5.09 M114.9 99.27 C88.46 78.15, 60.25 54.31, -0.21 0.15 M114.62 101.36 C68.97 61.78, 24.84 23.06, -0.27 2.12 M115.61 95.38 C71.63 63.27, 30.23 24.22, -0.15 -2 M114.18 97.15 C83.79 69.18, 51.66 42.42, 2.14 -2.04 M114.75 92.67 C81.78 60.91, 44.86 28.45, 6.46 -1.1 M117.42 92.29 C79.03 61.09, 42.61 30.84, 7.95 -0.9 M119.89 90.87 C79.91 55.33, 37.92 19.04, 14.99 -2.7 M117.53 88.66 C97.4 69.05, 74.8 52.06, 13.92 -2.44 M120.51 86.87 C91.46 58.36, 61.86 35.36, 21.39 -0.58 M120.11 85.72 C99.27 67.47, 79.23 50.16, 19.89 -1.5 M121.9 83.04 C98.93 59.42, 75.08 38.1, 25.49 -1.59 M120.59 80.3 C92.58 56.29, 64.02 31.2, 25.72 -1.2 M124.24 77.7 C93.52 50.11, 60.51 22.89, 32.9 -1.3 M122.91 78.46 C95.15 53.08, 67.72 29.29, 32.71 -1.11 M124.49 73.42 C104.42 53.1, 80.75 34.9, 36.93 0.34 M124.95 73.3 C104.37 55.26, 82.85 35.52, 39.08 -1.54 M126.29 69.42 C99.84 46.82, 71.18 24.5, 45.64 -2.55 M126 68.68 C98.88 46.41, 71.76 23.72, 44.6 -1.6 M127.05 63.97 C106.57 47.71, 86.59 33.6, 51.76 -1.46 M127.41 65.17 C101.94 42.93, 76.12 20.35, 50.05 -1.45 M127.84 62.73 C100.58 38.72, 72.92 11.74, 58.56 -1.13 M130.04 61.78 C112.51 45.98, 94.47 31.47, 56.68 -0.51 M131.28 59.12 C116.37 43.56, 102.43 33.32, 62.96 -1.12 M131.72 57.75 C110.07 40.52, 89.89 22.24, 62.87 -1.61 M124.34 45.52 C102.8 29.91, 85.96 10.9, 69.43 -3.46 M125.61 47.22 C104.79 30.3, 83.19 12.34, 69.57 -1.15 M117.87 35.93 C108.15 26.29, 98.41 17.17, 75.83 -0.31 M119.27 35.32 C104.81 24.23, 90.95 12.33, 75.76 -1.4 M112.59 26.03 C104.74 18.84, 98.74 13.84, 80.59 0.48 M112.28 25.65 C101.21 14.73, 90.38 5.43, 81.1 -0.54 M107.74 15.45 C97.97 9.46, 93.88 2.43, 88.5 -0.29 M106.37 14.01 C99.63 9, 92.33 4.54, 87.39 -0.95" stroke="#ced4da" stroke-width="0.5" fill="none"></path><path d="M1.67 -0.35 C-8.25 13.75, -18.98 27.08, -40.69 62.69 M0.6 -0.54 C-9.66 14.21, -17.38 28.26, -41.61 62.82 M-41.91 64.84 C-31.07 78.02, -20.19 94.14, -2.18 127.58 M-40.36 63.49 C-26.69 86.96, -12.37 111.96, -2.51 126.31 M-3.87 126.26 C28.81 131.58, 56.38 132.55, 98.22 133.99 M-3.84 126.04 C22.21 129, 47.56 129.71, 98.61 133.77 M98.53 135.09 C104.94 118.25, 113.8 103.23, 128.76 58.67 M98.33 133.38 C108.48 110.95, 118.6 88.6, 128.69 60.99 M127.89 59.24 C121.23 43.61, 111.99 28.58, 92.8 1.55 M128.14 61.48 C118.38 41.97, 107.41 24.05, 93.78 0.77 M92.89 -1.21 C57.64 -1.56, 17.56 0.66, -0.49 -0.48 M93.24 0.82 C62.9 -0.81, 32.98 -1.12, -0.62 0.22 M0 0 C0 0, 0 0, 0 0 M0 0 C0 0, 0 0, 0 0" stroke="#000000" stroke-width="1" fill="none"></path></g></g><mask></mask><g stroke-linecap="round"><g transform="translate(380.61350665890404 129.82788884647562) rotate(0 44.212497953461934 66.40189014809857)"><path d="M-0.35 0.17 C-14.53 21.52, -29.66 46.47, -41.55 61.64 M-0.54 -0.76 C-13.01 21.46, -26.33 40.92, -41.42 62.7 M-39.4 63.18 C-26.72 90.09, -11.26 114.94, -2.17 128.11 M-40.74 63.48 C-32.44 78.21, -22.67 93.99, -3.44 126.41 M-3.49 128.21 C38.29 128.68, 76.71 132.2, 98.64 132.88 M-3.71 126.65 C33.33 129.9, 68.03 132.29, 98.42 133.11 M99.74 133.04 C105.91 119.18, 113.61 101.57, 127.16 60.77 M98.03 133.66 C105.56 118.55, 112.78 102.17, 129.48 60.14 M127.73 61.84 C118.31 45.32, 109.49 26.48, 94.81 0.66 M129.97 60.44 C116.58 41.13, 105.71 23, 94.03 1.66 M92.05 1.81 C72 -1.47, 53.61 -0.61, -0.48 0.51 M94.08 0.21 C58.54 -0.05, 23.65 -1.1, 0.22 -0.8" stroke="#000000" stroke-width="4" fill="none"></path></g></g><mask></mask><g stroke-linecap="round" transform="translate(504.39853860664607 201.2599512137449) rotate(111.200130056921 7.686291468177387 10.367555933820881)"><path d="M-0.16 -0.83 L17.05 0.44 L16.97 19.04 L-0.24 20.31" stroke="none" stroke-width="0" fill="#ffffff"></path><path d="M0.49 -0.36 C5.99 0.65, 9.63 1.18, 16.47 0.28 M0.09 -0.62 C3.86 0.35, 8.56 -0.35, 14.64 -0.67 M15.33 -0.86 C15.9 5.77, 14.48 12.3, 16.76 22.73 M15.03 0.49 C16 3.3, 15.17 9.16, 16.12 20.65 M16.88 19.34 C9.77 19.88, 3.7 21.18, 0.34 19.88 M14.98 20.46 C11.71 21.12, 8.28 21.37, 0.09 20.97 M0.09 21.56 C-1.58 13.72, 1.19 9.76, 0.35 0.41 M0.86 21.25 C-0.31 14.99, -0.83 8.11, -0.67 -0.05" stroke="#000000" stroke-width="1" fill="none"></path></g><g stroke-linecap="round" transform="translate(489.4119006827177 241.06489516405304) rotate(111.200130056921 7.686291468177387 10.188804969444732)"><path d="M-0.83 1.68 L15.82 1.6 L13.68 20.14 L-0.43 20.54" stroke="none" stroke-width="0" fill="#ffffff"></path><path d="M-0.36 0.66 C6.08 -1.07, 12.16 1.05, 15.65 -0.02 M-0.62 -0.73 C5.81 -0.63, 10.46 -0.75, 14.71 0.15 M14.51 0.54 C14.5 5.14, 14.42 13.43, 17.37 18.52 M15.86 0.63 C14.19 5.92, 15.76 13.01, 15.29 20.75 M13.98 19.97 C8.63 19.24, 3.95 20.87, -0.86 19.16 M15.1 20.12 C12.25 20, 9.04 20.39, 0.24 19.96 M0.83 18.94 C-1.91 14.16, -0.79 5.64, 0.41 -0.07 M0.52 20.03 C0.24 13.75, -0.48 8.17, -0.05 -0.08" stroke="#000000" stroke-width="1" fill="none"></path></g><g stroke-linecap="round" transform="translate(484.54250429377225 126.72719716304277) rotate(62.13822206979291 7.686291468177387 10.367555933820881)"><path d="M1.73 1.52 L13.9 1.63 L15.42 22.26 L-0.85 21.32" stroke="none" stroke-width="0" fill="#ffffff"></path><path d="M0.03 0.01 C3.23 -1.3, 8.17 -0.11, 14.2 0.85 M-0.19 -0.16 C5.04 -0.13, 9.33 -0.13, 16.07 0.35 M16.82 -0.49 C14.53 9.72, 15.95 16.66, 15.31 21.97 M15.29 -0.38 C15.89 6.17, 16.12 11.01, 14.42 21.61 M15.96 22.04 C11.46 19.6, 5.86 20.52, -1.35 20.44 M15.53 21.27 C10.26 20.56, 4.85 20.6, -0.15 20.76 M1.33 21.81 C-1.49 17.82, -0.6 9.51, -0.47 1.47 M0.26 21.04 C-0.07 14.56, -0.45 6.49, 0.51 0.28" stroke="#000000" stroke-width="1" fill="none"></path></g><g stroke-linecap="round" transform="translate(504.65695180030707 164.19191718185107) rotate(62.13822206979291 7.686291468177387 10.188804969444732)"><path d="M1.52 -1.47 L17 0.05 L16.9 19.53 L0.58 18.4" stroke="none" stroke-width="0" fill="#ffffff"></path><path d="M0.01 -0.17 C2.83 1.37, 8.05 -1.18, 16.22 0.17 M-0.16 0.26 C4.79 -0.2, 9.67 0.74, 15.72 0.71 M14.88 -0.83 C16.77 6.61, 15.57 12, 16.61 19.45 M14.99 0.53 C16.31 6.8, 15.91 11.13, 16.24 20.28 M16.68 20.92 C8.16 19.83, 3.07 19.08, -0.3 21.1 M15.9 20.6 C10.93 20.56, 6.74 20.26, 0.03 19.79 M1.08 19.08 C1.84 11.9, -1.83 3.75, 1.47 0.86 M0.3 20.17 C0.77 15.06, -0.2 11.43, 0.28 0.87" stroke="#000000" stroke-width="1" fill="none"></path></g><g stroke-linecap="round" transform="translate(330.9288085957078 202.79082914476453) rotate(62.13822206979291 7.686291468177387 10.367555933820881)"><path d="M-0.5 -0.61 L14.52 -0.06 L17.07 19.55 L-1.91 19.05" stroke="none" stroke-width="0" fill="#ffffff"></path><path d="M-1.33 1.46 C4.72 1.46, 9.6 -1.16, 16.49 -1.38 M-0.35 0.08 C3.2 -0.73, 7.29 -0.11, 14.93 -0.26 M16.14 -0.03 C16.28 4.91, 16.61 8.83, 14.3 19.53 M15.32 0.79 C14.96 7.99, 15.45 13.58, 16.26 20.94 M15.57 20.11 C9.75 20.8, 5.02 19.57, -1.06 19.78 M15.07 20.4 C12.29 20.7, 9.09 21.28, 0.34 20.35 M1.88 21.97 C-0.08 13.08, 0.65 5.49, -1.49 0.53 M0.75 21.39 C-0.23 12.82, -0.27 6.06, -0.97 -0.21" stroke="#000000" stroke-width="1" fill="none"></path></g><g stroke-linecap="round" transform="translate(351.0432561022435 240.25554916357282) rotate(62.13822206979291 7.686291468177387 10.188804969444732)"><path d="M-0.61 -0.85 L15.32 1.7 L14.19 18.46 L-1.68 18.93" stroke="none" stroke-width="0" fill="#ffffff"></path><path d="M1.46 0.3 C6.28 0.91, 8.56 1.25, 14 -0.71 M0.08 -0.7 C3.76 -0.44, 8.85 -0.37, 15.11 -0.54 M15.34 0.86 C15.58 7.76, 14.73 12.07, 14.17 21.22 M16.16 -0.47 C16.29 6.66, 14.78 14.17, 15.57 21.03 M14.74 20.37 C9.82 21.29, 2.9 19.33, -0.96 19.21 M15.04 20.73 C9.35 20.91, 3.86 20.66, -0.38 20.86 M1.23 20.3 C-0.19 14.89, -0.25 6.6, 0.53 0.79 M0.65 20.02 C-0.93 15.14, -0.66 9.72, -0.21 -0.25" stroke="#000000" stroke-width="1" fill="none"></path></g><g stroke-linecap="round" transform="translate(355.6785634274238 125.3281317284443) rotate(121.01943069568311 7.686291468177387 10.367555933820881)"><path d="M1.33 1.4 L15.98 1.65 L15.84 22.38 L1.88 20.14" stroke="none" stroke-width="0" fill="#ffffff"></path><path d="M-0.55 -1.34 C4.39 -1.03, 8.52 -0.42, 14.99 -0.47 M-0.45 -0.74 C3.31 -0.69, 7.27 0.57, 15.86 0.09 M13.74 -1.42 C16.25 7.93, 17.45 15.75, 14.48 21.22 M14.62 0.59 C15.2 8.4, 15.17 14.82, 16.2 20.89 M16.44 21.09 C11.91 19.53, 7.07 20.33, -0.32 22.15 M15.4 21.21 C11.74 20.05, 8.66 20.93, -0.13 20.75 M1.02 20.48 C0.07 15.35, 1.95 9.08, -0.83 -0.88 M-0.22 20 C-0.87 13.48, 0.81 5.26, 0.25 -0.95" stroke="#000000" stroke-width="1" fill="none"></path></g><g stroke-linecap="round" transform="translate(334.15356440388314 161.99672927865709) rotate(121.01943069568311 7.686291468177387 10.188804969444732)"><path d="M1.4 0.61 L17.02 0.47 L17.02 22.26 L-0.6 21.94" stroke="none" stroke-width="0" fill="#ffffff"></path><path d="M-1.34 -0.62 C4.84 -1.44, 11.21 -0.33, 14.91 -0.66 M-0.74 -0.65 C4.01 -0.55, 9.84 0.58, 15.46 0.31 M13.96 0.79 C16.15 8.91, 16.92 12.95, 15.86 22 M15.96 -0.33 C15.92 7.33, 14.43 16.21, 15.52 19.76 M15.72 20.58 C10.29 19.52, 7.26 20.16, 1.41 19.03 M15.85 20.01 C11.46 20.2, 9.12 20.26, 0.02 20.46 M-0.26 20.47 C0.92 16.01, 1.1 6.85, -0.88 1.23 M-0.74 19.66 C0.25 13.78, -0.48 5.5, -0.95 0.67" stroke="#000000" stroke-width="1" fill="none"></path></g><g transform="translate(386.4640521839028 157.26063379315997) rotate(0 42 24)"><text x="42" y="19" font-family="Cascadia, Segoe UI Emoji" font-size="20px" fill="#000000" text-anchor="middle" style="white-space: pre;" direction="ltr">Miranum</text><text x="42" y="43" font-family="Cascadia, Segoe UI Emoji" font-size="20px" fill="#000000" text-anchor="middle" style="white-space: pre;" direction="ltr">Connect</text></g><g stroke-linecap="round" transform="translate(10 84.04874644344068) rotate(0 64.5 122)"><path d="M-1.31 -0.77 L130.03 -0.94 L127.72 245.71 L-1.35 243.33" stroke="none" stroke-width="0" fill="#ffffff"></path><path d="M0.65 0.6 C30.61 0.28, 63.02 -0.61, 129.03 -1.36 M-0.67 0.82 C35.53 -0.26, 70.77 -1.15, 128.49 0.7 M128.93 -1.06 C126.65 63.53, 128.73 127.08, 127.76 243.02 M129.12 0.19 C127.33 61.09, 127.61 123.8, 129.59 243.24 M130.26 244.15 C96.16 244.15, 65.39 243.84, 1.82 244.05 M129.17 244.11 C86.09 242.28, 41.51 243.61, -0.42 244.01 M-0.87 244.02 C0.31 159.11, 0.23 74.21, 0.59 0.51 M-0.26 244.73 C-1.72 191.37, -0.37 140.87, 0.17 -0.24" stroke="#000000" stroke-width="1" fill="none"></path></g><g transform="translate(33 182.04874644344068) rotate(0 41.5 24)"><text x="41.5" y="19" font-family="Cascadia, Segoe UI Emoji" font-size="20px" fill="#000000" text-anchor="middle" style="white-space: pre;" direction="ltr">Message</text><text x="41.5" y="43" font-family="Cascadia, Segoe UI Emoji" font-size="20px" fill="#000000" text-anchor="middle" style="white-space: pre;" direction="ltr">Bus</text></g><g stroke-linecap="round"><g transform="translate(717.7500601976408 104.7159925473079) rotate(0 -95.67062632750958 17.767400834971795)"><path d="M1.58 1.28 C-39.46 -2.52, -80.73 -0.56, -125.21 -1.9 M0.65 0.58 C-24.48 0.38, -51.19 0.24, -125.27 -0.46 M-126.42 -1.09 C-152.92 14.9, -175.91 28.09, -192.92 37.44 M-125.47 -0.42 C-147.9 12.33, -172.17 26.23, -192.48 37.01" stroke="#000000" stroke-width="1" fill="none"></path></g><g transform="translate(717.7500601976408 104.7159925473079) rotate(0 -95.67062632750958 17.767400834971795)"><path d="M-171.03 15.81 C-178.87 19.6, -186.93 28.66, -192.66 35.11 M-171.96 15.11 C-175.64 18.88, -180.95 23.32, -192.72 36.55" stroke="#000000" stroke-width="1" fill="none"></path></g><g transform="translate(717.7500601976408 104.7159925473079) rotate(0 -95.67062632750958 17.767400834971795)"><path d="M-161.23 33.84 C-172.16 31.89, -183.31 35.26, -192.66 35.11 M-162.16 33.14 C-167.87 33.3, -175.17 34.06, -192.72 36.55" stroke="#000000" stroke-width="1" fill="none"></path></g></g><mask></mask><g stroke-linecap="round"><g transform="translate(325.3080252919408 139.42175073624708) rotate(0 -90.49776910612309 -14.187681311586516)"><path d="M-1.35 0.28 C-23.87 -10.01, -49.24 -17.91, -66.93 -26.85 M0.24 0.54 C-27.72 -11.27, -52.83 -21.98, -67.71 -26.57 M-67.07 -28.32 C-107.14 -26.4, -145.7 -28.09, -180.72 -28.54 M-68.29 -27.39 C-91.21 -27.67, -116.25 -28.06, -181.24 -28.91" stroke="#000000" stroke-width="1" fill="none"></path></g><g transform="translate(325.3080252919408 139.42175073624708) rotate(0 -90.49776910612309 -14.187681311586516)"><path d="M-154.26 -38.51 C-162.47 -35.59, -173.67 -30.29, -180.54 -29.06 M-152.67 -38.26 C-164.94 -35.57, -174.58 -31.88, -181.32 -28.78" stroke="#000000" stroke-width="1" fill="none"></path></g><g transform="translate(325.3080252919408 139.42175073624708) rotate(0 -90.49776910612309 -14.187681311586516)"><path d="M-154.54 -17.99 C-162.72 -22.47, -173.82 -24.57, -180.54 -29.06 M-152.94 -17.74 C-165.23 -23.12, -174.77 -27.51, -181.32 -28.78" stroke="#000000" stroke-width="1" fill="none"></path></g></g><mask></mask><g stroke-linecap="round"><g transform="translate(141.99043075549253 299.6021731467365) rotate(0 89.09901624843997 -27.481702917193047)"><path d="M0.33 -1.69 C25.64 -1.06, 54.95 -1.86, 73.2 -2.42 M-0.71 0.95 C20.97 -2.15, 42.94 -3.02, 74.46 -3.09 M73.91 -5.84 C100.45 -18.64, 128.57 -31.55, 178.91 -55.91 M73.37 -3.1 C106.55 -18.48, 136.56 -33.62, 178.11 -54.61" stroke="#000000" stroke-width="1" fill="none"></path></g><g transform="translate(141.99043075549253 299.6021731467365) rotate(0 89.09901624843997 -27.481702917193047)"><path d="M157.89 -34.45 C163.58 -40.71, 173.42 -47.98, 177.01 -53.02 M156.84 -31.81 C163.08 -39.79, 169.72 -45.75, 178.26 -53.69" stroke="#000000" stroke-width="1" fill="none"></path></g><g transform="translate(141.99043075549253 299.6021731467365) rotate(0 89.09901624843997 -27.481702917193047)"><path d="M148.65 -52.78 C157.85 -52.33, 171.03 -52.95, 177.01 -53.02 M147.61 -50.13 C156.59 -52.92, 165.86 -53.66, 178.26 -53.69" stroke="#000000" stroke-width="1" fill="none"></path></g></g><mask></mask><g stroke-linecap="round"><g transform="translate(532.6526831899637 243.53902530306527) rotate(0 90.16125765764173 32.18121067958498)"><path d="M-0.18 -0.62 C28.42 17.26, 54.36 30.59, 107.2 63.78 M-0.09 -0.3 C26.58 16.64, 55.47 32.4, 106.63 62.18 M107.21 62.4 C136.2 63.02, 165.71 64.72, 180.5 64.98 M106.22 62.87 C132.46 62.9, 159.5 62.77, 178.8 64.05" stroke="#000000" stroke-width="1" fill="none"></path></g><g transform="translate(532.6526831899637 243.53902530306527) rotate(0 90.16125765764173 32.18121067958498)"><path d="M150.02 72.49 C158.92 71.82, 165.14 66.72, 180.1 64.65 M150.11 72.8 C157.17 71.05, 165.91 67.98, 179.54 63.05" stroke="#000000" stroke-width="1" fill="none"></path></g><g transform="translate(532.6526831899637 243.53902530306527) rotate(0 90.16125765764173 32.18121067958498)"><path d="M150.89 51.99 C159.56 56.54, 165.56 56.68, 180.1 64.65 M150.98 52.3 C157.66 55.89, 166.17 58.16, 179.54 63.05" stroke="#000000" stroke-width="1" fill="none"></path></g></g><mask></mask><g transform="translate(223.4698921920126 10) rotate(0 195 25)"><text x="195" y="18" font-family="Virgil, Segoe UI Emoji" font-size="20px" fill="#000000" text-anchor="middle" style="white-space: pre;" direction="ltr">e.g. for Human Tasks, Message Events,</text><text x="195" y="43" font-family="Virgil, Segoe UI Emoji" font-size="20px" fill="#000000" text-anchor="middle" style="white-space: pre;" direction="ltr">Service Tasks, etc.</text></g></svg>