<svg version="1.1" xmlns="http://www.w3.org/2000/svg" viewBox="0 0 832.8727023047004 611.5527396603952" width="832.8727023047004" height="611.5527396603952">
  <!-- svg-source:excalidraw -->
  
  <defs>
    <style class="style-fonts">
      @font-face {
        font-family: "Virgil";
        src: url("https://excalidraw.com/Virgil.woff2");
      }
      @font-face {
        font-family: "Cascadia";
        src: url("https://excalidraw.com/Cascadia.woff2");
      }
    </style>
  </defs>
  <rect x="0" y="0" width="832.8727023047004" height="611.5527396603952" fill="#ffffff"></rect><g stroke-linecap="round" transform="translate(460.03293260711325 342.4002765648047) rotate(293.40468955103245 44.96744790484581 12.590885413356773)"><path d="M0 0 C0 0, 0 0, 0 0 M0 0 C0 0, 0 0, 0 0 M-0.85 7.17 C1.24 5.12, 2.9 3.23, 4.68 -0.08 M-0.63 6.74 C1.27 5.25, 2.14 3.8, 5.2 0.11 M1.01 11.07 C2.91 6.74, 8.39 3.97, 9.67 1.29 M0.3 11.59 C2.66 8.87, 5.79 6.55, 10.58 -0.35 M0.74 20.17 C6.91 12.15, 9.88 7.33, 14.5 1.01 M-0.94 17.46 C6.3 11.86, 12.58 4.66, 16.29 1.29 M1.33 25.4 C6.18 16.24, 10.65 10.07, 20.09 1.6 M0.14 23.98 C8.59 15.12, 15.41 6.32, 21.26 -0.06 M3.5 26.16 C11.18 20.01, 17.37 12.78, 25.83 -1.53 M2.1 26.5 C10.49 19.47, 17.55 10.22, 26.44 1.07 M9.18 26.16 C16.29 15.56, 24.97 7.31, 31.78 -1.65 M7.59 26.97 C14.27 20.26, 19.26 13.27, 32.84 0.78 M11.98 26.33 C20.56 18.82, 27.15 9.23, 35.37 -1.53 M13.79 28.18 C21.34 17.32, 30.49 6.89, 37.69 0.9 M18.64 25.84 C22.99 18.27, 30.63 12.97, 40.79 -0.64 M19.15 27.12 C25.59 20.32, 30.44 11.46, 42.09 -1.03 M23.21 26.61 C32.39 17.73, 37.61 8.1, 48.01 -0.35 M23.73 26.74 C29.97 19.84, 34.86 13.83, 47.16 -0.54 M27.96 28.23 C35.65 22.23, 38.54 17.46, 54.13 0.9 M29.36 27.18 C36.22 20.9, 41.73 12.34, 53.71 -0.26 M32.84 28.65 C43.45 16.67, 52.19 9.85, 58.37 -1.58 M35.31 27.73 C42.27 17.88, 50.63 8.79, 58.37 -0.71 M40.39 27.1 C45.77 20.37, 52.77 8.12, 63.51 -1.97 M40.42 28.02 C45.72 19.76, 53.03 11.42, 63.28 -0.3 M45.2 28.85 C51.91 21.77, 56.97 16.46, 68.79 -1.04 M44.78 28.06 C51.19 20.16, 58.31 12.61, 68.21 -0.19 M50.86 28.03 C56 18.92, 66 9.27, 75.39 -1.43 M49.9 27.36 C59.01 16.28, 68.76 4.73, 74.26 -0.21 M55.37 28.44 C64.71 19.56, 72.5 10.74, 79.32 -0.76 M56.31 26.99 C60.55 21.71, 65.42 14.4, 79.97 0.26 M60.07 26.36 C70.13 20.24, 78.51 9.5, 84.91 1.14 M59.78 26.75 C68.47 18.15, 78.69 7.86, 85.02 0.33 M67.13 27.39 C74.23 19.58, 79.78 10.11, 89.72 1.03 M66.95 27.16 C75.18 17.31, 84.84 6.52, 90.34 0.76 M72.41 29.22 C75.76 20.77, 82.25 16.94, 88.06 7.91 M71.45 26.64 C75.93 21.56, 81.17 14.59, 89.9 6.79 M78.98 26.47 C82.8 24.17, 84.1 17.16, 90.99 11.92 M77.62 27.55 C80.47 21.5, 86.46 17.54, 89.89 11.38 M82.01 28.74 C84.72 25.08, 85.93 22.45, 89.21 19.14 M82.4 27.42 C84.23 25.97, 85.69 24, 89.58 18.03 M87.37 26.8 C88.52 26.25, 88.92 25.91, 90.4 23.96 M87.77 27.05 C88.61 25.92, 89.62 24.74, 90.15 24.31" stroke="#fa5252" stroke-width="0.5" fill="none"></path><path d="M0.18 -1.41 C34.43 -0.51, 68.34 -0.61, 90.74 1.16 M-0.56 -0.66 C22.03 -1.66, 41.79 -1.1, 90.35 0.82 M91.53 -0.6 C88.41 10.42, 89.85 17.34, 90.81 27.13 M89.39 -0.43 C90.46 8.35, 90.52 15.19, 90.38 25.08 M88.1 24.38 C63.15 23.7, 34.19 24.1, -1.72 27.13 M89.36 25.83 C57.68 25.79, 24.61 24.5, 0.72 25.67 M0.35 27.17 C-1.6 16.14, -0.24 5.24, 1.13 -0.26 M0.44 24.25 C-0.44 17.81, -0.83 10.79, 0.45 0.06" stroke="#000000" stroke-width="1" fill="none"></path></g><g stroke-linecap="round" transform="translate(284.33415678957317 345.441216915493) rotate(241.92751306414604 44.96744790484581 12.590885413356773)"><path d="M0 0 C0 0, 0 0, 0 0 M0 0 C0 0, 0 0, 0 0 M0.51 6.5 C1.64 5, 2.92 2.52, 4.54 -0.31 M0.08 6.78 C1.4 4.84, 2.77 3.19, 4.74 0.49 M-0.83 11.29 C1.76 9.88, 5.91 4.36, 11.96 -0.99 M-0.32 11.99 C2.54 9.49, 5.81 5.8, 10.31 0.25 M1.6 20.13 C3.83 12.95, 9.26 7.63, 16.3 2.3 M-1.11 18.48 C4.33 14.23, 8.17 10.49, 16.58 -0.09 M1.59 24.49 C4.21 17.03, 9.83 10.01, 22.93 1.18 M0.17 24.68 C5.24 17.93, 10.4 12.14, 21.27 -0.35 M1.32 29.42 C8.16 22.64, 13.92 14.05, 24.42 0.49 M1.67 27.98 C9.9 19.95, 15.94 11.97, 27.02 0.99 M5.95 27.58 C13.56 18, 23.54 9.36, 30.34 -1.33 M6.77 28.52 C12.6 20.93, 18.18 15.19, 32.78 0.02 M12.17 27.5 C21.59 17.17, 28.92 6.68, 35.09 1.73 M14.02 26.88 C22.11 16.93, 30.65 7.82, 37.52 -0.11 M16.3 26.02 C22.27 20.07, 30.54 11.7, 42.02 -0.62 M17.58 28.67 C27.87 15.8, 36.11 5.53, 41.63 0.19 M23.11 28.18 C31.63 16, 39.41 8.77, 46.94 -0.73 M23.24 27.69 C31.88 16.69, 41.39 7.16, 46.74 -0.58 M29.35 29.44 C39.03 16.15, 49.93 6.92, 54.23 -0.86 M28.31 28.41 C34.64 21.4, 38.67 16.27, 53.07 0.31 M35.81 27.9 C39.03 22.03, 47.4 14.63, 56.37 1.04 M34.9 27.25 C43.5 16.82, 52.86 6.37, 57.24 0.31 M38.89 26.41 C48.24 17.22, 52.1 10.33, 62.02 -0.51 M39.81 27.14 C47.93 17.64, 55.96 7.64, 63.69 -1.08 M46.68 28.84 C50.7 22.78, 56.49 15.15, 67.57 -0.3 M45.89 26.78 C52.37 19.54, 59.22 11.06, 68.42 0.17 M50.49 26.22 C57.05 20.46, 63.08 11.87, 73.22 1.72 M49.81 27.17 C59.49 16.19, 68.73 5.33, 74.44 -0.05 M56.93 28.91 C65.9 18.69, 74.89 6.23, 78.52 -1.36 M55.49 26.91 C65.14 16.22, 72.74 7.56, 79.54 0.5 M59.48 28.86 C70.52 20.23, 76.94 9.84, 86.45 0.8 M59.87 26.68 C67.76 20.97, 73.94 12.71, 85.65 -0.27 M66.54 27.71 C71.69 20.59, 75.17 15.86, 90.97 1.96 M66.32 26.63 C73.39 19.71, 79.52 13.12, 90.71 -0.31 M73 27.07 C74.48 23.6, 80.57 15.67, 91.19 6.25 M70.43 26.76 C76.12 21.29, 79.95 16.93, 90.08 6.75 M76.29 28.59 C81.94 22.01, 82.88 20.97, 89.96 12.54 M77.37 26.35 C79.3 24.44, 83.32 19.63, 89.42 12.1 M83.19 28 C85.21 23.43, 88.27 20.01, 90.52 17.59 M81.87 28.06 C85.03 24.72, 87.68 21.21, 89.4 17.97 M87.28 27.46 C87.93 26.69, 88.78 26.02, 90.09 24.5 M87.53 27.12 C88.38 26.17, 89.18 25.15, 90.44 24.3" stroke="#82c91e" stroke-width="0.5" fill="none"></path><path d="M-1.41 0.5 C25.09 0.4, 51.35 0.73, 91.1 -1.26 M-0.66 0.73 C33.04 -0.3, 67.55 0.92, 90.75 0.77 M89.34 -1.62 C90.91 8.28, 88.34 17.8, 91.88 25.45 M89.5 0.77 C90.4 5.99, 89.35 10.77, 89.84 25.32 M89.13 26.62 C52.72 25.07, 17.23 22.63, 1.94 26.56 M90.58 26.09 C68.79 25.66, 45.63 25.38, 0.49 25.84 M1.99 23.53 C0.23 17.85, -1.45 12.24, -0.26 -0.56 M-0.93 24.81 C-0.42 16.16, -0.58 9.08, 0.06 0.9" stroke="#000000" stroke-width="1" fill="none"></path></g><g stroke-linecap="round" transform="translate(283.3432905795835 257.2611161836844) rotate(300.7627195342386 44.96744790484581 12.590885413356773)"><path d="M0 0 C0 0, 0 0, 0 0 M0 0 C0 0, 0 0, 0 0 M-0.16 6.74 C1.8 4.51, 2.76 2.12, 4.32 0.26 M0.12 6.6 C1.89 4.14, 3.95 1.57, 5.12 0.26 M-0.62 10.71 C3.87 9.06, 4.24 7.53, 9.68 -0.75 M0.08 11.82 C4.24 8.35, 7.22 3.55, 10.91 -0.31 M1.57 18.31 C4.8 12.98, 9.9 6.08, 17.6 -0.84 M-0.09 19 C3.94 14.72, 8.47 10.61, 15.2 -0.03 M0.68 22.52 C6.37 14.66, 12.52 10.02, 22.5 -1.11 M0.86 23.98 C7.5 15.44, 15.1 7.08, 20.98 -0.7 M4.59 27.46 C11.9 18.95, 17.41 8.17, 26.44 0.11 M3.14 28.01 C11.38 17.81, 19.65 9.26, 26.95 0.54 M7.37 26.11 C16.26 17.58, 26.1 4.83, 30.67 -1.24 M8.32 27.15 C17 16.12, 27.54 7.09, 32.01 0.46 M13.34 27.13 C18.04 20.04, 22.57 13.52, 38.35 1.72 M12.71 27.62 C21.44 17.34, 31.01 8.23, 36.51 -0.18 M16.48 25.81 C26.87 17.52, 34.85 6.37, 42.04 1.6 M19.13 28.1 C24.99 17.95, 33.48 8.75, 42.85 0.4 M24.67 26.67 C28.17 19.23, 36.59 12.99, 46.56 1.55 M24.19 26.52 C28.47 21.41, 34.2 14.57, 46.71 1.15 M30.57 28.31 C34.94 21.92, 43.36 13.38, 52.46 -1.9 M29.53 28.25 C35.06 19.65, 42.49 12.64, 53.64 -0.75 M35.06 26.15 C42.96 20.41, 49.31 8.95, 58.99 1.93 M34.42 27.14 C41.1 19.64, 47.8 11.12, 58.26 0.23 M38.2 29.32 C47.12 14.81, 58.35 3.91, 63.48 0.72 M38.93 27.63 C45.54 19.74, 51.68 12.67, 62.91 -0.96 M46.67 27.42 C52.4 21.16, 56.57 12.83, 68.32 -0.04 M44.61 27.83 C53.65 18.02, 61.43 7.55, 68.78 0.14 M48.67 27.34 C58.47 17.76, 65.45 9.84, 76.37 1.73 M49.62 27.62 C59.3 16.32, 69.07 5.91, 74.61 0.63 M57.4 28.09 C63.25 21.43, 66.85 13.52, 77.92 1.55 M55.4 27.75 C60.83 19.7, 68.3 13.58, 79.78 0.3 M61.98 29.62 C68.94 20.77, 74.13 13.8, 86.12 -0.85 M59.8 27.95 C68.11 20.39, 73.84 13.73, 85.04 -1.25 M66.87 27.58 C70.83 19.83, 77.19 15.32, 91.9 -0.65 M65.79 27.96 C72.66 20.23, 79.9 12.63, 89.63 -0.51 M70.85 26.21 C77.34 22.11, 79.39 17.62, 89.53 5.6 M70.54 27.72 C76.63 19.95, 83.82 13.96, 90.03 5.78 M78.41 29.09 C79.08 22.68, 85.33 18.32, 90.57 10.92 M76.17 26.36 C82 22.44, 84.94 16.93, 90.14 12.92 M82.45 27.81 C84.03 24.69, 86.76 21.89, 88.97 18.9 M82.5 28.06 C85.24 24.58, 87.82 20.01, 89.35 18.01 M87.95 26.86 C88.41 26.5, 88.98 25.65, 90.63 24.21 M87.61 27.09 C88.44 26.11, 89.2 25.4, 90.43 24.34" stroke="#82c91e" stroke-width="0.5" fill="none"></path><path d="M0.5 -1.27 C19.92 -0.73, 39.68 1.8, 88.67 1.55 M0.73 -0.92 C33.65 0.24, 69.33 1.41, 90.7 0.36 M88.31 0.93 C89.96 6.32, 91.01 17.84, 90.2 23.28 M90.7 0.46 C90.62 7.02, 90.24 15.11, 90.07 26.17 M91.38 23.85 C65.14 23.89, 37.2 26.76, 1.37 24.04 M90.84 25.9 C64.99 25.18, 38.76 26.25, 0.66 24.98 M-1.65 25.36 C-0.33 16.72, 1.09 11.01, -0.56 0.57 M-0.37 24.66 C-0.86 17.97, 0.34 12.2, 0.9 0.96" stroke="#000000" stroke-width="1" fill="none"></path></g><g stroke-linecap="round"><g transform="translate(364.22281121283595 243.08453087184216) rotate(0 51.99956457084454 0.04846112181780882)"><path d="M0.3 -0.76 C17.78 -0.84, 87.52 -1.5, 105 -1.34 M-1 1.45 C16.34 1.58, 86.59 0.31, 104.2 -0.23" stroke="#e67700" stroke-width="4" fill="none"></path></g></g><mask></mask><g stroke-linecap="round"><g transform="translate(364.22281121283595 387.26289914743165) rotate(0 55.86732218010957 -0.4348184810105522)"><path d="M-0.76 0.29 C17.75 0.32, 91.46 0.66, 110.21 0.48 M1.04 -0.61 C20 -0.96, 94.11 -1.51, 112.5 -1.38" stroke="#e67700" stroke-width="4" fill="none"></path></g></g><mask></mask><g stroke-linecap="round"><g transform="translate(363.1704143641091 387.7890975717951) rotate(0 -20.219446997908108 -37.2036895913991)"><path d="M0.29 -0.82 C-6.43 -13.03, -33.11 -61.86, -40.03 -74.02 M-1.02 1.37 C-7.88 -11.12, -34.43 -62.94, -40.73 -75.78" stroke="#e67700" stroke-width="4" fill="none"></path></g></g><mask></mask><g stroke-linecap="round"><g transform="translate(318.96974671757744 310.964127614729) rotate(0 21.51543893035523 -34.603230027396194)"><path d="M-0.82 0.48 C6.62 -11.18, 36.36 -58.29, 43.85 -69.69 M0.96 -0.31 C8.36 -11.86, 36.12 -56.98, 43.27 -68.55" stroke="#e67700" stroke-width="4" fill="none"></path></g></g><mask></mask><g stroke-linecap="round"><g transform="translate(469.9886945098933 243.08453087184216) rotate(0 19.36027050242774 32.047213546584544)"><path d="M0.48 0.7 C6.62 11.51, 30.73 53.78, 37.13 64.07 M-0.72 0.02 C5.78 10.58, 32.88 51.87, 39.44 62.44" stroke="#e67700" stroke-width="4" fill="none"></path></g></g><mask></mask><g stroke-linecap="round"><g transform="translate(508.92737791278887 309.38553234163874) rotate(0 -16.253420525400543 39.3214844435131)"><path d="M0.7 -0.76 C-4.62 12.39, -26.9 66.34, -32.75 79.4 M-0.39 1.46 C-5.72 14.25, -27.36 64.96, -33.21 77.8" stroke="#e67700" stroke-width="4" fill="none"></path></g></g><mask></mask><g stroke-linecap="round" transform="translate(494.3165341152544 277.4221022889283) rotate(326.1601070525784 4.331989300746045 3.691310699482983)"><path d="M0.23 1.73 L9.74 -1.81 L7.06 9.24 L-1.01 7.36" stroke="none" stroke-width="0" fill="#ffffff"></path><path d="M0.67 0.72 C2.46 -0.51, 6.53 -0.74, 7.97 -0.31 M0.16 0.07 C3.3 -0.2, 5.56 0.14, 8.62 -0.35 M7.96 0.01 C8.33 2.22, 9.3 5.42, 9.27 6.95 M9.03 -0.06 C8.32 2.39, 8.92 4.84, 8.8 7.21 M8.17 7.28 C6.31 8, 5.74 8.06, 0.87 6.88 M8.58 7.28 C5.52 7.87, 1.87 7.48, -0.06 7.06 M0.21 7.08 C0.33 4.06, -0.26 1.73, -0.56 -0.51 M0.36 7.58 C0.29 4.89, 0.24 2.04, -0.1 0.32" stroke="#000000" stroke-width="1" fill="none"></path></g><g stroke-linecap="round" transform="translate(485.7969743953963 264.10829634143875) rotate(326.1601070525784 4.331989300746045 3.691310699482983)"><path d="M1.73 1.08 L6.86 -1.61 L10.53 6.37 L-0.03 9.09" stroke="none" stroke-width="0" fill="#ffffff"></path><path d="M0.72 -0.49 C2.53 0.57, 5.41 -0.76, 8.36 0.36 M0.07 0.35 C3.18 -0.38, 6.82 -0.07, 8.31 0.19 M8.68 -0.4 C8.35 3.5, 9.02 6.47, 8.23 7.71 M8.6 -0.34 C8.53 2.41, 8.43 4.42, 8.49 7.06 M8.56 6.88 C5.78 8.12, 2.4 8.2, -0.5 8 M8.56 7.46 C6.07 7.01, 2.66 7.3, -0.33 7.63 M-0.3 7.71 C-0.67 4.99, -0.37 2.59, -0.51 0.33 M0.19 7.68 C-0.01 5.36, -0.32 2.76, 0.32 0.04" stroke="#000000" stroke-width="1" fill="none"></path></g><g stroke-linecap="round" transform="translate(488.6069351410424 357.8341230975134) rotate(382.96717047417684 4.331989300746045 3.691310699482983)"><path d="M1.08 -1.81 L7.06 1.86 L7.65 7.36 L1.71 7.11" stroke="none" stroke-width="0" fill="#ffffff"></path><path d="M-0.49 -0.57 C2.69 -0.87, 3.41 -0.38, 9.02 0.71 M0.35 -0.13 C2.91 0.19, 6.49 -0.37, 8.85 0.42 M8.26 -0.32 C9.16 2.66, 9.2 4.19, 8.99 7.31 M8.33 -0.15 C9 2.07, 8.87 4.46, 8.35 7.74 M8.16 7.94 C6.25 7.99, 3.14 6.87, 0.62 7.8 M8.74 7.81 C5.14 7.4, 2.26 7.04, 0.24 7.33 M0.32 6.7 C-0.29 4.99, -0.58 2.86, 0.33 0.05 M0.29 7.44 C0.17 4.24, -0.17 1.94, 0.04 0.32" stroke="#000000" stroke-width="1" fill="none"></path></g><g stroke-linecap="round" transform="translate(495.0842327775845 343.41590746744214) rotate(382.96717047417684 4.331989300746045 3.691310699482983)"><path d="M-1.81 -1.61 L10.53 -1.01 L8.64 9.09 L-0.28 8.34" stroke="none" stroke-width="0" fill="#ffffff"></path><path d="M-0.57 0.64 C2.48 -0.65, 6.23 0.4, 9.37 0.66 M-0.13 -0.35 C3.11 -0.11, 5.47 0.12, 9.09 0.06 M8.34 0.57 C9.01 2.12, 8.23 3.35, 8.59 7.49 M8.52 0.27 C8.41 3.08, 8.48 5.57, 9.02 7.64 M9.23 8.17 C7.18 8.2, 3.95 7.95, 0.42 7.95 M9.1 7.02 C6.28 7.33, 3.49 7.64, -0.06 7.26 M-0.69 7.11 C-0.36 4.4, -0.48 2.86, 0.05 0.67 M0.06 7.62 C-0.3 4.36, 0.28 1.57, 0.32 0.2" stroke="#000000" stroke-width="1" fill="none"></path></g><g stroke-linecap="round" transform="translate(333.5819488670095 356.9894380377432) rotate(326.1601070525784 4.331989300746045 3.691310699482983)"><path d="M-1.61 1.86 L7.65 -0.03 L10.37 7.11 L0.96 9.08" stroke="none" stroke-width="0" fill="#ffffff"></path><path d="M0.64 -0.79 C2.62 -0.25, 7 0.76, 9.33 0.31 M-0.35 0.2 C2.7 -0.33, 5.66 0.45, 8.72 -0.41 M9.23 0.34 C9.23 1.8, 8.95 4.39, 8.77 8.11 M8.93 -0.25 C8.73 1.92, 8.28 4.55, 8.92 7.17 M9.45 8 C7.03 6.94, 4.28 7.86, 0.57 7.21 M8.31 7.42 C6.21 7.14, 4.12 7.41, -0.12 7.51 M-0.27 7 C-0.59 4.96, 0.3 3.6, 0.67 0.71 M0.24 7.12 C-0.16 5.1, -0.02 2.5, 0.2 -0.33" stroke="#000000" stroke-width="1" fill="none"></path></g><g stroke-linecap="round" transform="translate(325.0623891471496 343.67563209025457) rotate(326.1601070525784 4.331989300746045 3.691310699482983)"><path d="M1.86 -1.01 L8.64 1.71 L8.39 8.34 L1.7 7.68" stroke="none" stroke-width="0" fill="#ffffff"></path><path d="M-0.79 -0.7 C1.8 0.29, 4.93 0.6, 8.98 0.14 M0.2 -0.04 C2.94 0.26, 7.01 0.13, 8.25 0.01 M9.01 0.61 C8.2 2.14, 8.56 3.73, 9.4 7.26 M8.42 0.13 C8.46 1.22, 8.99 3.33, 8.45 7.34 M9.28 8.25 C6.06 8.08, 4.89 8.03, -0.18 7.18 M8.7 7.32 C5.59 7.56, 3.11 7.19, 0.12 7.2 M-0.39 6.83 C-0.44 5.17, 0.11 2.97, 0.71 0.39 M-0.26 7.28 C0.31 4.62, 0.31 1.98, -0.33 -0.3" stroke="#000000" stroke-width="1" fill="none"></path></g><g stroke-linecap="round" transform="translate(326.45955980916006 273.4050988108834) rotate(393.08969480275397 4.331989300746045 3.691310699482983)"><path d="M-1.01 -0.03 L10.37 -0.28 L9.62 9.08 L0.3 6.7" stroke="none" stroke-width="0" fill="#ffffff"></path><path d="M-0.7 -0.31 C2.39 0.79, 4.72 0.39, 8.8 0.69 M-0.04 -0.35 C2.53 0.38, 4.74 -0.45, 8.67 -0.24 M9.27 -0.43 C9.05 1.82, 8.82 4.52, 8.54 6.71 M8.8 -0.17 C8.4 2.28, 8.97 3.62, 8.62 7.17 M9.53 6.88 C6.12 7.87, 2.91 7.27, -0.21 7.53 M8.6 7.06 C5.45 7.33, 1.62 7.51, -0.18 7.57 M-0.56 6.88 C0.36 5.9, 0.69 5.04, 0.39 0.59 M-0.1 7.7 C-0.01 5.38, 0.15 2.4, -0.3 0.34" stroke="#000000" stroke-width="1" fill="none"></path></g><g stroke-linecap="round" transform="translate(335.3700882666835 260.3497240849206) rotate(393.08969480275397 4.331989300746045 3.691310699482983)"><path d="M-0.03 1.71 L8.39 0.96 L10.36 7.68 L-0.68 7.36" stroke="none" stroke-width="0" fill="#ffffff"></path><path d="M-0.31 0.36 C3.94 0.73, 6.79 0.21, 9.36 -0.26 M-0.35 0.19 C2.32 0.07, 3.38 0.02, 8.43 -0.19 M8.23 0.33 C8.63 2.88, 9.43 5.44, 7.99 7.08 M8.49 -0.32 C8.97 3, 8.4 5.45, 8.45 7.62 M8.16 8 C5.7 8.04, 1.72 7.26, 0.15 8.25 M8.34 7.63 C6.73 7.25, 5.02 7.19, 0.19 6.98 M-0.51 7.71 C0.08 6.11, 0.75 3.88, 0.59 0.11 M0.32 7.42 C0.37 4.89, -0.28 1.69, 0.34 -0.19" stroke="#000000" stroke-width="1" fill="none"></path></g><g stroke-linecap="round" transform="translate(636.6939112929231 388.9576966436739) rotate(0 26.29319758216343 17.831019049972838)"><path d="M2.37 2.06 C2.37 2.06, 2.37 2.06, 2.37 2.06 M2.37 2.06 C2.37 2.06, 2.37 2.06, 2.37 2.06 M3.42 6.95 C4.53 4.63, 6.93 1.88, 9.33 0.16 M3.42 6.95 C5.35 4.54, 7.8 1.85, 9.33 0.16 M3.16 13.35 C6.95 9.56, 10.95 3.82, 14.32 0.52 M3.16 13.35 C6.68 9.5, 8.83 6.25, 14.32 0.52 M2.9 19.75 C10.95 11.31, 16.6 6.28, 19.96 0.12 M2.9 19.75 C9.36 13.6, 14.6 5.52, 19.96 0.12 M1.33 27.65 C8.02 19.21, 15.59 11.19, 24.95 0.48 M1.33 27.65 C9.17 17.65, 17.13 9.51, 24.95 0.48 M2.38 32.54 C11.77 23.92, 19.66 13.7, 30.59 0.09 M2.38 32.54 C9.07 25.69, 15.99 16.45, 30.59 0.09 M4.74 35.92 C11.16 29.99, 17.68 21.45, 35.58 0.45 M4.74 35.92 C16.55 22.5, 27.68 9.68, 35.58 0.45 M9.73 36.28 C19.55 24.02, 28.17 11.79, 41.22 0.06 M9.73 36.28 C19.35 27.13, 28.05 16.08, 41.22 0.06 M14.71 36.64 C24.88 25.2, 32.8 15.64, 45.55 1.17 M14.71 36.64 C23.04 28.35, 29.05 20.74, 45.55 1.17 M20.36 36.25 C27.86 27.02, 34.26 19.59, 49.22 3.04 M20.36 36.25 C30.48 24.35, 41.2 12.29, 49.22 3.04 M25.34 36.61 C34.41 24.88, 45.12 13.49, 52.9 4.91 M25.34 36.61 C33.71 25.36, 42.47 15.62, 52.9 4.91 M30.99 36.21 C40.51 28.6, 46.5 16.55, 53.95 9.8 M30.99 36.21 C38.46 26.76, 45.4 18.27, 53.95 9.8 M35.97 36.57 C39.04 32.59, 44.11 26.42, 53.69 16.2 M35.97 36.57 C42.21 29.28, 48.74 21.67, 53.69 16.2 M41.62 36.18 C43.3 34.58, 47.49 30.96, 54.08 21.84 M41.62 36.18 C45.57 31.8, 49.81 26.98, 54.08 21.84 M45.95 37.29 C47.83 35.06, 49.35 34.48, 53.82 28.24 M45.95 37.29 C49.31 33.37, 51.68 30.01, 53.82 28.24" stroke="#ced4da" stroke-width="0.5" fill="none"></path><path d="M8.92 0 M8.92 0 C16.84 -1.21, 26.73 1.83, 43.67 0 M8.92 0 C18.58 -0.35, 28.59 0.7, 43.67 0 M43.67 0 C51.39 0.25, 53.72 1.48, 52.59 8.92 M43.67 0 C48.14 -1.26, 52.68 2.63, 52.59 8.92 M52.59 8.92 C50.87 14.94, 53.77 19.44, 52.59 26.75 M52.59 8.92 C52.9 15.02, 52.65 22.24, 52.59 26.75 M52.59 26.75 C53.86 31.95, 48.74 37.24, 43.67 35.66 M52.59 26.75 C53.04 30.45, 47.59 33.39, 43.67 35.66 M43.67 35.66 C33.62 34.88, 26.33 35.92, 8.92 35.66 M43.67 35.66 C30.4 35.01, 15.66 35.54, 8.92 35.66 M8.92 35.66 C1.19 36.32, 1.07 31.82, 0 26.75 M8.92 35.66 C2.2 34.77, 0.9 31.86, 0 26.75 M0 26.75 C-0.39 22.21, 1.3 18.04, 0 8.92 M0 26.75 C-0.67 20.98, 0.09 16.29, 0 8.92 M0 8.92 C-1.53 1.37, 4.82 -0.49, 8.92 0 M0 8.92 C-1.05 3.52, 4.92 0.64, 8.92 0" stroke="#000000" stroke-width="1" fill="none"></path></g><g stroke-linecap="round"><g transform="translate(639.1116765878342 390.16657929113035) rotate(0 12.497512123222805 9.507997734107448)"><path d="M0.49 0.98 C4.94 4.15, 21.62 15.55, 25.7 18.57 M-0.71 0.45 C3.74 3.28, 21.07 13.87, 25.24 16.67" stroke="#000000" stroke-width="1" fill="none"></path></g></g><mask></mask><g stroke-linecap="round"><g transform="translate(663.8937708606773 407.6953776792384) rotate(0 11.718995637018907 -8.210387535102882)"><path d="M0.98 0.92 C4.95 -2.05, 19.58 -14.21, 23.4 -17.34 M0.04 0.36 C3.92 -2.44, 18.74 -12.85, 22.68 -15.71" stroke="#000000" stroke-width="1" fill="none"></path></g></g><mask></mask><g stroke-linecap="round" transform="translate(614.2590806631652 358.1425091342876) rotate(0 49 48)"><path d="M24 0 M24 0 C41.78 -0.07, 59.71 -0.98, 74 0 M24 0 C34.13 0.48, 46.87 0.18, 74 0 M74 0 C88.1 0.04, 96.91 7.13, 98 24 M74 0 C91.76 1.07, 99.89 6.65, 98 24 M98 24 C99.93 40.2, 96.12 56.26, 98 72 M98 24 C97.22 41, 98.65 60.41, 98 72 M98 72 C96.86 87.77, 88.85 97.3, 74 96 M98 72 C100.08 89.64, 92.3 94.67, 74 96 M74 96 C55.01 95.85, 37.2 98.32, 24 96 M74 96 C62.38 96.49, 52.14 95.65, 24 96 M24 96 C8.57 95.18, 0.87 86.14, 0 72 M24 96 C7.15 94.79, -1.73 86.42, 0 72 M0 72 C1.9 56.51, 1.56 39.23, 0 24 M0 72 C1.21 54.58, 1.2 37.48, 0 24 M0 24 C-1.81 6.39, 9.86 -1.01, 24 0 M0 24 C-0.03 9.96, 7.68 1.1, 24 0" stroke="#000000" stroke-width="1" fill="none"></path></g><g transform="translate(615.3642979582091 460.5706143889006) rotate(0 52 9.5)"><text x="52" y="16" font-family="Cascadia, Segoe UI Emoji" font-size="16px" fill="#000000" text-anchor="middle" style="white-space: pre;" direction="ltr">IMAP Server</text></g><g stroke-linecap="round" transform="translate(104.68715682282527 148.14573536022226) rotate(0 49 48)"><path d="M3.28 9.48 C3.28 9.48, 3.28 9.48, 3.28 9.48 M3.28 9.48 C3.28 9.48, 3.28 9.48, 3.28 9.48 M3.68 15.12 C6.42 13.72, 7.14 10.82, 12.21 5.31 M3.68 15.12 C6.03 11.59, 8.35 9.81, 12.21 5.31 M0.79 24.54 C3.13 21.81, 10.37 13.97, 18.51 4.16 M0.79 24.54 C6.93 19.26, 12.13 12.09, 18.51 4.16 M0.53 30.94 C9.48 19.36, 19.75 10.89, 26.12 1.5 M0.53 30.94 C5.31 25.14, 11.5 17.9, 26.12 1.5 M0.93 36.58 C9.12 24.31, 19.85 12.13, 31.1 1.86 M0.93 36.58 C8.65 29.5, 15.25 21.3, 31.1 1.86 M0.66 42.98 C11.23 31.9, 23.36 18.81, 36.75 1.47 M0.66 42.98 C14.74 28.07, 26.58 14.73, 36.75 1.47 M0.4 49.38 C12.3 34.74, 23.81 22.08, 41.73 1.83 M0.4 49.38 C9.7 39.05, 18.68 27.46, 41.73 1.83 M0.8 55.02 C13.99 40.3, 25.42 31.15, 46.72 2.19 M0.8 55.02 C17.24 35.84, 33.1 17.73, 46.72 2.19 M0.54 61.42 C11.95 45.48, 27.1 32.45, 52.36 1.79 M0.54 61.42 C12.03 47.83, 25.11 32.56, 52.36 1.79 M0.93 67.06 C18.58 47.5, 33.44 29.27, 57.35 2.15 M0.93 67.06 C16.42 50.41, 30.49 32.02, 57.35 2.15 M1.33 72.7 C25.67 46.05, 44.6 20.32, 62.99 1.76 M1.33 72.7 C13.78 58.64, 26.86 44.69, 62.99 1.76 M2.38 77.59 C20.64 59.28, 36.93 36.92, 67.98 2.12 M2.38 77.59 C21.66 58.01, 38.2 37.34, 67.98 2.12 M3.43 82.48 C23.5 58.45, 43.59 35.61, 73.63 1.73 M3.43 82.48 C25.03 59.05, 45.26 35.29, 73.63 1.73 M4.48 87.37 C25.92 59.47, 49.15 35.1, 79.92 0.58 M4.48 87.37 C32.11 57.97, 58.52 26.47, 79.92 0.58 M7.5 89.99 C31.81 63.02, 57.36 31.43, 84.26 1.69 M7.5 89.99 C30.54 64.73, 51.67 38.74, 84.26 1.69 M9.86 93.37 C26.33 72.95, 45.68 49.49, 87.93 3.56 M9.86 93.37 C24.82 75.2, 39.64 55.94, 87.93 3.56 M14.19 94.49 C32.43 71.36, 50.62 49.13, 91.6 5.43 M14.19 94.49 C43.01 61.47, 70.87 27.62, 91.6 5.43 M18.52 95.6 C40.82 70.15, 59.61 48.36, 93.97 8.81 M18.52 95.6 C42.51 68.25, 67.66 39.89, 93.97 8.81 M23.51 95.96 C44.46 73.91, 62.75 50.63, 96.99 11.43 M23.51 95.96 C48.21 67.72, 73.29 41.16, 96.99 11.43 M29.15 95.57 C47.86 74.8, 62.86 53.92, 98.04 16.32 M29.15 95.57 C52.44 69.38, 74.01 43.72, 98.04 16.32 M34.14 95.93 C56.2 71.06, 76.17 45.47, 99.09 21.21 M34.14 95.93 C60.05 67.74, 85.59 37.19, 99.09 21.21 M39.78 95.53 C62.67 65.96, 86.71 41.15, 100.14 26.1 M39.78 95.53 C53.72 77.7, 69.23 61.4, 100.14 26.1 M44.77 95.89 C62.89 74.8, 84.55 49.95, 100.53 31.74 M44.77 95.89 C63.09 73.63, 84.51 50.39, 100.53 31.74 M49.76 96.25 C68.25 74.61, 87.83 52.73, 100.27 38.14 M49.76 96.25 C61.29 84.43, 70.66 71.09, 100.27 38.14 M55.4 95.86 C72.58 75.01, 89.52 58.18, 100.01 44.54 M55.4 95.86 C66.24 81.97, 78.52 67.92, 100.01 44.54 M60.39 96.22 C68.9 83.91, 80.45 75.12, 100.4 50.18 M60.39 96.22 C75.7 78.61, 89.86 61.06, 100.4 50.18 M66.03 95.82 C77.2 83.47, 86.65 73.2, 100.14 56.58 M66.03 95.82 C78.19 82.21, 90.08 68.86, 100.14 56.58 M71.02 96.18 C81.64 84.12, 90.56 73.96, 99.88 62.98 M71.02 96.18 C81.94 82.38, 93.15 69.42, 99.88 62.98 M75.35 97.3 C81.98 90.32, 90.1 81.23, 100.28 68.62 M75.35 97.3 C82.55 90.02, 89.44 81.03, 100.28 68.62 M82.3 95.39 C85.42 91.9, 89.58 85.62, 97.39 78.04 M82.3 95.39 C88.25 89.62, 93.29 83.65, 97.39 78.04 M9.49 92.73 C9.49 92.73, 9.49 92.73, 9.49 92.73 M9.49 92.73 C9.49 92.73, 9.49 92.73, 9.49 92.73 M18.91 95.61 C15.92 93.26, 14.44 90.9, 5.33 83.8 M18.91 95.61 C16.29 93.48, 13.63 90.39, 5.33 83.8 M24.55 95.22 C21.33 90.14, 13.98 87.49, 4.18 77.51 M24.55 95.22 C18.48 90.83, 13.12 85.74, 4.18 77.51 M30.95 95.48 C24.45 90.32, 15.21 80.65, 1.52 69.89 M30.95 95.48 C21.1 85.96, 9.42 77.27, 1.52 69.89 M37.35 95.74 C27.04 84.22, 14.46 76.9, 1.88 64.91 M37.35 95.74 C25.42 86.26, 13.41 75.76, 1.88 64.91 M42.99 95.35 C27.79 80.91, 11.04 65.71, 1.48 59.26 M42.99 95.35 C28.85 83.27, 17.57 72.79, 1.48 59.26 M49.39 95.61 C38.34 85.22, 23.75 75.01, 1.84 54.28 M49.39 95.61 C33.64 80.91, 17.98 66.87, 1.84 54.28 M55.79 95.87 C36.83 82.14, 20.95 65.53, 1.45 48.63 M55.79 95.87 C34.08 76.28, 13.2 58.08, 1.45 48.63 M61.43 95.48 C49.62 84.3, 37.42 72.95, 1.81 43.65 M61.43 95.48 C38.98 75.03, 15.27 55.32, 1.81 43.65 M67.83 95.74 C51.76 81.08, 34.26 62.7, 1.41 38 M67.83 95.74 C54.89 83.74, 40.33 72.45, 1.41 38 M74.23 96 C54.19 79.14, 36.99 62.73, 1.77 33.02 M74.23 96 C59.14 81.73, 42.1 69.11, 1.77 33.02 M79.11 94.95 C52.16 69.43, 21.46 45.13, 1.38 27.37 M79.11 94.95 C49.35 68.27, 18.88 42.02, 1.38 27.37 M84 93.9 C65.81 77.75, 46.97 63.85, 1.74 22.39 M84 93.9 C54.66 68.19, 25.55 43.2, 1.74 22.39 M88.89 92.85 C66.43 76.22, 47.82 56.73, 2.1 17.4 M88.89 92.85 C62.74 71.61, 37.67 47.51, 2.1 17.4 M91.52 89.83 C55.64 58.82, 23.83 32.1, 2.46 12.41 M91.52 89.83 C60.72 62.77, 31.66 38.6, 2.46 12.41 M94.14 86.81 C71.12 64.61, 45.23 43.62, 4.33 8.74 M94.14 86.81 C67.36 64.76, 42.84 41.44, 4.33 8.74 M96.76 83.79 C76.27 64.67, 53.93 48.55, 6.95 5.72 M96.76 83.79 C70.08 60.15, 44.25 36.99, 6.95 5.72 M98.63 80.12 C68.25 57.07, 41.42 30.21, 9.58 2.7 M98.63 80.12 C77.51 62.53, 57.46 45.48, 9.58 2.7 M99.75 75.78 C83.46 62.22, 66.28 46.97, 14.47 1.65 M99.75 75.78 C81.46 58.85, 60.92 41.6, 14.47 1.65 M99.35 70.14 C82.8 56.27, 65.93 41.19, 19.35 0.6 M99.35 70.14 C67.39 43.06, 37.29 16.7, 19.35 0.6 M99.71 65.15 C75.26 42.74, 49.38 19.99, 24.24 -0.45 M99.71 65.15 C79.39 47.94, 57.54 29.39, 24.24 -0.45 M99.32 59.51 C71.11 37, 43.43 10.59, 30.64 -0.19 M99.32 59.51 C73.94 37.42, 46.73 14.58, 30.64 -0.19 M99.68 54.52 C75.28 35.01, 52.33 15.87, 36.28 -0.58 M99.68 54.52 C83.23 41.27, 67.95 26.6, 36.28 -0.58 M99.28 48.88 C80.28 32.27, 60.21 16.89, 42.68 -0.32 M99.28 48.88 C77.39 30.72, 57.25 12.24, 42.68 -0.32 M99.64 43.89 C85.36 31.77, 72.84 22.21, 49.08 -0.06 M99.64 43.89 C85.14 29.58, 69.51 17.64, 49.08 -0.06 M100 38.91 C84 27.54, 69.12 13.41, 54.72 -0.46 M100 38.91 C85.06 26.14, 73.01 14.54, 54.72 -0.46 M99.61 33.26 C89.69 22.24, 77.71 13.66, 61.12 -0.2 M99.61 33.26 C88.62 23.06, 77.74 13.35, 61.12 -0.2 M99.97 28.28 C93.11 21.16, 83.19 15.54, 67.52 0.07 M99.97 28.28 C89.58 19.5, 81.02 10.86, 67.52 0.07 M99.58 22.63 C92.33 15.48, 79 4.92, 73.16 -0.33 M99.58 22.63 C88.78 13.47, 80.07 5.68, 73.16 -0.33 M97.67 15.68 C93.04 11.58, 90.48 6.79, 79.56 -0.07 M97.67 15.68 C90.09 10.07, 83.57 4.8, 79.56 -0.07" stroke="#fd7e14" stroke-width="0.5" fill="none"></path><path d="M24 0 M24 0 C38.05 -1.12, 50.29 -0.66, 74 0 M24 0 C35.46 0.96, 48.86 1.16, 74 0 M74 0 C91.24 1.04, 99.67 8.54, 98 24 M74 0 C89.83 0.13, 97.89 9.55, 98 24 M98 24 C97.98 39.65, 99.46 60.16, 98 72 M98 24 C98.79 34.42, 97.92 43.97, 98 72 M98 72 C96.11 86.4, 88.31 97.04, 74 96 M98 72 C100.1 87.4, 88.19 94.28, 74 96 M74 96 C58.93 94.91, 39.06 94.22, 24 96 M74 96 C60.64 95.49, 46.14 94.99, 24 96 M24 96 C6 96.75, -2 88.07, 0 72 M24 96 C8.59 97.78, 1 88.3, 0 72 M0 72 C0.33 60.13, -1.31 47.75, 0 24 M0 72 C-1.02 52.73, -0.82 35.72, 0 24 M0 24 C0.42 8.16, 8.71 1.31, 24 0 M0 24 C1.89 9.52, 5.78 -1.59, 24 0" stroke="#000000" stroke-width="1" fill="none"></path></g><g transform="translate(132.57657857663253 174.19955019010877) rotate(0 23.5 20.5)"><text x="23.5" y="32" font-family="Helvetica, Segoe UI Emoji" font-size="36px" fill="#000000" text-anchor="middle" style="white-space: pre;" direction="ltr">C7</text></g><g stroke-linecap="round"><g transform="translate(139.8305992848127 216.06093767871835) rotate(0 17.325743341663838 -0.689900669368626)"><path d="M-0.36 -0.97 C5.44 -1.55, 29.37 -2.36, 35.01 -2.51 M1.65 1.13 C7.33 0.66, 28.66 -0.19, 34.36 -1.03" stroke="#000000" stroke-width="1" fill="none"></path></g></g><mask></mask><g stroke-linecap="round" transform="translate(96.81599093457226 410.00927042127887) rotate(0 49 48)"><path d="M24 0 M24 0 C43.93 0.22, 60.37 1.28, 74 0 M24 0 C43.89 -0.07, 63.3 1.24, 74 0 M74 0 C90.93 1.65, 96.83 8.89, 98 24 M74 0 C89.78 0.32, 100.28 7.62, 98 24 M98 24 C96.48 34.71, 96.88 42.27, 98 72 M98 24 C98.21 42.49, 98.98 63.04, 98 72 M98 72 C99.43 90, 88.84 97.43, 74 96 M98 72 C99.12 89.52, 89.53 95.45, 74 96 M74 96 C58.31 95.3, 40.76 96.72, 24 96 M74 96 C59.23 96.58, 44.35 95.78, 24 96 M24 96 C6.95 94.49, -1.38 88.89, 0 72 M24 96 C8.14 98.08, 2.22 89.2, 0 72 M0 72 C-1.47 53.25, 1.67 35.79, 0 24 M0 72 C-1.06 54.38, -0.77 34.89, 0 24 M0 24 C1.71 7.72, 8.96 1.7, 24 0 M0 24 C0.34 7.21, 7.97 0.3, 24 0" stroke="#000000" stroke-width="1" fill="none"></path></g><g transform="translate(112.31599093457226 439.00927042127796) rotate(0 33.5 19)"><text x="33.5" y="16" font-family="Cascadia, Segoe UI Emoji" font-size="16px" fill="#000000" text-anchor="middle" style="white-space: pre;" direction="ltr">Micro </text><text x="33.5" y="35" font-family="Cascadia, Segoe UI Emoji" font-size="16px" fill="#000000" text-anchor="middle" style="white-space: pre;" direction="ltr">Service</text></g><g stroke-linecap="round"><g transform="translate(214.51506469602464 207.80347021131502) rotate(0 49.804215579945776 26.90651383968384)"><path d="M-0.11 -0.98 C16.93 8.06, 84.4 45.88, 101.23 54.79 M-1.62 1.12 C15.38 9.81, 83.59 44.6, 100.56 53.28" stroke="#000000" stroke-width="1" fill="none"></path></g><g transform="translate(214.51506469602464 207.80347021131502) rotate(0 49.804215579945776 26.90651383968384)"><path d="M69.16 50.47 C79.27 50.7, 81.94 51.28, 99.47 52.41 M70.2 50.04 C81.92 50.88, 94.22 51.96, 99.64 52.88" stroke="#000000" stroke-width="1" fill="none"></path></g><g transform="translate(214.51506469602464 207.80347021131502) rotate(0 49.804215579945776 26.90651383968384)"><path d="M78.49 32.2 C86.65 36.42, 87.27 41, 99.47 52.41 M79.53 31.77 C87.82 39.56, 96.61 47.53, 99.64 52.88" stroke="#000000" stroke-width="1" fill="none"></path></g></g><mask></mask><g stroke-linecap="round"><g transform="translate(205.3598188203341 450.41748591712303) rotate(0 54.699224533745564 -40.20226811049724)"><path d="M-0.98 0.52 C17.32 -12.95, 92.2 -67.33, 110.38 -80.93 M0.71 -0.25 C18.91 -13.49, 91.77 -66.06, 110.04 -79.31" stroke="#000000" stroke-width="1" fill="none"></path></g><g transform="translate(205.3598188203341 450.41748591712303) rotate(0 54.699224533745564 -40.20226811049724)"><path d="M94.08 -52.53 C99.33 -64.85, 104.94 -72.64, 109.17 -77.78 M93.65 -54.57 C98.97 -61.99, 104.5 -72.5, 109.64 -78.59" stroke="#000000" stroke-width="1" fill="none"></path></g><g transform="translate(205.3598188203341 450.41748591712303) rotate(0 54.699224533745564 -40.20226811049724)"><path d="M82.06 -69.16 C91.46 -75.61, 101.23 -77.65, 109.17 -77.78 M81.63 -71.2 C91.25 -72.79, 100.94 -77.54, 109.64 -78.59" stroke="#000000" stroke-width="1" fill="none"></path></g></g><mask></mask><g stroke-linecap="round"><g transform="translate(519.253963129735 359.51897329419216) rotate(0 44.54593513756163 24.135836389544238)"><path d="M0.52 1.17 C15.5 9.1, 74.9 38.95, 89.75 46.6 M-0.66 0.74 C14.18 8.85, 73.97 39.65, 88.89 47.54" stroke="#000000" stroke-width="1" fill="none"></path></g><g transform="translate(519.253963129735 359.51897329419216) rotate(0 44.54593513756163 24.135836389544238)"><path d="M61.09 43.87 C65.87 44.66, 75.33 44.89, 90.42 48.46 M59.05 43.74 C71.48 44.81, 80.95 46.08, 89.61 46.87" stroke="#000000" stroke-width="1" fill="none"></path></g><g transform="translate(519.253963129735 359.51897329419216) rotate(0 44.54593513756163 24.135836389544238)"><path d="M70.58 25.67 C72.45 31.8, 79.15 37.33, 90.42 48.46 M68.54 25.54 C77.24 33.61, 83.07 41.84, 89.61 46.87" stroke="#000000" stroke-width="1" fill="none"></path></g></g><mask></mask><g transform="translate(263.49896190117033 92.3980838530224) rotate(0 52.5 25.5)"><text x="52.5" y="17.5" font-family="Virgil, Segoe UI Emoji" font-size="20px" fill="#000000" text-anchor="middle" style="white-space: pre;" direction="ltr">Camunda7 </text><text x="52.5" y="43" font-family="Virgil, Segoe UI Emoji" font-size="20px" fill="#000000" text-anchor="middle" style="white-space: pre;" direction="ltr">Adapter</text></g><g stroke-linecap="round"><g transform="translate(332.4548558360584 147.9630242222279) rotate(0 6.723323615393383 46.464274595454526)"><path d="M0.16 -1.14 C2.29 14.34, 11.19 77.94, 13.29 94.07" stroke="#000000" stroke-width="1.5" fill="none" stroke-dasharray="8 9"></path></g></g><mask></mask><g transform="translate(410.91859720966204 479.3506611978505) rotate(0 71 13)"><text x="71" y="18" font-family="Virgil, Segoe UI Emoji" font-size="20px" fill="#000000" text-anchor="middle" style="white-space: pre;" direction="ltr">IMAP Adapter</text></g><g stroke-linecap="round"><g transform="translate(488.6033146459922 392.25784805059493) rotate(0 -8.604217075056567 36.06213757594219)"><path d="M0.02 -0.66 C-2.87 11.66, -14.54 60.53, -17.23 72.78" stroke="#000000" stroke-width="1.5" fill="none" stroke-dasharray="8 9"></path></g></g><mask></mask><g transform="translate(273.1294819423092 484.3641992750977) rotate(0 40 25.5)"><text x="40" y="17.5" font-family="Virgil, Segoe UI Emoji" font-size="20px" fill="#000000" text-anchor="middle" style="white-space: pre;" direction="ltr">Service </text><text x="40" y="43" font-family="Virgil, Segoe UI Emoji" font-size="20px" fill="#000000" text-anchor="middle" style="white-space: pre;" direction="ltr">Adapter</text></g><g stroke-linecap="round"><g transform="translate(316.4718406604752 471.63886760702326) rotate(0 12.969459296304649 -40.82581974166942)"><path d="M-0.52 0.92 C3.89 -12.73, 22.17 -68.58, 26.46 -82.57" stroke="#000000" stroke-width="1.5" fill="none" stroke-dasharray="8 9"></path></g></g><mask></mask><g stroke-linecap="round" transform="translate(368.4021494269582 307.6213384628113) rotate(0 53.40914007289166 36.30769128107909)"><path d="M74.69 3.18 C83.63 5.1, 93.65 10.66, 98.85 16.01 C104.05 21.37, 105.78 28.85, 105.89 35.3 C106.01 41.76, 104.39 49.21, 99.53 54.76 C94.68 60.32, 85.71 65.53, 76.75 68.61 C67.8 71.7, 55.31 74.14, 45.82 73.3 C36.33 72.46, 27.05 68.03, 19.79 63.57 C12.54 59.11, 5.17 52.54, 2.3 46.53 C-0.57 40.53, -0.13 33.61, 2.57 27.56 C5.27 21.52, 11.52 14.66, 18.48 10.27 C25.45 5.87, 33.33 1.67, 44.35 1.17 C55.38 0.68, 76.83 5.54, 84.66 7.29 C92.49 9.04, 91.89 11.14, 91.32 11.69 M30.83 3.91 C38.84 0.91, 51.85 -0.75, 61.61 0.03 C71.38 0.82, 82.1 4.42, 89.42 8.61 C96.74 12.81, 103.12 18.93, 105.53 25.21 C107.94 31.49, 107.02 39.97, 103.87 46.28 C100.72 52.59, 93.81 58.72, 86.64 63.07 C79.48 67.43, 70.01 71.17, 60.88 72.41 C51.75 73.66, 40.52 73.17, 31.85 70.55 C23.17 67.92, 14.1 62.3, 8.83 56.67 C3.56 51.03, 0.39 43.55, 0.23 36.74 C0.07 29.93, 2.37 21.4, 7.87 15.82 C13.38 10.23, 28.97 5.11, 33.27 3.23 C37.57 1.35, 33.77 4.21, 33.68 4.53" stroke="#000000" stroke-width="1" fill="none"></path></g><g transform="translate(388.3112894998503 331.4290297438906) rotate(0 33.5 13)"><text x="33.5" y="18" font-family="Virgil, Segoe UI Emoji" font-size="20px" fill="#000000" text-anchor="middle" style="white-space: pre;" direction="ltr">Domain</text></g><g transform="translate(368.3112894998503 269.1121359691565) rotate(0 53 13)"><text x="0" y="18" font-family="Virgil, Segoe UI Emoji" font-size="20px" fill="#000000" text-anchor="start" style="white-space: pre;" direction="ltr">Use Cases</text></g><g transform="translate(105.31056127107695 322.8920350094945) rotate(0 33.5 9.5)"><text x="33.5" y="16" font-family="Cascadia, Segoe UI Emoji" font-size="16px" fill="#000000" text-anchor="middle" style="white-space: pre;" direction="ltr">Driving</text></g><g stroke-linecap="round"><g transform="translate(86.7545654221085 308.2122423055298) rotate(0 52.45453476957209 2.3969818422090157)"><path d="M0.53 -0.12 C17.76 0.82, 87.13 4.45, 104.38 4.91" stroke="#000000" stroke-width="1.5" fill="none" stroke-dasharray="8 9"></path></g><g transform="translate(86.7545654221085 308.2122423055298) rotate(0 52.45453476957209 2.3969818422090157)"><path d="M75.59 14.27 C88.75 10.07, 95.87 6.11, 105.82 3.58" stroke="#000000" stroke-width="1.5" fill="none"></path></g><g transform="translate(86.7545654221085 308.2122423055298) rotate(0 52.45453476957209 2.3969818422090157)"><path d="M76.44 -6.23 C89.16 -2.59, 95.95 1.29, 105.82 3.58" stroke="#000000" stroke-width="1.5" fill="none"></path></g></g><mask></mask><g transform="translate(651.5020783714772 317.8183344663271) rotate(0 28.5 9.5)"><text x="28.5" y="16" font-family="Cascadia, Segoe UI Emoji" font-size="16px" fill="#000000" text-anchor="middle" style="white-space: pre;" direction="ltr">Driven</text></g><g stroke-linecap="round"><g transform="translate(627.9460825225069 303.1385417623619) rotate(0 52.08983355811961 1.904803819347535)"><path d="M0.17 1.19 C17.41 1.64, 86.75 2.05, 104.01 2.62" stroke="#000000" stroke-width="1.5" fill="none" stroke-dasharray="8 9"></path></g><g transform="translate(627.9460825225069 303.1385417623619) rotate(0 52.08983355811961 1.904803819347535)"><path d="M77.63 12.05 C83.59 8.17, 96.64 4.29, 104.73 1.69" stroke="#000000" stroke-width="1.5" fill="none"></path></g><g transform="translate(627.9460825225069 303.1385417623619) rotate(0 52.08983355811961 1.904803819347535)"><path d="M77.99 -8.46 C83.81 -5.28, 96.73 -2.1, 104.73 1.69" stroke="#000000" stroke-width="1.5" fill="none"></path></g></g><mask></mask><g stroke-linecap="round" transform="translate(527.4784014278139 100.30856858857214) rotate(358.15238973400557 13.806652590502836 11.600633147898975)"><path d="M0 0 C0 0, 0 0, 0 0 M0 0 C0 0, 0 0, 0 0 M0.19 6.74 C1.78 5.52, 2.4 3.03, 5.44 -0.09 M-0.47 6.07 C1.04 4.43, 3.41 2.41, 5.23 0.63 M0.5 12.89 C5.4 7.62, 7.26 2.07, 9.44 -0.97 M0.55 11.94 C4 7.94, 8.03 2.68, 10.51 -0.03 M0.36 19.31 C3.36 15.05, 9.4 9.36, 15.76 -0.09 M0.41 17.91 C2.18 15.19, 6.97 11.16, 15.34 0.52 M2.02 25.64 C6.36 14.67, 14.24 5.24, 21.64 -0.18 M1.17 24.05 C4.23 19.53, 9.08 13.35, 20.27 0.88 M4.42 22.41 C12.69 14.56, 21.39 4.67, 24.85 -1.22 M6.53 24.22 C10.78 18.06, 14.51 13.45, 26.17 1.1 M12.47 24.44 C15.95 14.4, 22.84 7.69, 29.99 0.43 M11.17 24.96 C15.51 18.75, 21.72 10.89, 29.07 1.73 M15.67 22.98 C18.62 21.02, 21.58 15.02, 29.02 8.31 M15.79 23.5 C19.71 19.56, 23.22 14.18, 30.29 7.46 M21.21 23.42 C23.82 22.84, 25.78 19.06, 31.31 14.84 M21.34 24.33 C24.21 21.04, 27.92 16.97, 29.63 14.56 M27.18 23.28 C28.18 22.86, 28.44 22.08, 30.08 20.65 M27.13 23.78 C27.79 22.94, 28.22 22.35, 29.79 20.65" stroke="#82c91e" stroke-width="0.5" fill="none"></path><path d="M-0.33 -1.83 C7.21 1.17, 14.7 0.44, 26.68 -1.72 M-0.12 -0.58 C11.62 1.06, 22.65 1.16, 27.03 0.72 M27.14 0.35 C29.76 6.44, 27.94 15.89, 26.1 24.33 M27.2 0.44 C26.62 6.3, 27.02 12.57, 26.93 23.65 M28.66 24.79 C19.46 24.77, 9.31 22.93, 1.75 23.43 M26.81 24.13 C16.44 22.94, 7.12 22.81, 0.48 24.05 M0.26 21.72 C2.01 16.15, 0.92 9.52, 0.12 -0.78 M0.76 22.28 C1.05 18.49, 0.69 12.17, 0.14 0.54" stroke="#000000" stroke-width="1" fill="none"></path></g><g transform="translate(567.5387336957174 100.02151775260154) rotate(0 57 10)"><text x="57" y="14" font-family="Virgil, Segoe UI Emoji" font-size="16px" fill="#000000" text-anchor="middle" style="white-space: pre;" direction="ltr">Input Adapter</text></g><g stroke-linecap="round" transform="translate(530.6694443251745 135.8089208217025) rotate(358.15238973400557 13.806652590502836 11.600633147899089)"><path d="M0 0 C0 0, 0 0, 0 0 M0 0 C0 0, 0 0, 0 0 M0.43 7.08 C1.05 4.53, 2.94 2.72, 5.26 1.15 M-0.65 6.41 C1.26 5, 2.55 3.79, 5.37 0.19 M1.19 12.37 C1.64 8.35, 4.47 4.66, 11.96 0.96 M0.05 12.52 C2.59 8.91, 5.15 6.07, 10.64 -0.26 M-1.43 20.4 C3.56 15.8, 7.44 9.36, 13.79 0.52 M-1.09 18.95 C4.9 13.52, 8.65 8.17, 16.39 1.03 M-1.4 23.84 C5.17 15.52, 14.09 8.1, 19.71 -1.29 M-0.58 24.78 C4.48 18.11, 9.27 13.29, 22.15 0.06 M4.82 23.76 C13.04 14.76, 19.2 5.61, 24.46 1.77 M6.67 23.14 C13.56 14.62, 20.88 6.92, 26.89 -0.08 M8.95 22.28 C13.62 17.89, 20.55 11.06, 29.42 1.68 M10.23 24.93 C18.51 14.45, 24.71 6.51, 29.03 2.49 M15.76 24.44 C20.76 16.23, 25.05 13, 29.75 6.85 M15.89 23.96 C20.83 17.09, 26.74 11.71, 29.55 7 M21.83 25.11 C25.26 19.71, 29.5 16.98, 30.75 13.75 M21.16 24.44 C23.7 21.7, 24.77 20.14, 30 14.52 M27.43 23.73 C27.56 23.12, 28.73 22.22, 29.44 20.77 M27.24 23.6 C28.15 22.46, 29.21 21.31, 29.62 20.62" stroke="#fa5252" stroke-width="0.5" fill="none"></path><path d="M-0.81 1.44 C9.69 0.97, 21.11 -1.47, 29.56 1.37 M0.65 0.9 C7.43 1.16, 12.85 0.87, 28.1 0.66 M29.6 -1.65 C27.73 6.19, 26.05 14.1, 27.36 22.64 M26.68 -0.37 C26.99 6.87, 26.83 15.69, 27.68 24.1 M27.91 24.51 C15.27 22.89, 7.47 23.65, 1.73 24.28 M27.11 23.19 C22.68 23.32, 16.51 24.31, 0.15 22.86 M1.93 23.46 C0.81 17.2, 0.09 8.55, -1.11 -1.68 M0.85 24.17 C0.32 16.86, -0.03 10.41, -0.62 0.33" stroke="#000000" stroke-width="1" fill="none"></path></g><g transform="translate(565.0387336957174 135.0162717965809) rotate(0 64 10)"><text x="64" y="14" font-family="Virgil, Segoe UI Emoji" font-size="16px" fill="#000000" text-anchor="middle" style="white-space: pre;" direction="ltr">Output Adapter</text></g><g stroke-linecap="round" transform="translate(10 10) rotate(0 406.4363511523502 295.7763698301976)"><path d="M147.89 0 M147.89 0 C255.06 -1.21, 362.93 -2.18, 664.98 0 M664.98 0 C765.52 1.37, 811.73 49.07, 812.87 147.89 M812.87 147.89 C815.35 221.02, 813.43 292.25, 812.87 443.66 M812.87 443.66 C813.85 543.57, 763.17 591.08, 664.98 591.55 M664.98 591.55 C500.97 589.73, 336.21 590.3, 147.89 591.55 M147.89 591.55 C49.04 590.99, 0.57 541.44, 0 443.66 M0 443.66 C1.26 340.88, 1.02 240.99, 0 147.89 M0 147.89 C0.12 51.1, 51.22 1.04, 147.89 0" stroke="#000000" stroke-width="1.5" fill="none" stroke-dasharray="8 9"></path></g><g transform="translate(282.59153875873744 24.189624787224602) rotate(0 119.5 17)"><text x="119.5" y="24" font-family="Virgil, Segoe UI Emoji" font-size="28px" fill="#000000" text-anchor="middle" style="white-space: pre;" direction="ltr">eMail Integration</text></g><g stroke-linecap="round"><g transform="translate(490.7242769418208 264.6517196811069) rotate(0 37.17832291479999 -13.030720504252713)"><path d="M0.43 -0.56 C12.61 -4.68, 61.37 -21.04, 73.93 -25.5" stroke="#000000" stroke-width="1.5" fill="none" stroke-dasharray="8 9"></path></g></g><mask></mask><g transform="translate(573.7274896871077 222.5533157085497) rotate(0 28 13)"><text x="28" y="18" font-family="Virgil, Segoe UI Emoji" font-size="20px" fill="#000000" text-anchor="middle" style="white-space: pre;" direction="ltr">Ports</text></g></svg>