<svg version="1.1" xmlns="http://www.w3.org/2000/svg" viewBox="0 0 1273.215131220286 558.2061898576995" width="2546.430262440572" height="1116.412379715399">
  <!-- svg-source:excalidraw -->
  
  <defs>
    <style class="style-fonts">
      @font-face {
        font-family: "Virgil";
        src: url("https://excalidraw.com/Virgil.woff2");
      }
      @font-face {
        font-family: "Cascadia";
        src: url("https://excalidraw.com/Cascadia.woff2");
      }
    </style>
    
  </defs>
  <rect x="0" y="0" width="1273.215131220286" height="558.2061898576995" fill="#ffffff"></rect><g stroke-linecap="round" transform="translate(526.3757287594563 349.80797534493666) rotate(0 112.5 34)"><path d="M17 0 M17 0 C69.09 -2.71, 127.18 0.07, 208 0 M17 0 C68.71 -3.28, 123.58 -2.05, 208 0 M208 0 C217.67 1.74, 228.08 2.9, 225 17 M208 0 C220.58 2.36, 222.49 10.17, 225 17 M225 17 C225.42 23.36, 226.38 40.05, 225 51 M225 17 C225.41 29.41, 226.35 43.19, 225 51 M225 51 C223.26 65.01, 216.73 71.56, 208 68 M225 51 C225.52 60.22, 219.08 69.54, 208 68 M208 68 C152.52 68.17, 93.07 64.65, 17 68 M208 68 C167.81 67.02, 129.39 67.97, 17 68 M17 68 C2.86 68.61, -1.89 65.51, 0 51 M17 68 C7.09 65.99, -2.54 62.09, 0 51 M0 51 C1.12 35.45, 3.55 25.26, 0 17 M0 51 C0.96 41.04, -0.27 25.79, 0 17 M0 17 C-0.23 3.15, 3.4 0.16, 17 0 M0 17 C4.38 1.64, 1.18 4.11, 17 0" stroke="#1e1e1e" stroke-width="1" fill="none"></path></g><g transform="translate(591.8257638546711 371.30797534493666) rotate(0 47.049964904785156 12.5)"><text x="47.049964904785156" y="0" font-family="Virgil, Segoe UI Emoji" font-size="20px" fill="#1e1e1e" text-anchor="middle" style="white-space: pre;" direction="ltr" dominant-baseline="text-before-edge">Use Case</text></g><g stroke-linecap="round" transform="translate(526.5629148233566 224.6202132911732) rotate(0 113 35)"><path d="M17.5 0 M17.5 0 C78.2 2.67, 132.49 0.68, 208.5 0 M17.5 0 C89.17 1.77, 158.01 2.02, 208.5 0 M208.5 0 C223.24 -2.77, 227.08 7.89, 226 17.5 M208.5 0 C217.66 4.5, 225.32 5.71, 226 17.5 M226 17.5 C227.48 32.16, 230.05 37.67, 226 52.5 M226 17.5 C227.91 29.44, 225.38 44.64, 226 52.5 M226 52.5 C223.4 67.72, 220.62 68.17, 208.5 70 M226 52.5 C225.75 65.71, 220.59 71.47, 208.5 70 M208.5 70 C155.28 67.16, 92.12 67.07, 17.5 70 M208.5 70 C148.21 65.23, 82.64 66.55, 17.5 70 M17.5 70 C3.95 73.18, 1.24 62.42, 0 52.5 M17.5 70 C3.29 69.76, 4.18 63.16, 0 52.5 M0 52.5 C3.23 43.49, 1.71 35.71, 0 17.5 M0 52.5 C-0.28 39.31, -0.62 28.1, 0 17.5 M0 17.5 C-2.27 5.99, 9.64 -3.5, 17.5 0 M0 17.5 C-4.48 9.95, 2.78 4.44, 17.5 0" stroke="#1e1e1e" stroke-width="1" fill="none"></path></g><g transform="translate(564.1729764688644 247.1202132911732) rotate(0 75.38993835449219 12.5)"><text x="75.38993835449219" y="0" font-family="Virgil, Segoe UI Emoji" font-size="20px" fill="#1e1e1e" text-anchor="middle" style="white-space: pre;" direction="ltr" dominant-baseline="text-before-edge">Domain Objects</text></g><g stroke-linecap="round" transform="translate(267.0229255206177 130.82888324407227) rotate(301.1964843159314 122.5 27.5)"><path d="M13.75 0 M13.75 0 C64.17 -1.74, 118.66 -2.09, 231.25 0 M13.75 0 C71.72 -0.42, 132.49 -2.39, 231.25 0 M231.25 0 C241.5 2.06, 242.82 8.5, 245 13.75 M231.25 0 C239.74 -0.13, 245.65 5.09, 245 13.75 M245 13.75 C249.17 17.88, 247.94 27.1, 245 41.25 M245 13.75 C244.58 21.74, 244.15 28.82, 245 41.25 M245 41.25 C245.45 48.58, 240.2 56.34, 231.25 55 M245 41.25 C245.42 51.89, 240.2 59.12, 231.25 55 M231.25 55 C161 49.16, 97.86 52.15, 13.75 55 M231.25 55 C186.2 53.35, 142.77 54.47, 13.75 55 M13.75 55 C5.82 53.25, -2.21 50.21, 0 41.25 M13.75 55 C8.77 54, -0.86 51.53, 0 41.25 M0 41.25 C1.41 37.45, 0.76 30.75, 0 13.75 M0 41.25 C-0.17 29.22, -1.19 19.8, 0 13.75 M0 13.75 C3.81 1.08, 0.68 3.58, 13.75 0 M0 13.75 C-3.06 9.02, 3.31 -3.25, 13.75 0" stroke="#1e1e1e" stroke-width="1" fill="none"></path></g><g transform="translate(336.9329825884888 143.82888324407227) rotate(301.1964843159314 52.589942932128906 12.5)"><text x="52.589942932128906" y="0" font-family="Virgil, Segoe UI Emoji" font-size="20px" fill="#1e1e1e" text-anchor="middle" style="white-space: pre;" direction="ltr" dominant-baseline="text-before-edge">Input-Port</text></g><g stroke-linecap="round" transform="translate(527.6389179753551 106.03564015053249) rotate(0 112.5 34)"><path d="M17 0 M17 0 C78.09 -0.48, 132.37 3.69, 208 0 M17 0 C81.8 -3.05, 144.07 -0.64, 208 0 M208 0 C217.16 3.91, 224.41 5.56, 225 17 M208 0 C219.99 0.51, 221.16 7.28, 225 17 M225 17 C228.42 31.75, 223.34 46.93, 225 51 M225 17 C223.4 27.34, 224.93 33.21, 225 51 M225 51 C224.78 63.67, 219.7 69.28, 208 68 M225 51 C224.78 66.45, 219.73 71.66, 208 68 M208 68 C166.87 65.06, 119.74 68.76, 17 68 M208 68 C159.42 70.18, 113.33 67.71, 17 68 M17 68 C3.46 67.79, 3.64 61.46, 0 51 M17 68 C4.81 69.12, -2.6 66.24, 0 51 M0 51 C0.91 42.99, 3.34 29.62, 0 17 M0 51 C-1.09 43.63, 1.94 34.36, 0 17 M0 17 C-3.9 9.24, 3.01 3.86, 17 0 M0 17 C-1.28 2.42, 1.9 -3.76, 17 0" stroke="#1e1e1e" stroke-width="1" fill="none"></path></g><g transform="translate(593.0889530705699 127.53564015053249) rotate(0 47.049964904785156 12.5)"><text x="47.049964904785156" y="0" font-family="Virgil, Segoe UI Emoji" font-size="20px" fill="#1e1e1e" text-anchor="middle" style="white-space: pre;" direction="ltr" dominant-baseline="text-before-edge">Use Case</text></g><g stroke-linecap="round" transform="translate(762.6626263817561 387.4104414316518) rotate(301.1964843159314 122.5 27.5)"><path d="M13.75 0 M13.75 0 C68.28 3.8, 126 0.61, 231.25 0 M13.75 0 C88.95 3.51, 162.26 4.32, 231.25 0 M231.25 0 C239.82 -0.11, 245.57 5.02, 245 13.75 M231.25 0 C236.57 1.61, 249.21 9.15, 245 13.75 M245 13.75 C243.04 24.06, 243.45 26.01, 245 41.25 M245 13.75 C244.87 22.92, 244.53 34.6, 245 41.25 M245 41.25 C245.37 51.7, 240.23 58.58, 231.25 55 M245 41.25 C245.4 54.08, 236.77 50.9, 231.25 55 M231.25 55 C180.32 58.54, 134.48 52.73, 13.75 55 M231.25 55 C163.2 57.25, 93.11 57.92, 13.75 55 M13.75 55 C8.22 54.13, -0.75 51.39, 0 41.25 M13.75 55 C1.99 58.91, 0.97 52.57, 0 41.25 M0 41.25 C3.49 31.45, -3.41 20.54, 0 13.75 M0 41.25 C2.22 32.98, -1.64 30, 0 13.75 M0 13.75 C-2.66 8.44, 3.47 -2.83, 13.75 0 M0 13.75 C-3.77 0.82, 8.55 1.27, 13.75 0" stroke="#1e1e1e" stroke-width="1" fill="none"></path></g><g transform="translate(824.1026974877132 402.4104414316518) rotate(301.1964843159314 61.05992889404297 12.5)"><text x="61.05992889404297" y="0" font-family="Virgil, Segoe UI Emoji" font-size="20px" fill="#1e1e1e" text-anchor="middle" style="white-space: pre;" direction="ltr" dominant-baseline="text-before-edge">Output-Port</text></g><g stroke-linecap="round" transform="translate(763.2366574129592 129.27276380652816) rotate(60.2598908625823 122.5 27.5)"><path d="M13.75 0 M13.75 0 C68.25 -3.34, 122.1 0.79, 231.25 0 M13.75 0 C63.01 -0.24, 113.92 -1.99, 231.25 0 M231.25 0 C240.98 0.44, 241.66 5.98, 245 13.75 M231.25 0 C244.63 4.57, 242.91 7.74, 245 13.75 M245 13.75 C242.76 21.25, 247.36 29.63, 245 41.25 M245 13.75 C244.95 25.11, 245.25 35.78, 245 41.25 M245 41.25 C244.81 54, 240.76 58.19, 231.25 55 M245 41.25 C241.35 46.32, 236.66 56.19, 231.25 55 M231.25 55 C163.28 56.23, 99.37 57.03, 13.75 55 M231.25 55 C147.76 53.25, 67.77 52.96, 13.75 55 M13.75 55 C3.84 55.97, -2.26 53.82, 0 41.25 M13.75 55 C5.55 57.16, 3.33 51.83, 0 41.25 M0 41.25 C-3.74 30.78, -3.02 18.5, 0 13.75 M0 41.25 C-2.47 34.68, -1.85 26.46, 0 13.75 M0 13.75 C-1.11 1.76, 1.31 -3.27, 13.75 0 M0 13.75 C3.97 5.85, 0.32 -2, 13.75 0" stroke="#1e1e1e" stroke-width="1" fill="none"></path></g><g transform="translate(824.6767285189162 144.27276380652816) rotate(60.2598908625823 61.05992889404297 12.5)"><text x="61.05992889404297" y="0" font-family="Virgil, Segoe UI Emoji" font-size="20px" fill="#1e1e1e" text-anchor="middle" style="white-space: pre;" direction="ltr" dominant-baseline="text-before-edge">Output-Port</text></g><g stroke-linecap="round" transform="translate(274.8518705260485 381.01623852086976) rotate(58.87467117104984 122.5 27.5)"><path d="M13.75 0 M13.75 0 C91.35 4.26, 163.51 2.52, 231.25 0 M13.75 0 C89.92 -3.75, 166.85 -3.51, 231.25 0 M231.25 0 C237.08 1.4, 248.66 8.56, 245 13.75 M231.25 0 C238.32 3.15, 246.66 1.9, 245 13.75 M245 13.75 C247.41 21.67, 248.29 35.25, 245 41.25 M245 13.75 C245.15 21.38, 244.88 29.52, 245 41.25 M245 41.25 C245.35 53.6, 237.25 51.43, 231.25 55 M245 41.25 C241.25 51.6, 240.62 50.47, 231.25 55 M231.25 55 C145.45 50.7, 61.35 53.42, 13.75 55 M231.25 55 C177.09 54.42, 119.44 55.22, 13.75 55 M13.75 55 C2.33 58.4, 0.84 52.29, 0 41.25 M13.75 55 C7.92 56.41, 3.34 54.63, 0 41.25 M0 41.25 C-2.07 30.43, 0.6 27.94, 0 13.75 M0 41.25 C-0.79 37.34, -0.02 28.16, 0 13.75 M0 13.75 C-3.28 1.31, 8.03 1.1, 13.75 0 M0 13.75 C-4.26 2.58, 5.87 1.75, 13.75 0" stroke="#1e1e1e" stroke-width="1" fill="none"></path></g><g transform="translate(344.7619275939196 396.01623852086976) rotate(58.87467117104984 52.589942932128906 12.5)"><text x="52.589942932128906" y="0" font-family="Virgil, Segoe UI Emoji" font-size="20px" fill="#1e1e1e" text-anchor="middle" style="white-space: pre;" direction="ltr" dominant-baseline="text-before-edge">Input-Port</text></g><g stroke-linecap="round" transform="translate(13.729825513140895 391.6235919604571) rotate(0 129.5 30)"><path d="M15 0 M15 0 C71.8 -2.08, 135.07 -4.86, 244 0 M15 0 C106.34 0.3, 195.78 0.7, 244 0 M244 0 C257.66 3.97, 257.18 7.74, 259 15 M244 0 C255.66 -2.68, 262.81 2.79, 259 15 M259 15 C262.96 23.15, 257.57 30.17, 259 45 M259 15 C258.96 26.79, 259.23 36.6, 259 45 M259 45 C255.83 51.43, 250.74 61.03, 244 60 M259 45 C259.2 50.47, 258.46 57.67, 244 60 M244 60 C194.05 59.21, 137.21 56.28, 15 60 M244 60 C176.18 59.56, 108.04 60.6, 15 60 M15 60 C5.84 61.87, 2.9 56.23, 0 45 M15 60 C8.34 64.21, 0.52 51.27, 0 45 M0 45 C0.54 39.98, -3.13 23.44, 0 15 M0 45 C-0.16 31.9, -1.24 20, 0 15 M0 15 C3.45 6.1, 1.3 -1.74, 15 0 M0 15 C1.29 6.75, 5.46 -2.75, 15 0" stroke="#1e1e1e" stroke-width="1" fill="none"></path></g><g transform="translate(20.339940564410426 409.1235919604571) rotate(0 122.88988494873047 12.5)"><text x="122.88988494873047" y="0" font-family="Virgil, Segoe UI Emoji" font-size="20px" fill="#1e1e1e" text-anchor="middle" style="white-space: pre;" direction="ltr" dominant-baseline="text-before-edge">External-System-Adapter</text></g><g stroke-linecap="round" transform="translate(10 126.3338075583653) rotate(0 129.5 30)"><path d="M15 0 M15 0 C103.07 -2.91, 190.97 -1.56, 244 0 M15 0 C81.64 0.17, 152.68 1.26, 244 0 M244 0 C252.18 2.74, 260.44 2.67, 259 15 M244 0 C257.81 -2.21, 257 8.08, 259 15 M259 15 C257.7 21.83, 260.87 29.46, 259 45 M259 15 C259.15 26.55, 257.39 33.14, 259 45 M259 45 C255.74 56.03, 254.18 56.06, 244 60 M259 45 C263.46 52.67, 250.78 60.71, 244 60 M244 60 C184.6 59.32, 128.01 64.3, 15 60 M244 60 C179.33 62.39, 116.94 61.74, 15 60 M15 60 C7.9 61.23, 2.9 58.66, 0 45 M15 60 C5.52 56.27, -0.26 52.1, 0 45 M0 45 C-3.53 33.8, 3.55 27.74, 0 15 M0 45 C-1.47 31.47, 1.89 21.76, 0 15 M0 15 C-3.7 3.26, 6.12 1.52, 15 0 M0 15 C0.46 2.25, 6.43 -1.62, 15 0" stroke="#1e1e1e" stroke-width="1" fill="none"></path></g><g transform="translate(78.11005401611328 143.8338075583653) rotate(0 61.38994598388672 12.5)"><text x="61.38994598388672" y="0" font-family="Virgil, Segoe UI Emoji" font-size="20px" fill="#1e1e1e" text-anchor="middle" style="white-space: pre;" direction="ltr" dominant-baseline="text-before-edge">Web-Adapter</text></g><g stroke-linecap="round" transform="translate(990.2151312202859 124.51718387381894) rotate(0 136.5 30)"><path d="M15 0 M15 0 C97.7 1.7, 173.83 2.66, 258 0 M15 0 C92.09 0.24, 165.39 -0.27, 258 0 M258 0 C269.44 -2.33, 276.31 3.08, 273 15 M258 0 C266 3.08, 270.01 9.09, 273 15 M273 15 C274.06 24.71, 274.01 33.49, 273 45 M273 15 C271.47 24.9, 271.42 38.88, 273 45 M273 45 C273.18 51.06, 271.88 57.98, 258 60 M273 45 C269.78 55.71, 265.83 63.65, 258 60 M258 60 C177.42 60.79, 96.46 57.16, 15 60 M258 60 C179.55 64.2, 101.61 63.93, 15 60 M15 60 C7.9 63.66, 0.45 51.76, 0 45 M15 60 C4.74 57.1, -2.61 55.18, 0 45 M0 45 C4.1 30.49, 4.38 20.18, 0 15 M0 45 C2.22 38.67, -1.36 30.37, 0 15 M0 15 C1.12 6.52, 5.4 -2.39, 15 0 M0 15 C1.43 3.38, 4.29 -2.38, 15 0" stroke="#1e1e1e" stroke-width="1" fill="none"></path></g><g transform="translate(1027.6252340645242 142.01718387381894) rotate(0 99.08989715576172 12.5)"><text x="99.08989715576172" y="0" font-family="Virgil, Segoe UI Emoji" font-size="20px" fill="#1e1e1e" text-anchor="middle" style="white-space: pre;" direction="ltr" dominant-baseline="text-before-edge">Persistence-Adapter</text></g><g stroke-linecap="round" transform="translate(988.8025840044029 396.7732443319857) rotate(0 136.5 30)"><path d="M15 0 M15 0 C74.57 1.07, 134.7 -2.17, 258 0 M15 0 C95.64 -2.86, 178.4 -4.96, 258 0 M258 0 C271.31 -1.92, 271.26 7.68, 273 15 M258 0 C265.01 4.09, 273.52 2.89, 273 15 M273 15 C274.48 23.65, 276.78 33.02, 273 45 M273 15 C270.89 26.91, 272.61 35.81, 273 45 M273 45 C276.88 52.98, 265.2 60.61, 258 60 M273 45 C270.83 58.65, 269.42 57.99, 258 60 M258 60 C197.79 63.04, 139.84 61.79, 15 60 M258 60 C165.64 62.39, 72.08 63.4, 15 60 M15 60 C5.45 56.76, -0.23 52.48, 0 45 M15 60 C2.39 60.18, 4.38 50.97, 0 45 M0 45 C3.32 37.82, -3.36 29.57, 0 15 M0 45 C-2.37 37.58, 0.04 32.67, 0 15 M0 15 C0.4 2.61, 6.25 -1.41, 15 0 M0 15 C-0.71 2.62, 4.05 -1.78, 15 0" stroke="#1e1e1e" stroke-width="1" fill="none"></path></g><g transform="translate(1002.4126990556724 414.2732443319857) rotate(0 122.88988494873047 12.5)"><text x="122.88988494873047" y="0" font-family="Virgil, Segoe UI Emoji" font-size="20px" fill="#1e1e1e" text-anchor="middle" style="white-space: pre;" direction="ltr" dominant-baseline="text-before-edge">External-System-Adapter</text></g><g stroke-linecap="round"><g transform="translate(636.3372779872279 173.5153573094523) rotate(0 -2.4677663599695734 23.39016720534775)"><path d="M0.4 0.31 C-0.42 8.45, -5.19 40.4, -5.33 48.77 M-2.83 -1.99 C-2.76 5.29, -0.53 36.2, -0.2 44.29" stroke="#1e1e1e" stroke-width="1" fill="none"></path></g><g transform="translate(636.3372779872279 173.5153573094523) rotate(0 -2.4677663599695734 23.39016720534775)"><path d="M0.04 41.58 L-5.95 27.21 L9.14 27.58 L2.83 42.6" stroke="none" stroke-width="0" fill="#1e1e1e" fill-rule="evenodd"></path><path d="M0.13 41.79 C-1.17 43.29, -1.27 35.41, -5.25 32.17 M-0.85 45.3 C-3.11 42.37, -3.69 37.15, -7.39 31.59 M-5.04 31.31 C-1.38 28.86, -1.75 28.58, 6 30.47 M-8.2 31.28 C-5.37 32.07, -1.83 30.37, 4.65 30.29 M6.08 28.67 C5.67 36.42, 2.36 43.41, 0.72 46.47 M5.26 29.41 C2.36 35.78, 2.46 39.87, -1.66 45.64 M-0.2 44.29 C-0.2 44.29, -0.2 44.29, -0.2 44.29 M-0.2 44.29 C-0.2 44.29, -0.2 44.29, -0.2 44.29" stroke="#1e1e1e" stroke-width="1" fill="none"></path></g></g><mask></mask><g stroke-linecap="round"><g transform="translate(639.5236098325386 350.97805570846157) rotate(0 0.35157195712599787 -25.389268232063046)"><path d="M-2.34 0.98 C-1.9 -7.11, 2.78 -39.91, 3.04 -48.26 M1.59 -0.96 C1.85 -9.79, 3.01 -42.98, 2.19 -51.76" stroke="#1e1e1e" stroke-width="1" fill="none"></path></g><g transform="translate(639.5236098325386 350.97805570846157) rotate(0 0.35157195712599787 -25.389268232063046)"><path d="M3.55 -55.64 L12.61 -41.08 L-0.82 -39.73 L5.38 -53.32" stroke="none" stroke-width="0" fill="#1e1e1e" fill-rule="evenodd"></path><path d="M3.24 -49.01 C7.29 -48.78, 8.44 -42.11, 7.07 -35.82 M1.22 -50.42 C3.92 -49.14, 5.33 -44.56, 8.96 -37.82 M10.84 -40.31 C2.82 -40.27, 1.99 -38.01, -6.35 -35.57 M8.22 -37.29 C6.05 -38.75, 1.79 -38.19, -2.7 -38.31 M-1.31 -37.4 C-0.81 -39.65, 0.4 -43.51, 4.94 -51.42 M-4.71 -37.97 C-1.09 -42.28, -2.65 -42.63, 1.2 -50.31 M2.19 -51.76 C2.19 -51.76, 2.19 -51.76, 2.19 -51.76 M2.19 -51.76 C2.19 -51.76, 2.19 -51.76, 2.19 -51.76" stroke="#1e1e1e" stroke-width="1" fill="none"></path></g></g><mask></mask><g stroke-linecap="round"><g transform="translate(753.5958409655595 381.45131368826895) rotate(0 56.866825457573384 0.08795867236480603)"><path d="M2.56 2.78 C21.82 2.84, 94.4 2.19, 113.22 1.36 M0.51 1.82 C19.49 1.01, 91.34 -2.31, 110.29 -2.61" stroke="#1e1e1e" stroke-width="1" fill="none"></path></g><g transform="translate(753.5958409655595 381.45131368826895) rotate(0 56.866825457573384 0.08795867236480603)"><path d="M114.09 -5.39 L99.95 2.48 L99.68 -10.06 L107.26 -0.53" stroke="none" stroke-width="0" fill="#1e1e1e" fill-rule="evenodd"></path><path d="M113.27 -3.98 C109.5 0.19, 102.8 3.05, 95.47 2.87 M110.46 -3.3 C105.22 0.62, 100.52 3.09, 96.85 5.52 M94.66 2.1 C97.24 0.37, 93.96 -1.2, 95.22 -10.28 M97.31 3.62 C96.2 0.12, 97.92 -4.09, 96.26 -8.19 M97.91 -6.32 C100.88 -4.95, 106.06 -5.35, 107.86 -2.78 M97.93 -9.81 C98.24 -5.77, 101.98 -4.27, 109.88 -3.67 M110.29 -2.61 C110.29 -2.61, 110.29 -2.61, 110.29 -2.61 M110.29 -2.61 C110.29 -2.61, 110.29 -2.61, 110.29 -2.61" stroke="#1e1e1e" stroke-width="1" fill="none"></path></g></g><mask></mask><g stroke-linecap="round"><g transform="translate(754.6472835415607 142.50634411342813) rotate(0 43.809074496909716 -0.19455545719938527)"><path d="M-1.27 1.92 C13.11 1.07, 73.65 -1.65, 88.89 -2.31 M3.23 0.49 C17.1 1.17, 72.8 0.46, 87.2 0.43" stroke="#1e1e1e" stroke-width="1" fill="none"></path></g><g transform="translate(754.6472835415607 142.50634411342813) rotate(0 43.809074496909716 -0.19455545719938527)"><path d="M90.24 -1.26 L76.83 5.3 L70.53 -3.73 L88.94 -0.49" stroke="none" stroke-width="0" fill="#1e1e1e" fill-rule="evenodd"></path><path d="M89.26 1.52 C80.28 5.31, 75.28 4.04, 75.66 4.91 M87.12 0.94 C82.09 3.29, 76.61 6.66, 73.78 8.06 M74.31 6.98 C71.36 6.52, 72.56 -0.51, 73.95 -7.01 M72.95 6.8 C74.69 1.78, 73.27 -2.45, 72.85 -4.73 M74.48 -3.64 C80.75 -3.67, 79.95 -2.17, 85.31 -1.27 M72.1 -4.47 C76.83 -2.23, 81.56 -2.84, 85.98 -0.79 M87.2 0.43 C87.2 0.43, 87.2 0.43, 87.2 0.43 M87.2 0.43 C87.2 0.43, 87.2 0.43, 87.2 0.43" stroke="#1e1e1e" stroke-width="1" fill="none"></path></g></g><mask></mask><g stroke-linecap="round"><g transform="translate(270.34465928172904 157.4717529334977) rotate(0 42.33837969018572 0.8491374070910354)"><path d="M1.01 -1.63 C15.65 -2.19, 72.89 -1.97, 86.56 -1.39 M-1.89 3.65 C12.71 3.29, 71.84 2.56, 85.58 1.5" stroke="#1e1e1e" stroke-width="1" fill="none"></path></g><g transform="translate(270.34465928172904 157.4717529334977) rotate(0 42.33837969018572 0.8491374070910354)"><path d="M88.76 -0.06 L69.21 10.45 L73.49 -5.23 L85.07 2.12" stroke="none" stroke-width="0" fill="#1e1e1e" fill-rule="evenodd"></path><path d="M83.83 3.99 C80.84 2.04, 80.9 3.14, 74.91 8.71 M85.72 1.98 C82.11 4.68, 78.93 6.28, 71.05 7.03 M69.75 10.82 C70.79 3.82, 72.35 1.64, 73.77 -3.52 M73.4 8.09 C72.02 5.43, 71.42 2.95, 72.02 -3.71 M74.5 -3.97 C74.51 -2.51, 80.2 -1.88, 85.7 4.36 M70.76 -2.86 C74.16 -4.38, 76.29 -3.31, 86.88 1.92 M85.58 1.5 C85.58 1.5, 85.58 1.5, 85.58 1.5 M85.58 1.5 C85.58 1.5, 85.58 1.5, 85.58 1.5" stroke="#1e1e1e" stroke-width="1" fill="none"></path></g></g><mask></mask><g stroke-linecap="round"><g transform="translate(274.95443370401154 424.1123558029305) rotate(0 47.51587919939041 0.34235625418202176)"><path d="M2.32 -1.35 C17.97 -0.98, 79.57 0.16, 94.9 0.58 M0.13 4.09 C15.2 3.82, 75.33 -2.23, 92 -3.41" stroke="#1e1e1e" stroke-width="1" fill="none"></path></g><g transform="translate(274.95443370401154 424.1123558029305) rotate(0 47.51587919939041 0.34235625418202176)"><path d="M88.97 -1.33 L80.74 3.14 L77.41 -7.94 L88.82 -0.11" stroke="none" stroke-width="0" fill="#1e1e1e" fill-rule="evenodd"></path><path d="M90.56 -4.72 C89.55 -2.63, 85.84 2.17, 77.62 3.91 M91.93 -2.07 C87.81 0.36, 82.15 0.32, 77.78 4.46 M77.72 2.29 C79.31 -0.95, 80.6 -2.82, 76.81 -9.96 M78.76 4.38 C77.73 1.42, 78.4 -2.79, 78.83 -8.17 M75.48 -8.73 C81.37 -8.37, 88.62 -1.9, 89.37 -6.33 M77.5 -9.62 C82.1 -8.06, 90.11 -4.41, 90.61 -4.06 M92 -3.41 C92 -3.41, 92 -3.41, 92 -3.41 M92 -3.41 C92 -3.41, 92 -3.41, 92 -3.41" stroke="#1e1e1e" stroke-width="1" fill="none"></path></g></g><mask></mask><g stroke-linecap="round"><g transform="translate(428.6693937622131 144.28744748736986) rotate(0 48.99532996342157 1.2203171068774452)"><path d="M-1.22 1.88 C14.03 2.6, 77.6 3.44, 93.8 3 M3.32 0.43 C19.25 0.54, 84.04 -0.86, 99.21 -0.66" stroke="#1e1e1e" stroke-width="1" fill="none"></path></g><g transform="translate(428.6693937622131 144.28744748736986) rotate(0 48.99532996342157 1.2203171068774452)"><path d="M73.77 7.19 C85.51 6.49, 90.88 1.82, 100.55 -0.29 M71.26 11.39 C78.85 4.04, 88.14 2.86, 99.3 -2.63" stroke="#1e1e1e" stroke-width="1" fill="none"></path></g><g transform="translate(428.6693937622131 144.28744748736986) rotate(0 48.99532996342157 1.2203171068774452)"><path d="M73.63 -13.33 C85.23 -6.18, 90.65 -2.99, 100.55 -0.29 M71.12 -9.14 C78.74 -9.67, 88.08 -4.03, 99.3 -2.63" stroke="#1e1e1e" stroke-width="1" fill="none"></path></g></g><mask></mask><g stroke-linecap="round"><g transform="translate(423.17614872089325 388.4247488755083) rotate(0 47.05667548783691 0.8572995443668106)"><path d="M-1.82 2.49 C14.37 2.05, 79.72 -0.6, 95.94 -0.78 M2.38 1.37 C18.34 1.13, 78.67 2.98, 93.87 2.16" stroke="#1e1e1e" stroke-width="1" fill="none"></path></g><g transform="translate(423.17614872089325 388.4247488755083) rotate(0 47.05667548783691 0.8572995443668106)"><path d="M69.3 13.05 C70.98 10.07, 81.37 7.98, 95.15 1.97 M64.16 10.81 C75.05 8.6, 87.72 2.05, 95.81 1.15" stroke="#1e1e1e" stroke-width="1" fill="none"></path></g><g transform="translate(423.17614872089325 388.4247488755083) rotate(0 47.05667548783691 0.8572995443668106)"><path d="M69.17 -7.47 C71.16 -5.19, 81.58 -2.02, 95.15 1.97 M64.03 -9.71 C75.01 -3.93, 87.73 -2.49, 95.81 1.15" stroke="#1e1e1e" stroke-width="1" fill="none"></path></g></g><mask></mask><g stroke-linecap="round"><g transform="translate(923.0677421331056 158.82914446346163) rotate(0 30.60670603879862 -0.2203186190826898)"><path d="M0.32 -1.28 C11.32 -1.72, 53.46 -0.32, 64.17 -0.13 M-2.96 4.19 C7.82 4.1, 50.87 -3.06, 61.85 -4.63" stroke="#1e1e1e" stroke-width="1" fill="none"></path></g><g transform="translate(923.0677421331056 158.82914446346163) rotate(0 30.60670603879862 -0.2203186190826898)"><path d="M33.71 9.57 C42.8 6.71, 48.93 2.77, 65.43 -4.28 M33.91 10.3 C45.84 2.81, 57.68 -1.7, 60.45 -4.32" stroke="#1e1e1e" stroke-width="1" fill="none"></path></g><g transform="translate(923.0677421331056 158.82914446346163) rotate(0 30.60670603879862 -0.2203186190826898)"><path d="M30.59 -10.71 C40.78 -8.82, 47.64 -7.99, 65.43 -4.28 M30.8 -9.98 C43.59 -9.71, 56.61 -6.53, 60.45 -4.32" stroke="#1e1e1e" stroke-width="1" fill="none"></path></g></g><mask></mask><g stroke-linecap="round"><g transform="translate(911.9025848286656 428.2572609930632) rotate(0 35.153274553792244 -1.793333767947729)"><path d="M-0.15 0.94 C12.13 1.15, 61.69 -0.13, 73.98 -0.02 M-3.68 -1.02 C8.22 -1.57, 59.32 -4.29, 71.89 -4.55" stroke="#1e1e1e" stroke-width="1" fill="none"></path></g><g transform="translate(911.9025848286656 428.2572609930632) rotate(0 35.153274553792244 -1.793333767947729)"><path d="M45.46 7.18 C54.15 3.12, 65.09 0.12, 75.07 -7.72 M44.21 4.84 C52.1 3.26, 54.61 2.19, 70.94 -2.96" stroke="#1e1e1e" stroke-width="1" fill="none"></path></g><g transform="translate(911.9025848286656 428.2572609930632) rotate(0 35.153274553792244 -1.793333767947729)"><path d="M44.65 -13.32 C53.41 -11, 64.6 -7.62, 75.07 -7.72 M43.4 -15.66 C51.13 -12.92, 53.81 -9.68, 70.94 -2.96" stroke="#1e1e1e" stroke-width="1" fill="none"></path></g></g><mask></mask><g stroke-linecap="round"><g transform="translate(321.5695223636003 259.6899989955461) rotate(0 -1.4622812046741558 25.71720171860673)"><path d="M0.26 0.9 C0.23 9.49, -0.28 43.96, -0.31 52.52 M-3.05 -1.08 C-3.45 6.7, -2.86 40.7, -2.62 48.87" stroke="#1e1e1e" stroke-width="1" fill="none"></path></g></g><mask></mask><g stroke-linecap="round"><g transform="translate(953.9476888891668 261.0740984324636) rotate(0 -1.7736507958719585 26.57479075758542)"><path d="M-0.13 2.51 C-0.16 10.98, 0.45 44.33, 0.08 51.75 M-3.65 1.4 C-4.05 9.04, -3.18 40.05, -2.03 47.95" stroke="#1e1e1e" stroke-width="1" fill="none"></path></g></g><mask></mask><g stroke-linecap="round"><g transform="translate(465.33917025788116 511.49436386732856) rotate(0 10.711164825235926 17.419640158872426)"><path d="M0.24 2.23 C3.48 7.08, 16.13 26.16, 19.29 31.59 M-3.07 0.97 C1.05 7.29, 19.84 27.64, 24.49 33.87" stroke="#1e1e1e" stroke-width="1" fill="none"></path></g></g><mask></mask><g stroke-linecap="round"><g transform="translate(486.52097827507885 545.885352971085) rotate(0 154.59567603765475 -0.4784163469352052)"><path d="M-2.22 -2.5 C48.78 -2.64, 254.44 1.28, 306.25 1.34 M1.77 2.32 C53.61 1.08, 260.55 -2.8, 311.41 -3.28" stroke="#1e1e1e" stroke-width="1" fill="none"></path></g></g><mask></mask><g stroke-linecap="round"><g transform="translate(795.8283833897063 546.4047249067949) rotate(0 8.871669865750562 -15.692501456870389)"><path d="M-2.28 0.72 C1.42 -4.21, 15.88 -26.86, 20.03 -32.11 M1.67 -1.35 C5.22 -5.83, 14.42 -25.46, 17.86 -29.98" stroke="#1e1e1e" stroke-width="1" fill="none"></path></g></g><mask></mask><g stroke-linecap="round"><g transform="translate(456.4081147036128 53.36280459749168) rotate(0 11.877418972969167 -19.269946373983295)"><path d="M0.12 -2.76 C5.01 -9.62, 23.31 -34.48, 27.01 -40.46 M-3.25 1.92 C1.71 -4.66, 21.02 -31.4, 26.24 -37.6" stroke="#1e1e1e" stroke-width="1" fill="none"></path></g></g><mask></mask><g stroke-linecap="round"><g transform="translate(482.0929309469134 12.335098851339701) rotate(0 159.06710038502246 1.8671895483636476)"><path d="M2.71 -1.42 C54.7 -0.84, 260.39 0.02, 312.05 0.67 M0.74 3.99 C53.61 5.33, 265.82 5.51, 317.39 4.53" stroke="#1e1e1e" stroke-width="1" fill="none"></path></g></g><mask></mask><g stroke-linecap="round"><g transform="translate(795.4830278242086 11.805018215924498) rotate(0 12.000529057190533 18.83492584289493)"><path d="M-1.96 0.43 C1.91 7.25, 20.94 33.54, 25.96 39.47 M2.17 -1.81 C5.3 4.38, 18.9 28.96, 23.01 35.67" stroke="#1e1e1e" stroke-width="1" fill="none"></path></g></g><mask></mask></svg>