<svg version="1.1" xmlns="http://www.w3.org/2000/svg" viewBox="0 0 1347.403673879231 518.3812092693593" width="1347.403673879231" height="518.3812092693593">
  <!-- svg-source:excalidraw -->
  
  <defs>
    <style class="style-fonts">
      @font-face {
        font-family: "Virgil";
        src: url("https://excalidraw.com/Virgil.woff2");
      }
      @font-face {
        font-family: "Cascadia";
        src: url("https://excalidraw.com/Cascadia.woff2");
      }
    </style>
  </defs>
  <rect x="0" y="0" width="1347.403673879231" height="518.3812092693593" fill="#ffffff"></rect><g stroke-linecap="round" transform="translate(9.99999999999909 21.2901892067498) rotate(0 279.83540391014185 243.54551003130473)"><path d="M114.3 48.31 C128.73 34.43, 153.67 27.31, 174.59 19.61 C195.52 11.9, 218.07 5.14, 239.86 2.1 C261.64 -0.94, 283.17 -0.79, 305.33 1.36 C327.49 3.5, 351.65 8.85, 372.83 14.96 C394.01 21.08, 413.54 27.39, 432.4 38.06 C451.26 48.73, 470.55 64.51, 485.99 78.98 C501.44 93.44, 514.37 107.79, 525.09 124.86 C535.8 141.93, 544.32 162.45, 550.31 181.38 C556.29 200.31, 560.26 219.01, 561 238.44 C561.74 257.86, 560.11 279.08, 554.76 297.93 C549.41 316.77, 539.38 334.43, 528.89 351.48 C518.39 368.54, 505.88 385.4, 491.81 400.25 C477.73 415.11, 462.49 429.34, 444.45 440.63 C426.4 451.92, 404.46 460.36, 383.52 467.99 C362.58 475.62, 340.67 483.68, 318.82 486.39 C296.98 489.1, 274.26 486.65, 252.46 484.23 C230.67 481.81, 209.14 478.37, 188.07 471.85 C166.99 465.34, 144.58 455.28, 126 445.13 C107.43 434.99, 91.71 424.7, 76.6 410.98 C61.5 397.25, 46.76 380.3, 35.37 362.8 C23.97 345.3, 14.32 324.91, 8.25 305.98 C2.19 287.06, -0.7 268.56, -1.02 249.24 C-1.34 229.91, 1.57 209.24, 6.36 190.01 C11.15 170.78, 18.06 150.9, 27.72 133.85 C37.39 116.81, 44.04 105.1, 64.37 87.77 C84.69 70.43, 129.35 40.98, 149.67 29.86 C169.99 18.74, 184.51 17.6, 186.28 21.05 M219.83 4.93 C239.33 -3.01, 261.61 2.35, 283.71 2.4 C305.81 2.46, 331.08 1.17, 352.43 5.28 C373.77 9.39, 392.46 17.21, 411.81 27.06 C431.15 36.91, 452.05 50.86, 468.49 64.38 C484.93 77.9, 498.11 91.57, 510.45 108.18 C522.8 124.79, 534.46 145.16, 542.56 164.03 C550.66 182.9, 556.98 202.07, 559.04 221.4 C561.11 240.73, 558.03 261.72, 554.95 280.03 C551.86 298.33, 548.92 313.85, 540.53 331.23 C532.14 348.61, 518.22 367.87, 504.6 384.3 C490.98 400.72, 475.1 417.19, 458.81 429.8 C442.52 442.4, 426.54 451.6, 406.87 459.95 C387.19 468.29, 362.58 475.55, 340.74 479.89 C318.9 484.23, 298.44 486.46, 275.82 485.97 C253.2 485.48, 226.68 481.91, 205.04 476.95 C183.39 471.99, 165.31 464.89, 145.97 456.2 C126.63 447.51, 105.92 437.9, 88.99 424.82 C72.06 411.73, 56.79 394.06, 44.37 377.69 C31.94 361.32, 22.04 345.18, 14.45 326.58 C6.86 307.98, 0.8 285.74, -1.17 266.09 C-3.13 246.44, -0.52 227.93, 2.64 208.68 C5.8 189.42, 9 168.55, 17.78 150.57 C26.55 132.59, 42.13 116.03, 55.3 100.77 C68.47 85.51, 79.88 71.35, 96.82 59 C113.76 46.65, 136.95 35.02, 156.94 26.67 C176.94 18.33, 206.17 11.3, 216.79 8.93 C227.4 6.55, 219.57 9.36, 220.62 12.4" stroke="#000000" stroke-width="2" fill="none"></path></g><g transform="translate(134.192081274241 94.22458703313669) rotate(0 162.5 22.5)"><text x="0" y="32" font-family="Virgil, Segoe UI Emoji" font-size="36px" fill="#000000" text-anchor="start" style="white-space: pre;" direction="ltr">Deployment Bundle</text></g><g stroke-linecap="round" transform="translate(53.54787265460345 172.9013014116681) rotate(0 79.03132444724451 68.54757732669168)"><path d="M8.9 35.57 C8.9 35.57, 8.9 35.57, 8.9 35.57 M8.9 35.57 C8.9 35.57, 8.9 35.57, 8.9 35.57 M1.51 53.76 C9.92 45.61, 26.72 34.1, 36.62 17.16 M1.76 53.19 C12.43 39.43, 26.98 28.69, 35.06 17.37 M-1.23 70.14 C19.55 49.91, 37.93 26.14, 49.21 10.73 M0.94 69.78 C17.36 47.9, 36.27 28.71, 52.39 11.97 M2.72 79.75 C31.27 50.45, 48.67 26.91, 68.25 1.12 M4.75 77.83 C25.92 49.39, 51.71 22.09, 66.15 4.79 M7.05 89.88 C29.01 62.74, 57.69 29.79, 77.88 6.15 M7.76 87.16 C28.33 61.49, 46.48 41.44, 78.35 3.93 M11.99 94.95 C31.76 74.89, 46.27 50.85, 89.29 2.92 M12.06 96.25 C38.57 64.52, 68.16 31.96, 90.04 4.14 M11.28 99.5 C31.07 85.14, 50.55 61.98, 100.54 4 M14.74 103.53 C32.9 76.81, 54.9 51.93, 99.73 1.46 M16.54 104.53 C51.96 71.42, 85.86 28.11, 104.98 4.38 M18.85 108.26 C42.16 82.33, 62.78 56.5, 108.36 8.64 M27.56 115.13 C50.55 88.41, 69.7 56.16, 113.89 13.16 M24.24 114.56 C50 82.81, 77.42 54.71, 116.47 9.26 M31.85 118.61 C52.91 89.82, 77.05 59.9, 121.67 13.34 M29.69 119.97 C67.88 79.46, 104.95 37.54, 126 13.92 M33.63 121.1 C55.16 97.75, 81.84 74.45, 134.73 13.87 M38.43 124.49 C59.42 100.66, 83.77 73.86, 131.73 14.78 M41.52 131.22 C73.6 97.67, 94.86 66.77, 137.19 22.56 M44.43 128.71 C69.41 102.09, 89.57 77.91, 135.51 22.86 M54.75 134.66 C81.11 94.52, 113.34 58.95, 138.97 30.39 M51.15 132.8 C71.41 112.21, 92.43 88.67, 140.96 26.83 M58.17 133.6 C85.54 100.22, 118.66 64.18, 148.96 34.22 M61.1 134.39 C83.4 106.09, 112.45 74.8, 147.17 36.1 M67.09 135.26 C96.21 106.5, 128.21 70.12, 148.54 40.11 M69.3 137.54 C99.57 97.78, 134.76 63.36, 152.78 42.66 M82.5 136.39 C107.65 108.46, 128.16 82.41, 157.31 48.73 M80.96 135.66 C101.02 114.27, 123.19 88.24, 154.3 50.84 M89.06 133.29 C101.19 121.7, 120.41 104.22, 155.81 60.67 M90.17 138.01 C114.39 109.45, 137.97 85.76, 155.39 61.14 M98.32 138.26 C122.59 112.01, 142.37 89.12, 162.75 67.13 M97.55 140.54 C110.29 122.85, 126.57 107.61, 160.62 69.3 M115.28 131.82 C130.61 114.2, 140.39 101.13, 167.8 78.04 M113.45 134.57 C128.04 115.9, 141.4 101.3, 162.83 76.84" stroke="#12b886" stroke-width="1" fill="none"></path><path d="M63.71 0.83 C73.93 -2.1, 88.23 -0.04, 99.4 2.25 C110.57 4.54, 122.03 8.12, 130.72 14.56 C139.41 21, 146.67 31.38, 151.54 40.89 C156.41 50.4, 160.45 61.94, 159.95 71.62 C159.44 81.29, 153.83 90.61, 148.49 98.94 C143.15 107.27, 137.29 115.49, 127.91 121.6 C118.54 127.7, 104 133.4, 92.22 135.56 C80.44 137.72, 67.81 137.14, 57.23 134.56 C46.65 131.97, 36.84 126.35, 28.74 120.07 C20.63 113.8, 13.56 105.9, 8.59 96.92 C3.61 87.93, -1.12 76.35, -1.12 66.19 C-1.11 56.02, 3.29 44.71, 8.6 35.92 C13.91 27.12, 12.92 18.23, 30.75 13.43 C48.58 8.62, 95.68 1.89, 115.58 7.07 C135.49 12.25, 150.25 43.01, 150.16 44.51 M82.75 -1.72 C93.15 -2.5, 105.6 3.13, 115.92 7.95 C126.25 12.78, 137.49 19.44, 144.68 27.25 C151.86 35.05, 157.03 44.85, 159.03 54.8 C161.03 64.76, 159.87 77.43, 156.69 86.97 C153.51 96.52, 147.91 104.61, 139.95 112.06 C131.99 119.51, 119.71 127.53, 108.93 131.67 C98.16 135.82, 86.39 137.33, 75.32 136.95 C64.26 136.56, 52.97 134.17, 42.55 129.38 C32.14 124.59, 19.4 116.74, 12.82 108.23 C6.24 99.72, 4.48 88.28, 3.07 78.32 C1.66 68.35, 1.1 57.09, 4.35 48.42 C7.59 39.75, 14.79 33.6, 22.54 26.32 C30.29 19.04, 40.98 9.39, 50.85 4.75 C60.71 0.12, 76.46 -0.71, 81.73 -1.47 C87 -2.23, 82.6 -1.14, 82.45 0.19" stroke="#000000" stroke-width="2" fill="none"></path></g><g transform="translate(84.57919710184797 223.94887873835978) rotate(0 48 17.5)"><text x="48" y="25" font-family="Virgil, Segoe UI Emoji" font-size="28px" fill="#000000" text-anchor="middle" style="white-space: pre;" direction="ltr">FORMS</text></g><g stroke-linecap="round" transform="translate(124.51477623988467 318.8673190132122) rotate(0 79.03132444724451 68.54757732669168)"><path d="M21.83 21.62 C21.83 21.62, 21.83 21.62, 21.83 21.62 M21.83 21.62 C21.83 21.62, 21.83 21.62, 21.83 21.62 M8.9 54.24 C15.67 37.65, 28.48 30.18, 39.55 12.37 M6.97 49.08 C15.93 39.01, 26.22 25.3, 43.23 10.13 M9.57 63.08 C25.28 49.94, 35.38 27.29, 56.56 7.56 M6.86 65.24 C20.41 44.56, 39.76 28.16, 54.35 6.48 M3.14 83.51 C22.54 57.82, 37.91 36.05, 65.21 7.74 M4.43 79.11 C18.62 63.61, 31.96 47.31, 66.43 4.02 M3.59 84.02 C26 68.33, 39.65 53.77, 80.53 2.12 M7.62 86.54 C33.74 54.43, 61.71 22.08, 77.99 5.54 M6.03 96.95 C40.18 65.27, 64.21 26.18, 88.46 1.72 M9.76 96.95 C39.64 61.5, 69.59 29.46, 92.72 2.52 M14.04 106.19 C39.72 71.47, 60.01 42.68, 102.92 4.84 M13.47 103.61 C36.72 76.72, 63.66 46.73, 99.02 5.03 M16.14 109.33 C50.01 68.73, 82.84 30.93, 108.12 11.82 M17.5 110.41 C36.59 90.63, 54.3 70.5, 108.7 7.18 M20.93 113.33 C57.01 80.22, 93.26 41.03, 114.32 7.98 M24.32 114.07 C44.55 93.65, 61.78 70.55, 115.23 10.56 M34 122.87 C59.99 85.68, 88.6 55.54, 123.6 12.27 M31.49 120.99 C51.45 94.77, 73.95 71.02, 123.91 15.44 M39.75 125 C70.6 84.52, 105.86 40.57, 132.13 16.09 M37.89 126.54 C78.22 85.08, 115.32 39.53, 128.56 20.19 M41.64 126.19 C78.83 88.96, 113.22 53.72, 135.24 24.7 M42.43 128.66 C81.66 87.26, 117.76 45.52, 137.12 25.24 M51.34 129.79 C79.64 106.58, 100.43 75.01, 141.82 32.55 M53.62 131.84 C87.44 93.59, 126.43 51.17, 144.36 28.98 M59.76 139.12 C78.45 112.59, 98.8 92.27, 146.7 33.49 M59.03 134.83 C85.22 108.74, 106.27 83.1, 148.81 32.49 M64.69 135.37 C99.03 106.67, 127.91 70.96, 153.02 44.07 M69.42 139.02 C88.81 115.39, 112.82 88.48, 153.5 43.46 M74.58 143.9 C99.87 111.31, 128.61 84.06, 154.54 46.41 M76.86 139.41 C93.65 119.93, 113.44 96.81, 156.7 49.6 M87.47 140.92 C111.62 106.57, 140.62 83.04, 160.79 58.65 M90.22 137.79 C105.36 116.71, 124.8 95.43, 159.59 57.62 M99.59 132.69 C118.14 117.68, 124.9 103, 155.42 77.76 M102.11 134.46 C124.71 111.79, 144.22 88.19, 156.93 74.68 M115.59 133.78 C118.36 129.1, 132.84 115.72, 155.73 88.91 M111.57 137.16 C123.51 126.53, 134.56 114.31, 155.14 90.22" stroke="#fd7e14" stroke-width="1" fill="none"></path><path d="M51.65 4.63 C61.28 0.28, 75.34 -1.69, 86.45 -0.89 C97.55 -0.09, 108.61 4.25, 118.3 9.44 C128 14.63, 137.99 21.98, 144.6 30.26 C151.21 38.54, 156.59 49.36, 157.98 59.13 C159.37 68.89, 156.29 79.7, 152.93 88.84 C149.57 97.97, 145.25 106.84, 137.83 113.93 C130.41 121.01, 118.94 127.18, 108.4 131.33 C97.85 135.48, 85.82 139.53, 74.57 138.84 C63.32 138.15, 51.2 132.72, 40.91 127.21 C30.61 121.69, 19.49 114.05, 12.79 105.76 C6.09 97.47, 2.37 87.17, 0.68 77.48 C-1.01 67.79, -0.81 56.86, 2.66 47.61 C6.13 38.36, 7.07 30.07, 21.51 21.99 C35.95 13.9, 72.66 0.49, 89.3 -0.9 C105.93 -2.29, 121.46 12.16, 121.3 13.64 M141.21 25.51 C148.82 32.27, 156.16 44.38, 158.8 54.34 C161.43 64.3, 160.49 75.24, 157.01 85.27 C153.53 95.3, 146.03 107.22, 137.9 114.55 C129.77 121.87, 118.21 125.39, 108.22 129.21 C98.23 133.03, 88.77 137.38, 77.97 137.47 C67.16 137.56, 53.92 134.62, 43.39 129.76 C32.87 124.9, 22.14 116.08, 14.82 108.33 C7.5 100.57, 1.02 92.47, -0.52 83.25 C-2.05 74.03, 2.18 62.93, 5.6 53.01 C9.03 43.1, 12.73 31.35, 20.03 23.75 C27.32 16.15, 39.24 11.53, 49.39 7.39 C59.55 3.26, 70.38 -0.67, 80.96 -1.04 C91.54 -1.4, 103.09 0.24, 112.87 5.19 C122.65 10.13, 134.57 24.79, 139.63 28.63 C144.69 32.47, 143.81 27.39, 143.23 28.22" stroke="#000000" stroke-width="2" fill="none"></path></g><g transform="translate(163.54610068712918 369.91489633990386) rotate(0 40 17.5)"><text x="40" y="25" font-family="Virgil, Segoe UI Emoji" font-size="28px" fill="#000000" text-anchor="middle" style="white-space: pre;" direction="ltr">BPMN</text></g><g stroke-linecap="round" transform="translate(380.9633596503327 151.12736508436592) rotate(0 79.03132444724451 68.54757732669168)"><path d="M9.3 34.59 C9.3 34.59, 9.3 34.59, 9.3 34.59 M9.3 34.59 C9.3 34.59, 9.3 34.59, 9.3 34.59 M6.09 53.08 C8.54 46.71, 20.08 31.57, 39.85 14.46 M0.93 52.47 C11.53 42.29, 18.51 34.34, 37.61 15.46 M1.52 68.96 C18.03 49.2, 25.04 41.22, 51.15 11.19 M3.67 64.48 C12.75 54.1, 26.14 38.33, 50.07 10.32 M8.98 77.39 C29.4 45.83, 53.82 18.1, 70.82 -0.32 M4.59 77.58 C26.45 51.58, 47.68 25.63, 67.1 0.95 M3.99 87.82 C20.93 70.03, 38.88 52.48, 76.06 7.62 M6.51 84.38 C28.4 58.51, 50.09 32.53, 79.48 5.59 M9.44 98.53 C42.67 59.21, 68.34 24.87, 86.42 7.52 M9.44 95.97 C29.03 72.41, 51.93 49.73, 87.22 4.88 M14.48 106.46 C41.77 63.18, 75.15 31.16, 97.29 5.56 M11.9 102.21 C42.6 71.24, 70.1 38.6, 97.48 7.16 M16.34 109.72 C44.5 75.16, 75.59 41.41, 109.28 4.88 M17.43 110.61 C46.97 78.63, 76.14 47.65, 104.65 10.19 M19.82 116.59 C59.71 82.03, 93.26 40.6, 111.22 7.95 M20.56 117.85 C47.92 86.5, 72.78 56.61, 113.8 11.94 M30.25 122.7 C53.26 90.49, 83.08 60.59, 119.12 12.45 M28.37 123.32 C57.92 88.45, 89.92 50.53, 122.29 16.94 M34.48 124.13 C56.98 96.92, 76.24 74.82, 125.8 23.15 M36.02 128.73 C56.65 106.21, 73.08 80.58, 129.9 20.58 M38.52 130.33 C65.02 103.8, 93.42 75.1, 137.17 25.79 M41 131.39 C65.2 105.03, 89.38 77.03, 137.71 21.43 M47.14 137.69 C81.42 100.77, 107.14 64.91, 145.26 32.73 M49.2 132.3 C76.17 106.73, 98.9 79.14, 141.68 27.32 M60.85 135.21 C79.7 109.71, 104.96 82.68, 146.33 33 M56.55 138.19 C74.45 116.8, 92.98 96.23, 145.32 35.83 M64.08 141.31 C100.38 106.45, 129.59 68.2, 153.36 39.72 M67.73 136.81 C90.13 113.8, 109.23 88.68, 152.75 42.17 M80.35 136.32 C102.55 111.3, 130.11 80.44, 153.57 45.51 M75.87 137.81 C110.13 102.2, 140.74 67.57, 156.76 48.97 M90.41 136.98 C109.92 112.92, 140.39 84.88, 158.13 55.82 M87.27 137.77 C111.01 111.41, 134.52 84.68, 157.11 56.15 M93.89 145.4 C118.68 111.32, 144.08 83.19, 164.29 71.04 M95.66 141.47 C111.31 124.37, 126.15 110.31, 161.21 65.34 M111.45 131.07 C132 119.02, 143.55 100.61, 162.48 74.91 M114.83 134.46 C130.59 119.48, 144.61 102.88, 163.79 76.83" stroke="#228be6" stroke-width="1" fill="none"></path><path d="M132.26 18.83 C141.09 24.12, 146.92 33.16, 151.19 42.18 C155.47 51.2, 158.49 62.84, 157.93 72.97 C157.37 83.1, 153.38 94.56, 147.81 102.96 C142.25 111.35, 133.98 117.58, 124.55 123.33 C115.12 129.08, 102.85 135.46, 91.24 137.44 C79.63 139.42, 66.01 137.93, 54.91 135.22 C43.82 132.52, 32.53 127.74, 24.67 121.22 C16.8 114.69, 11.89 105.69, 7.73 96.06 C3.56 86.43, -0.55 73.67, -0.31 63.45 C-0.07 53.23, 3.62 43.43, 9.17 34.74 C14.73 26.05, 23.53 16.93, 33.03 11.29 C42.53 5.66, 54.68 2.05, 66.17 0.93 C77.66 -0.19, 88.86 -0.58, 101.97 4.59 C115.07 9.75, 136.04 24.08, 144.81 31.9 C153.58 39.72, 155.35 50.54, 154.59 51.52 M102.46 5.85 C112.91 8.42, 124.89 14.95, 133.25 21.37 C141.6 27.79, 148.29 35.72, 152.58 44.36 C156.88 53, 160.43 62.9, 159.02 73.23 C157.6 83.57, 150.29 97.34, 144.1 106.38 C137.92 115.43, 131.11 122.58, 121.91 127.5 C112.71 132.42, 100.5 135.23, 88.91 135.89 C77.32 136.55, 62.95 134.06, 52.35 131.46 C41.75 128.86, 32.93 126.75, 25.31 120.27 C17.7 113.8, 10.84 102.07, 6.67 92.6 C2.49 83.12, -0.89 73.58, 0.25 63.41 C1.38 53.24, 7.6 40.85, 13.47 31.58 C19.34 22.31, 26.57 13.46, 35.49 7.79 C44.41 2.12, 55.33 -2.06, 67.01 -2.42 C78.69 -2.77, 99.43 4.46, 105.57 5.68 C111.71 6.91, 104.11 4.19, 103.83 4.94" stroke="#000000" stroke-width="2" fill="none"></path></g><g transform="translate(396.4946840975772 207.1749424110576) rotate(0 63.5 12.5)"><text x="63.5" y="18" font-family="Virgil, Segoe UI Emoji" font-size="20px" fill="#000000" text-anchor="middle" style="white-space: pre;" direction="ltr">TEMPLATES</text></g><g stroke-linecap="round" transform="translate(305.1578035478715 310.8028981512475) rotate(0 79.03132444724451 68.54757732669168)"><path d="M14.51 29.83 C14.51 29.83, 14.51 29.83, 14.51 29.83 M14.51 29.83 C14.51 29.83, 14.51 29.83, 14.51 29.83 M1.73 52.66 C15.01 43.52, 19.62 33.94, 41.07 9.16 M1.12 55.67 C13.93 39.76, 28.97 27.02, 42.06 9.54 M8.33 68.21 C15.69 47.8, 35.02 31.22, 56.27 4.71 M3.85 62.76 C22.45 46.13, 35.75 26.56, 55.4 8.72 M7.77 76.53 C26.61 49.52, 49.28 24.62, 68.88 1.55 M7.96 77.37 C31.78 48.29, 55.78 15.32, 70.14 -1.41 M6.69 87.59 C23.92 71.96, 41.12 50.3, 84.66 2.24 M3.25 89.85 C27.31 62.01, 51.45 35.89, 82.62 3.52 M11.49 98.66 C26.03 72.34, 45.25 53.07, 93.81 1.18 M8.94 95.25 C31.03 71.9, 53.96 46.55, 91.17 4.23 M16.64 100.85 C42.67 64.36, 80 29.89, 100.45 5.18 M12.39 104.48 C36.25 78.72, 58.45 52.17, 102.05 4.94 M17.87 107.56 C50.9 71.63, 84.53 40.85, 105.45 7.04 M18.76 111.34 C46.44 81.34, 74.9 47.46, 110.76 7.47 M22.71 119.4 C46.48 98.07, 63.09 70.2, 112.23 10.12 M23.96 117.96 C56.64 79.25, 90.7 40.73, 116.21 10.42 M30.16 118.09 C49.58 95.77, 71.47 69.28, 120.33 16.03 M30.78 119.26 C60.11 86.98, 86.38 57.73, 124.82 13.37 M35.2 125.07 C69 81.69, 108.04 42.47, 134.65 14.45 M39.8 126.17 C64.19 93.84, 85.5 68.13, 132.08 17.33 M44.36 126.91 C71.61 103.25, 96.53 72.39, 141.65 20.31 M45.41 129.53 C84.45 87.89, 121.59 46.36, 137.3 22.42 M56.08 132.86 C74.23 106.3, 93.37 90.04, 145.91 27.9 M50.69 134.29 C77.1 105.71, 101.66 77.27, 140.5 28.58 M59.18 134.76 C91.52 99.56, 122.32 60.25, 144.89 32.44 M62.16 133.92 C92.68 99.71, 123.91 63.27, 147.72 37.66 M74.54 135.71 C97.09 110.58, 116.11 89.61, 148.93 42.01 M70.03 135.65 C94.73 106.67, 117.38 83.52, 151.38 44.01 M78.14 136.66 C105.73 110.86, 127.38 77.59, 154.1 53.43 M79.64 137.63 C101.77 113.18, 124.89 87.36, 157.56 50.76 M87.4 135.75 C115.77 113.21, 140.05 82.56, 156.73 61.12 M88.19 136.87 C109.72 113.36, 130.87 90.62, 157.06 61.43 M106.19 133.21 C122.44 109.74, 144.63 92.09, 163.62 66.96 M102.26 136.63 C120.54 115.78, 141.86 93.13, 157.92 70.19 M112.7 134.79 C128.18 120.05, 137.34 109.64, 160.47 78.91 M116.08 134.45 C129.93 119.49, 142.09 105.51, 162.4 79.14" stroke="#e64980" stroke-width="1" fill="none"></path><path d="M39.48 8.59 C47.9 2.88, 60.03 1.02, 71.24 0.31 C82.46 -0.4, 95.83 0.78, 106.77 4.32 C117.7 7.85, 129.21 14.4, 136.87 21.52 C144.53 28.63, 149.11 37.9, 152.72 47.01 C156.34 56.12, 159.69 66.48, 158.57 76.16 C157.44 85.85, 152.14 96.25, 145.97 105.11 C139.8 113.98, 131.21 124.15, 121.54 129.36 C111.87 134.56, 99.79 135.95, 87.97 136.34 C76.15 136.73, 61.65 135.24, 50.62 131.7 C39.59 128.16, 29.75 122.13, 21.79 115.09 C13.83 108.04, 6.37 98.66, 2.87 89.44 C-0.63 80.22, -1.22 69.74, 0.77 59.75 C2.76 49.76, 2.79 39.23, 14.8 29.49 C26.82 19.76, 56.95 5.03, 72.87 1.33 C88.79 -2.37, 109.85 6.24, 110.32 7.3 M78.02 -1.26 C89.3 -2.45, 102.11 0.37, 112.05 4.77 C121.99 9.16, 130.87 17.81, 137.66 25.1 C144.44 32.39, 149.29 39.12, 152.75 48.53 C156.22 57.94, 159.93 71.35, 158.45 81.54 C156.97 91.72, 151.05 101.9, 143.88 109.65 C136.71 117.4, 126.02 123.16, 115.42 128.03 C104.81 132.9, 91.07 137.94, 80.26 138.86 C69.45 139.77, 60.57 137.79, 50.57 133.51 C40.57 129.24, 27.88 120.77, 20.27 113.2 C12.65 105.63, 8.16 97.79, 4.86 88.08 C1.57 78.36, -0.77 65.36, 0.48 54.9 C1.74 44.43, 5.95 32.96, 12.38 25.29 C18.8 17.63, 28.12 13.19, 39.03 8.93 C49.94 4.67, 71.71 0.68, 77.85 -0.27 C83.99 -1.21, 76.15 2.54, 75.87 3.25" stroke="#000000" stroke-width="2" fill="none"></path></g><g transform="translate(371.689127995116 361.8504754779392) rotate(0 12.5 17.5)"><text x="12.5" y="25" font-family="Virgil, Segoe UI Emoji" font-size="28px" fill="#000000" text-anchor="middle" style="white-space: pre;" direction="ltr">...</text></g><g stroke-linecap="round" transform="translate(748.7009509558775 10.000000000000455) rotate(0 294.35136146167633 240.31974168651936)"><path d="M58.13 96.9 C58.13 96.9, 58.13 96.9, 58.13 96.9 M58.13 96.9 C58.13 96.9, 58.13 96.9, 58.13 96.9 M22.49 150.19 C44.83 122.13, 67.12 97.99, 96.6 66.92 M26.43 147.41 C45.76 124.1, 63.57 100.62, 92.11 70.21 M14.99 168.65 C51.07 126.61, 86.72 81.65, 113.57 63.37 M16.45 169.03 C36.27 147.95, 58.18 123.01, 112.13 59.87 M8.39 187.6 C45.01 152.65, 74.21 122.02, 130.21 47.65 M10.13 191.5 C46.68 149.24, 83.34 103.75, 133.73 47.19 M11.67 202.34 C43.72 160.34, 77.37 125.86, 166.2 23.76 M9.9 201.71 C57.72 144.14, 108.02 91.09, 162.06 25.45 M11.64 214.38 C56.91 158.09, 107.96 97.2, 175.47 18.28 M8.49 214.64 C59.98 156.36, 108.17 97.22, 178.67 18.17 M9.94 229.39 C71.84 148.69, 137.6 71.68, 189.38 16.61 M8.43 227.71 C78.44 145.81, 149.81 63.44, 192.13 16.45 M9.53 238.36 C64.38 173.53, 123.34 106.37, 209.47 10.56 M7.78 241.04 C44.3 194.93, 86.79 147.2, 206.92 11.81 M1.66 258.32 C70.02 176.87, 137.93 100.3, 219.12 8.81 M3.94 256.7 C54.14 200.68, 103.69 145.42, 221.17 5.57 M5.24 267.58 C54.12 213.92, 100.4 165.43, 229.86 8.74 M7.3 267.23 C88.81 166.9, 172.76 70.85, 229.72 10.05 M7.52 277.24 C55.46 218.85, 104.96 162.7, 240.14 7.03 M9.1 277.01 C60.58 211.02, 114.24 149.35, 242.96 7.1 M11.85 286.64 C76.69 211.85, 136.87 143.26, 255.03 7.43 M10.32 286.39 C63.34 219.88, 117.46 158.34, 253.68 6.66 M12.49 295.88 C75.51 225.74, 130.35 160.95, 263.41 6.57 M13.2 294.8 C104.88 186.16, 200.76 76.5, 264.02 5.66 M14.45 306.33 C70.04 245.35, 122.95 180.87, 276.32 2.93 M14.44 304.17 C112.25 190.27, 210.93 78.1, 274.94 6.13 M20.47 315.1 C124.51 196.6, 228.57 77.41, 289.77 4.15 M18.51 312.26 C92.98 230.32, 162.55 147.76, 286.61 4.58 M20.65 319.66 C92.83 241.64, 159.51 161.52, 301.31 0.13 M21.56 321.74 C110.55 214.76, 201.44 109.37, 298.87 2.94 M26.18 327.52 C111.68 232.12, 197.14 131.62, 310.39 3.36 M25.3 327.83 C86.55 260.57, 147.8 189.94, 310.2 2.21 M32.09 334.4 C112.91 237.28, 203.04 135.72, 317.83 2.04 M30.2 337.2 C141.39 210.18, 251.94 83.98, 319.08 4.11 M35.68 345.4 C123.11 240.72, 210.4 140.84, 328.92 4.68 M33.75 344.34 C99.28 269.08, 163.09 195.69, 329.34 4 M39.54 352.67 C134.48 241.68, 233.7 130.99, 337.64 4.31 M38.13 351.98 C134.83 242.26, 229.26 133.26, 339.3 5.06 M39.99 359.76 C113.48 272.08, 191.1 187.27, 349.74 7.06 M40 360.71 C159.81 227.87, 276.5 93.68, 349.67 5.56 M45.54 366.38 C113.85 293.14, 180.63 215.43, 358.77 8.21 M45.46 366.49 C139.03 260.3, 232.63 153.45, 357.96 6.7 M51.7 374.05 C158.81 249.21, 265.89 128.94, 366.53 9.78 M51.63 372.55 C133.1 276.38, 214.07 182.83, 367.62 9.71 M58.52 379.67 C153.93 266.98, 252.36 151.57, 377.67 11.11 M57.07 379.12 C183.71 230.17, 311.03 84.24, 375.64 11.65 M64.16 383.37 C168.34 266.73, 271.59 145.11, 382.45 14.3 M63.43 383.94 C175.26 253.65, 287.06 125.37, 384.6 14.4 M69.47 390.61 C158.02 289.89, 246.11 187.81, 393.51 18.16 M68.38 389.86 C152.86 290.76, 237.34 193.59, 392.97 16.24 M74.4 397.02 C157.99 294.32, 242.21 195.58, 402.22 19.77 M73.24 397.16 C197.51 253.67, 321.13 111.3, 402.22 18.32 M79.28 401.31 C148.91 319.93, 219.14 236.8, 409.85 20.55 M79.38 401.8 C155.24 312.42, 230.71 224.94, 408.94 21.96 M84.48 409.19 C212.48 260.66, 343.93 109.75, 416.78 23.91 M84.24 407 C159.59 323.25, 232.17 239.33, 417.41 23.53 M93.03 412.63 C221.36 264.83, 347.93 119.5, 428.72 24.09 M92.11 412.19 C170.69 323.27, 248.16 235.49, 427.4 24.98 M96.2 418.03 C171.49 334.48, 245.55 248.6, 434.15 30.08 M97.54 418.14 C225.82 267.51, 355.82 117.44, 435.95 29.07 M103.65 422.59 C180.97 330.26, 258.87 241.54, 442.7 32.83 M104.53 421.16 C198.64 315.41, 291.05 207.88, 441.51 33.24 M112.34 427.75 C198.96 321.79, 292.57 215, 450.44 35.43 M110.86 425.87 C218.18 299.17, 327.46 174.07, 449.48 37.49 M116.15 429.95 C251.78 276.73, 383.18 122.43, 456.8 40.26 M117.93 431.35 C246.95 283.94, 375.8 135.88, 456.54 40.6 M122.86 436.66 C234.53 308.59, 342.99 180.99, 464 43.79 M123.16 435.34 C230.42 313.46, 338.19 188.8, 463.12 44.58 M131.8 441.13 C236.29 321.1, 338.77 201.84, 471.69 48.78 M129.89 441.17 C210.86 349.33, 290.08 257.96, 470.66 48.77 M138.56 444.65 C260.49 299.58, 385.99 155.73, 476.15 53.75 M137.1 445.81 C204.83 367.19, 273.83 288.26, 477.84 53.8 M146.01 448.99 C267.45 305.91, 389.55 162.87, 484.24 58.3 M145.84 448.43 C255.21 324.96, 365.46 197.42, 484.34 56.72 M152.32 450.63 C242.85 347.47, 331.98 245.55, 492.14 63.62 M153.09 450.46 C233.05 358.27, 315.88 263.51, 490.6 62.88 M161.96 455.55 C289.3 305.05, 418.24 156.95, 497.33 66.72 M161.41 454.58 C233.38 370.16, 306.96 285.08, 496.47 68.34 M170.66 456.94 C258.48 353.29, 350.2 253.15, 504.28 72.27 M169.64 457.72 C251.31 365.08, 333.41 271.2, 502.27 73.46 M175.6 460.93 C282.36 338.61, 388.99 216.71, 509.44 76.05 M177.04 459.4 C274.3 348.21, 370.65 236.58, 509.25 76.96 M184.13 462.72 C283.31 344.06, 384.81 228.37, 515.3 84.15 M184.95 462.87 C266.95 366.7, 349.92 270.01, 516.23 82.48 M193.3 464.44 C311.63 329.36, 431.94 190.82, 520.55 87.78 M194.12 464.31 C319.74 317.56, 445.92 173.39, 522.02 87.15 M203.52 466.18 C303.44 350.72, 403.2 234.99, 527.71 92.02 M203.5 467.26 C283.15 375.33, 363.39 282.8, 528.47 92.96 M212.29 468.97 C291.65 380.58, 371.1 286.95, 533.21 97.7 M212.1 469.72 C321.46 344.42, 431.27 217.58, 533.14 99.15 M220.18 469.83 C310.51 368.78, 398.24 264.01, 539.74 106.23 M221.31 469.82 C303.73 378.25, 381.8 286.3, 538.69 105.52 M229.89 474.23 C337.67 352.13, 442.18 230.85, 542.54 113.38 M228.94 471.9 C321.32 366.55, 412.37 262.98, 543.73 112.43 M238.94 476.32 C306.2 397.65, 377.62 316.64, 545.8 117.94 M238.38 474.86 C312.26 392.28, 383.55 310.79, 547.31 119.8 M248.53 474.95 C345.52 366.08, 441.4 252.43, 552.21 126.68 M247.09 476.15 C353.16 353.43, 460.91 230.22, 551.41 125.34 M257.15 478.59 C318.33 406.03, 383.25 330.36, 555.53 133.98 M257.13 478.97 C373.89 346.96, 488.9 216.09, 556.27 133.24 M263.95 484.12 C367.11 361.52, 470.26 242.58, 559.88 139.12 M264.29 482.39 C361.85 367.49, 461.88 251.71, 560.57 140.26 M276.06 480.3 C370.31 375.14, 461.36 268.57, 563.35 149.48 M273.68 482.94 C344.98 398.3, 415.92 314.84, 565.58 147.54 M284.46 482.92 C372.04 391.94, 451.66 296.85, 569.52 154.66 M284.25 482.44 C353.03 407.28, 418.98 331.62, 568.74 155.7 M293.68 480.91 C373.38 388.27, 454.37 295.52, 570.88 162.7 M296.1 482.41 C351.46 417.12, 410.47 350.15, 571.24 164.01 M308.74 479.31 C374.61 404.57, 438.86 326.75, 574.03 173.23 M306.49 481.57 C395.74 375.79, 485.52 269.84, 574.41 172.02 M317.39 480.56 C383.32 403.09, 457.1 320.27, 576.11 180.47 M318.08 482.35 C417.39 369.55, 516.8 255.4, 578.83 182.29 M330.7 478.49 C396.85 400.95, 464.14 318.75, 583.14 190.64 M329.65 481.61 C406.99 384.44, 487.92 290.24, 582.29 189.89 M343.64 477.71 C413.05 398.68, 482.01 322.25, 583.93 199.91 M342.14 477.39 C419.62 388.37, 497.96 298.75, 583.68 198.82 M354.49 475 C411.17 413.33, 466.63 349, 590.97 204.86 M354 474.17 C435.83 378.46, 515.93 286.09, 590.85 204.4 M366.74 472.6 C443.19 388.55, 517.23 302.98, 592.18 216.24 M366.16 474.16 C441.43 390.44, 512.74 309.38, 590.96 216.21 M381.04 468.34 C455.51 377.34, 534.15 292.85, 593.15 229.2 M379.49 471.67 C457.44 380.68, 534.51 289.24, 592.6 227.22 M394.4 467.81 C452.4 400.13, 518.36 328.19, 592.54 241.05 M393.4 469.03 C460.26 391.07, 525.13 315.49, 593.71 237.44 M399.82 469.82 C453.53 405.96, 509.91 338.61, 585.76 253.83 M400.49 468.61 C442.66 422.1, 484.3 372.51, 589.35 253.43 M420.74 465.66 C469.78 399.12, 526.99 339.05, 586.75 271.43 M419.02 462.95 C452.82 422.41, 487.74 381.55, 584.5 270.21 M432.49 457.15 C471.48 422.01, 499.59 380.05, 581.68 288.01 M433.97 456.01 C483.68 394.06, 535.46 334.79, 581.26 288.6 M458.48 438.51 C496.21 397.87, 533.16 352.95, 575.91 302.49 M456.35 440.36 C489.62 405.79, 525.89 366.42, 580.35 302.19 M484.17 418.74 C520.1 380, 563.02 337.24, 583.46 316.74 M485.8 421.82 C511.93 392.15, 537.85 361.62, 579.27 313.33 M510.67 408.07 C526.5 391.79, 540.09 372.32, 562.44 340.48 M511.46 405.27 C530.08 381.18, 553.15 357.29, 563.35 344.83" stroke="#868e96" stroke-width="1" fill="none"></path><path d="M482.66 55.39 C502.31 63.76, 517.92 80.65, 531.5 95.9 C545.07 111.15, 555.24 129.56, 564.11 146.9 C572.98 164.24, 580.65 181.98, 584.7 199.96 C588.75 217.94, 589.72 236.29, 588.39 254.78 C587.07 273.26, 582.95 293.12, 576.74 310.88 C570.54 328.64, 562.57 345.73, 551.17 361.34 C539.78 376.94, 523.96 391.11, 508.38 404.51 C492.81 417.91, 476.37 431.65, 457.71 441.74 C439.05 451.83, 418.2 458.88, 396.43 465.05 C374.65 471.23, 349.7 476.42, 327.07 478.81 C304.44 481.19, 282.84 481.72, 260.65 479.36 C238.46 477, 215.27 470.91, 193.94 464.64 C172.61 458.37, 151.53 451.77, 132.68 441.73 C113.83 431.69, 96.31 417.92, 80.84 404.37 C65.38 390.83, 51.02 376.28, 39.89 360.48 C28.75 344.69, 20.41 327.29, 14.03 309.59 C7.65 291.88, 3.22 272.93, 1.6 254.25 C-0.01 235.58, 0.81 215.52, 4.36 197.53 C7.91 179.55, 13.95 163.12, 22.92 146.33 C31.89 129.55, 44.2 111.57, 58.2 96.83 C72.19 82.08, 89.42 69.94, 106.9 57.87 C124.38 45.8, 143.28 33.23, 163.08 24.4 C182.87 15.58, 203.49 9.17, 225.67 4.93 C247.84 0.68, 273.4 -0.98, 296.13 -1.06 C318.85 -1.13, 340.27 0.36, 362.04 4.48 C383.81 8.59, 396.97 6.22, 426.76 23.62 C456.56 41.02, 517.27 84.79, 540.8 108.87 C564.33 132.95, 572.03 166.01, 567.93 168.08 M242.65 5.11 C262.6 -1.17, 283.53 1.2, 306.28 1.99 C329.04 2.79, 356.75 4.59, 379.19 9.86 C401.63 15.14, 421.37 24.32, 440.94 33.64 C460.5 42.96, 480.54 53.13, 496.57 65.77 C512.6 78.41, 525.02 94.28, 537.12 109.49 C549.22 124.7, 560.81 139.79, 569.16 157.02 C577.51 174.26, 584.53 194.7, 587.21 212.91 C589.89 231.12, 587.94 248.4, 585.23 266.27 C582.52 284.14, 578.28 302.89, 570.97 320.13 C563.65 337.38, 553.72 354.13, 541.34 369.76 C528.96 385.4, 512.57 401.36, 496.71 413.96 C480.84 426.56, 465.65 436.39, 446.14 445.36 C426.62 454.32, 401.43 461.92, 379.62 467.72 C357.81 473.53, 337.3 478.74, 315.27 480.21 C293.25 481.68, 269.68 480.04, 247.46 476.55 C225.25 473.06, 203.2 466.56, 182 459.28 C160.8 452, 138.86 443.78, 120.25 432.87 C101.63 421.96, 85.15 408, 70.29 393.81 C55.43 379.62, 41.19 363.47, 31.11 347.75 C21.02 332.02, 15.01 317.43, 9.77 299.47 C4.52 281.51, -0.34 259.14, -0.34 239.97 C-0.35 220.79, 4.54 201.88, 9.76 184.42 C14.98 166.96, 21.69 150.96, 30.98 135.2 C40.27 119.44, 51.13 104.7, 65.49 89.85 C79.86 75.01, 99.25 57.44, 117.17 46.13 C135.09 34.81, 152.27 28.55, 173.02 21.96 C193.77 15.36, 229.88 9.07, 241.69 6.55 C253.49 4.04, 243.44 3.2, 243.84 6.89" stroke="#000000" stroke-width="2" fill="none"></path></g><g stroke-linecap="round"><g transform="translate(574.509460337461 274.5130042724113) rotate(0 86.57790623858091 -2.4074321861298813)"><path d="M-0.38 -1.37 C28.86 -2.46, 147.77 -7.66, 177.19 -8.87 M-4.03 4.06 C24.66 3.45, 145.22 -4.77, 174.83 -6.55" stroke="#000000" stroke-width="2" fill="none"></path></g><g transform="translate(574.509460337461 274.5130042724113) rotate(0 86.57790623858091 -2.4074321861298813)"><path d="M145.39 5.16 C154.04 -0.63, 164.37 -1.52, 177.07 -7.03 M147.89 6.05 C152 4.92, 159.57 -1.1, 173.24 -5.58" stroke="#000000" stroke-width="2" fill="none"></path></g><g transform="translate(574.509460337461 274.5130042724113) rotate(0 86.57790623858091 -2.4074321861298813)"><path d="M144.08 -15.32 C152.86 -13.69, 163.66 -7.17, 177.07 -7.03 M146.58 -14.43 C151.3 -11.07, 159.16 -12.62, 173.24 -5.58" stroke="#000000" stroke-width="2" fill="none"></path></g></g><mask></mask><g transform="translate(848.6997696442286 234.43262585891216) rotate(0 201.5 22.5)"><text x="0" y="32" font-family="Virgil, Segoe UI Emoji" font-size="36px" fill="#000000" text-anchor="start" style="white-space: pre;" direction="ltr">Production Environment</text></g></svg>