<svg version="1.1" xmlns="http://www.w3.org/2000/svg" viewBox="0 0 1266.5457797081745 946.604093928157" width="1266.5457797081745" height="946.604093928157">
  <!-- svg-source:excalidraw -->
  
  <defs>
    <style class="style-fonts">
      @font-face {
        font-family: "Virgil";
        src: url("https://excalidraw.com/Virgil.woff2");
      }
      @font-face {
        font-family: "Cascadia";
        src: url("https://excalidraw.com/Cascadia.woff2");
      }
    </style>
  </defs>
  <rect x="0" y="0" width="1266.5457797081745" height="946.604093928157" fill="#ffffff"></rect><g stroke-linecap="round" transform="translate(445.51784306124864 266.76046371577513) rotate(0 177.5 178.5)"><path d="M196.39 0.34 C212.38 -1.04, 229.81 6.16, 245.13 12.51 C260.45 18.85, 275.38 28.02, 288.3 38.41 C301.22 48.81, 313.16 61.1, 322.65 74.89 C332.14 88.67, 339.99 104.95, 345.24 121.13 C350.5 137.32, 353.36 155.13, 354.2 171.99 C355.03 188.85, 354.07 206.25, 350.26 222.27 C346.46 238.29, 339.75 253.6, 331.39 268.1 C323.04 282.61, 312.37 297.87, 300.13 309.31 C287.9 320.75, 272.9 329.2, 258 336.74 C243.11 344.29, 226.99 351.44, 210.74 354.57 C194.49 357.7, 177.12 357.44, 160.5 355.51 C143.88 353.57, 126.47 349.2, 111.01 342.95 C95.54 336.7, 80.73 328.26, 67.71 318.02 C54.69 307.78, 42.53 295.05, 32.9 281.52 C23.27 267.98, 15.34 252.79, 9.93 236.78 C4.51 220.78, 1.3 202.56, 0.4 185.49 C-0.49 168.43, 0.52 150.47, 4.56 134.38 C8.59 118.28, 16.15 103.31, 24.61 88.93 C33.07 74.56, 43.17 59.6, 55.32 48.13 C67.47 36.66, 82.6 27.63, 97.53 20.11 C112.45 12.59, 126.47 5.95, 144.86 3 C163.25 0.05, 195.43 1.36, 207.89 2.42 C220.35 3.47, 220.24 6.22, 219.62 9.34" stroke="#000000" stroke-width="4.5" fill="none" stroke-dasharray="1.5 10"></path></g><g stroke-linecap="round"><g transform="translate(160.80317594878034 474.5869190233293) rotate(0 12.468582604465155 -35.831979031154106)" fill-rule="evenodd"><path d="M-30.63 -46.5 C-30.63 -46.5, -30.63 -46.5, -30.63 -46.5 M-30.63 -46.5 C-30.63 -46.5, -30.63 -46.5, -30.63 -46.5 M-17.96 -38.37 C-14.21 -39.69, -11.94 -43.99, -9.6 -45.53 M-16.85 -38.01 C-13.74 -41.2, -11.73 -44.13, -9.86 -47.05 M6.42 -65.16 C13.7 -70.72, 20.02 -83.16, 25.36 -86 M6.09 -64.9 C13.31 -72.98, 20.49 -79.97, 24.06 -86.57 M2.17 -34.69 C10.96 -46.99, 21.3 -54.67, 37.73 -76.81 M2.33 -34.41 C10.66 -43.63, 18.63 -53.14, 36.54 -74.64 M12.08 -23.26 C17.82 -28.31, 21.22 -34.29, 37.47 -49.32 M12.18 -22.09 C18.17 -29.82, 23.1 -35.87, 36.35 -48.83 M0.56 12.7 C12.45 2.75, 20.15 -7.92, 37.66 -25.68 M1.21 14.14 C13.19 2.03, 24.44 -11.52, 36.67 -24.8 M26.15 9.92 C31.27 1.54, 37.17 -4.79, 43.62 -8.7 M26.98 8.44 C34.1 1.27, 38.77 -5.52, 42.59 -9.23 M40.56 18.27 C41.23 15.04, 43.8 11.1, 49.8 6.92 M40.65 18.91 C42.21 14.81, 46.87 12.04, 51.28 6.12 M6.36 18.59 C6.36 18.59, 6.36 18.59, 6.36 18.59 M6.36 18.59 C6.36 18.59, 6.36 18.59, 6.36 18.59 M18.24 8.36 C13.48 4.66, 11.96 3.43, 5.63 -4 M18.24 7.85 C14.13 2.96, 7.28 -1.01, 3.51 -3.71 M47.39 10.92 C35.29 3.95, 27.97 -5.88, 10.13 -18.19 M47.81 13.8 C40.29 4.91, 31.54 -2.07, 10.87 -20.83 M-20.22 -45.96 C-22.58 -48.31, -24.13 -51.2, -26.3 -52.84 M-19.53 -45.82 C-21.56 -47.84, -23.31 -49.78, -26.27 -52.31 M37.63 -16.31 C23.39 -30.8, 11.15 -40.89, -14.39 -64.36 M37.52 -19.17 C17.16 -36.57, -3.02 -54.05, -15.78 -63.16 M37.08 -40.02 C26.73 -46.57, 16.63 -55.69, -0.95 -69.71 M37.66 -37.45 C23.74 -50.43, 8.41 -64.35, -0.17 -71.39 M53.3 -47.79 C45.5 -54.68, 40.66 -58.68, 33.71 -63.67 M52.17 -47.39 C46.05 -54.14, 37.27 -59.11, 34.49 -62.83 M35.28 -64.99 C25.3 -70.33, 15.85 -79.7, 7.66 -86.18 M33.99 -63.85 C26.57 -70.28, 17.59 -77.31, 7.98 -86.74" stroke="#0d47a1" stroke-width="2" fill="none"></path><path d="M-0.4 0.17 C-0.73 2.16, -2.83 9.66, -1.45 12.52 C-0.07 15.38, 3.66 18.27, 7.88 17.33 C12.1 16.39, 18.92 6.93, 23.86 6.87 C28.8 6.8, 33.31 16.05, 37.5 16.95 C41.69 17.85, 46.9 15.82, 49 12.27 C51.11 8.72, 52.44 0.51, 50.14 -4.35 C47.83 -9.2, 37.26 -11.46, 35.2 -16.86 C33.13 -22.26, 35.63 -32.26, 37.76 -36.76 C39.88 -41.26, 45.13 -41.2, 47.94 -43.87 C50.76 -46.54, 54.87 -50.16, 54.65 -52.78 C54.42 -55.41, 51.15 -59, 46.61 -59.62 C42.07 -60.25, 29.57 -55.43, 27.4 -56.55 C25.24 -57.66, 32.3 -63.03, 33.61 -66.33 C34.93 -69.63, 36.35 -73.3, 35.29 -76.33 C34.23 -79.37, 30.6 -82.28, 27.25 -84.53 C23.91 -86.77, 19.27 -90.24, 15.22 -89.79 C11.17 -89.34, 5.29 -84.71, 2.95 -81.81 C0.61 -78.91, 0.87 -75.85, 1.19 -72.39 C1.5 -68.93, 3.55 -63.86, 4.83 -61.03 C6.11 -58.19, 12.39 -56, 8.88 -55.4 C5.36 -54.8, -10.5 -57.79, -16.27 -57.43 C-22.03 -57.06, -23.64 -55.48, -25.72 -53.23 C-27.8 -50.99, -33.39 -47.02, -28.76 -43.96 C-24.12 -40.89, -4.27 -39.18, 2.1 -34.83 C8.47 -30.47, 9.67 -23.49, 9.48 -17.84 C9.3 -12.19, 2.6 -3.97, 0.99 -0.93 M1.59 -0.78 C1.59 0.81, -0.61 7.62, 0.82 10.76 C2.25 13.89, 6.26 19.02, 10.17 18.05 C14.09 17.07, 19.98 4.99, 24.31 4.92 C28.65 4.84, 32.38 16.59, 36.2 17.6 C40.01 18.61, 44.74 14.32, 47.21 10.97 C49.68 7.61, 53.22 2.15, 51.01 -2.53 C48.8 -7.21, 36.35 -11.76, 33.95 -17.13 C31.56 -22.5, 34.26 -30.71, 36.64 -34.73 C39.02 -38.76, 45.09 -38.45, 48.23 -41.29 C51.37 -44.12, 55.42 -48.68, 55.48 -51.75 C55.55 -54.83, 53.3 -58.84, 48.62 -59.74 C43.95 -60.64, 30.06 -55.98, 27.43 -57.16 C24.8 -58.34, 31.46 -63.56, 32.87 -66.81 C34.28 -70.06, 36.73 -73.39, 35.89 -76.65 C35.05 -79.9, 31.41 -84.23, 27.81 -86.35 C24.22 -88.47, 18.1 -90.2, 14.32 -89.37 C10.53 -88.53, 7.42 -84.14, 5.1 -81.35 C2.79 -78.57, 0.47 -75.81, 0.42 -72.67 C0.38 -69.53, 3.07 -65.22, 4.82 -62.52 C6.57 -59.82, 14.9 -57.1, 10.93 -56.49 C6.96 -55.87, -12.91 -59.17, -19.02 -58.81 C-25.13 -58.46, -24.37 -56.73, -25.72 -54.36 C-27.07 -51.99, -31.52 -47.86, -27.12 -44.58 C-22.72 -41.31, -5.63 -39.17, 0.69 -34.7 C7.01 -30.22, 11.04 -23.8, 10.81 -17.72 C10.58 -11.63, 0.93 -0.99, -0.69 1.8" stroke="#000000" stroke-width="4" fill="none"></path></g></g><mask></mask><g stroke-linecap="round"><g transform="translate(273.67884211659657 474.2990023530242) rotate(0 10.580273149293134 -35.18297319635667)" fill-rule="evenodd"><path d="M-30.63 -46.5 C-30.63 -46.5, -30.63 -46.5, -30.63 -46.5 M-30.63 -46.5 C-30.63 -46.5, -30.63 -46.5, -30.63 -46.5 M-17.51 -37.54 C-14.46 -41.13, -12.69 -44.57, -9.51 -46.39 M-17.36 -37.46 C-15.09 -39.92, -13.5 -41.39, -9.2 -47.13 M5.79 -62 C11.61 -70.76, 13.61 -74.59, 24.59 -87.6 M5.55 -63.75 C11.6 -69.95, 17.01 -76.47, 23.99 -86.67 M-0.2 -32.86 C11.98 -44.99, 20.1 -55.15, 37.46 -75.01 M2.14 -34.56 C13.87 -48.72, 25.37 -63.38, 36.78 -74.67 M13.1 -21.66 C18.91 -31.92, 27.77 -39.86, 34.82 -51.52 M12.83 -23.14 C18.49 -30.02, 25.01 -36.92, 36.22 -49.71 M2.3 11.71 C12.24 -0.14, 27.45 -16.49, 34.13 -23.94 M2.81 13.86 C13.32 0.49, 23.91 -11.18, 35.52 -26.09 M26.79 6.84 C34.12 3.19, 41.26 -4.4, 43.75 -11.43 M27.4 8.23 C32.83 1.73, 36.44 -2.02, 42.93 -9.76 M38.27 20.37 C43.31 14.78, 47.62 10.67, 49.89 5.55 M40.67 19.02 C43.89 14.43, 47.48 11.11, 51.02 6.51 M6.36 18.59 C6.36 18.59, 6.36 18.59, 6.36 18.59 M6.36 18.59 C6.36 18.59, 6.36 18.59, 6.36 18.59 M17.83 7.14 C15.01 5.47, 8.87 -1.19, 5.02 -3.27 M19.27 8.03 C14.5 5.02, 11.7 2.21, 3.52 -4.6 M47.13 14.2 C36.37 4.02, 25.94 -7.74, 9.71 -18.64 M48.96 13.36 C39.61 6.54, 33.63 -1.03, 10.31 -19.3 M-18.98 -46.29 C-20.41 -47.77, -23.51 -49.38, -25.41 -51.53 M-19.86 -46.49 C-22.49 -48.41, -24.65 -50.55, -26.46 -52.35 M37.3 -18.96 C23.79 -27.29, 11.77 -37.27, -14.68 -61.99 M36.66 -17.45 C22.68 -31.02, 7.16 -44.52, -14.21 -63.18 M37.21 -39.4 C24.8 -49.71, 9.01 -61.43, 1.73 -69.92 M39.29 -38.22 C25.44 -49.53, 11.96 -60.82, 0.49 -71.53 M51.81 -45.42 C47.68 -51.1, 46.02 -53.06, 33.14 -62.34 M51.91 -48 C47.19 -51.33, 42.81 -54.74, 33.76 -63.8 M35.16 -64.69 C26.22 -70.89, 17.14 -77.37, 6.87 -86.72 M33.63 -63.91 C22.79 -72.98, 13.16 -80.3, 7.97 -85.46" stroke="#1565c0" stroke-width="2" fill="none"></path><path d="M-0.93 -0.51 C-1.3 1.45, -3.37 9.51, -1.57 12.64 C0.23 15.78, 5.63 19.28, 9.87 18.28 C14.12 17.28, 19.32 6.79, 23.9 6.65 C28.48 6.51, 33.42 16.58, 37.34 17.43 C41.26 18.29, 45.36 15.15, 47.43 11.76 C49.49 8.37, 51.63 2.06, 49.71 -2.9 C47.79 -7.87, 38.09 -12.31, 35.88 -18.03 C33.68 -23.76, 34.3 -33.21, 36.49 -37.25 C38.68 -41.29, 46.35 -39.58, 49.03 -42.27 C51.7 -44.96, 53.05 -50.34, 52.53 -53.4 C52 -56.45, 49.96 -60.16, 45.87 -60.62 C41.78 -61.08, 29.96 -55.36, 27.97 -56.18 C25.97 -56.99, 32.86 -61.93, 33.9 -65.5 C34.94 -69.06, 35.3 -74.32, 34.23 -77.58 C33.15 -80.83, 30.59 -82.97, 27.45 -85.03 C24.31 -87.09, 19.38 -90.29, 15.38 -89.95 C11.37 -89.62, 5.78 -86.14, 3.41 -83.03 C1.04 -79.91, 0.8 -74.85, 1.16 -71.27 C1.51 -67.69, 3.94 -64.11, 5.55 -61.55 C7.16 -58.99, 14.64 -56.5, 10.81 -55.91 C6.98 -55.32, -11.45 -58.62, -17.44 -58.03 C-23.43 -57.44, -23.31 -54.81, -25.12 -52.38 C-26.93 -49.94, -32.57 -46.5, -28.32 -43.43 C-24.06 -40.35, -5.85 -38.1, 0.42 -33.92 C6.69 -29.75, 9.52 -24.19, 9.29 -18.37 C9.06 -12.54, 0.39 -2.03, -0.96 1.01 M0.78 -1.82 C0.72 -0.27, -0.82 7.4, 0.64 10.95 C2.1 14.5, 5.6 20.55, 9.55 19.49 C13.51 18.43, 19.97 5.39, 24.37 4.59 C28.77 3.79, 31.94 13.14, 35.96 14.68 C39.97 16.23, 46.07 16.96, 48.47 13.85 C50.87 10.73, 52.61 0.86, 50.36 -3.99 C48.12 -8.84, 37 -10.01, 35 -15.26 C33 -20.51, 35.89 -30.94, 38.37 -35.48 C40.85 -40.02, 47.57 -39.64, 49.89 -42.51 C52.2 -45.38, 52.65 -49.56, 52.25 -52.69 C51.85 -55.81, 51.5 -60.61, 47.5 -61.26 C43.51 -61.91, 30.66 -55.88, 28.29 -56.59 C25.92 -57.31, 32.31 -61.87, 33.31 -65.53 C34.3 -69.19, 35.14 -74.95, 34.27 -78.55 C33.41 -82.14, 31.4 -85.28, 28.12 -87.12 C24.83 -88.97, 18.88 -90.26, 14.55 -89.61 C10.22 -88.96, 4.51 -86.33, 2.14 -83.22 C-0.22 -80.11, -0.25 -74.29, 0.38 -70.97 C1 -67.65, 4.27 -65.6, 5.91 -63.31 C7.55 -61.03, 14.06 -58.47, 10.22 -57.26 C6.37 -56.05, -11.31 -56.77, -17.15 -56.07 C-22.99 -55.37, -22.65 -55.1, -24.81 -53.05 C-26.97 -51.01, -34.54 -47.07, -30.11 -43.78 C-25.68 -40.49, -4.98 -37.53, 1.79 -33.32 C8.56 -29.11, 10.83 -24.26, 10.53 -18.52 C10.23 -12.79, 1.83 -2.29, 0 1.09" stroke="#000000" stroke-width="4" fill="none"></path></g></g><mask></mask><g stroke-linecap="round"><g transform="translate(385.3097351555971 474.24714230240534) rotate(0 11.536715332017593 -35.05211253318862)" fill-rule="evenodd"><path d="M-30.63 -46.5 C-30.63 -46.5, -30.63 -46.5, -30.63 -46.5 M-30.63 -46.5 C-30.63 -46.5, -30.63 -46.5, -30.63 -46.5 M-18.03 -38.69 C-14.66 -40.39, -13.62 -43.36, -8.81 -45.49 M-17.16 -36.92 C-15.27 -40.59, -13.32 -42.99, -9.65 -46.61 M5.49 -63.2 C9.57 -68.25, 14.22 -72.83, 24.99 -84.7 M5.77 -64.26 C12.25 -72.23, 20.62 -80.46, 24.49 -86.01 M-0.11 -32.77 C11.98 -49.62, 23.99 -63.65, 37.25 -75.31 M0.92 -33.8 C14.25 -49.2, 27.66 -63.97, 37.42 -74.83 M12.83 -21.56 C18.49 -32.9, 29.15 -39.26, 35.85 -48.27 M11.8 -22.3 C21.72 -33.75, 29.97 -42.97, 36.14 -49.68 M3.74 15.21 C11.84 3.92, 17.73 -6.1, 36.67 -23.91 M1.01 12.82 C11.65 2.63, 19.88 -6.4, 36.87 -25.45 M28.62 7.97 C32.36 3.23, 33.68 1.09, 41.69 -8.09 M27.56 8.84 C34.55 1.02, 40.87 -5.8, 43.46 -9.72 M39.67 18.36 C43.41 13.13, 47.51 10.64, 51.88 6.27 M39.49 17.95 C44.48 13.51, 47.19 9.35, 50.53 5.42 M6.36 18.59 C6.36 18.59, 6.36 18.59, 6.36 18.59 M6.36 18.59 C6.36 18.59, 6.36 18.59, 6.36 18.59 M19.36 7.53 C14.02 3.86, 12.92 0.12, 5.57 -4.13 M18.63 8.49 C12.71 2.94, 9 -1.35, 4.65 -4.86 M48.53 11.68 C35.16 3.47, 23.4 -7.86, 11.38 -18.77 M48.8 13.3 C41.69 5.26, 32.68 -1.71, 10.61 -20.87 M-18.67 -47.07 C-20.64 -47.99, -22.92 -50.14, -25.83 -52.33 M-19.44 -46.56 C-21.62 -47.38, -22.8 -49, -25.9 -52.56 M37.86 -20.26 C26.12 -27.14, 14.83 -38.68, -15.56 -61.7 M36.66 -19.19 C17.05 -34.98, -1.77 -53.29, -15.03 -63.14 M37.82 -37.16 C29.39 -47.63, 20.13 -56.11, 1.75 -73.58 M38.59 -38.51 C31.59 -45.71, 22.32 -52.21, 0.97 -71.3 M52.95 -45.91 C47.47 -53.48, 38.97 -57.08, 35.23 -61.92 M51.86 -47.43 C48.34 -51.18, 43.67 -55.5, 34.41 -63 M32.79 -64.79 C29.02 -69.06, 21.61 -73.07, 9.02 -84.71 M33.22 -63.79 C26.1 -69.53, 18.32 -76.9, 8.03 -87.33" stroke="#1976d2" stroke-width="2" fill="none"></path><path d="M0.78 0.21 C0.79 2.06, -1.55 8.35, -0.31 11.28 C0.94 14.21, 4.18 18.58, 8.24 17.78 C12.31 16.99, 19.37 6.74, 24.06 6.53 C28.76 6.31, 32.56 15.25, 36.4 16.49 C40.23 17.72, 44.83 17.29, 47.06 13.93 C49.3 10.58, 51.69 1.37, 49.78 -3.63 C47.88 -8.62, 37.88 -10.61, 35.64 -16.05 C33.41 -21.49, 34.29 -31.95, 36.38 -36.29 C38.47 -40.62, 45.24 -39.36, 48.18 -42.05 C51.12 -44.74, 54.04 -49.32, 54.02 -52.44 C54.01 -55.55, 52.34 -60.03, 48.07 -60.76 C43.8 -61.48, 30.8 -55.81, 28.4 -56.8 C26 -57.8, 32.44 -63.61, 33.67 -66.74 C34.9 -69.88, 36.73 -72.42, 35.78 -75.61 C34.83 -78.79, 31.41 -83.62, 27.98 -85.85 C24.56 -88.07, 19.41 -89.55, 15.25 -88.96 C11.1 -88.37, 5.45 -85.1, 3.05 -82.3 C0.66 -79.5, 0.41 -75.64, 0.9 -72.15 C1.39 -68.65, 4.65 -64.04, 5.97 -61.34 C7.3 -58.64, 12.76 -56.75, 8.85 -55.97 C4.93 -55.2, -11.61 -57.42, -17.51 -56.71 C-23.41 -56.01, -24.49 -53.58, -26.54 -51.74 C-28.58 -49.89, -34.29 -48.48, -29.78 -45.63 C-25.26 -42.77, -5.96 -39.12, 0.55 -34.6 C7.06 -30.07, 9.33 -24.37, 9.27 -18.48 C9.22 -12.59, 1.68 -2.42, 0.22 0.74 M-0.28 -0.73 C-0.36 1.27, -2.94 9.29, -1.1 12.53 C0.73 15.78, 6.44 20.09, 10.73 18.73 C15.02 17.38, 20.05 4.71, 24.63 4.4 C29.2 4.1, 34.29 15.38, 38.17 16.9 C42.05 18.42, 45.87 17.17, 47.92 13.5 C49.97 9.83, 52.69 -0.19, 50.47 -5.09 C48.26 -9.99, 36.68 -10.47, 34.63 -15.9 C32.59 -21.32, 35.88 -33.29, 38.2 -37.67 C40.53 -42.05, 45.88 -39.91, 48.6 -42.17 C51.32 -44.43, 54.77 -48, 54.53 -51.22 C54.3 -54.43, 51.46 -60.41, 47.19 -61.46 C42.93 -62.52, 31.31 -56.56, 28.94 -57.55 C26.57 -58.55, 32.29 -64.44, 32.96 -67.44 C33.63 -70.44, 33.65 -72.66, 32.98 -75.54 C32.31 -78.42, 32.03 -82.62, 28.93 -84.71 C25.83 -86.8, 18.92 -88.54, 14.36 -88.1 C9.81 -87.67, 4 -84.75, 1.6 -82.11 C-0.79 -79.48, -0.84 -75.49, -0.02 -72.3 C0.81 -69.12, 4.75 -65.49, 6.56 -63 C8.38 -60.51, 14.86 -58.24, 10.89 -57.36 C6.92 -56.48, -10.95 -58.61, -17.26 -57.73 C-23.57 -56.85, -25.07 -54.45, -26.97 -52.08 C-28.88 -49.7, -33.51 -46.43, -28.68 -43.47 C-23.86 -40.52, -4.55 -38.47, 1.98 -34.35 C8.51 -30.22, 10.53 -24.54, 10.5 -18.7 C10.47 -12.86, 3.79 -2.27, 1.79 0.69" stroke="#000000" stroke-width="4" fill="none"></path></g></g><mask></mask><g stroke-linecap="round"><g transform="translate(497.48324451201734 474.5883080780586) rotate(0 11.495596726173972 -35.829084663761705)" fill-rule="evenodd"><path d="M-30.63 -46.5 C-30.63 -46.5, -30.63 -46.5, -30.63 -46.5 M-30.63 -46.5 C-30.63 -46.5, -30.63 -46.5, -30.63 -46.5 M-16.7 -37.63 C-15.96 -38.96, -13.82 -43.09, -10.44 -47.08 M-17.59 -37.32 C-14.99 -40.02, -12.41 -43.12, -9.36 -46.19 M3.84 -65.77 C13.12 -70.83, 17.85 -81.6, 26.45 -85.44 M5.98 -63.39 C10.97 -70.48, 17.58 -77.9, 24.3 -85.02 M-0.02 -34.12 C15.09 -46.46, 26.26 -61.53, 35.26 -75.28 M1.38 -34.21 C11.85 -48.7, 25.29 -62, 36.93 -74.68 M14.07 -23.14 C21.98 -33, 31.67 -44.43, 35.34 -49.45 M12.49 -22.06 C16.61 -27.84, 22.35 -34.07, 36.48 -49.37 M1.62 11.65 C11.65 1.43, 21.27 -10.88, 35.52 -24.37 M2.91 13.46 C13.4 -1.34, 26.62 -14.87, 35.26 -25.72 M27.06 9.04 C33.15 2.62, 33.8 0.52, 44.97 -11.36 M27.99 7.67 C33.4 1.15, 39.32 -6.06, 43.57 -9.9 M41.04 17.84 C43.63 15.27, 44.76 11.37, 52.16 4.26 M40.32 17.92 C44.31 14.4, 47.78 8.54, 51.6 5.58 M6.36 18.59 C6.36 18.59, 6.36 18.59, 6.36 18.59 M6.36 18.59 C6.36 18.59, 6.36 18.59, 6.36 18.59 M17.74 6.3 C15.99 2.53, 12.15 1.01, 5.52 -5.04 M19.17 8.11 C13.46 2.81, 7.7 -0.07, 4.39 -4.12 M47.33 12.97 C35.5 -1.63, 21.58 -10.21, 12.53 -19.29 M48.51 12.5 C37.53 3.32, 27.24 -4.23, 10.92 -20.91 M-18.71 -46.78 C-21.78 -47.52, -23.12 -50.1, -25.73 -52.55 M-19.87 -46.54 C-21.97 -48.69, -24.24 -50.92, -26.39 -51.98 M35.85 -16.94 C16.67 -34.58, -2.5 -54.08, -15.3 -61.9 M36.63 -19.18 C16.85 -35.33, -0.64 -50.98, -14.04 -63.03 M37.37 -38.71 C23.88 -51.57, 12.04 -62.68, -1.57 -71.84 M38.85 -38.24 C23.12 -51.13, 9.6 -62.49, 0.38 -71.35 M52.49 -45.98 C47.55 -54.64, 40.46 -56.91, 34.41 -64.53 M52.84 -47.37 C48.24 -50.98, 43.21 -54.94, 33.78 -63.52 M31.96 -64.45 C23.4 -72.54, 15.28 -79.23, 6.84 -85.21 M34.79 -63.97 C27.65 -67.78, 24.15 -72.8, 7.4 -85.81" stroke="#1e88e5" stroke-width="2" fill="none"></path><path d="M-0.07 0.65 C-0.13 2.85, -2.73 10.05, -1.39 12.83 C-0.05 15.6, 3.93 18.51, 8 17.31 C12.08 16.11, 18.16 5.8, 23.05 5.64 C27.93 5.47, 33.09 15, 37.31 16.31 C41.53 17.63, 46.19 16.73, 48.34 13.52 C50.49 10.31, 52.37 2.16, 50.21 -2.93 C48.04 -8.02, 37.6 -11.41, 35.35 -17.02 C33.09 -22.63, 34.6 -32.25, 36.67 -36.61 C38.73 -40.97, 44.93 -40.47, 47.73 -43.16 C50.54 -45.84, 53.74 -49.97, 53.52 -52.7 C53.29 -55.43, 50.77 -58.78, 46.39 -59.52 C42.01 -60.27, 29.34 -56.24, 27.24 -57.19 C25.14 -58.14, 32.6 -61.96, 33.78 -65.25 C34.96 -68.54, 35.09 -73.59, 34.32 -76.93 C33.56 -80.28, 32.67 -83.18, 29.19 -85.31 C25.71 -87.44, 17.83 -90.17, 13.43 -89.7 C9.02 -89.23, 5.01 -85.74, 2.78 -82.49 C0.54 -79.24, -0.55 -73.56, 0.04 -70.21 C0.63 -66.85, 4.88 -64.84, 6.32 -62.36 C7.76 -59.88, 12.67 -55.98, 8.69 -55.32 C4.71 -54.67, -11.75 -58.96, -17.54 -58.43 C-23.33 -57.91, -24.38 -54.48, -26.07 -52.18 C-27.76 -49.88, -32.22 -47.75, -27.68 -44.65 C-23.14 -41.56, -4.99 -38.17, 1.17 -33.59 C7.34 -29.01, 9.58 -22.62, 9.3 -17.17 C9.03 -11.73, 1.24 -3.68, -0.48 -0.91 M-1.56 -0.06 C-1.15 1.86, -1.08 8.22, 0.91 11.23 C2.89 14.24, 6.66 18.76, 10.36 18.01 C14.05 17.25, 18.82 6.93, 23.08 6.7 C27.34 6.47, 31.44 15.61, 35.91 16.63 C40.37 17.66, 47.33 16.31, 49.87 12.87 C52.4 9.42, 53.73 1, 51.12 -4.04 C48.5 -9.08, 36.87 -12.3, 34.18 -17.37 C31.49 -22.45, 32.69 -30.09, 34.98 -34.5 C37.27 -38.91, 44.79 -41, 47.92 -43.86 C51.05 -46.71, 53.7 -49, 53.76 -51.63 C53.82 -54.25, 52.72 -58.5, 48.29 -59.59 C43.86 -60.67, 29.71 -57.21, 27.18 -58.14 C24.66 -59.07, 31.92 -61.92, 33.12 -65.16 C34.33 -68.39, 35.41 -74.44, 34.41 -77.56 C33.41 -80.68, 30.31 -81.94, 27.11 -83.89 C23.92 -85.83, 18.95 -89.47, 15.24 -89.22 C11.53 -88.98, 7.6 -85.1, 4.84 -82.39 C2.08 -79.69, -1.7 -76.59, -1.32 -73 C-0.95 -69.42, 5.09 -63.67, 7.09 -60.9 C9.08 -58.12, 14.71 -57.06, 10.65 -56.36 C6.58 -55.66, -11.15 -57.29, -17.3 -56.69 C-23.45 -56.09, -24.28 -54.59, -26.25 -52.75 C-28.23 -50.91, -33.39 -48.97, -29.14 -45.65 C-24.88 -42.32, -7.34 -37.64, -0.72 -32.82 C5.89 -27.99, 10.3 -21.87, 10.54 -16.7 C10.79 -11.54, 2.51 -4.8, 0.73 -1.83" stroke="#000000" stroke-width="4" fill="none"></path></g></g><mask></mask><g stroke-linecap="round"><g transform="translate(609.2406867149584 474.33578040240764) rotate(0 12.35537340249175 -35.253354921100936)" fill-rule="evenodd"><path d="M-30.63 -46.5 C-30.63 -46.5, -30.63 -46.5, -30.63 -46.5 M-30.63 -46.5 C-30.63 -46.5, -30.63 -46.5, -30.63 -46.5 M-16.29 -37.08 C-14.41 -41.21, -12.58 -43.5, -8.28 -45.6 M-17.23 -37.32 C-13.94 -40.89, -11.68 -43.65, -9.92 -47.04 M6.99 -62.28 C13.45 -74.11, 22.19 -81.13, 25.59 -86.09 M5.86 -64.84 C13.89 -71.14, 20.46 -79.8, 24.52 -85.22 M2.09 -34.7 C14.44 -48.25, 26.62 -66.13, 36.61 -75.77 M2.03 -34.05 C11.44 -44.84, 21.78 -56.63, 36.39 -76.26 M11.99 -23.69 C20.19 -33.3, 29.63 -42.29, 37.21 -50.99 M11.41 -21.79 C17.93 -27.55, 22.26 -34.84, 35.64 -49.86 M1.86 12.72 C11.31 1.03, 23 -9.87, 37.09 -25.96 M0.96 14.42 C10.95 4.02, 19.77 -7.25, 36.32 -24.95 M26.99 9.56 C31.1 4.89, 35.15 1.47, 43.57 -10.99 M28.77 8.57 C32.86 1.88, 36.3 -3.23, 43.84 -9.38 M38.6 18.5 C42.65 14.12, 47.8 7.73, 52.45 4.34 M39.68 19.12 C44.1 13.19, 49.42 8.71, 51.01 5.31 M6.36 18.59 C6.36 18.59, 6.36 18.59, 6.36 18.59 M6.36 18.59 C6.36 18.59, 6.36 18.59, 6.36 18.59 M16.64 7.72 C15.57 3.81, 12.75 0.54, 3.35 -3.62 M17.94 8.63 C12.69 2.85, 7.84 -1.14, 4.08 -4.89 M49.2 14.64 C34.97 1.39, 18.54 -10.98, 10.89 -18.87 M49.32 13.45 C35.47 0.37, 20.35 -12.28, 9.81 -20.39 M-18.96 -45.81 C-21.46 -49.11, -24.78 -50.55, -26.74 -52.75 M-19.47 -45.9 C-21.19 -48.17, -23.6 -50.05, -26.55 -52.3 M37.79 -17.3 C18.36 -31.96, 3.4 -45.75, -13.79 -65.48 M36.55 -18.73 C19.34 -32.51, 1.94 -48.78, -14.72 -63.46 M38.36 -37.04 C26.11 -47.87, 12.95 -59.75, -1.05 -72.62 M39.13 -39.18 C25.79 -48.95, 15.08 -59.94, -0.94 -71.31 M53.98 -47.51 C44.57 -52.09, 39.1 -61.01, 33.34 -61.55 M52.56 -46.4 C47.82 -52.59, 40.8 -56.38, 33.6 -63.49 M33.52 -65.43 C23.15 -71.88, 15.05 -79.46, 8.93 -87.79 M34.15 -63.49 C25.25 -70.61, 17.95 -79.18, 7.64 -86.33" stroke="#42a5f5" stroke-width="2" fill="none"></path><path d="M-1.18 0.27 C-1.38 2.2, -2.34 7.62, -0.7 10.75 C0.95 13.88, 4.5 19.92, 8.71 19.04 C12.91 18.17, 19.76 5.78, 24.54 5.5 C29.32 5.23, 33.43 15.97, 37.39 17.38 C41.35 18.79, 46.32 17.57, 48.29 13.95 C50.26 10.34, 51.5 0.95, 49.21 -4.31 C46.93 -9.56, 36.76 -12.23, 34.58 -17.58 C32.4 -22.92, 33.91 -32.37, 36.13 -36.38 C38.35 -40.39, 44.82 -38.89, 47.89 -41.66 C50.96 -44.43, 54.63 -49.9, 54.56 -53.01 C54.49 -56.12, 51.88 -59.69, 47.48 -60.31 C43.08 -60.94, 30.39 -55.88, 28.18 -56.77 C25.97 -57.66, 33 -62.45, 34.22 -65.64 C35.43 -68.83, 36.45 -72.64, 35.44 -75.91 C34.43 -79.17, 31.63 -82.95, 28.16 -85.23 C24.69 -87.5, 18.87 -90.1, 14.62 -89.57 C10.37 -89.03, 4.96 -85.04, 2.65 -82.02 C0.34 -79.01, 0.31 -74.84, 0.78 -71.47 C1.25 -68.1, 3.86 -64.54, 5.47 -61.81 C7.08 -59.07, 14.27 -55.65, 10.43 -55.06 C6.59 -54.46, -11.71 -58.5, -17.56 -58.26 C-23.41 -58.03, -22.71 -55.78, -24.68 -53.66 C-26.64 -51.53, -33.52 -48.76, -29.33 -45.53 C-25.14 -42.3, -5.96 -38.93, 0.45 -34.27 C6.86 -29.6, 9.34 -23.32, 9.15 -17.54 C8.96 -11.77, 0.92 -2.7, -0.7 0.37 M0.41 -0.63 C-0.02 1.47, -2.92 8.79, -1.69 11.72 C-0.47 14.66, 3.88 17.87, 7.77 17 C11.67 16.12, 16.98 6.29, 21.69 6.5 C26.4 6.71, 31.35 17.09, 36.03 18.26 C40.71 19.43, 47.52 16.99, 49.78 13.53 C52.05 10.08, 51.79 2.82, 49.6 -2.47 C47.42 -7.77, 38.64 -12.34, 36.68 -18.23 C34.71 -24.12, 35.91 -33.92, 37.82 -37.81 C39.73 -41.7, 45.24 -39.2, 48.16 -41.58 C51.08 -43.96, 55.66 -48.9, 55.35 -52.1 C55.04 -55.3, 50.76 -59.89, 46.3 -60.79 C41.84 -61.69, 30.69 -56.67, 28.61 -57.5 C26.52 -58.33, 32.53 -62.68, 33.79 -65.76 C35.04 -68.84, 36.89 -72.39, 36.12 -76 C35.36 -79.61, 32.98 -85.25, 29.19 -87.42 C25.41 -89.59, 17.49 -89.98, 13.4 -89.03 C9.31 -88.07, 6.91 -84.65, 4.65 -81.69 C2.38 -78.73, -0.39 -74.87, -0.2 -71.27 C-0.01 -67.66, 4.15 -62.6, 5.79 -60.05 C7.43 -57.5, 13.49 -56.56, 9.64 -55.96 C5.78 -55.35, -11.71 -57.2, -17.34 -56.43 C-22.97 -55.66, -22.36 -53.53, -24.13 -51.34 C-25.91 -49.16, -32.33 -46.24, -28 -43.32 C-23.67 -40.4, -4.55 -38.18, 1.83 -33.84 C8.22 -29.5, 10.55 -22.93, 10.31 -17.27 C10.07 -11.61, 2.03 -2.71, 0.4 0.13" stroke="#000000" stroke-width="4" fill="none"></path></g></g><mask></mask><g stroke-linecap="round"><g transform="translate(721.8095569786165 474.3751406630886) rotate(0 11.594364936496277 -35.34461201960744)" fill-rule="evenodd"><path d="M-30.63 -46.5 C-30.63 -46.5, -30.63 -46.5, -30.63 -46.5 M-30.63 -46.5 C-30.63 -46.5, -30.63 -46.5, -30.63 -46.5 M-16.65 -37.78 C-13.55 -40.33, -11.2 -43.73, -8.95 -46.65 M-17.82 -37.58 C-14.96 -40.52, -12.73 -43.35, -8.98 -46.26 M5.44 -64.79 C9.8 -69.51, 16.41 -79.72, 24.58 -86.94 M6.12 -63.21 C9.75 -70.02, 15.51 -73.72, 24 -85.05 M0.24 -34.85 C14.53 -50.78, 27.5 -66.26, 36.76 -76.2 M0.86 -34.04 C11.16 -46.39, 20.43 -56.3, 35.85 -74.5 M10.22 -22.01 C21.14 -32.85, 26.57 -39.04, 34.98 -48.42 M13.09 -22.53 C17.99 -30.11, 25.99 -36.88, 36.77 -49.41 M0.46 14.22 C15.59 1.2, 25.89 -15.46, 34.57 -25.94 M1.13 14.45 C8.2 6.37, 16.51 -2.15, 35.83 -25.2 M28.37 8.24 C30.84 1.29, 38.19 -1.24, 44.63 -8.41 M27.86 8.63 C30.18 5.06, 35.25 1.74, 43.88 -10.16 M39.34 17.99 C42.63 12.81, 49.27 8.94, 49.46 5.82 M39.35 18.44 C44.2 14.58, 47.22 10.34, 50.62 6.64 M6.36 18.59 C6.36 18.59, 6.36 18.59, 6.36 18.59 M6.36 18.59 C6.36 18.59, 6.36 18.59, 6.36 18.59 M16.69 6.02 C12.27 4.08, 8.47 0.17, 5.04 -3.74 M18.15 7.28 C12.92 3.63, 8.22 -1.6, 3.96 -3.93 M48.48 11.36 C33.27 0.65, 21.11 -11.63, 11.44 -19 M49.02 13.4 C39.66 6.32, 33.6 -0.56, 10.21 -20.43 M-19.73 -46 C-21.43 -47.96, -23.26 -49.92, -26.31 -51.6 M-19.66 -46.48 C-21.51 -47.84, -23 -49.67, -25.96 -52.57 M36.03 -20.28 C25.13 -27.08, 11.75 -40.31, -13.81 -64.04 M36.58 -18.6 C24.16 -29.86, 10.2 -41.53, -15.23 -62.93 M38.99 -38.93 C24.83 -49.29, 12.47 -60.86, -0.37 -73.7 M38.85 -37.54 C28.11 -46.39, 18.65 -55.45, 0.26 -71.76 M51 -46.8 C47.8 -51.55, 40.98 -55.39, 35.69 -65.4 M53.2 -46.68 C44.94 -53.63, 37.87 -60.06, 34.71 -62.67 M32.75 -63.96 C28.94 -67.88, 22.57 -76.31, 7.42 -84.66 M33.39 -62.54 C23.26 -72.74, 12.9 -80.76, 6.98 -86.59" stroke="#64b5f6" stroke-width="2" fill="none"></path><path d="M-0.31 -0.23 C-0.44 1.85, -1.58 9.39, -0.04 12.36 C1.5 15.33, 4.81 18.85, 8.91 17.58 C13 16.32, 19.92 5.16, 24.54 4.79 C29.15 4.42, 32.76 13.99, 36.61 15.37 C40.45 16.74, 45.43 16.03, 47.62 13.03 C49.8 10.04, 51.81 2.35, 49.7 -2.59 C47.58 -7.53, 37.18 -11.15, 34.92 -16.62 C32.65 -22.08, 33.88 -31.13, 36.13 -35.39 C38.37 -39.64, 45.46 -39.37, 48.38 -42.16 C51.31 -44.95, 53.79 -49.21, 53.68 -52.12 C53.58 -55.03, 52.04 -58.64, 47.76 -59.63 C43.48 -60.63, 30.54 -57.13, 28.01 -58.09 C25.48 -59.05, 31.36 -62.12, 32.58 -65.39 C33.81 -68.65, 36.3 -74.46, 35.37 -77.66 C34.44 -80.87, 30.44 -82.7, 27.01 -84.61 C23.57 -86.52, 18.58 -89.75, 14.78 -89.13 C10.99 -88.51, 6.65 -83.98, 4.24 -80.91 C1.83 -77.84, 0.12 -74, 0.31 -70.72 C0.49 -67.45, 3.65 -63.69, 5.34 -61.27 C7.03 -58.85, 14.32 -57.04, 10.43 -56.23 C6.54 -55.42, -12.03 -57, -17.98 -56.41 C-23.94 -55.82, -23.42 -54.54, -25.32 -52.69 C-27.21 -50.84, -33.77 -48.51, -29.35 -45.3 C-24.93 -42.09, -5.35 -38.04, 1.22 -33.44 C7.8 -28.84, 10.29 -23.12, 10.11 -17.7 C9.93 -12.28, 1.82 -3.95, 0.13 -0.94 M1.73 -1.4 C1.42 0.33, -1.75 7.22, -0.69 10.52 C0.37 13.83, 4.35 19.28, 8.08 18.43 C11.81 17.58, 16.62 5.95, 21.69 5.41 C26.75 4.87, 33.98 14.07, 38.49 15.19 C43.01 16.31, 46.78 15.25, 48.76 12.13 C50.73 9.01, 52.27 1.3, 50.34 -3.52 C48.41 -8.33, 39.27 -11.3, 37.18 -16.76 C35.1 -22.22, 35.86 -32.03, 37.81 -36.29 C39.77 -40.56, 46.2 -39.32, 48.9 -42.33 C51.6 -45.35, 54.38 -51.5, 54.01 -54.4 C53.65 -57.3, 50.99 -59.51, 46.72 -59.75 C42.44 -59.99, 30.32 -54.91, 28.36 -55.85 C26.4 -56.78, 33.68 -62.17, 34.96 -65.37 C36.23 -68.56, 37.26 -71.49, 36.01 -75.01 C34.75 -78.53, 31.16 -84.26, 27.44 -86.49 C23.71 -88.71, 17.65 -88.83, 13.65 -88.36 C9.64 -87.89, 5.84 -86.68, 3.41 -83.65 C0.99 -80.61, -1.28 -73.59, -0.92 -70.13 C-0.55 -66.67, 3.84 -65.56, 5.6 -62.89 C7.36 -60.22, 13.57 -55.02, 9.64 -54.09 C5.71 -53.15, -12.19 -57.36, -17.98 -57.26 C-23.77 -57.17, -23.44 -55.92, -25.11 -53.53 C-26.79 -51.15, -32.11 -45.85, -28.03 -42.97 C-23.95 -40.09, -6.67 -40.48, -0.65 -36.24 C5.38 -32, 7.72 -23.85, 8.11 -17.51 C8.49 -11.17, 2.78 -0.96, 1.67 1.79" stroke="#000000" stroke-width="4" fill="none"></path></g></g><mask></mask><g stroke-linecap="round"><g transform="translate(834.4036381920323 474.32339767860276) rotate(0 11.662653158941794 -35.23036481846475)" fill-rule="evenodd"><path d="M-30.63 -46.5 C-30.63 -46.5, -30.63 -46.5, -30.63 -46.5 M-30.63 -46.5 C-30.63 -46.5, -30.63 -46.5, -30.63 -46.5 M-17.94 -37.85 C-15.92 -39, -12.88 -42.25, -10.42 -45.94 M-16.7 -36.94 C-14.12 -41.29, -11.4 -44.39, -9.45 -46.89 M5.16 -65.29 C12.91 -71.56, 18.34 -77.46, 23.76 -86.86 M5.99 -63.45 C13.48 -73.09, 20.19 -79.47, 24.1 -86.26 M0.93 -33.55 C14.53 -48, 27.78 -66.03, 36.7 -73.5 M2.01 -35.5 C13.44 -50.38, 27.34 -64.14, 37.61 -75.83 M10.4 -22.35 C17.68 -31.01, 26.03 -38.15, 37.73 -49.43 M11.95 -22.99 C22 -32.64, 30.09 -43.93, 34.89 -48.95 M0.07 12.27 C12.08 0.26, 25.53 -15.13, 36.96 -23.96 M2.86 14.35 C15.08 -1.86, 27.88 -17.71, 35.52 -25.21 M28.63 7.25 C34.56 1.32, 37.2 -2.14, 44.27 -10.66 M26.84 7.35 C32.49 1.01, 39.09 -5.01, 44.34 -10.04 M40.54 19.78 C41.69 16.42, 45.8 12.85, 52.17 5.36 M40.5 18.49 C42.52 14.28, 45.27 11.06, 51.46 6.29 M6.36 18.59 C6.36 18.59, 6.36 18.59, 6.36 18.59 M6.36 18.59 C6.36 18.59, 6.36 18.59, 6.36 18.59 M16.59 8.31 C13.24 4.75, 9.9 -2.23, 4.69 -3.17 M18.37 8.59 C13.83 3.42, 9.41 -0.2, 4.08 -4.32 M47.92 13.46 C35.82 2.7, 25.98 -6.52, 11.04 -19.35 M47.94 12.75 C39.12 3.21, 27.26 -4.58, 11.69 -19.91 M-19.79 -45.59 C-20.9 -48.41, -23.65 -48.8, -26.3 -51.66 M-19.16 -46.58 C-21.88 -47.88, -23.68 -49.79, -25.92 -51.82 M36.18 -18.53 C17.49 -35.93, -2.2 -55.68, -14.55 -64.33 M36.8 -18 C24.14 -31.18, 9.62 -42.16, -15.1 -64.35 M40.12 -38.36 C26.24 -48.43, 14.57 -61.28, -0.74 -73 M38.04 -38.88 C29.91 -46.53, 19.65 -53.19, 0.6 -70.85 M54.65 -46.4 C49.51 -51.59, 46.29 -54.61, 33.11 -63.97 M52.73 -47.85 C45.8 -53.43, 39.43 -58.27, 33.7 -63.46 M35.21 -62.62 C25.63 -71.64, 14.34 -79.17, 8.22 -85.12 M33.61 -63.63 C27.51 -69.02, 19.48 -76.58, 7.85 -86.56" stroke="#90caf9" stroke-width="2" fill="none"></path><path d="M-1.15 1.02 C-1.31 3.14, -2.22 8.78, -0.38 11.87 C1.46 14.95, 5.87 20.46, 9.9 19.54 C13.92 18.62, 19.3 6.81, 23.77 6.35 C28.25 5.88, 32.59 15.79, 36.75 16.75 C40.9 17.72, 46.62 15.34, 48.69 12.14 C50.76 8.94, 51.26 2.4, 49.15 -2.45 C47.05 -7.3, 38.22 -11.16, 36.05 -16.94 C33.87 -22.72, 33.93 -33.03, 36.1 -37.14 C38.28 -41.25, 46.03 -39.08, 49.11 -41.6 C52.2 -44.11, 54.95 -48.96, 54.63 -52.22 C54.3 -55.48, 51.65 -60.43, 47.18 -61.16 C42.71 -61.88, 29.89 -55.73, 27.81 -56.58 C25.74 -57.43, 33.58 -62.95, 34.73 -66.25 C35.89 -69.55, 36.03 -72.99, 34.75 -76.38 C33.47 -79.76, 30.25 -84.32, 27.05 -86.57 C23.84 -88.82, 19.43 -90.78, 15.51 -89.88 C11.58 -88.99, 5.91 -84.33, 3.49 -81.2 C1.07 -78.08, 0.79 -74.59, 0.99 -71.13 C1.18 -67.67, 3.23 -63.1, 4.65 -60.43 C6.08 -57.76, 13.23 -55.75, 9.51 -55.09 C5.8 -54.43, -11.61 -56.81, -17.62 -56.46 C-23.62 -56.11, -24.71 -54.82, -26.54 -53 C-28.37 -51.18, -33.35 -48.82, -28.59 -45.55 C-23.83 -42.28, -4.33 -38.01, 2.02 -33.38 C8.38 -28.75, 9.92 -23.44, 9.53 -17.76 C9.15 -12.08, 1.2 -2.25, -0.27 0.71 M0.45 0.51 C0.1 2.91, -2.73 10.55, -1.21 13.42 C0.31 16.3, 5.36 19.3, 9.59 17.75 C13.82 16.2, 19.33 4.2, 24.18 4.12 C29.03 4.05, 34.95 15.58, 38.71 17.3 C42.47 19.02, 44.94 17.86, 46.74 14.43 C48.54 11, 51.43 1.99, 49.52 -3.3 C47.6 -8.58, 37.2 -11.92, 35.24 -17.26 C33.29 -22.59, 35.32 -31.27, 37.78 -35.31 C40.24 -39.35, 47.07 -38.27, 50.02 -41.48 C52.96 -44.69, 56.15 -51.74, 55.45 -54.56 C54.76 -57.38, 50.4 -57.97, 45.84 -58.41 C41.27 -58.85, 29.93 -55.83, 28.05 -57.21 C26.17 -58.59, 33.4 -63.44, 34.57 -66.69 C35.74 -69.94, 36.24 -73.52, 35.06 -76.71 C33.88 -79.9, 30.89 -83.68, 27.5 -85.81 C24.12 -87.95, 18.96 -90.4, 14.75 -89.51 C10.55 -88.61, 4.71 -83.56, 2.27 -80.43 C-0.17 -77.31, -0.26 -73.89, 0.12 -70.75 C0.5 -67.62, 3.2 -64.07, 4.55 -61.61 C5.91 -59.15, 11.91 -56.72, 8.24 -56.01 C4.58 -55.3, -11.55 -57.68, -17.42 -57.34 C-23.29 -57.01, -24.79 -56.34, -26.98 -54.01 C-29.16 -51.67, -35.12 -46.33, -30.53 -43.36 C-25.94 -40.38, -6.33 -40.44, 0.58 -36.15 C7.48 -31.86, 10.81 -23.74, 10.89 -17.6 C10.97 -11.47, 3.05 -2.02, 1.05 0.64" stroke="#000000" stroke-width="4" fill="none"></path></g></g><mask></mask><g stroke-linecap="round"><g transform="translate(947.3651294747506 474.18670220150125) rotate(0 10.641297751552884 -34.919335427448004)" fill-rule="evenodd"><path d="M-30.63 -46.5 C-30.63 -46.5, -30.63 -46.5, -30.63 -46.5 M-30.63 -46.5 C-30.63 -46.5, -30.63 -46.5, -30.63 -46.5 M-16.4 -38.15 C-14.57 -39.96, -13.78 -42.72, -8.55 -47.74 M-16.91 -38.09 C-14.1 -40.58, -11.65 -44.72, -8.95 -46.81 M5.6 -62.08 C12.77 -73.14, 19.55 -78.2, 26.1 -83.83 M5.15 -64.66 C12.2 -70.51, 18.99 -78.77, 24.29 -86.55 M0.73 -36.17 C13.55 -48.07, 23.91 -57.55, 38.39 -75.74 M2.24 -34.27 C13.65 -49.12, 24.95 -61.65, 37.2 -74.77 M11 -22.39 C21.98 -34.49, 30.93 -40.97, 37.56 -49.02 M12.18 -22.86 C17.85 -30.98, 24.17 -37, 35.95 -50.64 M3.55 12.4 C11.08 3.3, 22.58 -10.12, 37.14 -26.56 M0.97 12.92 C15.49 -1.47, 29.38 -16.48, 35.68 -25.29 M26.53 9.6 C34.02 2.18, 41.4 -6.69, 43.2 -8.2 M27.31 7.37 C32.43 1.31, 39.64 -4.45, 44.46 -9.33 M38.86 18.35 C42.7 13.25, 47.86 9.22, 49.63 5.79 M40.12 18.75 C43.31 13.64, 48.25 9.83, 51.29 6.21 M6.36 18.59 C6.36 18.59, 6.36 18.59, 6.36 18.59 M6.36 18.59 C6.36 18.59, 6.36 18.59, 6.36 18.59 M16.49 6.86 C12.2 2.51, 8.36 -0.48, 3.38 -3.51 M19.18 7.32 C14.55 5.63, 13.44 2.78, 3.91 -4.08 M49.65 11.78 C37.59 5.9, 27.61 -3.98, 10.8 -20.5 M47.58 13.04 C34.25 0.56, 21.57 -10.59, 11.67 -20.21 M-19.12 -45.96 C-20.13 -48.05, -21.93 -48.95, -26.55 -51.96 M-19.04 -46.64 C-21.36 -47.92, -23.47 -50.05, -26.15 -51.75 M37.29 -17.51 C26.94 -28.92, 14.93 -37.91, -16.2 -62.02 M37.92 -18.89 C17.47 -34.92, -1.32 -51.84, -15.77 -63.61 M39.39 -39.34 C25.15 -51.56, 7.63 -64.53, 1.18 -72.8 M38.17 -38.75 C27.73 -47.46, 16.71 -57.37, 0.69 -71.96 M54.05 -46.78 C47.38 -50.12, 43.62 -54.18, 33.42 -63.27 M53.63 -46.49 C46.1 -53.69, 39.61 -59.04, 33.71 -63.02 M32.88 -62.09 C22.71 -72.54, 12.79 -80.61, 8.7 -86.36 M34.28 -63.96 C24.53 -70.61, 16.75 -78.95, 6.75 -86.95" stroke="#bbdefb" stroke-width="2" fill="none"></path><path d="M0.02 0.37 C0.07 2.42, -1.06 8.27, 0.44 11.36 C1.94 14.45, 5.34 20.01, 9 18.91 C12.65 17.81, 17.5 5.3, 22.36 4.77 C27.21 4.24, 33.81 14.27, 38.13 15.73 C42.44 17.19, 46.16 16.69, 48.25 13.54 C50.34 10.39, 52.97 1.73, 50.68 -3.17 C48.39 -8.07, 36.88 -10.41, 34.49 -15.85 C32.11 -21.28, 33.98 -31.47, 36.35 -35.79 C38.71 -40.11, 45.93 -38.89, 48.68 -41.78 C51.44 -44.67, 53.12 -49.88, 52.87 -53.14 C52.63 -56.39, 51.21 -60.87, 47.21 -61.32 C43.21 -61.76, 31.05 -55.16, 28.86 -55.81 C26.67 -56.46, 33.14 -61.82, 34.08 -65.2 C35.02 -68.58, 35.37 -72.68, 34.5 -76.09 C33.63 -79.49, 32.06 -83.52, 28.88 -85.63 C25.7 -87.74, 19.66 -89.39, 15.4 -88.75 C11.13 -88.11, 5.73 -84.66, 3.29 -81.79 C0.84 -78.93, 0.53 -74.89, 0.75 -71.55 C0.97 -68.2, 3.13 -64.3, 4.6 -61.71 C6.08 -59.11, 13.39 -56.62, 9.59 -55.95 C5.79 -55.28, -12.44 -58.32, -18.21 -57.68 C-23.97 -57.04, -23.27 -54.46, -24.99 -52.12 C-26.7 -49.79, -33.03 -46.58, -28.51 -43.68 C-23.99 -40.77, -4.06 -38.73, 2.13 -34.69 C8.32 -30.66, 8.82 -25.13, 8.62 -19.48 C8.43 -13.84, 2.57 -4.06, 0.97 -0.83 M-1.43 -0.48 C-1.46 1.82, -1.57 9.78, 0.04 12.66 C1.65 15.53, 4.55 18, 8.22 16.79 C11.88 15.58, 17.2 5.56, 22.02 5.38 C26.84 5.21, 32.54 14.5, 37.16 15.75 C41.77 17, 47.89 16.26, 49.73 12.9 C51.57 9.54, 50.38 0.35, 48.18 -4.39 C45.99 -9.14, 38.21 -10.17, 36.54 -15.59 C34.87 -21.01, 36.01 -32.54, 38.15 -36.91 C40.29 -41.27, 46.92 -39.2, 49.36 -41.76 C51.8 -44.33, 53.35 -49.47, 52.78 -52.29 C52.2 -55.11, 50.35 -58.04, 45.89 -58.66 C41.42 -59.29, 28.03 -54.96, 25.98 -56.03 C23.93 -57.1, 32.13 -61.71, 33.58 -65.08 C35.03 -68.46, 35.84 -73.06, 34.69 -76.27 C33.53 -79.48, 29.98 -82.45, 26.63 -84.37 C23.28 -86.29, 18.7 -88.29, 14.58 -87.78 C10.47 -87.28, 4.43 -84.07, 1.96 -81.34 C-0.52 -78.6, -0.67 -74.96, -0.25 -71.39 C0.17 -67.81, 3.04 -62.24, 4.47 -59.89 C5.91 -57.55, 12.16 -58.05, 8.36 -57.32 C4.56 -56.6, -12.83 -56.31, -18.32 -55.54 C-23.81 -54.76, -22.59 -54.56, -24.6 -52.67 C-26.62 -50.77, -34.63 -47.19, -30.4 -44.16 C-26.18 -41.13, -5.91 -39.09, 0.74 -34.49 C7.39 -29.89, 9.75 -22.03, 9.51 -16.57 C9.26 -11.1, 0.88 -4.17, -0.71 -1.7" stroke="#000000" stroke-width="4" fill="none"></path></g></g><mask></mask><g stroke-linecap="round"><g transform="translate(1058.9589357562036 474.2274580601729) rotate(0 10.930475301787737 -35.010130613412684)" fill-rule="evenodd"><path d="M-30.63 -46.5 C-30.63 -46.5, -30.63 -46.5, -30.63 -46.5 M-30.63 -46.5 C-30.63 -46.5, -30.63 -46.5, -30.63 -46.5 M-16.3 -38.13 C-16.04 -40.49, -13.87 -42.71, -9.24 -46.97 M-16.65 -37.42 C-15.11 -39.55, -13.59 -41.54, -9.63 -46.06 M3.95 -62.39 C12.75 -69.9, 19.71 -80.07, 23.42 -86.97 M6.18 -63.09 C12.39 -70.13, 17.07 -76.29, 25.5 -85.79 M0.35 -33.69 C11.46 -47.05, 20.56 -55.36, 35.82 -73.7 M1.77 -34.96 C10.6 -44.99, 19.4 -55.26, 35.93 -76.28 M13.78 -22.91 C16.88 -28.08, 24.92 -34.28, 37 -50.97 M12.84 -22.88 C20.66 -31.84, 30.14 -41.89, 35.47 -50.19 M2.99 14.48 C11.38 6.5, 17.67 -1.98, 34.15 -26.81 M2.11 13.18 C10.77 2.92, 21.75 -7.01, 36.05 -25.34 M28.12 9.88 C33.3 3.57, 38.34 -4.42, 44.04 -10.18 M28.13 9.02 C33.47 1.46, 38.35 -4.38, 44.33 -9.84 M39.95 19.32 C42.53 15.17, 46.79 11.42, 51.56 4.23 M39.98 19.02 C42.42 16.11, 44.68 11.94, 50.96 6.64 M6.36 18.59 C6.36 18.59, 6.36 18.59, 6.36 18.59 M6.36 18.59 C6.36 18.59, 6.36 18.59, 6.36 18.59 M19.66 9.16 C15.53 3.4, 7.26 -1.1, 3.8 -3.98 M18.57 7.46 C13.2 3.8, 8.74 -0.8, 4.31 -3.8 M48.24 11.22 C40.88 7.7, 30.67 0.66, 10.63 -19.8 M48.1 12.16 C34.96 2.17, 23.53 -10.22, 10.12 -19.18 M-18.94 -45.47 C-21.77 -47.65, -21.9 -48.2, -25.94 -51.76 M-19.62 -46.36 C-20.9 -47.95, -22.9 -49.18, -26.59 -52.31 M36.62 -18.33 C25.44 -29.82, 10.4 -39.28, -14.16 -62.32 M37.45 -17.65 C20.65 -32.08, 5.22 -46.65, -15.16 -62.74 M39.18 -38.57 C24.42 -49.55, 13.06 -63.01, -1.48 -72.76 M38.23 -37.76 C25.17 -50.49, 10.74 -61.84, 0.53 -71.36 M53.58 -48.14 C46.68 -52.15, 45.2 -56.36, 34.14 -65.18 M53.62 -47.19 C46.73 -52.17, 38.77 -59.71, 34.37 -64.21 M34.28 -64.57 C25.42 -70.93, 14.92 -82.18, 8.03 -86.51 M33.13 -63.27 C27.47 -68.86, 21.2 -74.47, 8.3 -87.12" stroke="#e3f2fd" stroke-width="2" fill="none"></path><path d="M-0.18 -1.17 C-0.33 0.63, -2.21 8.4, -0.73 11.55 C0.74 14.7, 4.69 18.57, 8.67 17.73 C12.65 16.88, 18.29 6.64, 23.15 6.47 C28 6.3, 33.5 15.45, 37.79 16.7 C42.09 17.94, 46.94 17.38, 48.9 13.95 C50.85 10.51, 51.93 1.07, 49.52 -3.92 C47.12 -8.91, 36.76 -10.47, 34.48 -16.02 C32.21 -21.57, 33.49 -32.67, 35.87 -37.23 C38.25 -41.79, 45.9 -40.7, 48.75 -43.36 C51.6 -46.02, 53.32 -50.49, 52.96 -53.22 C52.61 -55.95, 50.66 -58.99, 46.61 -59.74 C42.56 -60.49, 30.98 -56.81, 28.65 -57.72 C26.32 -58.62, 31.47 -61.83, 32.64 -65.16 C33.8 -68.49, 36.23 -74.47, 35.64 -77.7 C35.04 -80.93, 32.39 -82.7, 29.07 -84.57 C25.74 -86.44, 20.09 -89.32, 15.69 -88.92 C11.29 -88.51, 5.32 -85.03, 2.68 -82.13 C0.03 -79.24, -0.57 -74.97, -0.16 -71.54 C0.25 -68.1, 3.47 -64.1, 5.13 -61.53 C6.79 -58.96, 13.64 -56.68, 9.82 -56.12 C6.01 -55.57, -11.99 -58.64, -17.78 -58.18 C-23.57 -57.72, -23.19 -55.64, -24.91 -53.38 C-26.64 -51.13, -32.34 -47.68, -28.13 -44.64 C-23.92 -41.6, -5.98 -39.34, 0.37 -35.15 C6.72 -30.97, 9.85 -25.43, 9.95 -19.52 C10.06 -13.61, 2.54 -3.04, 0.97 0.32 M-1.74 0.83 C-2.07 2.74, -3.32 9.98, -1.75 12.94 C-0.17 15.91, 3.55 20.08, 7.71 18.64 C11.88 17.21, 18.4 4.55, 23.23 4.32 C28.05 4.08, 32.67 15.68, 36.65 17.22 C40.62 18.75, 44.82 16.7, 47.06 13.52 C49.29 10.34, 51.83 3.02, 50.08 -1.88 C48.32 -6.77, 38.63 -10.25, 36.52 -15.85 C34.42 -21.44, 35.27 -30.73, 37.43 -35.45 C39.58 -40.17, 46.88 -41.34, 49.47 -44.17 C52.05 -47, 53.06 -49.79, 52.92 -52.41 C52.78 -55.04, 52.56 -59.44, 48.63 -59.91 C44.7 -60.39, 31.6 -54.43, 29.33 -55.28 C27.07 -56.13, 33.86 -61.73, 35.04 -65.03 C36.23 -68.33, 37.77 -71.51, 36.42 -75.07 C35.07 -78.64, 30.49 -84.25, 26.92 -86.41 C23.36 -88.57, 18.73 -88.8, 15.03 -88.04 C11.32 -87.28, 7.46 -84.63, 4.69 -81.86 C1.91 -79.08, -1.73 -74.47, -1.63 -71.37 C-1.53 -68.28, 3.55 -66.19, 5.28 -63.28 C7 -60.38, 12.54 -55.09, 8.72 -53.93 C4.89 -52.76, -12.14 -56.8, -17.67 -56.3 C-23.21 -55.8, -22.47 -52.71, -24.49 -50.93 C-26.52 -49.15, -34.19 -48.25, -29.83 -45.62 C-25.46 -43, -4.58 -40.03, 1.71 -35.2 C7.99 -30.36, 8.28 -22.5, 7.88 -16.62 C7.47 -10.75, 0.83 -2.62, -0.71 0.05" stroke="#000000" stroke-width="4" fill="none"></path></g></g><mask></mask><g stroke-linecap="round"><g transform="translate(102.05707729756068 421.52461580921636) rotate(7.320081691250907 -31.626888529272946 28.995357430102104)" fill-rule="evenodd"><path d="M-89.98 39.7 C-89.98 39.7, -89.98 39.7, -89.98 39.7 M-89.98 39.7 C-89.98 39.7, -89.98 39.7, -89.98 39.7 M-87.58 42.59 C-71.9 27.34, -59.31 12.98, -47.63 -2.83 M-86.18 41.21 C-71.49 23.16, -55.63 5.83, -47.49 -2.24 M-80.13 43.95 C-68.8 28.36, -60.29 15.62, -51.28 4.72 M-82.47 42.16 C-74.49 33.34, -65.71 23.56, -51.3 6.57 M-78.03 45.47 C-70.45 33.93, -58.17 21.74, -52.13 16.87 M-78.57 44.9 C-70.02 33.74, -60.93 24.48, -53.68 15.31 M-73.06 46.89 C-70.15 41.69, -65.62 36.2, -57.53 24.4 M-73.62 46.45 C-70.21 40.65, -66.29 35.36, -56.84 26.29 M-68.45 48.03 C-64.92 37.37, -54.45 30.64, -49.41 21.61 M-70.01 46.57 C-62.66 38.35, -54.67 29.16, -47.59 21.8 M-65.98 50.08 C-59.21 42.67, -55.19 36.3, -38.58 17.67 M-65.47 49.63 C-56.95 38.6, -48.95 27.79, -39.76 19.05 M-61.51 50.92 C-51.18 37.59, -40.18 24.42, -32.33 13.65 M-62.68 51.48 C-53.31 39.6, -44.6 28.43, -30.75 15.68 M-56.83 50.91 C-55.88 49.17, -53.84 46.33, -50.91 43.68 M-57.58 51.39 C-55.54 49.03, -53.08 45.79, -50.41 42.93 M-51.21 42.87 C-40.92 30.5, -30.66 17.16, -24.3 10.55 M-49.56 43.23 C-39.4 31.32, -29.89 19.52, -23.2 11.37 M-53.84 52.62 C-52.9 50.39, -49.86 48.56, -46.8 45.62 M-53.81 53.94 C-52.47 52.12, -51.66 50.74, -47.43 46.42 M-44.71 43.8 C-37.6 34.4, -32.64 27.85, -15.59 8.23 M-45.23 43.78 C-35.94 32.67, -28.15 21.68, -14.8 9.39 M-49.65 54.1 C-48.63 51.64, -46.67 50.66, -43.95 48.19 M-49.88 54.94 C-47.6 52.33, -46.18 49.65, -44.32 48.89 M-41.38 44.38 C-28.67 30.58, -15.97 15.27, -7.28 3.79 M-39.96 42.05 C-29.93 31.88, -20.24 21.95, -8.19 6.14 M-46.03 56.21 C-44.88 54.21, -43.27 52.72, -41.56 51.66 M-46.07 56.52 C-45.17 55.18, -44.07 53.81, -41.57 51.03 M-35.35 42.87 C-26.38 35.89, -17.13 24.76, -0.31 1.89 M-35.2 43.76 C-26.4 32.6, -16.96 23.52, 1.19 1.26 M-41.59 57.8 C-41.25 55.88, -39.19 55.08, -38.85 54.22 M-41.72 57.41 C-40.93 56.69, -40.1 55.46, -38.84 53.77 M-29.62 41.56 C-17.97 31.27, -10.5 19.26, 1.35 7.27 M-28.74 42.86 C-20.35 33.5, -13.7 24.65, 0.93 9.2 M-38.46 59.56 C-37.75 58.45, -36.17 57.25, -35.82 56.51 M-38.4 59.34 C-37.2 58.31, -36.36 57.08, -35.51 56.54 M-23.37 42.77 C-17.93 38.01, -12.54 29.08, -1.11 16.08 M-22.99 42.53 C-18.89 37, -13.75 29.64, -1.19 15.51 M-33.98 60.66 C-33.8 60.25, -33.43 60.08, -33.24 59.88 M-33.9 60.56 C-33.66 60.35, -33.44 60.01, -33.28 59.82 M-16.66 40.85 C-11.42 35.48, -7.61 32.55, -4.22 27.06 M-18.73 42.17 C-12.83 35.59, -5.22 28.82, -3.06 25.02 M-13.43 40.51 C-7.83 39.48, -4.36 33.08, 0.87 26.92 M-13.04 41.09 C-8.92 38.04, -7.14 35.21, 0.08 26.58 M-8.05 41.85 C-2.54 36.83, 0.07 32.91, 3.3 27.46 M-7.68 42.09 C-3.13 37.82, 0.27 31.86, 4.19 28.67 M-1.04 42.82 C0.89 38.63, 3.39 37.54, 8.6 31.43 M-1.71 41.77 C1.14 39.42, 3.97 35.45, 7.5 30.74 M2.94 41.58 C4.73 39.45, 9.38 36.62, 11.83 33.86 M2.42 42.27 C6.31 39.16, 8.21 35.74, 11.29 32.61 M8.45 41.15 C10.56 40.42, 13.45 37.28, 15.9 34.71 M8.44 41.69 C10.23 39.47, 12.79 37.96, 15.65 34.8 M13.13 42.96 C15.02 40.39, 16.51 38.37, 19.35 36.05 M13.64 42.72 C14.8 40.79, 16.16 39.42, 18.72 36.2 M19.72 42.32 C20.64 41.18, 20.99 39.77, 22.67 37.75 M19.31 41.99 C20.33 41.01, 21.26 39.89, 22.43 38.35 M25.01 41.54 C25.61 41.18, 25.95 40.38, 26.11 40.21 M25.02 41.65 C25.28 41.11, 25.76 40.74, 26.28 40.12 M-90.22 39.77 C-90.22 39.77, -90.22 39.77, -90.22 39.77 M-90.22 39.77 C-90.22 39.77, -90.22 39.77, -90.22 39.77 M-79.34 45.02 C-80.29 43.17, -82.24 41.1, -88.23 37.24 M-78.96 43.56 C-82.8 41.76, -84.86 39.02, -87.85 36.72 M-70.89 47.5 C-75.28 42.82, -80.37 38.96, -85.33 35.16 M-68.62 47.94 C-75.19 43.37, -79.17 38.99, -84.94 34.16 M-57.4 52.4 C-65.81 47.01, -72.19 38.03, -81.22 29.72 M-58.68 51.73 C-66.23 45.36, -75.12 38, -81.75 31.11 M-46.05 54.06 C-57.42 48.15, -65.31 38.66, -81.51 27.09 M-47.33 55.43 C-57.92 46.67, -68.54 38.11, -79.76 27.37 M-36.22 60.36 C-48.42 48.49, -61.68 40.52, -76.27 23.28 M-36.97 59.92 C-48.8 50.1, -58.26 41.11, -77.31 24.44 M-51.19 40.64 C-58.88 32.77, -65.52 27.01, -74.96 21.86 M-52.66 41.7 C-57.49 35.11, -65.82 30.4, -74.08 22.33 M-47.67 39.63 C-54.55 33.92, -59.98 29.75, -70.68 17.3 M-45.68 40.36 C-50.97 37.06, -57.12 32.04, -72.49 19.42 M-38.43 40.01 C-50.51 32.98, -57.02 26.63, -70.49 16.24 M-39.16 41.7 C-49.1 33.1, -57.09 26.55, -70.02 15.27 M-35.61 39.93 C-38.94 34.74, -46 28.45, -57.19 22 M-33.45 40.69 C-41.53 33.38, -49.15 26.9, -55.99 21.69 M-54.95 20.53 C-59.62 20.85, -59.72 17.58, -66.13 13.53 M-56.52 21.24 C-59.02 19.14, -61.7 16.41, -66.32 13.28 M-29.51 39.47 C-32.71 35.93, -39.65 31.32, -53.89 20.39 M-27.97 41.17 C-34.12 35.35, -43.16 28.01, -51.77 20.39 M-55.27 16.63 C-56.04 16.76, -57.83 13.82, -63.15 10.47 M-55.2 17.67 C-56.76 14.99, -59.16 13.37, -63.5 9.98 M-20.71 42.39 C-28.96 32.79, -37.77 27.51, -47.48 16.4 M-21.26 41.26 C-32.57 31.83, -40.84 24.7, -47.37 19.31 M-53.05 12.93 C-56.42 10.86, -59.32 8.13, -61.03 7.43 M-53.66 13.07 C-56.26 10.76, -57.96 8.99, -60.69 6.78 M-15.48 42.21 C-24.61 30.72, -35.24 23.89, -44.85 17.16 M-15.72 40 C-24.93 33.76, -35.23 24.76, -44.49 16.1 M-52.91 9.07 C-54.8 7.02, -56.41 5.49, -57.48 4.71 M-52.61 8.84 C-54.31 7.53, -56.36 5.44, -57.94 4.09 M-8.61 38.9 C-17.38 33.88, -26.59 28.22, -39.45 15.8 M-10.73 40.03 C-17.9 34.79, -25.2 27.41, -40.32 14.15 M-51.43 4.37 C-52.41 3.39, -53.55 2.79, -55.16 1.01 M-51.52 4.3 C-52.54 3.51, -53.71 2.74, -55.51 1.15 M-3.42 42.04 C-15.18 30.99, -27.15 18.78, -37.24 13.51 M-3.64 39.86 C-11.86 34.69, -18.08 28.45, -34.53 13.58 M-50.31 0.39 C-51 -0.76, -52.01 -1.05, -52.56 -2 M-50.34 0.2 C-50.97 -0.39, -51.34 -0.73, -52.64 -1.8 M0.22 39.64 C-7.95 31.34, -19.07 20.17, -30.72 13.5 M1.18 39.62 C-6.65 32.16, -16.51 23.48, -30.26 12.27 M10.14 39.26 C-2.34 29.19, -13.2 23.11, -28.19 10.2 M7.42 40.85 C-0.07 33.38, -7.86 26.21, -27.44 10.5 M15.57 40.97 C4.67 32.89, -6.25 22.37, -24.79 9.3 M13.06 40.88 C3.6 31.06, -5.05 23.95, -23.02 9.08 M19.85 42.39 C14.58 33.46, 6.27 27.84, -0.29 22.05 M19.87 40.37 C16.32 35.83, 11.63 33.03, -0.83 20.66 M-2.71 20.53 C-7.04 16.51, -12.02 9.68, -19.28 5.59 M-1.75 21.65 C-7.16 15.46, -14.29 10.64, -18.2 5.78 M26.13 41.13 C22.31 36.62, 19.07 33.47, 12.64 28.59 M25.31 40.66 C23.3 36.57, 19.27 34.03, 13.69 28.19 M-1.4 15.85 C-4.22 13.94, -7.01 11.98, -14.17 5.91 M0.07 17.14 C-4.91 13.33, -8.55 8.71, -15.25 5.66 M0.89 10.94 C-2.68 10.3, -7.39 5.41, -11.13 1.89 M0.44 12.46 C-3.47 9.18, -7.67 5.72, -10.3 2.97 M1.88 8.3 C-0.35 5, -2.98 3.48, -7.15 0.69 M1.33 8.07 C-0.95 6.28, -3.5 4.15, -6.81 1.63 M1.97 3.05 C0.24 1.98, -0.55 0.56, -2.5 -0.09 M1.24 3.06 C0.62 2.24, -0.44 1.49, -2.25 -0.25" stroke="#868e96" stroke-width="0.5" fill="none"></path><path d="M1.75 -0.95 C-16.66 7.68, -34.68 15.49, -59.34 24.74 M0.31 -0.45 C-21.45 8.84, -41.45 16.23, -57.24 23.35 M-58.91 23.4 C-57.84 14.82, -54.36 10.8, -50.36 -5.03 M-57.3 24.02 C-55.75 16.41, -54.44 9.72, -50.63 -5.51 M-51.66 -5.03 C-64.3 12.26, -77.91 29.57, -89.3 39.81 M-49.64 -4.59 C-64.07 10.4, -78.31 26.32, -90.22 38.91 M-91.27 38.99 C-70.76 47.26, -47.93 54.58, -29.79 63.5 M-89.79 40.43 C-67.01 48.8, -43.85 57.14, -31.62 61.77 M-32.92 62.48 C-34.15 56.91, -39.03 52.36, -51.58 40.19 M-31.71 61.96 C-35.27 55.9, -42.21 51.89, -51.31 42.32 M-53.43 41.9 C-35.31 39.84, -15.14 39.17, 26.66 40.19 M-52.48 41.26 C-31.45 41.27, -10.31 40.47, 26.57 39.67 M28.02 41.35 C20.81 36.67, 15.96 34.29, -4.5 24.72 M26.9 39.63 C19.31 36.17, 11.49 32.81, -4.74 24.08 M-2.08 23.35 C-1.55 19.09, -2.52 13.07, 0.55 -1.69 M-3.41 23.82 C-3.6 17.69, -2.32 10.17, -0.77 0.86 M0 0 C0 0, 0 0, 0 0 M0 0 C0 0, 0 0, 0 0" stroke="#000000" stroke-width="1" fill="none"></path></g></g><mask></mask><g transform="translate(21.75861858451026 492.0168421321646) rotate(0 49 10)"><text x="49" y="14" font-family="Virgil, Segoe UI Emoji" font-size="15.915948871184709px" fill="#000000" text-anchor="middle" style="white-space: pre;" direction="ltr">Citizen Devs</text></g><g stroke-linecap="round"><g transform="translate(1222.1964671983933 414.6136506693847) rotate(187.32008169125092 -31.541924551936063 27.95592712613734)" fill-rule="evenodd"><path d="M-89.98 39.7 C-89.98 39.7, -89.98 39.7, -89.98 39.7 M-89.98 39.7 C-89.98 39.7, -89.98 39.7, -89.98 39.7 M-87.19 39.99 C-74.88 31.38, -64.63 17.18, -47.3 -3.03 M-86.79 40.57 C-76.76 30.78, -69.22 21.33, -48.09 -3.36 M-82.51 42.02 C-69.74 29.01, -60.23 17.06, -51.54 4.91 M-82.11 42.3 C-70.66 29.79, -60.3 15.58, -50.54 6.25 M-77.12 45.58 C-72 36.88, -65.98 32.33, -51.8 16.06 M-78.01 44.18 C-70.62 37.1, -63.35 27.76, -53.27 15.14 M-74.16 44.39 C-69.99 39.48, -61.45 33.51, -55.89 27.24 M-74.95 45.46 C-67.41 38.93, -62.96 31.92, -56.73 25.32 M-70.81 45.8 C-63.59 40.92, -54.77 31.13, -46.73 22.36 M-70.83 46.89 C-64.55 39.43, -56.77 33.37, -47.22 22.53 M-67.36 50.11 C-58.69 39.02, -50.92 29.28, -38.71 17.74 M-66.1 49.51 C-59.79 40.66, -52.97 33.32, -40.27 18.12 M-60.75 51.86 C-51.24 40.74, -44.21 28.61, -31.26 13.2 M-62.39 50.56 C-53.53 41.45, -45.18 31.62, -32.2 15.6 M-57.77 51.35 C-54.19 49.2, -52.11 44.37, -51.15 43.36 M-57.72 52.03 C-56.17 48.75, -53.29 46.57, -50.15 42.86 M-51.78 44.07 C-41.35 32.01, -27.73 17.06, -24.13 10.21 M-50.13 42.87 C-39.42 31.5, -28.88 18.96, -22.45 12.61 M-54.33 54.47 C-51.9 52.52, -50.38 50.41, -48.3 46.41 M-53.98 53.14 C-52.35 51.27, -49.09 48.42, -47.96 45.94 M-46.87 42.94 C-36.05 31.59, -25.98 20.99, -15.94 10.41 M-44.6 43.38 C-36 31.83, -24.78 20.69, -15.55 9.41 M-49.64 54.91 C-48.62 53.45, -46.78 50.55, -44.26 48.19 M-50.15 54.64 C-48.11 53, -46.6 50.86, -44.47 48.75 M-38.24 40.71 C-31.34 32.61, -20.93 20.64, -9.1 4.97 M-39.52 42.08 C-28.57 29.95, -17.62 18.46, -7.35 5.25 M-45.97 56.82 C-44.58 54.59, -43.62 53.87, -41.4 50.72 M-46.23 56.66 C-45.32 55.19, -43.57 53.92, -41.76 51.13 M-33.83 42.22 C-21.5 26.98, -8.08 13.76, 1.12 1.61 M-35.3 43.28 C-22.68 29.68, -13.61 18.5, 2.01 2.08 M-42.32 57.28 C-41.57 56.29, -40.44 55.71, -38.38 53.5 M-41.82 57.47 C-41.03 57.01, -40.45 56.14, -38.83 54.03 M-27.47 41.33 C-20.46 31.58, -7.91 22.52, -0.57 9.18 M-28.2 43.01 C-20.15 31.85, -10.19 22.75, -0.11 8.21 M-38.57 59.3 C-37.06 58.45, -36.3 57.44, -35.88 56.5 M-38.13 59.45 C-37.22 58.31, -36.22 57.3, -35.64 56.44 M-22.17 40.95 C-20.23 37.87, -11.15 29.62, -1.32 16.88 M-24.59 42.04 C-16.51 34.62, -8.65 26.23, -1.61 16.51 M-34.03 60.51 C-33.7 60.4, -33.55 60.25, -33.39 59.86 M-33.95 60.6 C-33.7 60.39, -33.58 60.12, -33.28 59.86 M-18.84 40.99 C-13.66 40.38, -10.34 34.11, -2.98 25.55 M-18.71 42.87 C-13.75 37.17, -10.36 33.13, -3.62 24.66 M-11.16 43.8 C-8.44 36.38, -6.33 33.13, 0.86 25.02 M-11.71 42.67 C-8.26 35.74, -1.84 31.34, 0.96 27.94 M-6.05 42.08 C-3.52 37.44, -0.04 31.33, 3.38 29.3 M-7.28 42.36 C-3.98 37.36, 1.12 33.24, 4.05 28 M-1.75 43.01 C2.49 36.61, 5.61 33.96, 7 31.1 M-1.93 41.35 C1.58 38.94, 4.21 34.51, 7.27 30.31 M2.65 42.93 C4.77 38.88, 7.41 35.65, 12.5 33.56 M3.21 42.52 C6.02 39.79, 8.16 35.48, 11.66 32.41 M9.43 41.2 C10.62 39.86, 11.57 38.4, 15.29 34.89 M8.37 41.76 C10.15 40.53, 11.89 38.17, 14.85 34.07 M13.93 42.24 C15.3 40.45, 16.44 39.28, 19.24 36.07 M13.78 42.13 C15.26 40.53, 16.5 39.09, 18.69 36.3 M19.4 42.29 C20.88 40.72, 22.3 38.89, 22.15 38.28 M19.34 41.75 C19.85 41.26, 20.85 40.42, 22.83 38.29 M25.08 41.76 C25.62 40.95, 25.95 40.68, 26.4 39.97 M25.06 41.64 C25.24 41.22, 25.59 40.95, 26.35 40.11 M-90.22 39.77 C-90.22 39.77, -90.22 39.77, -90.22 39.77 M-90.22 39.77 C-90.22 39.77, -90.22 39.77, -90.22 39.77 M-78.32 43.19 C-81.8 40.68, -84.3 40.35, -88.19 36.95 M-79.82 44.06 C-81.38 42.15, -83.06 40.47, -87.78 37.11 M-67.57 48.2 C-73.27 44.92, -78.85 39.04, -86.8 34.9 M-70.08 48.11 C-73.91 43.24, -76.91 41.05, -85.02 34.68 M-58.76 53.55 C-64.82 43.92, -73.93 37.61, -81.17 31.25 M-58.73 51.54 C-62.77 46.58, -67.93 43.39, -81.7 29.86 M-48.51 54.92 C-58.12 46.37, -68.47 34.87, -80.17 26.86 M-47.54 56.04 C-58.21 45.17, -70.58 35.8, -79.09 27.05 M-37.01 60.61 C-49.3 48.59, -60.87 38.14, -77.79 24.21 M-37.97 60.05 C-47.27 49.44, -58.82 40.54, -76.55 23.73 M-52.92 39.93 C-57.8 36.32, -62.58 32.64, -73.91 22.92 M-51.38 41.29 C-59.04 35.25, -65.26 28.31, -75.05 22.65 M-44.92 39.16 C-53.35 35.36, -63.4 25.47, -72.65 17.04 M-45.56 41.32 C-54.85 33.48, -64.61 25.26, -71.47 18.58 M-38.27 42.09 C-46.83 31.89, -56.21 25.26, -70.65 14.4 M-39.37 41.61 C-48.18 34.45, -57.5 26.55, -69.99 16.27 M-32.18 41.51 C-41.16 35.52, -46.32 28.08, -56.84 23.05 M-35.09 41.55 C-39.18 36.89, -45.07 32.45, -55.85 22.39 M-56.96 20.71 C-59.77 18.72, -63.32 15.89, -66.87 12.67 M-56.11 21.2 C-58.33 19.9, -60.86 17.6, -65.53 13.18 M-27.1 41.45 C-33.76 34.65, -42.46 29.97, -51.76 21.3 M-28.72 41.13 C-34.07 34.73, -42.59 28.68, -51.87 20.13 M-54.63 17.73 C-56.56 15.33, -58.28 12.94, -64.08 10.01 M-55.43 17.39 C-57.85 14.69, -60.73 12.66, -63.16 10.21 M-20.84 39.68 C-30.82 33.01, -37.85 25.25, -48.43 16.84 M-22.43 41.08 C-32.41 33.47, -39.86 23.98, -46.78 18.92 M-54.56 13.07 C-57.14 11.48, -59.25 8.94, -60.41 7.99 M-54.14 13.04 C-56.52 11.24, -59.23 8.7, -60.33 7.59 M-16.49 39.32 C-26.07 31.87, -35.68 23.9, -43.09 14.84 M-16.08 41.52 C-22.15 35.65, -29.94 30.24, -43.49 17.26 M-52.23 8.12 C-53.72 7.31, -55.72 6.14, -58.12 4.52 M-52.8 8.87 C-54.23 7.29, -55.81 5.87, -57.67 4.3 M-10.68 38.9 C-16.4 36.46, -23.93 28.12, -39.51 15.54 M-10.01 39.7 C-16.16 34.99, -22.98 28.87, -39.9 14.86 M-51.73 4.37 C-52.76 3.84, -54.19 2.66, -55.69 1.35 M-51.4 4.36 C-52.79 3.22, -54.51 1.73, -55.49 1.37 M-5.56 39.59 C-14.48 32.06, -23.3 22.47, -34.97 12.19 M-4.03 40.2 C-15.66 31.26, -25.87 21.43, -35.89 13.7 M-50.33 -0.14 C-50.83 -0.36, -51.63 -0.6, -52.45 -2.06 M-50.37 0.24 C-51.42 -0.54, -52.08 -1.41, -52.83 -1.76 M3.18 41.98 C-11.15 30.08, -23.24 19.45, -30.31 13.07 M1.53 40.73 C-10.82 30.12, -23.61 17.7, -30.32 10.97 M6.93 39.21 C-7.56 30.24, -18.82 14.58, -26.33 9.88 M9.01 40.39 C0.38 34.64, -6.43 28.74, -28.07 10.25 M15.98 40.91 C-0.78 28.07, -15.69 17.25, -23.74 9.81 M14.54 39.95 C5.9 32.1, -3.38 26.17, -23.91 8.39 M20.13 38.75 C12.66 36.79, 7.93 30.1, -0.87 22.29 M20.64 41.23 C14.76 36.09, 9.13 30.85, -1.89 20.68 M-2.35 21.45 C-4.79 15.73, -9.53 13.14, -17.44 6.16 M-1.72 22.47 C-5.74 18.36, -8.84 15.59, -18.75 6.04 M26.13 41.84 C20.62 35.59, 17.42 30.43, 14.86 29.28 M25.81 39.43 C21.78 35.06, 16.51 31.96, 12.84 29.15 M-1.4 16.68 C-2.41 15.48, -8.6 9.9, -14.67 5.74 M-0.37 17.54 C-5.27 12.15, -11.21 9.1, -14.54 5.1 M1.31 11.94 C-1.87 10.31, -4.63 9.52, -11.41 3.29 M-0.39 12.79 C-2.72 9.45, -6.21 7.6, -10.58 3.42 M1.62 8.5 C-0.73 6.21, -2.13 4.19, -6.35 0.36 M1.36 7.81 C-0.91 6.73, -2.47 5.37, -6.18 1.67 M1.41 2.86 C0.77 1.6, -0.45 1.71, -2.11 -0.75 M1.68 3.05 C0.39 2.3, -0.14 1.44, -2.43 -0.34" stroke="#868e96" stroke-width="0.5" fill="none"></path><path d="M0.77 -1.31 C-24.14 7.66, -47.01 20.21, -56.05 22.31 M0.2 0.79 C-21.4 9.59, -45.24 17.7, -56.97 24.06 M-59.87 25.14 C-56.4 14.59, -52.89 2.57, -50.3 -6.66 M-58.45 22.81 C-55.58 15.2, -53 7.81, -51.22 -4.31 M-49.62 -5.68 C-64.52 9.58, -78.41 26.21, -89.76 41.12 M-49.74 -4.8 C-60.24 6.79, -70.65 18.19, -89.79 39.33 M-90.99 39.82 C-77.09 46.89, -62.79 49.63, -32.86 62.3 M-90.84 40.71 C-76.33 44.96, -61.32 51.17, -31.36 61.67 M-29.5 62.57 C-40.72 52.75, -45.08 47.6, -52.78 43.02 M-30.04 61 C-37.14 56.37, -44.13 49.87, -52.72 41.23 M-52.85 40.53 C-24.86 41.09, -1.12 39.83, 27.91 39.11 M-51.96 41.83 C-29.64 41.81, -9.38 41.96, 27.49 41.04 M26.34 40.81 C14.73 35.35, 7.45 29.12, -4.76 24.92 M26.63 39.71 C16.41 34.4, 4.36 28.01, -3.22 25.08 M-3.45 24.57 C-2.51 20.4, -1.62 11.88, -0.23 -0.38 M-3.08 24.32 C-3.48 19.07, -2.84 12.11, -0.32 -0.95 M0 0 C0 0, 0 0, 0 0 M0 0 C0 0, 0 0, 0 0" stroke="#000000" stroke-width="1" fill="none"></path></g></g><mask></mask><g transform="translate(1138.5457797081745 484.19338774830976) rotate(0 59 10)"><text x="59" y="14" font-family="Virgil, Segoe UI Emoji" font-size="15.915948871184709px" fill="#000000" text-anchor="middle" style="white-space: pre;" direction="ltr">Technical Devs</text></g><g transform="translate(29.905171755750416 385.8975780350852) rotate(0 32.5 10)"><text x="32.5" y="14" font-family="Virgil, Segoe UI Emoji" font-size="15.915948871184709px" fill="#000000" text-anchor="middle" style="white-space: pre;" direction="ltr">No Code</text></g><g transform="translate(1158.126243015653 376.6159704475758) rotate(0 19 10)"><text x="19" y="14" font-family="Virgil, Segoe UI Emoji" font-size="15.915948871184707px" fill="#000000" text-anchor="middle" style="white-space: pre;" direction="ltr">Code</text></g><g transform="translate(550.5178430612486 285.76046371577513) rotate(0 68 45.5)"><text x="68" y="32.5" font-family="Virgil, Segoe UI Emoji" font-size="36px" fill="#000000" text-anchor="middle" style="white-space: pre;" direction="ltr">Process</text><text x="68" y="78" font-family="Virgil, Segoe UI Emoji" font-size="36px" fill="#000000" text-anchor="middle" style="white-space: pre;" direction="ltr">Factory</text></g><g stroke-linecap="round"><g transform="translate(1074.5178430612486 371.76046371577513) rotate(0 -143.21571981696434 -35.92981278212483)"><path d="M-1.03 -0.73 C-23.05 -12.39, -84.65 -61.92, -132.29 -71.1 C-179.93 -80.29, -260.91 -58.64, -286.88 -55.83 M0.63 1.5 C-21.56 -9.95, -85.44 -60.74, -133.39 -70.15 C-181.34 -79.55, -261.3 -57.23, -287.06 -54.94" stroke="#000000" stroke-width="2" fill="none"></path></g><g transform="translate(1074.5178430612486 371.76046371577513) rotate(0 -143.21571981696434 -35.92981278212483)"><path d="M-262.22 -70.29 C-270.46 -63.91, -277.46 -61.71, -285.79 -53.02 M-261.95 -69.41 C-270.65 -64.43, -279.74 -59.07, -286.68 -55.23" stroke="#000000" stroke-width="2" fill="none"></path></g><g transform="translate(1074.5178430612486 371.76046371577513) rotate(0 -143.21571981696434 -35.92981278212483)"><path d="M-258.76 -50.06 C-267.79 -49.51, -275.79 -53.11, -285.79 -53.02 M-258.49 -49.18 C-268.26 -51.09, -278.52 -52.59, -286.68 -55.23" stroke="#000000" stroke-width="2" fill="none"></path></g></g><mask></mask><g stroke-linecap="round"><g transform="translate(181.51784306124864 376.76046371577513) rotate(0 138.37509411366682 -34.44438769929229)"><path d="M0.98 0.3 C20.65 -11.17, 73.28 -61.08, 118.82 -68.09 C164.37 -75.11, 248.27 -46.48, 274.23 -41.77 M0.03 -0.58 C19.98 -11.92, 74.8 -59.89, 120.92 -66.6 C167.03 -73.32, 251.11 -44.99, 276.72 -40.86" stroke="#000000" stroke-width="2" fill="none"></path></g><g transform="translate(181.51784306124864 376.76046371577513) rotate(0 138.37509411366682 -34.44438769929229)"><path d="M247.42 -39.39 C257.62 -40.2, 267.36 -40.89, 278.59 -40 M247.61 -37.61 C253.66 -38.87, 259.53 -38.32, 276.62 -41.11" stroke="#000000" stroke-width="2" fill="none"></path></g><g transform="translate(181.51784306124864 376.76046371577513) rotate(0 138.37509411366682 -34.44438769929229)"><path d="M252.19 -59.35 C260.76 -52.84, 268.77 -46.24, 278.59 -40 M252.38 -57.57 C257.22 -54.59, 262.07 -49.75, 276.62 -41.11" stroke="#000000" stroke-width="2" fill="none"></path></g></g><mask></mask><g transform="translate(898.0178430612486 234.76046371577513) rotate(0 60.5 25.5)"><text x="60.5" y="17.5" font-family="Virgil, Segoe UI Emoji" font-size="20px" fill="#000000" text-anchor="middle" style="white-space: pre;" direction="ltr">Integrations</text><text x="60.5" y="43" font-family="Virgil, Segoe UI Emoji" font-size="20px" fill="#000000" text-anchor="middle" style="white-space: pre;" direction="ltr">Services</text></g><g transform="translate(206.51784306124864 249.76046371577513) rotate(0 94 25.5)"><text x="94" y="17.5" font-family="Virgil, Segoe UI Emoji" font-size="20px" fill="#000000" text-anchor="middle" style="white-space: pre;" direction="ltr">Forms</text><text x="94" y="43" font-family="Virgil, Segoe UI Emoji" font-size="20px" fill="#000000" text-anchor="middle" style="white-space: pre;" direction="ltr">Business Knowledge</text></g><g stroke-linecap="round" transform="translate(486.31864149418107 712.5009026724656) rotate(0 141.5134375817188 112.0515956278457)"><path d="M-1.97 -0.52 L284.82 -1.93 L283.69 224.11 L-0.55 223.96" stroke="none" stroke-width="0" fill="#ffffff"></path><path d="M0.47 0.28 C60.38 -1.56, 120.49 -0.26, 283.35 -0.15 M0.47 -0.68 C86.12 1.07, 170.67 1.71, 282.86 0.28 M282.15 1.64 C283.11 51.52, 280.98 104.9, 281.34 222.94 M282.5 0.22 C282.59 47.48, 283.81 95.87, 282.61 223.82 M283.75 224.42 C207.4 220.67, 129.48 221.57, 1.46 224.04 M283.67 224.48 C198.55 224.56, 113.53 223.72, -0.52 224.17 M-0.07 223.76 C1.5 154.12, 1.52 85.28, -0.08 0.34 M0.34 224.22 C1.65 139.69, 1.33 56.24, 0.86 0.4" stroke="#000000" stroke-width="1" fill="none"></path></g><g transform="translate(546.8320790759008 804.5524983003111) rotate(0 81 20)"><text x="81" y="14" font-family="Virgil, Segoe UI Emoji" font-size="16px" fill="#000000" text-anchor="middle" style="white-space: pre;" direction="ltr">Workflow Design</text><text x="81" y="34" font-family="Virgil, Segoe UI Emoji" font-size="16px" fill="#000000" text-anchor="middle" style="white-space: pre;" direction="ltr">(BPMN, DMN, Script)</text></g><g stroke-linecap="round" transform="translate(812.8138080649733 712.5009026724656) rotate(0 142 112.0515956278457)"><path d="M0.34 -1.41 L284.76 0.61 L284.21 222.52 L-0.26 224.25" stroke="none" stroke-width="0" fill="#ffffff"></path><path d="M-0.54 0.8 C73.56 -1.92, 149.8 -2.68, 285.12 0.49 M0.49 -0.08 C62.93 -0.98, 124.09 -0.12, 284.59 -0.45 M283.66 1.21 C282.78 63.29, 282.52 127.55, 285.63 223.19 M284.22 -0.03 C281.75 83.92, 283.16 168.63, 284.44 223.54 M284.19 223.28 C215.77 222.27, 145.99 222.67, 0.22 222.98 M283.8 223.65 C184.45 225.2, 83.97 225.05, 0.1 223.88 M-1.33 225.41 C-2.18 177.39, -1.19 130.72, -0.34 0.51 M0.85 224 C-1.1 153.54, -1.17 83.02, 0.66 0.58" stroke="#000000" stroke-width="1" fill="none"></path></g><g transform="translate(831.8138080649733 794.5524983003111) rotate(0 123 30)"><text x="123" y="14" font-family="Virgil, Segoe UI Emoji" font-size="16px" fill="#000000" text-anchor="middle" style="white-space: pre;" direction="ltr">Coding</text><text x="123" y="34" font-family="Virgil, Segoe UI Emoji" font-size="16px" fill="#000000" text-anchor="middle" style="white-space: pre;" direction="ltr">(Connectors, Services, Element </text><text x="123" y="54" font-family="Virgil, Segoe UI Emoji" font-size="16px" fill="#000000" text-anchor="middle" style="white-space: pre;" direction="ltr">Templates)</text></g><g stroke-linecap="round"><g transform="translate(624.9341929820766 228.55392500392463) rotate(0 -1.4272935756389415 -41.990380168810816)"><path d="M0.07 0.87 C-0.19 -13.14, -1.46 -68.97, -1.96 -83.18 M-1.35 0.29 C-1.73 -14.14, -3.05 -70.93, -2.92 -84.86" stroke="#000000" stroke-width="1" fill="none"></path></g><g transform="translate(624.9341929820766 228.55392500392463) rotate(0 -1.4272935756389415 -41.990380168810816)"><path d="M9.07 -56.79 C6.02 -65.88, 1.2 -71.32, -2.46 -85.08 M7.7 -57.3 C3.05 -65.67, -0.14 -76.21, -2.22 -84.62" stroke="#000000" stroke-width="1" fill="none"></path></g><g transform="translate(624.9341929820766 228.55392500392463) rotate(0 -1.4272935756389415 -41.990380168810816)"><path d="M-11.45 -56.6 C-9.04 -65.75, -8.41 -71.24, -2.46 -85.08 M-12.82 -57.11 C-10.45 -65.34, -6.62 -75.95, -2.22 -84.62" stroke="#000000" stroke-width="1" fill="none"></path></g></g><mask></mask><g stroke-linecap="round" transform="translate(165.7193956388419 10) rotate(0 479.5 64)"><path d="M-0.93 -0.16 L958.84 0.7 L960.29 129.36 L-1.23 128.2" stroke="none" stroke-width="0" fill="#fff"></path><path d="M0.22 0.63 C360.8 -1.99, 719.62 -0.72, 959.37 0.64 M0.25 -0.12 C252.53 -3.13, 505.81 -2.86, 958.99 0.02 M957.32 -1.86 C957.15 48.14, 957.37 93.05, 957.43 127.61 M958.53 0.78 C957.77 37.72, 958.88 77.33, 958.64 128.19 M959.28 127.97 C731.67 125.94, 505.5 126.8, -0.04 128.78 M959.39 127.95 C705.4 124.55, 452.46 123.96, -0.05 128.32 M0.62 129.61 C-1.11 77.88, -1.1 29.68, -1 -1.58 M-0.51 128.54 C-0.58 99.1, -0.38 68.87, 0.38 -0.47" stroke="#000000" stroke-width="2" fill="none"></path></g><g transform="translate(480.7193956388419 61.5) rotate(0 164.5 13)"><text x="164.5" y="18" font-family="Virgil, Segoe UI Emoji" font-size="20px" fill="#000000" text-anchor="middle" style="white-space: pre;" direction="ltr">Integrated End 2 End Processes</text></g><g stroke-linecap="round" transform="translate(152.57938001982802 540.1585576919933) rotate(0 479.5 64)"><path d="M1.34 1.03 L960.94 0.7 L960.89 127.91 L-1.45 128.57" stroke="none" stroke-width="0" fill="#fff"></path><path d="M-0.49 0.33 C273.96 -1.51, 548.99 -1.04, 958.84 0.71 M0.09 0.2 C210.58 2.29, 420.94 1.93, 959.29 -0.33 M957.8 1.01 C961.9 41.86, 958.42 83.63, 960.37 127.36 M958.71 -0.09 C958.8 46.97, 959.23 94.2, 958.74 127.08 M959.15 127.24 C594.15 124.83, 229.06 124.84, 0.59 128.6 M959.23 127.82 C663.46 131.64, 368.2 131.31, 0.02 128.02 M1.79 128.62 C-1.25 98.51, -2.15 74.16, 0.09 1.76 M0.15 127.82 C0.83 78.05, 0.57 27.73, 0.05 -0.84" stroke="#000000" stroke-width="2" fill="none"></path></g><g transform="translate(498.079380019828 591.6585576919933) rotate(0 134 13)"><text x="134" y="18" font-family="Virgil, Segoe UI Emoji" font-size="20px" fill="#000000" text-anchor="middle" style="white-space: pre;" direction="ltr">One Collaboration Platform</text></g><g stroke-linecap="round" transform="translate(179.14271554888 712.5009026724656) rotate(0 141.5134375817188 112.0515956278457)"><path d="M-0.74 0.43 L283.6 1.38 L282.24 223.43 L-0.19 225" stroke="none" stroke-width="0" fill="#ffffff"></path><path d="M1.38 -0.01 C100.67 1.33, 203.36 1.51, 284.47 1.35 M0.13 0.54 C70.97 -2.33, 141.43 -2.51, 282.66 0.1 M282.94 -1.12 C283.42 60.07, 282.62 121.87, 283.7 225.27 M283.02 0.41 C284.64 75.4, 284.06 152.11, 282.2 224.9 M284.46 223.83 C219.52 223.7, 151.92 223.12, 0.22 224.66 M282.6 223.57 C174.71 224.4, 64.95 224.46, -0.75 224.14 M1.53 223.86 C0.17 145.19, -0.07 63.64, -1.49 -0.97 M-0.66 224.45 C-0.42 134.98, -0.31 45.47, 0.68 0.28" stroke="#000000" stroke-width="1" fill="none"></path></g><g transform="translate(248.6561531305979 804.5524983003106) rotate(0 72 20)"><text x="72" y="14" font-family="Virgil, Segoe UI Emoji" font-size="16px" fill="#000000" text-anchor="middle" style="white-space: pre;" direction="ltr">Template Design</text><text x="72" y="34" font-family="Virgil, Segoe UI Emoji" font-size="16px" fill="#000000" text-anchor="middle" style="white-space: pre;" direction="ltr">(Forms, Mail, PDF)</text></g></svg>